<?xml version="1.0" encoding="iso-8859-1"?>
<!-- Generator: Adobe Illustrator 22.0.1, SVG Export Plug-In . SVG Version: 6.00 Build 0)  -->
<svg version="1.1" id="Layer_1" xmlns="http://www.w3.org/2000/svg" xmlns:xlink="http://www.w3.org/1999/xlink" x="0px" y="0px"
	 viewBox="0 0 64 64" style="enable-background:new 0 0 64 64;" xml:space="preserve">
<style type="text/css">
	.st0{fill:#F8F3F3;}
	.st1{fill:#63312D;}
	.st2{fill:#E1DDDD;}
	.st3{fill:#84DBFF;}
	.st4{fill:#CAF4FF;}
	.st5{fill:#52BADB;}
	.st6{fill:#F9DD9D;}
	.st7{fill:#FFEECF;}
	.st8{fill:#EFC36A;}
	.st9{fill:#F7A085;}
	.st10{fill:#82D9FF;}
	.st11{fill:#F7DB9B;}
	.st12{fill:#F9A287;}
	.st13{fill:#FFC8BB;}
	.st14{fill:#52B8D9;}
	.st15{fill:#DB785A;}
	.st16{fill:#EDCB85;}
	.st17{fill:#DBAB56;}
	.st18{fill:#D3A553;}
	.st19{fill:#FFFFFF;}
</style>
<g>
	<path class="st1" d="M10.052,16.865h-1v-2h1V16.865z M54.854,15.791h-1v-2h1V15.791z M10.052,12.865h-1v-2h1V12.865z
		 M54.854,11.791h-1v-2h1V11.791z M10.052,8.865h-1v-2h1V8.865z M54.854,7.791h-1v-2h1V7.791z M52.416,6.229h-2v-1h2V6.229z
		 M48.416,6.229h-2v-1h2V6.229z M44.416,6.229h-2v-1h2V6.229z M40.416,6.229h-2v-1h2V6.229z M36.416,6.229h-2v-1h2V6.229z
		 M32.416,6.229h-2v-1h2V6.229z M28.416,6.229h-2v-1h2V6.229z M24.416,6.229h-2v-1h2V6.229z M20.416,6.229h-2v-1h2V6.229z
		 M16.416,6.229h-2v-1h2V6.229z M12.416,6.229h-2v-1h2V6.229z"/>
	<path class="st1" d="M52.541,57.781h-2v-1h2V57.781z M48.541,57.781h-2v-1h2V57.781z M44.541,57.781h-2v-1h2V57.781z
		 M40.541,57.781h-2v-1h2V57.781z M36.541,57.781h-2v-1h2V57.781z M32.541,57.781h-2v-1h2V57.781z M28.541,57.781h-2v-1h2V57.781z
		 M24.541,57.781h-2v-1h2V57.781z M20.541,57.781h-2v-1h2V57.781z M16.541,57.781h-2v-1h2V57.781z M12.541,57.781h-2v-1h2V57.781z
		 M54.979,57.219h-1v-2h1V57.219z M10.177,56.146h-1v-2h1V56.146z M54.979,53.219h-1v-2h1V53.219z M10.177,52.146h-1v-2h1V52.146z
		 M54.979,49.219h-1v-2h1V49.219z M10.177,48.146h-1v-2h1V48.146z"/>
	<rect x="9.636" y="19.794" class="st0" width="44.826" height="23.455"/>
	<path class="st1" d="M54.462,43.75H9.636c-0.276,0-0.5-0.224-0.5-0.5V19.794c0-0.276,0.224-0.5,0.5-0.5h44.826
		c0.276,0,0.5,0.224,0.5,0.5V43.25C54.962,43.526,54.738,43.75,54.462,43.75z M10.136,42.75h43.826V20.294H10.136V42.75z"/>
	<polygon class="st11" points="54.45,43.248 54.452,43.247 54.449,43.247 32.044,29.186 32.044,29.184 9.636,43.247 9.632,43.247 
		9.634,43.248 9.632,43.249 9.636,43.249 32.044,57.313 32.044,57.31 54.449,43.249 54.452,43.249 	"/>
	<polygon class="st7" points="13.469,43.249 13.465,43.249 13.467,43.248 13.465,43.247 13.469,43.247 33.958,30.388 32.044,29.186 
		32.044,29.184 9.636,43.247 9.632,43.247 9.634,43.248 9.632,43.249 9.636,43.249 32.044,57.313 32.044,57.31 33.958,56.108 	"/>
	<path class="st1" d="M32.042,57.812c-0.092,0-0.184-0.025-0.264-0.076L9.386,43.683c-0.103-0.059-0.184-0.153-0.225-0.269
		c-0.036-0.102-0.039-0.216-0.003-0.324c0.042-0.126,0.132-0.228,0.244-0.287l22.376-14.042c0.152-0.097,0.348-0.104,0.508-0.014
		c0.021,0.012,0.042,0.025,0.062,0.04l22.35,14.027c0.031,0.017,0.06,0.038,0.086,0.062c0.136,0.12,0.198,0.307,0.155,0.489
		c-0.034,0.147-0.132,0.267-0.261,0.332L32.336,57.717c-0.016,0.011-0.032,0.022-0.05,0.032
		C32.21,57.791,32.126,57.812,32.042,57.812z M10.574,43.249l21.468,13.473L53.51,43.249L32.042,29.775L10.574,43.249z"/>
	<g>
		<polygon class="st11" points="54.45,19.793 54.452,19.792 54.449,19.792 32.044,5.731 32.044,5.729 9.636,19.792 9.632,19.792 
			9.634,19.793 9.632,19.794 9.636,19.794 32.044,33.858 32.044,33.855 54.449,19.794 54.452,19.794 		"/>
	</g>
	<polygon class="st7" points="13.469,19.711 13.465,19.711 13.467,19.71 13.465,19.709 13.469,19.709 33.892,6.891 32.044,5.731 
		32.044,5.729 9.636,19.792 9.632,19.792 9.634,19.793 9.632,19.794 9.636,19.794 32.044,33.857 32.044,33.855 34.025,32.612 	"/>
	<path class="st1" d="M32.044,34.355c-0.092,0-0.185-0.025-0.266-0.077L9.386,20.228c-0.103-0.059-0.184-0.153-0.225-0.269
		c-0.036-0.102-0.039-0.216-0.003-0.324c0.042-0.126,0.132-0.228,0.244-0.287L31.778,5.306c0.152-0.097,0.348-0.104,0.508-0.014
		c0.021,0.012,0.042,0.025,0.062,0.04l22.35,14.027c0.031,0.017,0.06,0.038,0.086,0.062c0.136,0.12,0.198,0.307,0.155,0.489
		c-0.034,0.147-0.132,0.267-0.261,0.332L32.31,34.279C32.229,34.33,32.136,34.355,32.044,34.355z M10.574,19.793l21.47,13.474
		L53.51,19.793L32.042,6.32L10.574,19.793z"/>
	<rect x="31.544" y="33.855" class="st1" width="1" height="23.455"/>
	<circle class="st10" cx="32.073" cy="6.708" r="3.552"/>
	<path class="st4" d="M30.146,6.708c0-1.681,1.171-3.081,2.74-3.45c-0.262-0.062-0.532-0.102-0.813-0.102
		c-1.962,0-3.552,1.59-3.552,3.552c0,1.962,1.59,3.552,3.552,3.552c0.281,0,0.551-0.041,0.813-0.102
		C31.317,9.79,30.146,8.389,30.146,6.708z"/>
	<path class="st1" d="M32.073,10.76c-2.234,0-4.053-1.817-4.053-4.052s1.818-4.052,4.053-4.052s4.052,1.818,4.052,4.052
		S34.308,10.76,32.073,10.76z M32.073,3.656c-1.684,0-3.053,1.369-3.053,3.052c0,1.683,1.369,3.052,3.053,3.052
		c1.683,0,3.052-1.369,3.052-3.052C35.125,5.025,33.756,3.656,32.073,3.656z"/>
	<circle class="st10" cx="32.073" cy="33.708" r="3.552"/>
	<path class="st4" d="M30.146,33.708c0-1.681,1.171-3.081,2.74-3.45c-0.262-0.062-0.532-0.102-0.813-0.102
		c-1.962,0-3.552,1.59-3.552,3.552c0,1.962,1.59,3.552,3.552,3.552c0.281,0,0.551-0.041,0.813-0.102
		C31.317,36.79,30.146,35.389,30.146,33.708z"/>
	<path class="st1" d="M32.073,37.76c-2.234,0-4.053-1.817-4.053-4.052s1.818-4.052,4.053-4.052s4.052,1.818,4.052,4.052
		S34.308,37.76,32.073,37.76z M32.073,30.656c-1.684,0-3.053,1.369-3.053,3.052c0,1.683,1.369,3.052,3.053,3.052
		c1.683,0,3.052-1.369,3.052-3.052C35.125,32.025,33.756,30.656,32.073,30.656z"/>
	<circle class="st10" cx="32.073" cy="57.292" r="3.552"/>
	<path class="st4" d="M30.177,57.292c0-1.675,1.164-3.071,2.724-3.445c-0.267-0.064-0.542-0.107-0.828-0.107
		c-1.962,0-3.552,1.59-3.552,3.552c0,1.962,1.59,3.552,3.552,3.552c0.286,0,0.561-0.043,0.828-0.107
		C31.341,60.362,30.177,58.967,30.177,57.292z"/>
	<path class="st1" d="M32.073,61.344c-2.234,0-4.053-1.818-4.053-4.052s1.818-4.052,4.053-4.052s4.052,1.817,4.052,4.052
		S34.308,61.344,32.073,61.344z M32.073,54.24c-1.684,0-3.053,1.369-3.053,3.052c0,1.683,1.369,3.052,3.053,3.052
		c1.683,0,3.052-1.369,3.052-3.052C35.125,55.609,33.756,54.24,32.073,54.24z"/>
	<circle class="st10" cx="9.698" cy="43.042" r="3.552"/>
	<path class="st4" d="M7.729,43.042c0-1.689,1.181-3.096,2.76-3.456c-0.255-0.058-0.519-0.096-0.792-0.096
		c-1.962,0-3.552,1.59-3.552,3.552c0,1.962,1.59,3.552,3.552,3.552c0.273,0,0.536-0.037,0.792-0.096
		C8.91,46.137,7.729,44.73,7.729,43.042z"/>
	<path class="st1" d="M9.698,47.094c-2.234,0-4.053-1.818-4.053-4.052s1.818-4.052,4.053-4.052s4.052,1.817,4.052,4.052
		S11.933,47.094,9.698,47.094z M9.698,39.99c-1.684,0-3.053,1.369-3.053,3.052c0,1.683,1.369,3.052,3.053,3.052
		c1.683,0,3.052-1.369,3.052-3.052C12.75,41.359,11.381,39.99,9.698,39.99z"/>
	<circle class="st10" cx="54.448" cy="43.042" r="3.552"/>
	<path class="st4" d="M52.604,43.042c0-1.666,1.151-3.053,2.698-3.437c-0.275-0.068-0.558-0.115-0.854-0.115
		c-1.962,0-3.552,1.59-3.552,3.552c0,1.962,1.59,3.552,3.552,3.552c0.296,0,0.579-0.047,0.854-0.115
		C53.755,46.095,52.604,44.707,52.604,43.042z"/>
	<path class="st1" d="M54.448,47.094c-2.234,0-4.053-1.818-4.053-4.052s1.818-4.052,4.053-4.052s4.052,1.817,4.052,4.052
		S56.683,47.094,54.448,47.094z M54.448,39.99c-1.684,0-3.053,1.369-3.053,3.052c0,1.683,1.369,3.052,3.053,3.052
		c1.683,0,3.052-1.369,3.052-3.052C57.5,41.359,56.131,39.99,54.448,39.99z"/>
	<circle class="st10" cx="54.448" cy="19.917" r="3.552"/>
	<path class="st4" d="M52.521,19.917c0-1.681,1.171-3.081,2.74-3.45c-0.262-0.062-0.532-0.102-0.813-0.102
		c-1.962,0-3.552,1.59-3.552,3.552c0,1.962,1.59,3.552,3.552,3.552c0.281,0,0.551-0.041,0.813-0.102
		C53.692,22.998,52.521,21.598,52.521,19.917z"/>
	<path class="st1" d="M54.448,23.969c-2.234,0-4.053-1.818-4.053-4.052s1.818-4.052,4.053-4.052s4.052,1.817,4.052,4.052
		S56.683,23.969,54.448,23.969z M54.448,16.865c-1.684,0-3.053,1.369-3.053,3.052c0,1.683,1.369,3.052,3.053,3.052
		c1.683,0,3.052-1.369,3.052-3.052C57.5,18.234,56.131,16.865,54.448,16.865z"/>
	<circle class="st10" cx="9.552" cy="19.917" r="3.552"/>
	<path class="st4" d="M7.583,19.917c0-1.689,1.181-3.096,2.76-3.456c-0.255-0.058-0.519-0.096-0.792-0.096
		C7.59,16.365,6,17.955,6,19.917c0,1.962,1.59,3.552,3.552,3.552c0.273,0,0.536-0.037,0.792-0.096
		C8.765,23.012,7.583,21.605,7.583,19.917z"/>
	<path class="st1" d="M9.552,23.969c-2.234,0-4.052-1.818-4.052-4.052s1.817-4.052,4.052-4.052s4.053,1.817,4.053,4.052
		S11.786,23.969,9.552,23.969z M9.552,16.865c-1.683,0-3.052,1.369-3.052,3.052c0,1.683,1.369,3.052,3.052,3.052
		c1.684,0,3.053-1.369,3.053-3.052C12.604,18.234,11.235,16.865,9.552,16.865z"/>
</g>
</svg>
