<?xml version="1.0" encoding="iso-8859-1"?>
<!-- Generator: Adobe Illustrator 22.0.1, SVG Export Plug-In . SVG Version: 6.00 Build 0)  -->
<svg version="1.1" id="Layer_1" xmlns="http://www.w3.org/2000/svg" xmlns:xlink="http://www.w3.org/1999/xlink" x="0px" y="0px"
	 viewBox="0 0 64 64" style="enable-background:new 0 0 64 64;" xml:space="preserve">
<style type="text/css">
	.st0{fill:#F8F3F3;}
	.st1{fill:#63312D;}
	.st2{fill:#E1DDDD;}
	.st3{fill:#84DBFF;}
	.st4{fill:#CAF4FF;}
	.st5{fill:#52BADB;}
	.st6{fill:#F9DD9D;}
	.st7{fill:#FFEECF;}
	.st8{fill:#EFC36A;}
	.st9{fill:#F7A085;}
	.st10{fill:#82D9FF;}
	.st11{fill:#F7DB9B;}
	.st12{fill:#F9A287;}
	.st13{fill:#FFC8BB;}
	.st14{fill:#52B8D9;}
	.st15{fill:#DB785A;}
	.st16{fill:#EDCB85;}
	.st17{fill:#DBAB56;}
	.st18{fill:#D3A553;}
	.st19{fill:#FFFFFF;}
</style>
<g>
	<rect x="54.531" y="33.481" class="st1" width="4.184" height="1"/>
	
		<rect x="54.349" y="30.522" transform="matrix(0.9197 -0.3925 0.3925 0.9197 -7.6323 24.7143)" class="st1" width="4.548" height="1"/>
	
		<rect x="56.123" y="34.645" transform="matrix(0.3923 -0.9198 0.9198 0.3923 0.4505 74.5208)" class="st1" width="1" height="4.548"/>
	<rect x="59.438" y="33.481" class="st1" width="1.454" height="1"/>
	<path class="st12" d="M48.4,32.146v3.64l-6.62,4.6H16.57c-1.97,0-3.74-0.89-4.91-2.29v-0.01c-0.13-0.15-0.25-0.3-0.35-0.45
		c-0.09-0.12-0.16-0.24-0.23-0.36c-0.03-0.03-0.05-0.07-0.07-0.12c-0.06-0.08-0.1-0.17-0.14-0.26c-0.08-0.13-0.14-0.26-0.19-0.39
		c-0.02-0.03-0.03-0.05-0.03-0.08c-0.08-0.15-0.13-0.31-0.18-0.47c-0.02-0.05-0.04-0.1-0.05-0.15c-0.04-0.12-0.07-0.25-0.1-0.38
		c-0.02-0.07-0.03-0.14-0.05-0.22c-0.02-0.1-0.04-0.2-0.05-0.3c-0.02-0.12-0.03-0.23-0.04-0.35c-0.02-0.2-0.03-0.39-0.03-0.59
		c0-3.54,2.88-6.41,6.42-6.41h25.21l2.36,1.64L48.4,32.146z"/>
	<path class="st13" d="M44.14,29.196l-1.36-0.02H17.57c-3.54,0-6.42,2.87-6.42,6.42c0,0.89,0.18,1.72,0.51,2.49
		c-0.13-0.15-0.25-0.3-0.35-0.45c-0.09-0.12-0.16-0.24-0.23-0.36c-0.03-0.03-0.05-0.07-0.07-0.12c-0.06-0.08-0.1-0.17-0.14-0.26
		c-0.08-0.13-0.14-0.26-0.19-0.39c-0.02-0.03-0.03-0.05-0.03-0.08c-0.08-0.15-0.13-0.31-0.18-0.47c-0.02-0.05-0.04-0.1-0.05-0.15
		c-0.04-0.12-0.07-0.25-0.1-0.38c-0.02-0.07-0.03-0.14-0.05-0.22c-0.02-0.1-0.04-0.2-0.05-0.3c-0.02-0.12-0.03-0.23-0.04-0.35
		c-0.02-0.2-0.03-0.39-0.03-0.59c0-3.54,2.88-6.41,6.42-6.41h25.21L44.14,29.196z"/>
	<path class="st1" d="M41.775,40.886H16.569c-3.813,0-6.916-3.103-6.916-6.917c0-3.813,3.103-6.916,6.916-6.916h25.206
		c0.102,0,0.201,0.031,0.285,0.089l6.625,4.596c0.135,0.094,0.215,0.247,0.215,0.411v3.642c0,0.164-0.08,0.317-0.215,0.411
		l-6.625,4.596C41.977,40.854,41.877,40.886,41.775,40.886z M16.569,28.053c-3.262,0-5.916,2.654-5.916,5.916
		c0,3.263,2.654,5.917,5.916,5.917h25.05l6.281-4.357V32.41l-6.281-4.357H16.569z"/>
	<rect x="3.108" y="28.511" class="st10" width="3.219" height="10.917"/>
	<polygon class="st4" points="4.624,29.979 6.327,29.979 6.327,28.511 3.108,28.511 3.108,39.427 4.624,39.427 	"/>
	<path class="st1" d="M6.327,39.928H3.108c-0.276,0-0.5-0.224-0.5-0.5V28.511c0-0.276,0.224-0.5,0.5-0.5h3.219
		c0.276,0,0.5,0.224,0.5,0.5v10.917C6.827,39.704,6.604,39.928,6.327,39.928z M3.608,38.928h2.219v-9.917H3.608V38.928z"/>
	<rect x="6.327" y="28.511" class="st14" width="2.146" height="10.917"/>
	<path class="st1" d="M8.473,39.928H6.327c-0.276,0-0.5-0.224-0.5-0.5V28.511c0-0.276,0.224-0.5,0.5-0.5h2.146
		c0.276,0,0.5,0.224,0.5,0.5v10.917C8.973,39.704,8.749,39.928,8.473,39.928z M6.827,38.928h1.146v-9.917H6.827V38.928z"/>
	<polygon class="st6" points="20.053,53.552 12.553,53.552 18.275,40.386 25.775,40.386 	"/>
	<polygon class="st7" points="18.275,40.386 12.553,53.552 14.384,53.552 20.107,40.386 	"/>
	<polygon class="st8" points="25.105,41.927 25.775,40.386 18.275,40.386 17.605,41.927 	"/>
	<path class="st1" d="M20.053,54.053h-7.5c-0.169,0-0.326-0.085-0.418-0.226c-0.093-0.142-0.107-0.319-0.041-0.474l5.723-13.167
		c0.08-0.183,0.26-0.301,0.459-0.301h7.5c0.169,0,0.326,0.085,0.418,0.226c0.093,0.142,0.107,0.319,0.041,0.474l-5.723,13.167
		C20.432,53.935,20.252,54.053,20.053,54.053z M13.315,53.053h6.409l5.288-12.167h-6.409L13.315,53.053z"/>
	<path class="st10" d="M27.615,24.829L27.615,24.829c-2.547,0-4.612-2.065-4.612-4.612v-6.951h9.224v6.951
		C32.227,22.764,30.162,24.829,27.615,24.829z"/>
	<path class="st4" d="M24.649,20.217v-6.951h-1.646v6.951c0,2.547,2.065,4.612,4.612,4.612h0c0.282,0,0.555-0.034,0.823-0.083
		C26.285,24.357,24.649,22.483,24.649,20.217z"/>
	<rect x="23.003" y="13.267" class="st14" width="9.224" height="1.536"/>
	<path class="st1" d="M27.614,25.329c-2.818,0-5.111-2.293-5.111-5.111v-6.951c0-0.276,0.224-0.5,0.5-0.5h9.224
		c0.276,0,0.5,0.224,0.5,0.5v6.951C32.727,23.036,30.434,25.329,27.614,25.329z M23.503,13.767v6.451
		c0,2.267,1.845,4.111,4.111,4.111c2.268,0,4.112-1.845,4.112-4.111v-6.451H23.503z"/>
	<path class="st0" d="M10.044,33.969c0-0.709,0.159-1.389,0.441-2.026H6.383v4.053h4.101C10.203,35.358,10.044,34.678,10.044,33.969
		z"/>
	<path class="st1" d="M10.484,36.495H6.384c-0.276,0-0.5-0.224-0.5-0.5v-4.053c0-0.276,0.224-0.5,0.5-0.5h4.101
		c0.169,0,0.327,0.086,0.419,0.228c0.093,0.142,0.106,0.32,0.038,0.475c-0.264,0.597-0.397,1.21-0.397,1.824
		s0.134,1.228,0.397,1.824c0.068,0.154,0.055,0.333-0.038,0.475C10.812,36.409,10.653,36.495,10.484,36.495z M6.884,35.495h2.885
		c-0.149-0.502-0.225-1.014-0.225-1.526s0.075-1.024,0.225-1.526H6.884V35.495z"/>
	<polygon class="st15" points="45.625,27.552 41.775,27.552 48.4,32.148 48.4,35.79 41.775,40.386 45.625,40.386 52.25,35.79 
		52.25,32.148 	"/>
	<path class="st1" d="M45.625,40.886h-3.85c-0.219,0-0.412-0.142-0.478-0.351c-0.064-0.209,0.013-0.436,0.192-0.561l6.41-4.446
		V32.41l-6.41-4.446c-0.18-0.125-0.257-0.352-0.192-0.561c0.065-0.209,0.259-0.351,0.478-0.351h3.85
		c0.102,0,0.201,0.031,0.285,0.089l6.625,4.596c0.135,0.094,0.215,0.247,0.215,0.411v3.642c0,0.164-0.08,0.317-0.215,0.411
		l-6.625,4.596C45.826,40.854,45.727,40.886,45.625,40.886z M43.373,39.886h2.096l6.281-4.357V32.41l-6.281-4.357h-2.096
		l5.313,3.685c0.135,0.094,0.215,0.247,0.215,0.411v3.642c0,0.164-0.08,0.317-0.215,0.411L43.373,39.886z"/>
	<rect x="48.4" y="31.648" class="st1" width="4.058" height="1"/>
	<rect x="48.4" y="35.094" class="st1" width="4.058" height="1"/>
	<polygon class="st8" points="25.775,40.386 20.053,53.552 22.878,53.552 28.6,40.386 	"/>
	<path class="st1" d="M22.878,54.053h-2.825c-0.169,0-0.326-0.085-0.418-0.226c-0.093-0.142-0.107-0.319-0.041-0.474l5.723-13.167
		c0.08-0.183,0.26-0.301,0.459-0.301h2.825c0.169,0,0.326,0.085,0.418,0.226c0.093,0.142,0.107,0.319,0.041,0.474l-5.723,13.167
		C23.257,53.935,23.077,54.053,22.878,54.053z M20.815,53.053h1.734l5.288-12.167h-1.734L20.815,53.053z"/>
	<rect x="22.313" y="10.448" class="st0" width="10.649" height="2.819"/>
	<path class="st1" d="M32.962,13.767H22.313c-0.276,0-0.5-0.224-0.5-0.5v-2.819c0-0.276,0.224-0.5,0.5-0.5h10.648
		c0.276,0,0.5,0.224,0.5,0.5v2.819C33.462,13.543,33.238,13.767,32.962,13.767z M22.813,12.767h9.648v-1.819h-9.648V12.767z"/>
	<rect x="32.962" y="10.448" class="st2" width="2.366" height="2.819"/>
	<path class="st1" d="M35.327,13.767h-2.365c-0.276,0-0.5-0.224-0.5-0.5v-2.819c0-0.276,0.224-0.5,0.5-0.5h2.365
		c0.276,0,0.5,0.224,0.5,0.5v2.819C35.827,13.543,35.604,13.767,35.327,13.767z M33.462,12.767h1.365v-1.819h-1.365V12.767z"/>
	<path class="st14" d="M32.227,13.267v6.951c0,2.547-2.065,4.612-4.612,4.612h2.382c2.547,0,4.612-2.065,4.612-4.612v-6.951H32.227z
		"/>
	<path class="st1" d="M29.997,25.329h-2.383c-0.276,0-0.5-0.224-0.5-0.5s0.224-0.5,0.5-0.5c2.268,0,4.112-1.845,4.112-4.111v-6.951
		c0-0.276,0.224-0.5,0.5-0.5h2.382c0.276,0,0.5,0.224,0.5,0.5v6.951C35.108,23.036,32.815,25.329,29.997,25.329z M32.727,13.767
		v6.451c0,1.644-0.78,3.109-1.99,4.045c1.916-0.35,3.372-2.03,3.372-4.045v-6.451H32.727z"/>
	<rect x="26.727" y="24.829" class="st0" width="2.018" height="2.723"/>
	<path class="st1" d="M28.744,28.053h-2.018c-0.276,0-0.5-0.224-0.5-0.5v-2.724c0-0.276,0.224-0.5,0.5-0.5h2.018
		c0.276,0,0.5,0.224,0.5,0.5v2.724C29.244,27.829,29.021,28.053,28.744,28.053z M27.227,27.053h1.018v-1.724h-1.018V27.053z"/>
	<rect x="28.744" y="24.829" class="st2" width="2.018" height="2.723"/>
	<path class="st1" d="M30.762,28.053h-2.018c-0.276,0-0.5-0.224-0.5-0.5v-2.724c0-0.276,0.224-0.5,0.5-0.5h2.018
		c0.276,0,0.5,0.224,0.5,0.5v2.724C31.262,27.829,31.038,28.053,30.762,28.053z M29.244,27.053h1.018v-1.724h-1.018V27.053z"/>
	<path class="st1" d="M26.816,46.469h-2.078v-1h2.078c1.886,0,3.629-1.099,4.44-2.8l1.193-2.499l0.902,0.432l-1.193,2.499
		C31.183,45.146,29.086,46.469,26.816,46.469z"/>
	<rect x="18.891" y="27.552" class="st0" width="19.109" height="6.417"/>
	<path class="st1" d="M38,34.469H18.891c-0.276,0-0.5-0.224-0.5-0.5v-6.416c0-0.276,0.224-0.5,0.5-0.5H38c0.276,0,0.5,0.224,0.5,0.5
		v6.416C38.5,34.245,38.276,34.469,38,34.469z M19.391,33.469H37.5v-5.416H19.391V33.469z"/>
	<rect x="50.43" y="33.469" class="st1" width="3.112" height="1"/>
</g>
</svg>
