<?xml version="1.0" encoding="iso-8859-1"?>
<!-- Generator: Adobe Illustrator 22.0.1, SVG Export Plug-In . SVG Version: 6.00 Build 0)  -->
<svg version="1.1" id="Layer_1" xmlns="http://www.w3.org/2000/svg" xmlns:xlink="http://www.w3.org/1999/xlink" x="0px" y="0px"
	 viewBox="0 0 64 64" style="enable-background:new 0 0 64 64;" xml:space="preserve">
<style type="text/css">
	.st0{fill:#F8F3F3;}
	.st1{fill:#63312D;}
	.st2{fill:#E1DDDD;}
	.st3{fill:#84DBFF;}
	.st4{fill:#CAF4FF;}
	.st5{fill:#52BADB;}
	.st6{fill:#F9DD9D;}
	.st7{fill:#FFEECF;}
	.st8{fill:#EFC36A;}
	.st9{fill:#F7A085;}
	.st10{fill:#82D9FF;}
	.st11{fill:#F7DB9B;}
	.st12{fill:#F9A287;}
	.st13{fill:#FFC8BB;}
	.st14{fill:#52B8D9;}
	.st15{fill:#DB785A;}
	.st16{fill:#EDCB85;}
	.st17{fill:#DBAB56;}
	.st18{fill:#D3A553;}
	.st19{fill:#FFFFFF;}
</style>
<g>
	<path class="st1" d="M56.63,31.437h-1c0-13.029-10.6-23.63-23.63-23.63S8.37,18.407,8.37,31.437h-1
		c0-13.581,11.049-24.63,24.63-24.63S56.63,17.855,56.63,31.437z"/>
	<rect x="15.681" y="52.893" class="st9" width="27.819" height="7.999"/>
	<polygon class="st13" points="17.914,55.077 43.5,55.077 43.5,52.893 15.681,52.893 15.681,60.892 17.914,60.892 	"/>
	<path class="st1" d="M43.5,61.392H15.681c-0.276,0-0.5-0.224-0.5-0.5v-7.999c0-0.276,0.224-0.5,0.5-0.5H43.5
		c0.276,0,0.5,0.224,0.5,0.5v7.999C44,61.168,43.776,61.392,43.5,61.392z M16.181,60.392H43v-6.999H16.181V60.392z"/>
	<rect x="43.5" y="52.893" class="st15" width="4.978" height="7.999"/>
	<path class="st1" d="M48.478,61.392H43.5c-0.276,0-0.5-0.224-0.5-0.5v-7.999c0-0.276,0.224-0.5,0.5-0.5h4.978
		c0.276,0,0.5,0.224,0.5,0.5v7.999C48.978,61.168,48.754,61.392,48.478,61.392z M44,60.392h3.978v-6.999H44V60.392z"/>
	<path class="st0" d="M40.912,40.157L29.59,20.083L18.269,40.157c-0.815,1.445-0.81,3.212,0.013,4.653l4.619,8.083h6.689h6.689
		l4.619-8.083C41.722,43.369,41.727,41.602,40.912,40.157z"/>
	<path class="st1" d="M36.28,53.393H22.901c-0.179,0-0.345-0.096-0.434-0.252l-4.619-8.083c-0.905-1.584-0.911-3.556-0.015-5.146
		l11.321-20.075c0.178-0.313,0.693-0.313,0.871,0l11.321,20.074c0,0.001,0,0.001,0,0.001c0.896,1.59,0.891,3.562-0.015,5.146
		l-4.619,8.083C36.625,53.297,36.459,53.393,36.28,53.393z M23.191,52.393H35.99l4.475-7.831c0.732-1.28,0.736-2.874,0.012-4.159
		L29.59,21.101L18.705,40.403c-0.725,1.284-0.72,2.878,0.012,4.158L23.191,52.393z"/>
	<rect x="29.09" y="20.083" class="st1" width="1" height="17.573"/>
	<circle class="st9" cx="29.59" cy="41.682" r="3.655"/>
	<path class="st1" d="M29.59,45.837c-2.291,0-4.155-1.863-4.155-4.154s1.864-4.155,4.155-4.155s4.155,1.864,4.155,4.155
		S31.881,45.837,29.59,45.837z M29.59,38.527c-1.74,0-3.155,1.415-3.155,3.155c0,1.739,1.415,3.154,3.155,3.154
		s3.155-1.415,3.155-3.154C32.745,39.942,31.33,38.527,29.59,38.527z"/>
	<path class="st2" d="M46.471,40.157L35.149,20.083H29.59l11.321,20.074c0.815,1.445,0.81,3.212-0.013,4.653l-4.619,8.083h5.559
		l4.619-8.083C47.281,43.369,47.286,41.602,46.471,40.157z"/>
	<path class="st1" d="M41.839,53.393H36.28c-0.178,0-0.343-0.095-0.433-0.249c-0.089-0.154-0.09-0.345-0.001-0.499l4.619-8.083
		c0.732-1.28,0.736-2.874,0.012-4.159L29.155,20.329c-0.087-0.155-0.086-0.345,0.004-0.498c0.089-0.153,0.254-0.248,0.432-0.248
		h5.559c0.181,0,0.347,0.098,0.436,0.254l11.321,20.074c0,0.001,0,0.001,0,0.001c0.896,1.59,0.891,3.562-0.015,5.146l-4.619,8.083
		C42.184,53.297,42.018,53.393,41.839,53.393z M37.141,52.393h4.408l4.475-7.831c0.732-1.28,0.736-2.874,0.012-4.159v0.001
		l-11.178-19.82h-4.411l10.901,19.328c0.896,1.591,0.891,3.563-0.015,5.146L37.141,52.393z"/>
	<rect x="27.721" y="3.108" class="st10" width="8.558" height="8.558"/>
	<path class="st1" d="M36.279,12.167h-8.559c-0.276,0-0.5-0.224-0.5-0.5V3.108c0-0.276,0.224-0.5,0.5-0.5h8.559
		c0.276,0,0.5,0.224,0.5,0.5v8.559C36.779,11.943,36.556,12.167,36.279,12.167z M28.221,11.167h7.559V3.608h-7.559V11.167z"/>
	<rect x="3.108" y="31.617" class="st10" width="8.558" height="8.558"/>
	<path class="st1" d="M11.667,40.676H3.108c-0.276,0-0.5-0.224-0.5-0.5v-8.559c0-0.276,0.224-0.5,0.5-0.5h8.558
		c0.276,0,0.5,0.224,0.5,0.5v8.559C12.167,40.452,11.943,40.676,11.667,40.676z M3.608,39.676h7.558v-7.559H3.608V39.676z"/>
	<rect x="52.333" y="31.617" class="st10" width="8.558" height="8.558"/>
	<path class="st1" d="M60.892,40.676h-8.558c-0.276,0-0.5-0.224-0.5-0.5v-8.559c0-0.276,0.224-0.5,0.5-0.5h8.558
		c0.276,0,0.5,0.224,0.5,0.5v8.559C61.392,40.452,61.168,40.676,60.892,40.676z M52.833,39.676h7.558v-7.559h-7.558V39.676z"/>
	<circle class="st6" cx="56.415" cy="7.585" r="4.477"/>
	<circle class="st6" cx="7.585" cy="7.585" r="4.477"/>
	<path class="st1" d="M56.415,12.563c-2.744,0-4.977-2.233-4.977-4.978s2.233-4.977,4.977-4.977s4.977,2.232,4.977,4.977
		S59.159,12.563,56.415,12.563z M56.415,3.608c-2.193,0-3.977,1.784-3.977,3.977c0,2.193,1.784,3.978,3.977,3.978
		s3.977-1.784,3.977-3.978C60.392,5.393,58.607,3.608,56.415,3.608z"/>
	<path class="st1" d="M7.585,12.563c-2.744,0-4.977-2.233-4.977-4.978s2.233-4.977,4.977-4.977s4.977,2.232,4.977,4.977
		S10.33,12.563,7.585,12.563z M7.585,3.608c-2.193,0-3.977,1.784-3.977,3.977c0,2.193,1.784,3.978,3.977,3.978
		s3.977-1.784,3.977-3.978C11.563,5.393,9.778,3.608,7.585,3.608z"/>
	<rect x="11.983" y="6.888" class="st1" width="15.738" height="1"/>
	<rect x="36.279" y="6.888" class="st1" width="15.738" height="1"/>
</g>
</svg>
