<?xml version="1.0" encoding="iso-8859-1"?>
<!-- Generator: Adobe Illustrator 22.0.1, SVG Export Plug-In . SVG Version: 6.00 Build 0)  -->
<svg version="1.1" id="Layer_1" xmlns="http://www.w3.org/2000/svg" xmlns:xlink="http://www.w3.org/1999/xlink" x="0px" y="0px"
	 viewBox="0 0 64 64" style="enable-background:new 0 0 64 64;" xml:space="preserve">
<style type="text/css">
	.st0{fill:#F8F3F3;}
	.st1{fill:#63312D;}
	.st2{fill:#E1DDDD;}
	.st3{fill:#84DBFF;}
	.st4{fill:#CAF4FF;}
	.st5{fill:#52BADB;}
	.st6{fill:#F9DD9D;}
	.st7{fill:#FFEECF;}
	.st8{fill:#EFC36A;}
	.st9{fill:#F7A085;}
	.st10{fill:#82D9FF;}
	.st11{fill:#F7DB9B;}
	.st12{fill:#F9A287;}
	.st13{fill:#FFC8BB;}
	.st14{fill:#52B8D9;}
	.st15{fill:#DB785A;}
	.st16{fill:#EDCB85;}
	.st17{fill:#DBAB56;}
	.st18{fill:#D3A553;}
	.st19{fill:#FFFFFF;}
</style>
<g>
	<rect x="3.108" y="11.99" class="st12" width="52.225" height="40.021"/>
	<polygon class="st13" points="5.233,13.99 55.333,13.99 55.333,11.99 3.108,11.99 3.108,52.01 5.233,52.01 	"/>
	
		<rect x="3.665" y="20.507" transform="matrix(6.123234e-17 -1 1 6.123234e-17 -17.3984 46.6016)" class="st0" width="21.874" height="22.987"/>
	
		<rect x="33.035" y="20.638" transform="matrix(6.123234e-17 -1 1 6.123234e-17 11.9716 75.9717)" class="st0" width="21.874" height="22.723"/>
	<path class="st1" d="M55.333,52.51H3.108c-0.276,0-0.5-0.224-0.5-0.5V11.99c0-0.276,0.224-0.5,0.5-0.5h52.225
		c0.276,0,0.5,0.224,0.5,0.5V52.01C55.833,52.287,55.609,52.51,55.333,52.51z M3.608,51.51h51.225V12.49H3.608V51.51z"/>
	
		<rect x="38.102" y="29.221" transform="matrix(6.123234e-17 -1 1 6.123234e-17 26.1125 90.1125)" class="st15" width="40.021" height="5.558"/>
	<path class="st1" d="M60.892,52.51h-5.559c-0.276,0-0.5-0.224-0.5-0.5V11.99c0-0.276,0.224-0.5,0.5-0.5h5.559
		c0.276,0,0.5,0.224,0.5,0.5V52.01C61.392,52.287,61.168,52.51,60.892,52.51z M55.833,51.51h4.559V12.49h-4.559V51.51z"/>
	<g>
		<path class="st1" d="M26.095,43.437H3.372v-1h22.223V21.563H3.372v-1h22.723c0.276,0,0.5,0.224,0.5,0.5v21.874
			C26.595,43.213,26.371,43.437,26.095,43.437z"/>
	</g>
	<g>
		<path class="st1" d="M55.333,43.437H32.61c-0.276,0-0.5-0.224-0.5-0.5V21.063c0-0.276,0.224-0.5,0.5-0.5h22.723v1H33.11v20.874
			h22.223V43.437z"/>
	</g>
	
		<rect x="5.304" y="45.825" transform="matrix(6.123234e-17 -1 1 6.123234e-17 -40.1672 54.8571)" class="st3" width="4.081" height="3.375"/>
	<path class="st1" d="M9.032,50.053H5.657c-0.276,0-0.5-0.224-0.5-0.5v-4.081c0-0.276,0.224-0.5,0.5-0.5h3.375
		c0.276,0,0.5,0.224,0.5,0.5v4.081C9.532,49.829,9.309,50.053,9.032,50.053z M6.157,49.053h2.375v-3.081H6.157V49.053z"/>
	
		<rect x="11.554" y="45.825" transform="matrix(6.123234e-17 -1 1 6.123234e-17 -33.9172 61.1071)" class="st3" width="4.081" height="3.375"/>
	<path class="st1" d="M15.282,50.053h-3.375c-0.276,0-0.5-0.224-0.5-0.5v-4.081c0-0.276,0.224-0.5,0.5-0.5h3.375
		c0.276,0,0.5,0.224,0.5,0.5v4.081C15.782,49.829,15.559,50.053,15.282,50.053z M12.407,49.053h2.375v-3.081h-2.375V49.053z"/>
	
		<rect x="17.804" y="45.825" transform="matrix(6.123234e-17 -1 1 6.123234e-17 -27.6672 67.3571)" class="st3" width="4.081" height="3.375"/>
	<path class="st1" d="M21.532,50.053h-3.375c-0.276,0-0.5-0.224-0.5-0.5v-4.081c0-0.276,0.224-0.5,0.5-0.5h3.375
		c0.276,0,0.5,0.224,0.5,0.5v4.081C22.032,49.829,21.809,50.053,21.532,50.053z M18.657,49.053h2.375v-3.081h-2.375V49.053z"/>
	
		<rect x="24.054" y="45.825" transform="matrix(6.123234e-17 -1 1 6.123234e-17 -21.4172 73.6071)" class="st3" width="4.081" height="3.375"/>
	<path class="st1" d="M27.782,50.053h-3.375c-0.276,0-0.5-0.224-0.5-0.5v-4.081c0-0.276,0.224-0.5,0.5-0.5h3.375
		c0.276,0,0.5,0.224,0.5,0.5v4.081C28.282,49.829,28.059,50.053,27.782,50.053z M24.907,49.053h2.375v-3.081h-2.375V49.053z"/>
	
		<rect x="30.304" y="45.825" transform="matrix(6.123234e-17 -1 1 6.123234e-17 -15.1672 79.8571)" class="st3" width="4.081" height="3.375"/>
	<path class="st1" d="M34.032,50.053h-3.375c-0.276,0-0.5-0.224-0.5-0.5v-4.081c0-0.276,0.224-0.5,0.5-0.5h3.375
		c0.276,0,0.5,0.224,0.5,0.5v4.081C34.532,49.829,34.309,50.053,34.032,50.053z M31.157,49.053h2.375v-3.081h-2.375V49.053z"/>
	
		<rect x="36.554" y="45.825" transform="matrix(6.123234e-17 -1 1 6.123234e-17 -8.9172 86.1071)" class="st3" width="4.081" height="3.375"/>
	<path class="st1" d="M40.282,50.053h-3.375c-0.276,0-0.5-0.224-0.5-0.5v-4.081c0-0.276,0.224-0.5,0.5-0.5h3.375
		c0.276,0,0.5,0.224,0.5,0.5v4.081C40.782,49.829,40.559,50.053,40.282,50.053z M37.407,49.053h2.375v-3.081h-2.375V49.053z"/>
	
		<rect x="42.804" y="45.825" transform="matrix(6.123234e-17 -1 1 6.123234e-17 -2.6672 92.3571)" class="st3" width="4.081" height="3.375"/>
	<path class="st1" d="M46.532,50.053h-3.375c-0.276,0-0.5-0.224-0.5-0.5v-4.081c0-0.276,0.224-0.5,0.5-0.5h3.375
		c0.276,0,0.5,0.224,0.5,0.5v4.081C47.032,49.829,46.809,50.053,46.532,50.053z M43.657,49.053h2.375v-3.081h-2.375V49.053z"/>
	
		<rect x="49.054" y="45.825" transform="matrix(6.123234e-17 -1 1 6.123234e-17 3.5828 98.6071)" class="st3" width="4.081" height="3.375"/>
	<path class="st1" d="M52.782,50.053h-3.375c-0.276,0-0.5-0.224-0.5-0.5v-4.081c0-0.276,0.224-0.5,0.5-0.5h3.375
		c0.276,0,0.5,0.224,0.5,0.5v4.081C53.282,49.829,53.059,50.053,52.782,50.053z M49.907,49.053h2.375v-3.081h-2.375V49.053z"/>
	
		<rect x="5.304" y="14.8" transform="matrix(6.123234e-17 -1 1 6.123234e-17 -9.143 23.8328)" class="st3" width="4.081" height="3.375"/>
	<path class="st1" d="M9.032,19.028H5.657c-0.276,0-0.5-0.224-0.5-0.5v-4.081c0-0.276,0.224-0.5,0.5-0.5h3.375
		c0.276,0,0.5,0.224,0.5,0.5v4.081C9.532,18.805,9.309,19.028,9.032,19.028z M6.157,18.028h2.375v-3.081H6.157V18.028z"/>
	
		<rect x="11.554" y="14.8" transform="matrix(6.123234e-17 -1 1 6.123234e-17 -2.893 30.0828)" class="st3" width="4.081" height="3.375"/>
	<path class="st1" d="M15.282,19.028h-3.375c-0.276,0-0.5-0.224-0.5-0.5v-4.081c0-0.276,0.224-0.5,0.5-0.5h3.375
		c0.276,0,0.5,0.224,0.5,0.5v4.081C15.782,18.805,15.559,19.028,15.282,19.028z M12.407,18.028h2.375v-3.081h-2.375V18.028z"/>
	
		<rect x="17.804" y="14.8" transform="matrix(6.123234e-17 -1 1 6.123234e-17 3.357 36.3328)" class="st3" width="4.081" height="3.375"/>
	<path class="st1" d="M21.532,19.028h-3.375c-0.276,0-0.5-0.224-0.5-0.5v-4.081c0-0.276,0.224-0.5,0.5-0.5h3.375
		c0.276,0,0.5,0.224,0.5,0.5v4.081C22.032,18.805,21.809,19.028,21.532,19.028z M18.657,18.028h2.375v-3.081h-2.375V18.028z"/>
	
		<rect x="24.054" y="14.8" transform="matrix(6.123234e-17 -1 1 6.123234e-17 9.607 42.5828)" class="st3" width="4.081" height="3.375"/>
	<path class="st1" d="M27.782,19.028h-3.375c-0.276,0-0.5-0.224-0.5-0.5v-4.081c0-0.276,0.224-0.5,0.5-0.5h3.375
		c0.276,0,0.5,0.224,0.5,0.5v4.081C28.282,18.805,28.059,19.028,27.782,19.028z M24.907,18.028h2.375v-3.081h-2.375V18.028z"/>
	
		<rect x="30.304" y="14.8" transform="matrix(6.123234e-17 -1 1 6.123234e-17 15.857 48.8328)" class="st3" width="4.081" height="3.375"/>
	<path class="st1" d="M34.032,19.028h-3.375c-0.276,0-0.5-0.224-0.5-0.5v-4.081c0-0.276,0.224-0.5,0.5-0.5h3.375
		c0.276,0,0.5,0.224,0.5,0.5v4.081C34.532,18.805,34.309,19.028,34.032,19.028z M31.157,18.028h2.375v-3.081h-2.375V18.028z"/>
	
		<rect x="36.554" y="14.8" transform="matrix(6.123234e-17 -1 1 6.123234e-17 22.107 55.0828)" class="st3" width="4.081" height="3.375"/>
	<path class="st1" d="M40.282,19.028h-3.375c-0.276,0-0.5-0.224-0.5-0.5v-4.081c0-0.276,0.224-0.5,0.5-0.5h3.375
		c0.276,0,0.5,0.224,0.5,0.5v4.081C40.782,18.805,40.559,19.028,40.282,19.028z M37.407,18.028h2.375v-3.081h-2.375V18.028z"/>
	
		<rect x="42.804" y="14.8" transform="matrix(6.123234e-17 -1 1 6.123234e-17 28.357 61.3328)" class="st3" width="4.081" height="3.375"/>
	<path class="st1" d="M46.532,19.028h-3.375c-0.276,0-0.5-0.224-0.5-0.5v-4.081c0-0.276,0.224-0.5,0.5-0.5h3.375
		c0.276,0,0.5,0.224,0.5,0.5v4.081C47.032,18.805,46.809,19.028,46.532,19.028z M43.657,18.028h2.375v-3.081h-2.375V18.028z"/>
	
		<rect x="49.054" y="14.8" transform="matrix(6.123234e-17 -1 1 6.123234e-17 34.607 67.5828)" class="st3" width="4.081" height="3.375"/>
	<path class="st1" d="M52.782,19.028h-3.375c-0.276,0-0.5-0.224-0.5-0.5v-4.081c0-0.276,0.224-0.5,0.5-0.5h3.375
		c0.276,0,0.5,0.224,0.5,0.5v4.081C53.282,18.805,53.059,19.028,52.782,19.028z M49.907,18.028h2.375v-3.081h-2.375V18.028z"/>
	<path class="st1" d="M6.993,37.589l-0.986-0.16c0.013-0.082,1.412-8.161,9.811-8.42l0.031,1C8.286,30.243,7.043,37.29,6.993,37.589
		z"/>
	<circle class="st11" cx="17.896" cy="29.509" r="2.063"/>
	<path class="st1" d="M17.896,32.072c-1.413,0-2.563-1.149-2.563-2.563s1.149-2.563,2.563-2.563s2.563,1.149,2.563,2.563
		S19.309,32.072,17.896,32.072z M17.896,27.947c-0.861,0-1.563,0.701-1.563,1.563s0.701,1.563,1.563,1.563s1.563-0.701,1.563-1.563
		S18.757,27.947,17.896,27.947z"/>
	<path class="st1" d="M35.556,37.589l-0.986-0.16c0.013-0.082,1.412-8.161,9.811-8.42l0.031,1
		C36.849,30.243,35.605,37.29,35.556,37.589z"/>
	<circle class="st11" cx="49.865" cy="29.509" r="2.063"/>
	<path class="st1" d="M49.864,32.072c-1.413,0-2.563-1.149-2.563-2.563s1.149-2.563,2.563-2.563s2.563,1.149,2.563,2.563
		S51.277,32.072,49.864,32.072z M49.864,27.947c-0.861,0-1.563,0.701-1.563,1.563s0.701,1.563,1.563,1.563s1.563-0.701,1.563-1.563
		S50.726,27.947,49.864,27.947z"/>
	<rect x="45.386" y="29.009" class="st1" width="1.234" height="1"/>
</g>
</svg>
