<?xml version="1.0" encoding="iso-8859-1"?>
<!-- Generator: Adobe Illustrator 22.0.1, SVG Export Plug-In . SVG Version: 6.00 Build 0)  -->
<svg version="1.1" id="Layer_1" xmlns="http://www.w3.org/2000/svg" xmlns:xlink="http://www.w3.org/1999/xlink" x="0px" y="0px"
	 viewBox="0 0 64 64" style="enable-background:new 0 0 64 64;" xml:space="preserve">
<style type="text/css">
	.st0{fill:#F8F3F3;}
	.st1{fill:#63312D;}
	.st2{fill:#E1DDDD;}
	.st3{fill:#84DBFF;}
	.st4{fill:#CAF4FF;}
	.st5{fill:#52BADB;}
	.st6{fill:#F9DD9D;}
	.st7{fill:#FFEECF;}
	.st8{fill:#EFC36A;}
	.st9{fill:#F7A085;}
	.st10{fill:#82D9FF;}
	.st11{fill:#F7DB9B;}
	.st12{fill:#F9A287;}
	.st13{fill:#FFC8BB;}
	.st14{fill:#52B8D9;}
	.st15{fill:#DB785A;}
	.st16{fill:#EDCB85;}
	.st17{fill:#DBAB56;}
	.st18{fill:#D3A553;}
	.st19{fill:#FFFFFF;}
</style>
<g>
	<path class="st0" d="M25.543,58.925L25.543,58.925c1.96-1.96,2.487-4.917,1.368-7.453c-1.957-4.438-1.12-9.81,2.516-13.446
		c3.636-3.636,9.007-4.474,13.445-2.517c2.537,1.119,5.496,0.592,7.457-1.369l0,0c1.94-1.94,2.534-4.881,1.416-7.387
		c-1.43-3.206-3.555-6.176-6.397-8.677c-9.59-8.437-24.319-8.345-33.793,0.222C0.688,28.125,0.371,44.914,10.605,55.147
		c2.225,2.225,4.762,3.941,7.469,5.159C20.604,61.446,23.58,60.888,25.543,58.925z"/>
	<path class="st1" d="M20.786,61.386c-0.99,0-1.985-0.203-2.917-0.623c-2.842-1.28-5.405-3.051-7.617-5.263
		c-5.07-5.069-7.763-11.811-7.583-18.98c0.18-7.165,3.217-13.769,8.552-18.593c9.6-8.681,24.736-8.781,34.458-0.226
		c2.815,2.476,5.009,5.453,6.523,8.849c1.185,2.656,0.575,5.849-1.519,7.943c-2.111,2.109-5.256,2.688-8.012,1.472
		c-4.418-1.944-9.477-0.999-12.89,2.414c-3.414,3.413-4.361,8.474-2.413,12.891c1.215,2.756,0.638,5.899-1.472,8.009
		C24.52,60.655,22.662,61.386,20.786,61.386z M28.579,12.346c-6.017,0-12.03,2.11-16.688,6.323
		c-5.13,4.639-8.05,10.987-8.223,17.876c-0.173,6.894,2.416,13.374,7.29,18.248c2.126,2.126,4.589,3.828,7.32,5.058
		c2.325,1.048,5.1,0.531,6.911-1.279c1.815-1.815,2.312-4.523,1.264-6.897c-2.116-4.799-1.087-10.295,2.621-14.002
		c3.707-3.706,9.204-4.735,14-2.622c2.376,1.049,5.084,0.551,6.901-1.264c1.803-1.804,2.331-4.548,1.313-6.829
		c-1.455-3.264-3.564-6.125-6.27-8.506C40.389,14.379,34.482,12.346,28.579,12.346z"/>
	<g>
		<polygon class="st5" points="28.93,11.83 28.927,11.829 28.927,11.83 		"/>
		<path class="st5" d="M57.92,26.753c-1.43-3.206-3.555-6.176-6.397-8.677c-4.65-4.091-10.507-6.163-16.388-6.244
			c-1.164-0.016-5.051-0.142-6.208-0.003c0.001,0,0.003,0,0.004,0.001c5.891,0.081,11.76,2.149,16.417,6.246
			c2.842,2.501,4.967,5.471,6.397,8.677c1.117,2.505,0.523,5.447-1.416,7.387c-1.301,1.301-3.042,1.955-4.808,1.931l-0.002,0.016
			h6.157c1.772,0.029,3.521-0.641,4.827-1.947C58.443,32.2,59.037,29.258,57.92,26.753z"/>
	</g>
	<path class="st5" d="M41.071,34.882C41.07,34.882,41.07,34.882,41.071,34.882c-1.208-0.317-2.454-0.422-3.693-0.36l0.021-0.021
		c-2.899,0.14-5.757,1.31-7.971,3.524c-3.636,3.636-4.474,9.008-2.516,13.446c1.119,2.536,0.592,5.494-1.368,7.453v0
		c-1.26,1.26-2.938,1.932-4.648,1.957l0.002,0.008h6.124c0,0,0.006-0.008,0.007-0.01c1.724-0.014,3.419-0.685,4.69-1.955v0
		c1.96-1.96,2.487-4.917,1.368-7.453c-1.957-4.438-1.12-9.81,2.516-13.446C37.173,36.455,39.068,35.409,41.071,34.882z"/>
	<g>
		<path class="st1" d="M28.931,12.33h-0.003c-0.276,0-0.5-0.224-0.5-0.5s0.224-0.5,0.5-0.5c0.001,0,0.002,0,0.003,0l0,0
			c0.101,0.001,0.195,0.031,0.273,0.083l0,0c0.135,0.09,0.225,0.243,0.225,0.417C29.429,12.106,29.207,12.33,28.931,12.33z"/>
		<path class="st1" d="M51.792,36.587c-0.042,0-0.082,0-0.124-0.001H45.52c-0.144,0-0.28-0.062-0.375-0.169
			c-0.095-0.107-0.139-0.251-0.121-0.394c0.031-0.252,0.245-0.485,0.505-0.453c1.691-0.015,3.273-0.61,4.447-1.784
			c1.803-1.804,2.331-4.548,1.313-6.829c-1.455-3.264-3.564-6.125-6.27-8.506c-4.395-3.866-10.11-6.04-16.094-6.121
			c-0.03,0-0.061-0.004-0.091-0.01c-0.221-0.042-0.392-0.229-0.406-0.461c-0.016-0.265,0.177-0.495,0.439-0.526
			c0.972-0.119,3.709-0.056,5.346-0.02l0.93,0.019c6.206,0.086,12.141,2.348,16.71,6.369c2.814,2.475,5.009,5.452,6.523,8.848l0,0
			c1.185,2.657,0.574,5.85-1.52,7.944C55.503,35.846,53.709,36.587,51.792,36.587z M49.274,35.586h2.403
			c1.708,0.057,3.284-0.61,4.473-1.8c1.803-1.804,2.331-4.549,1.313-6.829l0,0c-1.456-3.265-3.565-6.126-6.271-8.506
			c-4.208-3.703-9.624-5.854-15.321-6.098c3.622,1.042,6.977,2.857,9.807,5.348c2.815,2.476,5.009,5.453,6.523,8.849
			c1.185,2.656,0.575,5.849-1.519,7.943C50.255,34.92,49.783,35.286,49.274,35.586z"/>
	</g>
	<path class="st1" d="M27.021,61.391h-6.125c-0.245,0-0.453-0.177-0.493-0.418c-0.024-0.144,0.015-0.295,0.108-0.407
		c0.094-0.111,0.23-0.182,0.376-0.184c1.63-0.023,3.158-0.666,4.302-1.811c1.815-1.815,2.312-4.523,1.264-6.897
		c-2.116-4.799-1.087-10.295,2.621-14.002c2.216-2.216,5.164-3.52,8.3-3.67c0.05-0.006,0.099,0.002,0.145,0.014
		c1.289-0.049,2.524,0.081,3.678,0.384c0.22,0.058,0.374,0.256,0.374,0.483s-0.153,0.426-0.373,0.483
		c-1.978,0.52-3.791,1.562-5.242,3.013c-3.414,3.414-4.36,8.474-2.412,12.891c1.215,2.756,0.637,5.899-1.473,8.009
		c-1.316,1.317-3.069,2.062-4.945,2.102C27.092,61.387,27.057,61.391,27.021,61.391z M24.462,60.391h2.467
		c0.031-0.006,0.062-0.01,0.094-0.01c1.647-0.014,3.188-0.656,4.341-1.81c1.815-1.815,2.312-4.523,1.265-6.897
		c-2.116-4.799-1.087-10.294,2.62-14.002c1.108-1.108,2.411-1.997,3.833-2.623c-0.546-0.046-1.106-0.055-1.68-0.027
		c-0.047,0.005-0.095-0.002-0.139-0.013c-2.828,0.176-5.479,1.368-7.481,3.37c-3.414,3.413-4.361,8.474-2.413,12.891
		c1.215,2.756,0.638,5.899-1.472,8.009C25.462,59.713,24.98,60.085,24.462,60.391z"/>
	<circle class="st12" cx="16.636" cy="26.118" r="4.25"/>
	<path class="st1" d="M16.636,30.868c-2.619,0-4.75-2.131-4.75-4.75s2.131-4.75,4.75-4.75s4.75,2.131,4.75,4.75
		S19.255,30.868,16.636,30.868z M16.636,22.368c-2.068,0-3.75,1.683-3.75,3.75s1.682,3.75,3.75,3.75s3.75-1.683,3.75-3.75
		S18.704,22.368,16.636,22.368z"/>
	<circle class="st10" cx="30.286" cy="21.868" r="4.25"/>
	<path class="st1" d="M30.286,26.618c-2.619,0-4.75-2.131-4.75-4.75s2.131-4.75,4.75-4.75s4.75,2.131,4.75,4.75
		S32.905,26.618,30.286,26.618z M30.286,18.118c-2.068,0-3.75,1.683-3.75,3.75s1.682,3.75,3.75,3.75s3.75-1.683,3.75-3.75
		S32.354,18.118,30.286,18.118z"/>
	<circle class="st10" cx="13.489" cy="39.974" r="4.25"/>
	<path class="st1" d="M13.489,44.725c-2.619,0-4.75-2.131-4.75-4.75s2.131-4.75,4.75-4.75s4.75,2.131,4.75,4.75
		S16.108,44.725,13.489,44.725z M13.489,36.225c-2.068,0-3.75,1.683-3.75,3.75s1.682,3.75,3.75,3.75s3.75-1.683,3.75-3.75
		S15.557,36.225,13.489,36.225z"/>
	<circle class="st11" cx="43.004" cy="27.081" r="4.25"/>
	<path class="st1" d="M43.004,31.831c-2.619,0-4.75-2.131-4.75-4.75s2.131-4.75,4.75-4.75s4.75,2.131,4.75,4.75
		S45.624,31.831,43.004,31.831z M43.004,23.331c-2.068,0-3.75,1.683-3.75,3.75s1.682,3.75,3.75,3.75s3.75-1.683,3.75-3.75
		S45.072,23.331,43.004,23.331z"/>
	<circle class="st11" cx="19.535" cy="52.625" r="4.25"/>
	<path class="st1" d="M19.535,57.375c-2.619,0-4.75-2.131-4.75-4.75s2.131-4.75,4.75-4.75s4.75,2.131,4.75,4.75
		S22.154,57.375,19.535,57.375z M19.535,48.875c-2.068,0-3.75,1.683-3.75,3.75s1.682,3.75,3.75,3.75s3.75-1.683,3.75-3.75
		S21.603,48.875,19.535,48.875z"/>
	<path class="st10" d="M48.229,43.976c2.081-2.872,4.738-7.691,7.237-13.334c4.247-9.591,6.429-17.924,4.872-18.613
		c-1.556-0.689-6.261,6.527-10.508,16.118c-2.499,5.643-4.281,10.848-5.009,14.32L48.229,43.976z"/>
	<path class="st1" d="M48.229,44.476c-0.068,0-0.137-0.014-0.203-0.043l-3.408-1.51c-0.216-0.096-0.335-0.329-0.287-0.56
		c0.769-3.666,2.606-8.921,5.042-14.419c2.729-6.164,8.57-17.527,11.167-16.373c2.591,1.147-1.887,13.108-4.617,19.272
		c-2.435,5.5-5.092,10.393-7.289,13.425C48.537,44.402,48.385,44.476,48.229,44.476z M45.396,42.174l2.663,1.18
		c2.111-2.998,4.628-7.672,6.95-12.914c4.844-10.94,5.928-17.599,5.126-17.954c-0.803-0.348-5.004,4.925-9.848,15.863
		C47.966,33.59,46.196,38.595,45.396,42.174z"/>
	<path class="st11" d="M39.361,49.8c0.139,0.787,0.3,1.574,0.288,2.389c-0.024,1.603-0.403,3.214-1.309,4.555
		c-0.05,0.074-0.102,0.147-0.154,0.219c0,0,8.529,0.184,11.062-6.762c1.178-2.661-0.024-5.773-2.684-6.951
		c-2.661-1.178-5.773,0.023-6.951,2.684c-0.288,0.651-0.44,1.358-0.445,2.07C39.164,48.611,39.256,49.206,39.361,49.8z"/>
	<path class="st1" d="M38.216,57.463c-0.025,0-0.039,0-0.042,0c-0.186-0.004-0.355-0.111-0.438-0.278s-0.065-0.366,0.044-0.517
		l0.143-0.203c0.777-1.15,1.2-2.632,1.224-4.283c0.01-0.676-0.107-1.333-0.232-2.028l-0.047-0.267
		c-0.1-0.563-0.206-1.219-0.202-1.887c0.005-0.775,0.173-1.56,0.488-2.269c1.288-2.908,4.703-4.226,7.61-2.939
		c2.909,1.288,4.228,4.702,2.939,7.61C47.184,57.315,38.883,57.463,38.216,57.463z M44.437,43.298c-1.831,0-3.58,1.06-4.368,2.838
		c-0.259,0.585-0.398,1.231-0.402,1.87c-0.003,0.585,0.09,1.164,0.186,1.707l0,0l0.047,0.265c0.127,0.711,0.26,1.446,0.248,2.219
		c-0.023,1.573-0.376,3.019-1.029,4.223c2.211-0.19,7.761-1.189,9.658-6.39c1.077-2.436-0.013-5.258-2.417-6.323
		C45.735,43.43,45.081,43.298,44.437,43.298z"/>
	
		<rect x="49.065" y="33.302" transform="matrix(0.4049 -0.9144 0.9144 0.4049 -3.7899 66.9866)" class="st1" width="1" height="6.206"/>
	<circle class="st11" cx="13.569" cy="13.517" r="10.409"/>
	<path class="st1" d="M13.569,24.426c-6.015,0-10.909-4.894-10.909-10.909c0-6.015,4.894-10.908,10.909-10.908
		s10.909,4.894,10.909,10.908C24.478,19.532,19.584,24.426,13.569,24.426z M13.569,3.608c-5.464,0-9.909,4.444-9.909,9.908
		s4.445,9.909,9.909,9.909s9.909-4.445,9.909-9.909S19.033,3.608,13.569,3.608z"/>
	<circle class="st0" cx="13.569" cy="13.517" r="6.696"/>
	<path class="st1" d="M13.569,20.713c-3.968,0-7.196-3.229-7.196-7.196S9.601,6.32,13.569,6.32s7.196,3.229,7.196,7.196
		S17.537,20.713,13.569,20.713z M13.569,7.32c-3.417,0-6.196,2.779-6.196,6.196s2.78,6.196,6.196,6.196s6.196-2.779,6.196-6.196
		S16.985,7.32,13.569,7.32z"/>
	<path class="st1" d="M16.292,14.017h-2.723c-0.276,0-0.5-0.224-0.5-0.5V9.123h1v3.894h2.223V14.017z"/>
</g>
</svg>
