<?xml version="1.0" encoding="iso-8859-1"?>
<!-- Generator: Adobe Illustrator 22.0.1, SVG Export Plug-In . SVG Version: 6.00 Build 0)  -->
<svg version="1.1" id="Layer_1" xmlns="http://www.w3.org/2000/svg" xmlns:xlink="http://www.w3.org/1999/xlink" x="0px" y="0px"
	 viewBox="0 0 64 64" style="enable-background:new 0 0 64 64;" xml:space="preserve">
<style type="text/css">
	.st0{fill:#F8F3F3;}
	.st1{fill:#63312D;}
	.st2{fill:#E1DDDD;}
	.st3{fill:#84DBFF;}
	.st4{fill:#CAF4FF;}
	.st5{fill:#52BADB;}
	.st6{fill:#F9DD9D;}
	.st7{fill:#FFEECF;}
	.st8{fill:#EFC36A;}
	.st9{fill:#F7A085;}
	.st10{fill:#82D9FF;}
	.st11{fill:#F7DB9B;}
	.st12{fill:#F9A287;}
	.st13{fill:#FFC8BB;}
	.st14{fill:#52B8D9;}
	.st15{fill:#DB785A;}
	.st16{fill:#EDCB85;}
	.st17{fill:#DBAB56;}
	.st18{fill:#D3A553;}
	.st19{fill:#FFFFFF;}
</style>
<g>
	<circle class="st10" cx="29.426" cy="32" r="26.443"/>
	<path class="st4" d="M5.045,32c0-14.258,11.287-25.875,25.412-26.417c-0.342-0.013-0.685-0.026-1.031-0.026
		C14.822,5.557,2.984,17.396,2.984,32c0,14.604,11.839,26.443,26.443,26.443c0.346,0,0.688-0.013,1.031-0.026
		C16.332,57.875,5.045,46.258,5.045,32z"/>
	<rect x="12.325" y="14.899" class="st0" width="34.202" height="34.202"/>
	<path class="st1" d="M44.166,47.308H14.683v-1h28.982V21.625h-5.442v-1h5.942c0.276,0,0.5,0.224,0.5,0.5v25.683
		C44.666,47.084,44.442,47.308,44.166,47.308z"/>
	<path class="st1" d="M18.712,43.906h-4.029c-0.276,0-0.5-0.224-0.5-0.5V17.325c0-0.276,0.224-0.5,0.5-0.5h29.482v1H15.183v25.081
		h3.529V43.906z"/>
	<path class="st1" d="M21.952,44.166h-1v-2.887h-6.268v-1h6.768c0.276,0,0.5,0.224,0.5,0.5V44.166z"/>
	<path class="st1" d="M24.28,46.808h-1v-9.735h-3.743v-1h4.243c0.276,0,0.5,0.224,0.5,0.5V46.808z"/>
	<path class="st1" d="M26.798,33.858H15.072v-1h11.227v-3.551c0-0.276,0.224-0.5,0.5-0.5h6.954v1h-6.454v3.551
		C27.298,33.635,27.075,33.858,26.798,33.858z"/>
	<path class="st1" d="M32.31,42.189h-5.512c-0.276,0-0.5-0.224-0.5-0.5V35.79h1v5.399h4.512V35.79h1v5.899
		C32.81,41.966,32.586,42.189,32.31,42.189z"/>
	<path class="st1" d="M30.054,39.845h-1v-7.439c0-0.276,0.224-0.5,0.5-0.5h6.698v-6.282h1v6.782c0,0.276-0.224,0.5-0.5,0.5h-6.698
		V39.845z"/>
	<path class="st1" d="M44.166,32.905h-4.952c-0.276,0-0.5-0.224-0.5-0.5v-6.782h1v6.282h4.452V32.905z"/>
	<path class="st1" d="M35.487,44.166h-1v-9.09c0-0.276,0.224-0.5,0.5-0.5h9.178v1h-8.678V44.166z"/>
	<path class="st1" d="M38.261,46.807h-1v-8.562c0-0.276,0.224-0.5,0.5-0.5h3.929v1h-3.429V46.807z"/>
	<path class="st1" d="M44.166,44.666H40.27c-0.276,0-0.5-0.224-0.5-0.5v-3.387h1v2.887h3.396V44.666z"/>
	<path class="st1" d="M19.941,31.79h-5.258v-1h4.758v-6.765c0-0.276,0.224-0.5,0.5-0.5h3.971v-3.196h1v3.696
		c0,0.276-0.224,0.5-0.5,0.5h-3.971v6.765C20.441,31.566,20.218,31.79,19.941,31.79z"/>
	<rect x="16.726" y="17.325" class="st1" width="1" height="11.191"/>
	<path class="st1" d="M21.658,22.067h-2.122v-1h1.622v-3.445h1v3.945C22.158,21.844,21.935,22.067,21.658,22.067z"/>
	<path class="st1" d="M24.412,31.79h-1.937v-1h1.437v-3.759c0-0.276,0.224-0.5,0.5-0.5h2.515v-3.655h-2.669v-1h3.169
		c0.276,0,0.5,0.224,0.5,0.5v4.655c0,0.276-0.224,0.5-0.5,0.5h-2.515v3.759C24.912,31.566,24.688,31.79,24.412,31.79z"/>
	<rect x="21.678" y="24.025" class="st1" width="1" height="4.989"/>
	<path class="st1" d="M30.054,27.263h-1v-6.83h-2.782c-0.276,0-0.5-0.224-0.5-0.5v-2.607h1v2.107h2.782c0.276,0,0.5,0.224,0.5,0.5
		V27.263z"/>
	<path class="st1" d="M41.689,23.908h-5.58c-0.276,0-0.5-0.224-0.5-0.5v-6.083h1v5.583h5.08V23.908z"/>
	<path class="st1" d="M36.751,27.763h-3.599c-0.276,0-0.5-0.224-0.5-0.5v-6.434h-1.165v-1h1.665c0.276,0,0.5,0.224,0.5,0.5v6.434
		h3.099V27.763z"/>
	<path class="st1" d="M26.986,46.543h-1v-2.377c0-0.276,0.224-0.5,0.5-0.5h6.666v1h-6.166V46.543z"/>
	<path class="st1" d="M29.426,58.943C14.57,58.943,2.483,46.856,2.483,32S14.57,5.057,29.426,5.057S56.37,17.144,56.37,32
		S44.283,58.943,29.426,58.943z M29.426,6.057C15.121,6.057,3.483,17.694,3.483,32s11.638,25.943,25.943,25.943
		S55.37,46.306,55.37,32S43.731,6.057,29.426,6.057z"/>
	<path class="st14" d="M34.573,5.557h-5.147c14.604,0,26.443,11.839,26.443,26.443c0,14.604-11.839,26.443-26.443,26.443h5.147
		c14.604,0,26.443-11.839,26.443-26.443C61.017,17.396,49.178,5.557,34.573,5.557z"/>
	<path class="st1" d="M34.573,58.943h-5.147c-0.276,0-0.5-0.224-0.5-0.5s0.224-0.5,0.5-0.5C43.731,57.943,55.37,46.306,55.37,32
		S43.731,6.057,29.426,6.057c-0.276,0-0.5-0.224-0.5-0.5s0.224-0.5,0.5-0.5h5.147C49.43,5.057,61.517,17.144,61.517,32
		S49.43,58.943,34.573,58.943z M37.146,6.184C48.252,9.51,56.37,19.825,56.37,32s-8.117,22.49-19.224,25.816
		C50.248,56.521,60.517,45.438,60.517,32S50.248,7.479,37.146,6.184z"/>
</g>
</svg>
