<?xml version="1.0" encoding="iso-8859-1"?>
<!-- Generator: Adobe Illustrator 22.0.1, SVG Export Plug-In . SVG Version: 6.00 Build 0)  -->
<svg version="1.1" id="Layer_1" xmlns="http://www.w3.org/2000/svg" xmlns:xlink="http://www.w3.org/1999/xlink" x="0px" y="0px"
	 viewBox="0 0 64 64" style="enable-background:new 0 0 64 64;" xml:space="preserve">
<style type="text/css">
	.st0{fill:#F8F3F3;}
	.st1{fill:#63312D;}
	.st2{fill:#E1DDDD;}
	.st3{fill:#84DBFF;}
	.st4{fill:#CAF4FF;}
	.st5{fill:#52BADB;}
	.st6{fill:#F9DD9D;}
	.st7{fill:#FFEECF;}
	.st8{fill:#EFC36A;}
	.st9{fill:#F7A085;}
	.st10{fill:#82D9FF;}
	.st11{fill:#F7DB9B;}
	.st12{fill:#F9A287;}
	.st13{fill:#FFC8BB;}
	.st14{fill:#52B8D9;}
	.st15{fill:#DB785A;}
	.st16{fill:#EDCB85;}
	.st17{fill:#DBAB56;}
	.st18{fill:#D3A553;}
	.st19{fill:#FFFFFF;}
</style>
<g>
	<polygon class="st9" points="43.355,8.187 45.75,2.869 48.145,8.187 48.145,40.926 43.355,40.926 	"/>
	<polygon class="st0" points="48.145,8.187 45.75,2.869 43.355,8.187 	"/>
	<path class="st1" d="M48.145,41.427h-4.79c-0.276,0-0.5-0.224-0.5-0.5V8.187c0-0.071,0.015-0.141,0.044-0.206l2.395-5.317
		c0.162-0.358,0.75-0.358,0.912,0l2.395,5.317c0.029,0.065,0.044,0.135,0.044,0.206v32.74
		C48.645,41.203,48.421,41.427,48.145,41.427z M43.855,40.427h3.79V8.294L45.75,4.087l-1.895,4.208V40.427z"/>
	<rect x="43.355" y="7.687" class="st1" width="4.79" height="1"/>
	<rect x="45.25" y="8.066" class="st1" width="1" height="12.589"/>
	<path class="st10" d="M32.715,14.088c-0.499,2.337-0.821,6.03-0.821,10.188c0,7.067,0.93,12.796,2.076,12.796
		c1.147,0,2.076-5.729,2.076-12.796c0-4.158-0.322-7.851-0.821-10.188H32.715z"/>
	<path class="st1" d="M33.971,37.572c-2.504,0-2.576-11.935-2.576-13.296c0-4.064,0.303-7.816,0.832-10.293
		c0.049-0.23,0.253-0.396,0.489-0.396h2.512c0.236,0,0.44,0.165,0.489,0.396c0.528,2.477,0.832,6.229,0.832,10.293
		C36.547,25.637,36.475,37.572,33.971,37.572z M33.124,14.588c-0.464,2.408-0.729,5.904-0.729,9.688
		c0,7.707,1.012,11.741,1.576,12.267c0.564-0.525,1.576-4.559,1.576-12.267c0-3.785-0.265-7.28-0.729-9.688H33.124z"/>
	<path class="st11" d="M36.589,8.081c-0.3-0.447-0.614-0.888-0.829-1.393c-0.423-0.994-0.629-2.09-0.436-3.163
		c0.011-0.059,0.022-0.118,0.035-0.177c0,0-5.304,2.214-4.97,7.184c0,1.961,1.589,3.55,3.55,3.55s3.55-1.589,3.55-3.55
		c0-0.479-0.099-0.957-0.291-1.396C37.035,8.759,36.816,8.418,36.589,8.081z"/>
	<path class="st1" d="M33.939,14.581c-2.233,0-4.05-1.817-4.05-4.05c-0.353-5.233,5.221-7.622,5.278-7.646
		c0.171-0.072,0.37-0.042,0.514,0.078c0.143,0.12,0.208,0.31,0.167,0.492l-0.032,0.158C35.657,4.5,35.797,5.496,36.22,6.492
		c0.173,0.406,0.422,0.774,0.685,1.164l0.099,0.146l0,0c0.229,0.341,0.468,0.709,0.652,1.132c0.218,0.5,0.333,1.051,0.333,1.597
		C37.989,12.764,36.172,14.581,33.939,14.581z M34.754,4.216c-1.396,0.806-4.098,2.824-3.866,6.282
		c0.001,1.715,1.369,3.083,3.051,3.083c1.682,0,3.05-1.368,3.05-3.05c0-0.409-0.086-0.823-0.249-1.197
		c-0.151-0.347-0.363-0.672-0.566-0.975l-0.097-0.144c-0.278-0.412-0.566-0.837-0.777-1.333C34.918,5.985,34.733,5.076,34.754,4.216
		z"/>
	<path class="st6" d="M21.299,3.347l-1.935,3.806v29.688c0,1.415,1.147,2.562,2.562,2.562h0c1.415,0,2.562-1.147,2.562-2.562V7.154
		l-1.935-3.806H21.299z"/>
	
		<rect x="19.365" y="11.27" transform="matrix(-1 -1.224647e-16 1.224647e-16 -1 43.8547 24.5926)" class="st10" width="5.125" height="2.052"/>
	<path class="st1" d="M21.927,39.903c-1.688,0-3.063-1.374-3.063-3.063V7.154c0-0.079,0.019-0.156,0.054-0.227l1.935-3.807
		c0.085-0.168,0.258-0.273,0.446-0.273h1.256c0.188,0,0.36,0.105,0.446,0.273l1.935,3.807c0.036,0.07,0.054,0.148,0.054,0.227
		v29.687C24.99,38.529,23.616,39.903,21.927,39.903z M19.865,7.273v29.567c0,1.138,0.925,2.063,2.063,2.063s2.063-0.925,2.063-2.063
		V7.273l-1.741-3.426h-0.643L19.865,7.273z"/>
	<rect x="19.463" y="12.822" class="st1" width="4.958" height="1"/>
	<rect x="19.463" y="10.77" class="st1" width="4.958" height="1"/>
	<path class="st3" d="M12.124,20.656c-1.288,3.012-1.991,6.316-2.215,9.609l-5.295,8.198c-0.595,0.922,0.066,2.137,1.164,2.137
		h3.055v9.971c0,2.374,1.925,4.299,4.299,4.299h10.772v6.262h17.224c0,0,0-11.042,0-11.058c0-0.175,2.364-1.534,2.573-1.697
		c7.896-6.198,11.388-18.355,7.437-27.72H12.124z"/>
	<path class="st4" d="M10.26,52.4V40.139H8.833V50.57c0,1.414,0.692,2.658,1.746,3.442C10.377,53.513,10.26,52.971,10.26,52.4z"/>
	<path class="st4" d="M6.042,40.293l5.295-8.198c0.224-3.293,0.927-6.597,2.215-9.609h38.252c-0.193-0.62-0.413-1.231-0.666-1.83
		H12.124c-1.288,3.012-1.991,6.316-2.215,9.609l-5.295,8.198c-0.595,0.922,0.066,2.137,1.164,2.137H5.9
		C5.936,40.495,5.978,40.392,6.042,40.293z"/>
	<rect x="23.904" y="54.401" class="st4" width="1.428" height="6.729"/>
	<path class="st1" d="M41.128,61.631H23.904c-0.276,0-0.5-0.224-0.5-0.5v-5.762H13.132c-2.646,0-4.799-2.152-4.799-4.799V41.1H5.778
		c-0.701,0-1.32-0.367-1.655-0.983c-0.335-0.616-0.309-1.335,0.072-1.925l5.225-8.09c0.251-3.501,1.006-6.745,2.245-9.643
		c0.079-0.184,0.26-0.303,0.46-0.303h39.014c0.201,0,0.382,0.121,0.46,0.306c3.973,9.416,0.64,21.849-7.588,28.307
		c-0.07,0.055-0.369,0.24-0.747,0.471c-0.445,0.271-1.311,0.798-1.635,1.039v10.853C41.628,61.407,41.405,61.631,41.128,61.631z
		 M24.404,60.631h16.224V50.072c0-0.354,0.118-0.472,2.115-1.688c0.32-0.195,0.578-0.351,0.653-0.405
		c7.799-6.121,11.015-17.841,7.407-26.824H12.457c-1.134,2.753-1.823,5.827-2.049,9.143c-0.006,0.084-0.033,0.166-0.079,0.237
		l-5.294,8.198c-0.179,0.276-0.191,0.614-0.034,0.903C5.159,39.927,5.449,40.1,5.778,40.1h3.054c0.276,0,0.5,0.224,0.5,0.5v9.971
		c0,2.095,1.705,3.799,3.799,3.799h10.772c0.276,0,0.5,0.224,0.5,0.5V60.631z"/>
	<path class="st5" d="M51.138,20.656c3.951,9.365,0.459,21.522-7.437,27.72c-0.209,0.164-2.573,1.523-2.573,1.697
		c0,0.015,0,11.058,0,11.058h6.836c0,0,0-11.043,0-11.058c0-0.175,2.364-1.534,2.573-1.697c7.896-6.198,11.388-18.355,7.437-27.72
		H51.138z"/>
	<path class="st1" d="M47.964,61.631h-6.836c-0.276,0-0.5-0.224-0.5-0.5V50.072c0-0.355,0.118-0.473,2.116-1.688
		c0.32-0.194,0.577-0.35,0.651-0.404c7.888-6.191,11.087-18.108,7.282-27.129c-0.065-0.154-0.049-0.331,0.044-0.471
		c0.092-0.14,0.249-0.224,0.417-0.224h6.836c0.201,0,0.382,0.121,0.46,0.306c3.973,9.415,0.639,21.849-7.589,28.307
		c-0.07,0.055-0.368,0.239-0.745,0.469c-0.446,0.271-1.313,0.799-1.636,1.04v10.854C48.464,61.407,48.241,61.631,47.964,61.631z
		 M41.628,60.631h5.836V50.072c0-0.355,0.118-0.473,2.116-1.688c0.319-0.194,0.577-0.35,0.651-0.404
		c7.799-6.122,11.016-17.841,7.408-26.824h-5.763c3.529,9.324,0.161,21.313-7.866,27.613c-0.07,0.055-0.368,0.24-0.746,0.47
		c-0.446,0.271-1.313,0.799-1.636,1.039V60.631z"/>
</g>
</svg>
