<?xml version="1.0" encoding="iso-8859-1"?>
<!-- Generator: Adobe Illustrator 22.0.1, SVG Export Plug-In . SVG Version: 6.00 Build 0)  -->
<svg version="1.1" id="Layer_1" xmlns="http://www.w3.org/2000/svg" xmlns:xlink="http://www.w3.org/1999/xlink" x="0px" y="0px"
	 viewBox="0 0 64 64" style="enable-background:new 0 0 64 64;" xml:space="preserve">
<style type="text/css">
	.st0{fill:#F8F3F3;}
	.st1{fill:#63312D;}
	.st2{fill:#E1DDDD;}
	.st3{fill:#84DBFF;}
	.st4{fill:#CAF4FF;}
	.st5{fill:#52BADB;}
	.st6{fill:#F9DD9D;}
	.st7{fill:#FFEECF;}
	.st8{fill:#EFC36A;}
	.st9{fill:#F7A085;}
	.st10{fill:#82D9FF;}
	.st11{fill:#F7DB9B;}
	.st12{fill:#F9A287;}
	.st13{fill:#FFC8BB;}
	.st14{fill:#52B8D9;}
	.st15{fill:#DB785A;}
	.st16{fill:#EDCB85;}
	.st17{fill:#DBAB56;}
	.st18{fill:#D3A553;}
	.st19{fill:#FFFFFF;}
</style>
<g>
	<circle class="st6" cx="23.946" cy="23.946" r="20.837"/>
	<path class="st7" d="M5.404,23.946c0-11.121,8.719-20.18,19.69-20.78c-0.382-0.021-0.76-0.058-1.148-0.058
		c-11.508,0-20.837,9.329-20.837,20.837s9.329,20.837,20.837,20.837c0.387,0,0.766-0.037,1.148-0.058
		C14.123,44.126,5.404,35.067,5.404,23.946z"/>
	<path class="st1" d="M23.946,45.283c-11.766,0-21.337-9.571-21.337-21.337S12.18,2.608,23.946,2.608s21.337,9.572,21.337,21.338
		S35.711,45.283,23.946,45.283z M23.946,3.608c-11.214,0-20.337,9.124-20.337,20.338s9.124,20.337,20.337,20.337
		s20.337-9.123,20.337-20.337S35.16,3.608,23.946,3.608z"/>
	<path class="st1" d="M23.881,42.225c-0.682-0.002-1.372-0.043-2.051-0.12l0.114-0.994c0.643,0.074,1.295,0.112,1.939,0.114
		L23.881,42.225z M25.932,42.118l-0.107-0.994c0.643-0.069,1.288-0.176,1.916-0.317l0.219,0.977
		C27.294,41.932,26.612,42.045,25.932,42.118z M19.806,41.755c-0.667-0.154-1.331-0.349-1.974-0.577l0.335-0.941
		c0.606,0.215,1.234,0.398,1.864,0.544L19.806,41.755z M29.936,41.222l-0.328-0.945c0.613-0.212,1.217-0.461,1.796-0.739
		l0.433,0.902C31.224,40.733,30.584,40.996,29.936,41.222z M15.938,40.382c-0.613-0.299-1.217-0.637-1.793-1.004l0.537-0.844
		c0.545,0.348,1.115,0.666,1.695,0.949L15.938,40.382z M33.636,39.448l-0.531-0.848c0.545-0.341,1.079-0.719,1.586-1.122
		l0.622,0.783C34.776,38.688,34.212,39.087,33.636,39.448z M12.475,38.179c-0.534-0.431-1.046-0.895-1.525-1.378l0.712-0.703
		c0.452,0.458,0.937,0.896,1.441,1.304L12.475,38.179z M36.847,36.896l-0.705-0.709c0.456-0.453,0.892-0.939,1.297-1.445l0.78,0.625
		C37.791,35.901,37.329,36.416,36.847,36.896z M9.59,35.262c-0.422-0.535-0.819-1.101-1.18-1.682l0.849-0.527
		c0.342,0.549,0.718,1.084,1.117,1.59L9.59,35.262z M39.412,33.693l-0.846-0.533c0.346-0.548,0.663-1.119,0.943-1.699l0.9,0.436
		C40.113,32.51,39.777,33.114,39.412,33.693z M7.425,31.779c-0.292-0.616-0.553-1.257-0.775-1.904l0.946-0.324
		c0.209,0.611,0.456,1.217,0.732,1.799L7.425,31.779z M41.199,29.998l-0.944-0.33c0.214-0.613,0.396-1.242,0.539-1.868l0.975,0.223
		C41.617,28.685,41.426,29.35,41.199,29.998z M6.095,27.896c-0.146-0.664-0.257-1.347-0.328-2.027l0.994-0.105
		c0.068,0.645,0.172,1.29,0.311,1.918L6.095,27.896z M42.111,25.997l-0.994-0.111c0.072-0.639,0.108-1.291,0.108-1.939h1
		C42.225,24.632,42.187,25.321,42.111,25.997z M6.667,23.824l-1-0.008c0.005-0.687,0.048-1.377,0.128-2.051l0.993,0.119
		C6.712,22.521,6.672,23.174,6.667,23.824z M41.142,22.246c-0.063-0.643-0.162-1.288-0.296-1.918l0.978-0.209
		c0.143,0.667,0.248,1.351,0.314,2.031L41.142,22.246z M7.125,19.973l-0.974-0.229c0.156-0.664,0.353-1.327,0.583-1.972l0.941,0.338
		C7.458,18.719,7.273,19.346,7.125,19.973z M40.334,18.456c-0.205-0.611-0.447-1.219-0.72-1.805l0.906-0.422
		c0.289,0.62,0.545,1.262,0.762,1.908L40.334,18.456z M8.435,16.321L7.538,15.88c0.301-0.611,0.641-1.214,1.011-1.789L9.39,14.63
		C9.041,15.175,8.719,15.744,8.435,16.321z M38.696,14.941c-0.336-0.55-0.708-1.087-1.104-1.598l0.789-0.613
		c0.42,0.54,0.813,1.108,1.169,1.689L38.696,14.941z M10.529,13.057l-0.775-0.631c0.428-0.527,0.894-1.038,1.382-1.52l0.701,0.713
		C11.375,12.074,10.935,12.559,10.529,13.057z M36.314,11.881c-0.45-0.462-0.932-0.903-1.432-1.313l0.634-0.773
		c0.529,0.434,1.039,0.9,1.514,1.389L36.314,11.881z M13.297,10.338L12.68,9.551c0.536-0.42,1.103-0.815,1.685-1.175l0.526,0.85
		C14.34,9.566,13.804,9.94,13.297,10.338z M33.312,9.424c-0.538-0.349-1.105-0.672-1.688-0.962l0.445-0.895
		c0.616,0.306,1.217,0.648,1.786,1.017L33.312,9.424z M16.597,8.303l-0.426-0.904c0.617-0.29,1.258-0.549,1.905-0.77l0.322,0.947
		C17.786,7.784,17.18,8.028,16.597,8.303z M29.838,7.697c-0.608-0.22-1.234-0.408-1.861-0.558l0.232-0.973
		c0.663,0.158,1.326,0.357,1.969,0.591L29.838,7.697z M20.27,7.06l-0.212-0.977c0.663-0.144,1.345-0.252,2.029-0.321l0.102,0.994
		C21.542,6.822,20.896,6.925,20.27,7.06z M26.067,6.795c-0.645-0.078-1.297-0.12-1.939-0.127l0.01-1
		c0.679,0.007,1.368,0.052,2.049,0.135L26.067,6.795z"/>
	<path class="st8" d="M29.697,3.108h-5.752c11.508,0,20.837,9.329,20.837,20.837s-9.329,20.837-20.837,20.837h5.752
		c11.508,0,20.837-9.329,20.837-20.837S41.206,3.108,29.697,3.108z"/>
	<path class="st1" d="M29.697,45.283h-5.751c-0.276,0-0.5-0.224-0.5-0.5s0.224-0.5,0.5-0.5c11.214,0,20.337-9.123,20.337-20.337
		S35.16,3.608,23.946,3.608c-0.276,0-0.5-0.224-0.5-0.5s0.224-0.5,0.5-0.5h5.751c11.766,0,21.337,9.572,21.337,21.338
		S41.463,45.283,29.697,45.283z M30.451,3.622c8.594,2.758,14.832,10.826,14.832,20.324c0,9.497-6.238,17.565-14.832,20.323
		c10.866-0.398,19.583-9.362,19.583-20.323C50.035,12.984,41.317,4.021,30.451,3.622z"/>
	
		<rect x="34.21" y="13.139" transform="matrix(0.7071 -0.7071 0.7071 0.7071 -16.1918 39.0904)" class="st10" width="9.761" height="51.902"/>
	<path class="st1" d="M53.989,61.392c-0.128,0-0.256-0.049-0.354-0.146l-36.7-36.7c-0.195-0.195-0.195-0.512,0-0.707l6.902-6.902
		c0.195-0.195,0.512-0.195,0.707,0l36.7,36.7c0.195,0.195,0.195,0.512,0,0.707l-6.902,6.902
		C54.245,61.343,54.117,61.392,53.989,61.392z M17.996,24.191l35.993,35.993l6.195-6.195L24.191,17.996L17.996,24.191z"/>
	
		<rect x="24.64" y="29.542" transform="matrix(0.7071 -0.7071 0.7071 0.7071 -12.5668 29.7441)" class="st1" width="9.961" height="1"/>
	
		<rect x="14.586" y="13.63" transform="matrix(0.7071 -0.7071 0.7071 0.7071 -6.5464 15.2092)" class="st1" width="1" height="3.754"/>
	<rect x="19.695" y="10.353" transform="matrix(0.9552 -0.296 0.296 0.9552 -2.715 6.5251)" class="st1" width="1" height="3.753"/>
	
		<rect x="24.365" y="11.212" transform="matrix(0.1835 -0.983 0.983 0.1835 9.9126 35.3583)" class="st1" width="3.753" height="1"/>
	
		<rect x="29.956" y="13.572" transform="matrix(0.6209 -0.7839 0.7839 0.6209 1.0375 30.2889)" class="st1" width="3.754" height="1"/>
	
		<rect x="33.803" y="18.266" transform="matrix(0.9145 -0.4045 0.4045 0.9145 -4.5417 16.0365)" class="st1" width="3.754" height="0.999"/>
	
		<rect x="11.451" y="18.596" transform="matrix(0.2958 -0.9552 0.9552 0.2958 -11.1409 25.8332)" class="st1" width="1" height="3.753"/>
	
		<rect x="9.557" y="26.02" transform="matrix(0.983 -0.1837 0.1837 0.983 -4.6771 2.5516)" class="st1" width="3.754" height="0.999"/>
	
		<rect x="11.916" y="31.612" transform="matrix(0.7848 -0.6198 0.6198 0.7848 -16.9341 15.461)" class="st1" width="3.754" height="1.001"/>
	
		<rect x="16.611" y="35.459" transform="matrix(0.4045 -0.9145 0.9145 0.4045 -21.8761 38.3206)" class="st1" width="3.754" height="0.999"/>
</g>
</svg>
