<?xml version="1.0" encoding="iso-8859-1"?>
<!-- Generator: Adobe Illustrator 22.0.1, SVG Export Plug-In . SVG Version: 6.00 Build 0)  -->
<svg version="1.1" id="Layer_1" xmlns="http://www.w3.org/2000/svg" xmlns:xlink="http://www.w3.org/1999/xlink" x="0px" y="0px"
	 viewBox="0 0 64 64" style="enable-background:new 0 0 64 64;" xml:space="preserve">
<style type="text/css">
	.st0{fill:#F8F3F3;}
	.st1{fill:#63312D;}
	.st2{fill:#E1DDDD;}
	.st3{fill:#84DBFF;}
	.st4{fill:#CAF4FF;}
	.st5{fill:#52BADB;}
	.st6{fill:#F9DD9D;}
	.st7{fill:#FFEECF;}
	.st8{fill:#EFC36A;}
	.st9{fill:#F7A085;}
	.st10{fill:#82D9FF;}
	.st11{fill:#F7DB9B;}
	.st12{fill:#F9A287;}
	.st13{fill:#FFC8BB;}
	.st14{fill:#52B8D9;}
	.st15{fill:#DB785A;}
	.st16{fill:#EDCB85;}
	.st17{fill:#DBAB56;}
	.st18{fill:#D3A553;}
	.st19{fill:#FFFFFF;}
</style>
<g>
	<rect x="3.108" y="3.108" class="st0" width="53.639" height="57.783"/>
	<path class="st1" d="M56.748,61.392H3.108c-0.276,0-0.5-0.224-0.5-0.5V3.108c0-0.276,0.224-0.5,0.5-0.5h53.64
		c0.276,0,0.5,0.224,0.5,0.5v57.783C57.248,61.168,57.024,61.392,56.748,61.392z M3.608,60.392h52.64V3.608H3.608V60.392z"/>
	<path class="st1" d="M52.901,57.248h-2v-1h2V57.248z M48.901,57.248h-2v-1h2V57.248z M44.901,57.248h-2v-1h2V57.248z
		 M40.901,57.248h-2v-1h2V57.248z M36.901,57.248h-2v-1h2V57.248z M32.901,57.248h-2v-1h2V57.248z M28.901,57.248h-2v-1h2V57.248z
		 M24.901,57.248h-2v-1h2V57.248z M20.901,57.248h-2v-1h2V57.248z M16.901,57.248h-2v-1h2V57.248z M12.901,57.248h-2v-1h2V57.248z
		 M8.901,57.248H6.955c-0.276,0-0.5-0.224-0.5-0.5l0.5-0.026v-0.474h1.946V57.248z M53.401,55.863h-1v-2h1V55.863z M7.455,54.694h-1
		v-2h1V54.694z M53.401,51.863h-1v-2h1V51.863z M7.455,50.694h-1v-2h1V50.694z M53.401,47.863h-1v-2h1V47.863z M7.455,46.694h-1v-2
		h1V46.694z M53.401,43.863h-1v-2h1V43.863z M7.455,42.694h-1v-2h1V42.694z M53.401,39.863h-1v-2h1V39.863z M7.455,38.694h-1v-2h1
		V38.694z M53.401,35.863h-1v-2h1V35.863z M7.455,34.694h-1v-2h1V34.694z M53.401,31.863h-1v-2h1V31.863z M7.455,30.694h-1v-2h1
		V30.694z M53.401,27.863h-1v-2h1V27.863z M7.455,26.694h-1v-2h1V26.694z M53.401,23.863h-1v-2h1V23.863z M7.455,22.694h-1v-2h1
		V22.694z M53.401,19.863h-1v-2h1V19.863z M7.455,18.694h-1v-2h1V18.694z M53.401,15.863h-1v-2h1V15.863z M7.455,14.694h-1v-2h1
		V14.694z M53.401,11.863h-1v-2h1V11.863z M7.455,10.694h-1v-2h1V10.694z M53.401,7.863h-1V7.752h-0.889v-1h1.389
		c0.276,0,0.5,0.224,0.5,0.5V7.863z M49.513,7.752h-2v-1h2V7.752z M45.513,7.752h-2v-1h2V7.752z M41.513,7.752h-2v-1h2V7.752z
		 M37.513,7.752h-2v-1h2V7.752z M33.513,7.752h-2v-1h2V7.752z M29.513,7.752h-2v-1h2V7.752z M25.513,7.752h-2v-1h2V7.752z
		 M21.513,7.752h-2v-1h2V7.752z M17.513,7.752h-2v-1h2V7.752z M13.513,7.752h-2v-1h2V7.752z M9.513,7.752h-2v-1h2V7.752z"/>
	<rect x="56.748" y="3.108" class="st14" width="4.144" height="57.783"/>
	<path class="st1" d="M60.892,61.392h-4.144c-0.276,0-0.5-0.224-0.5-0.5V3.108c0-0.276,0.224-0.5,0.5-0.5h4.144
		c0.276,0,0.5,0.224,0.5,0.5v57.783C61.392,61.168,61.168,61.392,60.892,61.392z M57.248,60.392h3.144V3.608h-3.144V60.392z"/>
	<path class="st6" d="M29.928,29.142c2.04-1.664,4.643-2.665,7.481-2.665c1.488,0,2.906,0.286,4.218,0.787
		c0.086-0.577,0.146-1.164,0.146-1.765c0-6.541-5.303-11.844-11.844-11.844S18.084,18.958,18.084,25.5
		c0,0.601,0.059,1.188,0.146,1.765c1.312-0.501,2.73-0.787,4.218-0.787C25.285,26.478,27.888,27.478,29.928,29.142z"/>
	<path class="st9" d="M25.564,38.322c0-0.602,0.059-1.188,0.146-1.765c-3.925-1.499-6.84-5.018-7.481-9.292
		c-4.456,1.701-7.626,6.004-7.626,11.057c0,6.541,5.303,11.844,11.844,11.844c2.838,0,5.441-1,7.48-2.665
		C27.266,45.329,25.564,42.025,25.564,38.322z"/>
	<path class="st8" d="M25.71,36.557c0.446-2.978,1.988-5.595,4.218-7.415c-2.04-1.664-4.643-2.665-7.48-2.665
		c-1.488,0-2.906,0.286-4.218,0.787C18.87,31.538,21.785,35.058,25.71,36.557z"/>
	<path class="st10" d="M41.627,27.265c-0.64,4.274-3.555,7.793-7.48,9.292c0.086,0.577,0.146,1.164,0.146,1.765
		c0,3.704-1.702,7.008-4.364,9.18c2.04,1.664,4.643,2.665,7.481,2.665c6.541,0,11.844-5.303,11.844-11.844
		C49.253,33.268,46.082,28.966,41.627,27.265z"/>
	<path class="st14" d="M29.928,29.142c2.23,1.819,3.772,4.437,4.218,7.415c3.925-1.499,6.84-5.018,7.48-9.292
		c-1.312-0.501-2.73-0.787-4.218-0.787C34.571,26.478,31.968,27.478,29.928,29.142z"/>
	<path class="st15" d="M34.292,38.322c0-0.602-0.059-1.188-0.146-1.765c-1.312,0.501-2.73,0.787-4.218,0.787
		s-2.906-0.286-4.218-0.787c-0.086,0.577-0.146,1.164-0.146,1.765c0,3.704,1.702,7.008,4.364,9.18
		C32.59,45.329,34.292,42.025,34.292,38.322z"/>
	<path class="st0" d="M29.928,29.142c-2.23,1.819-3.772,4.437-4.218,7.415c1.312,0.501,2.73,0.787,4.218,0.787
		s2.906-0.286,4.218-0.787C33.7,33.579,32.158,30.961,29.928,29.142z"/>
	<path class="st1" d="M29.928,37.844c-6.807,0-12.344-5.537-12.344-12.344s5.538-12.345,12.344-12.345
		c6.806,0,12.344,5.538,12.344,12.345S36.734,37.844,29.928,37.844z M29.928,14.155c-6.255,0-11.344,5.089-11.344,11.345
		c0,6.255,5.089,11.344,11.344,11.344S41.272,31.755,41.272,25.5C41.272,19.244,36.184,14.155,29.928,14.155z"/>
	<path class="st1" d="M22.448,50.666c-6.807,0-12.344-5.538-12.344-12.345s5.538-12.344,12.344-12.344s12.344,5.537,12.344,12.344
		S29.254,50.666,22.448,50.666z M22.448,26.978c-6.255,0-11.344,5.089-11.344,11.344c0,6.256,5.089,11.345,11.344,11.345
		s11.344-5.089,11.344-11.345C33.792,32.066,28.703,26.978,22.448,26.978z"/>
	<path class="st1" d="M37.408,50.666c-6.806,0-12.344-5.538-12.344-12.345s5.538-12.344,12.344-12.344
		c6.807,0,12.345,5.537,12.345,12.344S44.215,50.666,37.408,50.666z M37.408,26.978c-6.255,0-11.344,5.089-11.344,11.344
		c0,6.256,5.089,11.345,11.344,11.345c6.256,0,11.345-5.089,11.345-11.345C48.753,32.066,43.664,26.978,37.408,26.978z"/>
</g>
</svg>
