<?xml version="1.0" encoding="iso-8859-1"?>
<!-- Generator: Adobe Illustrator 22.0.1, SVG Export Plug-In . SVG Version: 6.00 Build 0)  -->
<svg version="1.1" id="Layer_1" xmlns="http://www.w3.org/2000/svg" xmlns:xlink="http://www.w3.org/1999/xlink" x="0px" y="0px"
	 viewBox="0 0 64 64" style="enable-background:new 0 0 64 64;" xml:space="preserve">
<style type="text/css">
	.st0{fill:#F8F3F3;}
	.st1{fill:#63312D;}
	.st2{fill:#E1DDDD;}
	.st3{fill:#84DBFF;}
	.st4{fill:#CAF4FF;}
	.st5{fill:#52BADB;}
	.st6{fill:#F9DD9D;}
	.st7{fill:#FFEECF;}
	.st8{fill:#EFC36A;}
	.st9{fill:#F7A085;}
	.st10{fill:#82D9FF;}
	.st11{fill:#F7DB9B;}
	.st12{fill:#F9A287;}
	.st13{fill:#FFC8BB;}
	.st14{fill:#52B8D9;}
	.st15{fill:#DB785A;}
	.st16{fill:#EDCB85;}
	.st17{fill:#DBAB56;}
	.st18{fill:#D3A553;}
	.st19{fill:#FFFFFF;}
</style>
<g>
	<rect x="4.685" y="7.294" class="st0" width="50.712" height="33.983"/>
	<path class="st1" d="M55.397,41.778H4.685c-0.276,0-0.5-0.224-0.5-0.5V7.294c0-0.276,0.224-0.5,0.5-0.5h50.712
		c0.276,0,0.5,0.224,0.5,0.5v33.983C55.897,41.554,55.674,41.778,55.397,41.778z M5.185,40.778h49.712V7.794H5.185V40.778z"/>
	<rect x="55.397" y="7.294" class="st14" width="3.918" height="33.983"/>
	<path class="st1" d="M59.314,41.778h-3.917c-0.276,0-0.5-0.224-0.5-0.5V7.294c0-0.276,0.224-0.5,0.5-0.5h3.917
		c0.276,0,0.5,0.224,0.5,0.5v33.983C59.814,41.554,59.591,41.778,59.314,41.778z M55.897,40.778h2.917V7.794h-2.917V40.778z"/>
	<polygon class="st10" points="20.861,38.289 19.29,36.717 17.718,35.145 39.453,13.41 42.596,16.554 	"/>
	<path class="st1" d="M20.861,38.789c-0.128,0-0.256-0.049-0.354-0.146l-3.144-3.144c-0.195-0.195-0.195-0.512,0-0.707L39.1,13.057
		c0.094-0.094,0.221-0.146,0.354-0.146l0,0c0.133,0,0.26,0.053,0.354,0.146l3.144,3.144c0.195,0.195,0.195,0.512,0,0.707
		L21.215,38.643C21.117,38.74,20.989,38.789,20.861,38.789z M18.425,35.146l2.437,2.437L41.89,16.554l-2.437-2.437L18.425,35.146z"
		/>
	
		<rect x="37.812" y="14.945" transform="matrix(0.7072 -0.707 0.707 0.7072 -0.0205 31.739)" class="st1" width="1" height="1.899"/>
	
		<rect x="36.15" y="16.607" transform="matrix(0.7071 -0.7071 0.7071 0.7071 -1.6796 31.0575)" class="st1" width="1" height="1.899"/>
	<rect x="34.488" y="18.268" transform="matrix(0.707 -0.7072 0.7072 0.707 -3.3393 30.3762)" class="st1" width="1" height="1.9"/>
	
		<rect x="32.827" y="19.93" transform="matrix(0.7071 -0.7071 0.7071 0.7071 -5.0034 29.6811)" class="st1" width="1" height="1.899"/>
	
		<rect x="31.164" y="21.592" transform="matrix(0.707 -0.7072 0.7072 0.707 -6.6642 28.9994)" class="st1" width="1" height="1.899"/>
	
		<rect x="29.502" y="23.254" transform="matrix(0.7071 -0.7071 0.7071 0.7071 -8.3273 28.3039)" class="st1" width="1" height="1.9"/>
	
		<rect x="27.841" y="24.916" transform="matrix(0.7071 -0.7071 0.7071 0.7071 -9.9892 27.6158)" class="st1" width="1" height="1.9"/>
	
		<rect x="26.179" y="26.578" transform="matrix(0.7071 -0.7071 0.7071 0.7071 -11.651 26.9272)" class="st1" width="1" height="1.9"/>
	
		<rect x="24.516" y="28.24" transform="matrix(0.7071 -0.7071 0.7071 0.7071 -13.3131 26.2387)" class="st1" width="1" height="1.9"/>
	
		<rect x="22.855" y="29.902" transform="matrix(0.7071 -0.7071 0.7071 0.7071 -14.9751 25.5506)" class="st1" width="1" height="1.9"/>
	
		<rect x="21.193" y="31.564" transform="matrix(0.7071 -0.7071 0.7071 0.7071 -16.6368 24.862)" class="st1" width="1" height="1.9"/>
	
		<rect x="19.531" y="33.226" transform="matrix(0.7071 -0.7071 0.7071 0.7071 -18.299 24.1735)" class="st1" width="1" height="1.9"/>
	<polygon class="st9" points="39.996,33.087 41.739,37.688 37.138,35.945 17.604,16.411 20.462,13.553 	"/>
	<polygon class="st0" points="37.138,35.945 41.739,37.688 39.996,33.087 	"/>
	
		<rect x="18.87" y="14.213" transform="matrix(0.7071 -0.7071 0.7071 0.7071 -5.7887 19.7043)" class="st10" width="4.042" height="5.254"/>
	<path class="st1" d="M41.739,38.188c-0.06,0-0.119-0.011-0.177-0.032l-4.602-1.744c-0.066-0.025-0.127-0.064-0.177-0.114
		L17.25,16.765c-0.094-0.094-0.146-0.221-0.146-0.354s0.053-0.26,0.146-0.354l2.858-2.858c0.195-0.195,0.512-0.195,0.707,0
		l19.533,19.533c0.05,0.05,0.089,0.11,0.114,0.176l1.744,4.602c0.069,0.184,0.024,0.392-0.114,0.531
		C41.997,38.137,41.869,38.188,41.739,38.188z M37.415,35.515l3.463,1.313l-1.313-3.463L20.462,14.26l-2.151,2.151L37.415,35.515z"
		/>
	
		<rect x="36.546" y="34.015" transform="matrix(0.7071 -0.7071 0.7071 0.7071 -13.1102 37.3799)" class="st1" width="4.041" height="1"/>
	
		<rect x="20.727" y="18.198" transform="matrix(0.7071 -0.7071 0.7071 0.7071 -6.5583 21.5618)" class="st1" width="4.042" height="1"/>
	
		<rect x="30.194" y="15.406" transform="matrix(0.7071 -0.7071 0.7071 0.7071 -9.849 29.507)" class="st1" width="1" height="22.472"/>
	<path class="st11" d="M14.421,5.155c-2.827,0-5.119,2.292-5.119,5.119h10.237C19.539,7.446,17.248,5.155,14.421,5.155z"/>
	<path class="st11" d="M30.041,5.155c-2.827,0-5.119,2.292-5.119,5.119H35.16C35.16,7.446,32.868,5.155,30.041,5.155z"/>
	<path class="st11" d="M45.661,5.155c-2.827,0-5.119,2.292-5.119,5.119H50.78C50.78,7.446,48.488,5.155,45.661,5.155z"/>
	<path class="st1" d="M19.54,10.773H9.302c-0.276,0-0.5-0.224-0.5-0.5c0-3.098,2.521-5.618,5.619-5.618s5.619,2.521,5.619,5.618
		C20.04,10.549,19.816,10.773,19.54,10.773z M9.829,9.773h9.184c-0.25-2.312-2.214-4.118-4.592-4.118S10.079,7.461,9.829,9.773z"/>
	<path class="st1" d="M35.159,10.773H24.923c-0.276,0-0.5-0.224-0.5-0.5c0-3.098,2.521-5.618,5.618-5.618s5.618,2.521,5.618,5.618
		C35.659,10.549,35.436,10.773,35.159,10.773z M25.45,9.773h9.182c-0.25-2.312-2.213-4.118-4.591-4.118S25.7,7.461,25.45,9.773z"/>
	<path class="st1" d="M50.78,10.773H40.543c-0.276,0-0.5-0.224-0.5-0.5c0-3.098,2.521-5.618,5.618-5.618
		c3.099,0,5.619,2.521,5.619,5.618C51.28,10.549,51.057,10.773,50.78,10.773z M41.07,9.773h9.183
		c-0.25-2.312-2.214-4.118-4.592-4.118S41.32,7.461,41.07,9.773z"/>
	<rect x="13.921" y="3.108" class="st1" width="1" height="2.046"/>
	<rect x="29.541" y="3.108" class="st1" width="1" height="2.046"/>
	<rect x="45.161" y="3.108" class="st1" width="1" height="2.046"/>
	<rect x="27.034" y="41.278" class="st11" width="6.133" height="19.614"/>
	<rect x="27.034" y="41.278" class="st7" width="1.658" height="19.614"/>
	<rect x="27.034" y="41.278" class="st16" width="6.133" height="1.793"/>
	<path class="st1" d="M33.167,61.392h-6.133c-0.276,0-0.5-0.224-0.5-0.5V41.278c0-0.276,0.224-0.5,0.5-0.5h6.133
		c0.276,0,0.5,0.224,0.5,0.5v19.614C33.667,61.168,33.443,61.392,33.167,61.392z M27.534,60.392h5.133V41.778h-5.133V60.392z"/>
	<rect x="33.167" y="41.278" class="st8" width="3.373" height="19.614"/>
	<rect x="33.167" y="41.278" class="st17" width="3.373" height="1.793"/>
	<path class="st1" d="M36.54,61.392h-3.373c-0.276,0-0.5-0.224-0.5-0.5V41.278c0-0.276,0.224-0.5,0.5-0.5h3.373
		c0.276,0,0.5,0.224,0.5,0.5v19.614C37.04,61.168,36.816,61.392,36.54,61.392z M33.667,60.392h2.373V41.778h-2.373V60.392z"/>
	<rect x="22.324" y="60.392" class="st1" width="18.833" height="1"/>
	<rect x="37.935" y="25.366" class="st1" width="6.75" height="1"/>
	<rect x="45.611" y="25.366" class="st1" width="1.323" height="1"/>
	<rect x="15.354" y="25.366" class="st1" width="6.75" height="1"/>
	<rect x="13.104" y="25.366" class="st1" width="1.324" height="1"/>
</g>
</svg>
