<?xml version="1.0" encoding="iso-8859-1"?>
<!-- Generator: Adobe Illustrator 22.0.1, SVG Export Plug-In . SVG Version: 6.00 Build 0)  -->
<svg version="1.1" id="Layer_1" xmlns="http://www.w3.org/2000/svg" xmlns:xlink="http://www.w3.org/1999/xlink" x="0px" y="0px"
	 viewBox="0 0 64 64" style="enable-background:new 0 0 64 64;" xml:space="preserve">
<style type="text/css">
	.st0{fill:#F8F3F3;}
	.st1{fill:#63312D;}
	.st2{fill:#E1DDDD;}
	.st3{fill:#84DBFF;}
	.st4{fill:#CAF4FF;}
	.st5{fill:#52BADB;}
	.st6{fill:#F9DD9D;}
	.st7{fill:#FFEECF;}
	.st8{fill:#EFC36A;}
	.st9{fill:#F7A085;}
	.st10{fill:#82D9FF;}
	.st11{fill:#F7DB9B;}
	.st12{fill:#F9A287;}
	.st13{fill:#FFC8BB;}
	.st14{fill:#52B8D9;}
	.st15{fill:#DB785A;}
	.st16{fill:#EDCB85;}
	.st17{fill:#DBAB56;}
	.st18{fill:#D3A553;}
	.st19{fill:#FFFFFF;}
</style>
<g>
	<path class="st12" d="M51.688,25.533c0-3.122-2.381-5.687-5.425-5.981c0.551-0.908,0.873-1.969,0.873-3.109
		c0-3.32-2.691-6.011-6.011-6.011c-0.051,0-0.1,0.006-0.15,0.008c0.096-0.426,0.15-0.867,0.15-1.321c0-3.32-2.691-6.011-6.011-6.011
		c-3.268,0-5.922,2.61-6.003,5.859c-0.081-3.249-2.735-5.859-6.003-5.859c-3.32,0-6.011,2.691-6.011,6.011
		c0,0.454,0.055,0.895,0.15,1.321c-0.05-0.001-0.1-0.008-0.15-0.008c-3.32,0-6.011,2.691-6.011,6.011
		c0,1.139,0.323,2.201,0.873,3.109c-3.045,0.294-5.425,2.859-5.425,5.981c0,3.061,2.289,5.581,5.248,5.957
		c-0.443,0.837-0.696,1.791-0.696,2.804c0,3.32,2.691,6.011,6.011,6.011c0.051,0,0.1-0.006,0.15-0.008
		c-0.096,0.426-0.15,0.867-0.15,1.321c0,3.32,2.691,6.011,6.011,6.011c3.268,0,5.922-2.61,6.003-5.859
		c0.081,3.249,2.735,5.859,6.003,5.859c3.32,0,6.011-2.691,6.011-6.011c0-0.454-0.055-0.895-0.15-1.321
		c0.051,0.001,0.1,0.008,0.15,0.008c3.32,0,6.011-2.691,6.011-6.011c0-1.013-0.253-1.966-0.696-2.804
		C49.399,31.114,51.688,28.593,51.688,25.533z"/>
	<path class="st1" d="M19.521,25.376c-1.611,0-2.922-1.312-2.922-2.923s1.311-2.922,2.922-2.922v1c-1.06,0-1.922,0.862-1.922,1.922
		c0,1.061,0.862,1.923,1.922,1.923V25.376z"/>
	<path class="st1" d="M35.131,15.63v-1c3.038,0,5.51-2.472,5.51-5.511h1C41.641,12.709,38.721,15.63,35.131,15.63z"/>
	<path class="st1" d="M41.141,22.953v-1c3.039,0,5.511-2.472,5.511-5.51h1C47.651,20.033,44.73,22.953,41.141,22.953z"/>
	<path class="st1" d="M41.641,41.617h-1c0-3.039-2.472-5.511-5.51-5.511v-1C38.721,35.106,41.641,38.027,41.641,41.617z"/>
	<path class="st1" d="M47.651,34.293h-1c0-3.038-2.472-5.51-5.511-5.51v-1C44.73,27.783,47.651,30.703,47.651,34.293z"/>
	<path class="st1" d="M38.719,25.376v-1c1.06,0,1.922-0.862,1.922-1.923c0-1.06-0.862-1.922-1.922-1.922v-1
		c1.611,0,2.922,1.311,2.922,2.922S40.33,25.376,38.719,25.376z"/>
	<rect x="28.612" y="37.63" class="st1" width="1" height="4.293"/>
	<path class="st15" d="M57.464,25.533c0-3.122-2.381-5.687-5.425-5.981c0.551-0.908,0.873-1.969,0.873-3.109
		c0-3.32-2.691-6.011-6.011-6.011c-0.051,0-0.1,0.006-0.15,0.008c0.096-0.426,0.15-0.867,0.15-1.321c0-3.32-2.691-6.011-6.011-6.011
		h-5.368l0,0.021c3.129,0.21,5.603,2.808,5.603,5.99c0,0.454-0.055,0.895-0.15,1.321c0.051-0.001,0.1-0.008,0.15-0.008
		c3.32,0,6.011,2.691,6.011,6.011c0,1.139-0.323,2.201-0.873,3.109c3.045,0.294,5.425,2.859,5.425,5.981
		c0,3.061-2.289,5.581-5.248,5.957c0.443,0.837,0.696,1.791,0.696,2.804c0,3.32-2.691,6.011-6.011,6.011
		c-0.051,0-0.1-0.006-0.15-0.008c0.096,0.426,0.15,0.867,0.15,1.321c0,3.32-2.691,6.011-6.011,6.011h5.776
		c3.32,0,6.011-2.691,6.011-6.011c0-0.454-0.055-0.895-0.15-1.321c0.051,0.001,0.1,0.008,0.15,0.008c3.32,0,6.011-2.691,6.011-6.011
		c0-1.013-0.253-1.966-0.696-2.804C55.175,31.114,57.464,28.593,57.464,25.533z"/>
	<path class="st1" d="M40.891,48.128h-5.775c-0.276,0-0.5-0.224-0.5-0.5s0.224-0.5,0.5-0.5c3.039,0,5.511-2.472,5.511-5.511
		c0-0.396-0.047-0.804-0.139-1.212c-0.033-0.151,0.005-0.31,0.104-0.43c0.099-0.12,0.245-0.187,0.403-0.18l0.121,0.469l0.01-0.003
		v-0.458c3.038,0,5.51-2.472,5.51-5.511c0-0.904-0.215-1.77-0.638-2.57c-0.076-0.146-0.077-0.318-0.001-0.464
		c0.075-0.146,0.218-0.245,0.381-0.266c2.742-0.348,4.811-2.695,4.811-5.461c0-2.852-2.139-5.209-4.974-5.482
		c-0.171-0.017-0.322-0.12-0.399-0.274c-0.077-0.153-0.069-0.336,0.02-0.482c0.524-0.864,0.801-1.85,0.801-2.85
		c0-3.039-2.472-5.511-5.51-5.511c-0.152,0-0.371-0.065-0.466-0.184c-0.095-0.119-0.206-0.271-0.173-0.418
		c0.092-0.408,0.139-0.816,0.139-1.212c0-2.885-2.257-5.297-5.137-5.491c-0.263-0.018-0.467-0.236-0.467-0.499
		c0-0.276,0.224-0.521,0.5-0.521h5.368c3.59,0,6.511,2.921,6.511,6.511c0,0.273-0.019,0.55-0.055,0.828
		c3.383,0.229,6.065,3.056,6.065,6.496c0,0.938-0.206,1.867-0.602,2.721c2.984,0.625,5.153,3.246,5.153,6.368
		c0,3.041-2.117,5.655-5.022,6.334c0.31,0.77,0.471,1.597,0.471,2.427c0,3.44-2.683,6.267-6.065,6.496
		c0.036,0.278,0.055,0.555,0.055,0.828C47.401,45.207,44.48,48.128,40.891,48.128z M38.579,47.128h2.312
		c3.039,0,5.511-2.472,5.511-5.511c0-0.396-0.047-0.804-0.139-1.212c-0.033-0.151,0.005-0.31,0.104-0.43
		c0.1-0.12,0.249-0.187,0.404-0.18l0.121,0.469l0.01-0.003v-0.458c3.039,0,5.511-2.472,5.511-5.511c0-0.905-0.215-1.77-0.639-2.57
		c-0.076-0.145-0.077-0.318-0.001-0.464c0.075-0.146,0.218-0.245,0.381-0.266c2.742-0.348,4.811-2.695,4.811-5.461
		c0-2.852-2.138-5.209-4.973-5.482c-0.171-0.017-0.322-0.12-0.399-0.273c-0.077-0.154-0.069-0.337,0.02-0.483
		c0.523-0.865,0.801-1.851,0.801-2.85c0-3.039-2.472-5.511-5.511-5.511c-0.152,0-0.371-0.065-0.466-0.184
		c-0.095-0.119-0.206-0.271-0.173-0.418c0.092-0.408,0.139-0.816,0.139-1.212c0-3.039-2.472-5.511-5.511-5.511h-2.324
		c1.841,1.157,3.06,3.206,3.06,5.511c0,0.273-0.019,0.55-0.055,0.828c3.383,0.229,6.064,3.056,6.064,6.496
		c0,0.939-0.206,1.868-0.602,2.721c2.984,0.626,5.154,3.246,5.154,6.368c0,3.041-2.117,5.655-5.023,6.334
		c0.31,0.77,0.471,1.598,0.471,2.427c0,3.44-2.682,6.267-6.064,6.496c0.036,0.278,0.055,0.555,0.055,0.828
		C41.626,43.935,40.408,45.974,38.579,47.128z"/>
	<path class="st15" d="M29.112,8.967c0.081-3.249,2.735-5.859,6.003-5.859H23.109C26.377,3.108,29.031,5.718,29.112,8.967z"/>
	<path class="st15" d="M29.112,41.769c-0.081,3.249-2.735,5.859-6.003,5.859h12.006C31.847,47.628,29.193,45.018,29.112,41.769z"/>
	<path class="st1" d="M29.112,9.467c-0.271,0-0.493-0.216-0.5-0.487c-0.076-3.012-2.493-5.371-5.503-5.371
		c-0.276,0-0.5-0.224-0.5-0.5s0.224-0.5,0.5-0.5h12.006c0.276,0,0.5,0.224,0.5,0.5s-0.224,0.5-0.5,0.5
		c-3.011,0-5.428,2.359-5.503,5.371C29.605,9.25,29.384,9.467,29.112,9.467z M26.598,3.608c1.117,0.704,1.999,1.74,2.514,2.979
		c0.515-1.238,1.397-2.274,2.513-2.979H26.598z"/>
	<path class="st1" d="M35.115,48.128H23.109c-0.276,0-0.5-0.224-0.5-0.5s0.224-0.5,0.5-0.5c3.011,0,5.428-2.359,5.503-5.371
		c0.007-0.271,0.229-0.487,0.5-0.487l0,0c0.271,0,0.493,0.217,0.5,0.487c0.075,3.012,2.492,5.371,5.503,5.371
		c0.276,0,0.5,0.224,0.5,0.5S35.392,48.128,35.115,48.128z M26.598,47.128h5.027c-1.116-0.704-1.999-1.74-2.513-2.979
		C28.597,45.388,27.715,46.424,26.598,47.128z"/>
	<path class="st13" d="M23.109,3.108c-3.32,0-6.011,2.691-6.011,6.011c0,0.454,0.055,0.895,0.15,1.321
		c-0.05-0.001-0.1-0.008-0.15-0.008c-3.32,0-6.011,2.691-6.011,6.011c0,1.139,0.323,2.201,0.873,3.109
		c-3.045,0.294-5.425,2.859-5.425,5.981c0,1.896,0.88,3.583,2.252,4.683c-0.81-1.023-1.298-2.312-1.298-3.719
		c0-3.122,2.381-5.687,5.425-5.981c-0.551-0.908-0.873-1.969-0.873-3.109c0-3.32,2.691-6.011,6.011-6.011
		c0.051,0,0.1,0.006,0.15,0.008c-0.096-0.426-0.15-0.867-0.15-1.321c0-3.32,2.691-6.011,6.011-6.011
		c1.418,0,2.719,0.492,3.746,1.314C26.71,4.001,25.017,3.108,23.109,3.108z"/>
	<path class="st13" d="M18.203,41.261c-0.05,0.001-0.1,0.008-0.15,0.008c-0.317,0-0.625-0.032-0.929-0.079
		c-0.011,0.142-0.025,0.283-0.025,0.428c0,1.895,0.879,3.582,2.249,4.684c-0.809-1.024-1.295-2.314-1.295-3.72
		C18.053,42.128,18.107,41.687,18.203,41.261z"/>
	<path class="st13" d="M17.099,29.661v-0.962c0,0-2.637-0.359-4.784,2.484c0,0-0.425,0.709-0.552,1.05
		c-0.092-0.028-0.187-0.051-0.278-0.084c-0.255,0.666-0.397,1.388-0.397,2.144c0,1.895,0.879,3.582,2.249,4.684
		c-0.809-1.024-1.295-2.314-1.295-3.72c0-1.013,0.253-1.966,0.696-2.804C12.738,32.454,14.012,29.735,17.099,29.661z"/>
	<path class="st13" d="M35.115,3.108c-2.691,0-4.961,1.771-5.726,4.21c0.005,0.009,0.008,0.02,0.013,0.029l-0.013,0.005v0.156v5.752
		h0.677V9.932c0.081-3.249,2.735-5.859,6.003-5.859c1.425,0,2.732,0.498,3.762,1.326C38.73,4.006,37.029,3.108,35.115,3.108z"/>
	<path class="st1" d="M17.099,22.953c-3.59,0-6.511-2.92-6.511-6.51h1c0,3.038,2.472,5.51,5.511,5.51V22.953z"/>
	<path class="st1" d="M17.599,41.617h-1c0-3.59,2.92-6.511,6.51-6.511v1C20.07,36.106,17.599,38.578,17.599,41.617z"/>
	<path class="st1" d="M11.588,34.293h-1c0-3.59,2.921-6.51,6.511-6.51v1C14.06,28.783,11.588,31.255,11.588,34.293z"/>
	<path class="st1" d="M35.115,48.128c-2.717,0-5.024-1.625-6.003-3.979c-0.979,2.354-3.287,3.979-6.003,3.979
		c-3.59,0-6.51-2.921-6.51-6.511c0-0.273,0.019-0.55,0.055-0.828c-3.383-0.229-6.066-3.056-6.066-6.496
		c0-0.829,0.162-1.656,0.471-2.427c-2.906-0.679-5.023-3.293-5.023-6.334c0-3.122,2.169-5.742,5.153-6.368
		c-0.395-0.854-0.602-1.781-0.602-2.721c0-3.44,2.683-6.267,6.066-6.496c-0.037-0.278-0.055-0.555-0.055-0.828
		c0-3.59,2.92-6.511,6.51-6.511c2.716,0,5.024,1.625,6.003,3.979c0.979-2.354,3.286-3.979,6.003-3.979
		c3.59,0,6.511,2.921,6.511,6.511c0,0.273-0.019,0.55-0.055,0.828c3.383,0.229,6.064,3.056,6.064,6.496
		c0,0.939-0.206,1.868-0.602,2.721c2.984,0.626,5.154,3.246,5.154,6.368c0,3.041-2.117,5.655-5.023,6.334
		c0.31,0.77,0.471,1.598,0.471,2.427c0,3.44-2.682,6.267-6.064,6.496c0.036,0.278,0.055,0.555,0.055,0.828
		C41.626,45.207,38.705,48.128,35.115,48.128z M29.112,41.27L29.112,41.27c0.271,0,0.493,0.217,0.5,0.487
		c0.075,3.012,2.492,5.371,5.503,5.371c3.039,0,5.511-2.472,5.511-5.511c0-0.396-0.047-0.804-0.139-1.212
		c-0.033-0.151,0.005-0.31,0.104-0.43c0.099-0.12,0.245-0.187,0.403-0.18l0.121,0.469l0.01-0.003v-0.458
		c3.038,0,5.51-2.472,5.51-5.511c0-0.904-0.215-1.77-0.638-2.57c-0.076-0.146-0.077-0.318-0.001-0.464
		c0.075-0.146,0.218-0.245,0.381-0.266c2.742-0.348,4.811-2.695,4.811-5.461c0-2.852-2.139-5.209-4.974-5.482
		c-0.171-0.017-0.322-0.12-0.399-0.274c-0.077-0.153-0.069-0.336,0.02-0.482c0.524-0.864,0.801-1.85,0.801-2.85
		c0-3.039-2.472-5.511-5.51-5.511c-0.152,0-0.371-0.065-0.466-0.184c-0.095-0.119-0.206-0.271-0.173-0.418
		c0.092-0.408,0.139-0.816,0.139-1.212c0-3.039-2.472-5.511-5.511-5.511c-3.011,0-5.428,2.359-5.503,5.371
		c-0.007,0.271-0.229,0.487-0.5,0.487c-0.271,0-0.493-0.216-0.5-0.487c-0.076-3.012-2.493-5.371-5.503-5.371
		c-3.039,0-5.51,2.472-5.51,5.511c0,0.396,0.046,0.804,0.138,1.212c0.034,0.151-0.004,0.31-0.104,0.43
		c-0.099,0.119-0.249,0.185-0.403,0.18l-0.121-0.469l-0.01,0.003v0.458c-3.039,0-5.511,2.472-5.511,5.511
		c0,1,0.277,1.985,0.801,2.85c0.089,0.146,0.096,0.329,0.019,0.482c-0.077,0.154-0.228,0.258-0.399,0.274
		c-2.835,0.273-4.973,2.631-4.973,5.482c0,2.766,2.068,5.113,4.811,5.461c0.163,0.021,0.305,0.12,0.381,0.266
		s0.075,0.319-0.002,0.464c-0.423,0.802-0.638,1.666-0.638,2.57c0,3.039,2.472,5.511,5.511,5.511c0.152,0,0.371,0.065,0.466,0.184
		c0.095,0.119,0.206,0.271,0.172,0.418c-0.092,0.408-0.138,0.816-0.138,1.212c0,3.039,2.472,5.511,5.51,5.511
		c3.011,0,5.428-2.359,5.503-5.371C28.619,41.485,28.841,41.27,29.112,41.27z"/>
	<path class="st1" d="M23.109,15.63c-3.59,0-6.51-2.921-6.51-6.511h1c0,3.039,2.472,5.511,5.51,5.511V15.63z"/>
	<rect x="28.612" y="8.967" class="st1" width="1" height="4.293"/>
	<rect x="26.482" y="47.628" class="st10" width="4.888" height="2.793"/>
	<path class="st1" d="M31.37,50.921h-4.888c-0.276,0-0.5-0.224-0.5-0.5v-2.793c0-0.276,0.224-0.5,0.5-0.5h4.888
		c0.276,0,0.5,0.224,0.5,0.5v2.793C31.87,50.697,31.646,50.921,31.37,50.921z M26.982,49.921h3.888v-1.793h-3.888V49.921z"/>
	<path class="st1" d="M44.838,57.568H13.579c-1.318,0-2.39-1.072-2.39-2.39s1.072-2.39,2.39-2.39h13.359
		c0.659,0,1.194-0.536,1.194-1.195v-1.173h1v1.173c0,1.211-0.984,2.195-2.194,2.195H13.579c-0.767,0-1.39,0.623-1.39,1.39
		s0.624,1.39,1.39,1.39h31.259V57.568z"/>
	<path class="st11" d="M52.485,60.892h-3.98c-2.025,0-3.667-1.642-3.667-3.667v-0.313c0-2.025,1.642-3.667,3.667-3.667h3.98V60.892z
		"/>
	<path class="st1" d="M52.485,61.392h-3.98c-2.298,0-4.167-1.869-4.167-4.167v-0.313c0-2.298,1.869-4.167,4.167-4.167h3.98
		c0.276,0,0.5,0.224,0.5,0.5v7.646C52.985,61.168,52.762,61.392,52.485,61.392z M48.505,53.745c-1.746,0-3.167,1.421-3.167,3.167
		v0.313c0,1.746,1.421,3.167,3.167,3.167h3.48v-6.646H48.505z"/>
	<rect x="52.485" y="54.038" class="st0" width="3.584" height="2.151"/>
	<rect x="52.485" y="58.079" class="st0" width="3.584" height="2.151"/>
	<path class="st1" d="M56.069,56.688h-3.584c-0.276,0-0.5-0.224-0.5-0.5v-2.15c0-0.276,0.224-0.5,0.5-0.5h3.584
		c0.276,0,0.5,0.224,0.5,0.5v2.15C56.569,56.465,56.346,56.688,56.069,56.688z M52.985,55.688h2.584v-1.15h-2.584V55.688z"/>
	<path class="st1" d="M56.069,60.729h-3.584c-0.276,0-0.5-0.224-0.5-0.5v-2.151c0-0.276,0.224-0.5,0.5-0.5h3.584
		c0.276,0,0.5,0.224,0.5,0.5v2.151C56.569,60.506,56.346,60.729,56.069,60.729z M52.985,59.729h2.584v-1.151h-2.584V59.729z"/>
</g>
</svg>
