<?xml version="1.0" encoding="iso-8859-1"?>
<!-- Generator: Adobe Illustrator 22.0.1, SVG Export Plug-In . SVG Version: 6.00 Build 0)  -->
<svg version="1.1" id="Layer_1" xmlns="http://www.w3.org/2000/svg" xmlns:xlink="http://www.w3.org/1999/xlink" x="0px" y="0px"
	 viewBox="0 0 64 64" style="enable-background:new 0 0 64 64;" xml:space="preserve">
<style type="text/css">
	.st0{fill:#F8F3F3;}
	.st1{fill:#63312D;}
	.st2{fill:#E1DDDD;}
	.st3{fill:#84DBFF;}
	.st4{fill:#CAF4FF;}
	.st5{fill:#52BADB;}
	.st6{fill:#F9DD9D;}
	.st7{fill:#FFEECF;}
	.st8{fill:#EFC36A;}
	.st9{fill:#F7A085;}
	.st10{fill:#82D9FF;}
	.st11{fill:#F7DB9B;}
	.st12{fill:#F9A287;}
	.st13{fill:#FFC8BB;}
	.st14{fill:#52B8D9;}
	.st15{fill:#DB785A;}
	.st16{fill:#EDCB85;}
	.st17{fill:#DBAB56;}
	.st18{fill:#D3A553;}
	.st19{fill:#FFFFFF;}
</style>
<g>
	<path class="st12" d="M54.358,32.187c0-3.545-2.703-6.458-6.161-6.792c0.625-1.031,0.992-2.236,0.992-3.53
		c0-3.77-3.056-6.826-6.826-6.826c-0.058,0-0.113,0.007-0.171,0.009c0.109-0.483,0.171-0.984,0.171-1.5
		c0-3.77-3.056-6.826-6.826-6.826c-3.711,0-6.724,2.964-6.817,6.653c-0.092-3.689-3.105-6.653-6.817-6.653
		c-3.77,0-6.826,3.056-6.826,6.826c0,0.516,0.062,1.017,0.171,1.5c-0.057-0.001-0.113-0.009-0.171-0.009
		c-3.77,0-6.826,3.056-6.826,6.826c0,1.294,0.367,2.499,0.992,3.53c-3.458,0.334-6.161,3.247-6.161,6.792
		c0,3.476,2.6,6.338,5.96,6.765c-0.503,0.951-0.79,2.033-0.79,3.184c0,3.77,3.056,6.826,6.826,6.826
		c0.058,0,0.113-0.007,0.171-0.009c-0.109,0.483-0.171,0.984-0.171,1.5c0,3.77,3.056,6.826,6.826,6.826
		c3.711,0,6.725-2.964,6.817-6.653c0.092,3.689,3.105,6.653,6.817,6.653c3.77,0,6.826-3.056,6.826-6.826
		c0-0.516-0.062-1.017-0.171-1.5c0.057,0.001,0.113,0.009,0.171,0.009c3.77,0,6.826-3.056,6.826-6.826
		c0-1.151-0.288-2.233-0.79-3.184C51.758,38.525,54.358,35.662,54.358,32.187z"/>
	<path class="st1" d="M17.829,31.941c-1.793,0-3.251-1.458-3.251-3.25s1.458-3.251,3.251-3.251v1c-1.241,0-2.251,1.01-2.251,2.251
		c0,1.241,1.01,2.25,2.251,2.25V31.941z"/>
	<path class="st1" d="M35.555,20.873v-1c3.488,0,6.326-2.838,6.326-6.326h1C42.881,17.587,39.595,20.873,35.555,20.873z"/>
	<path class="st1" d="M42.381,29.19v-1c3.487,0,6.325-2.838,6.325-6.326h1C49.706,25.904,46.42,29.19,42.381,29.19z"/>
	<path class="st1" d="M42.881,50.452h-1c0-3.487-2.838-6.325-6.326-6.325v-1C39.595,43.127,42.881,46.413,42.881,50.452z"/>
	<path class="st1" d="M49.706,42.136h-1c0-3.488-2.838-6.326-6.325-6.326v-1C46.42,34.81,49.706,38.096,49.706,42.136z"/>
	<path class="st1" d="M39.63,31.941v-1c1.241,0,2.251-1.01,2.251-2.25c0-1.241-1.01-2.251-2.251-2.251v-1
		c1.793,0,3.251,1.458,3.251,3.251S41.423,31.941,39.63,31.941z"/>
	<rect x="28.221" y="45.925" class="st1" width="1" height="4.875"/>
	<path class="st15" d="M60.917,32.187c0-3.545-2.703-6.458-6.161-6.792c0.625-1.031,0.992-2.236,0.992-3.53
		c0-3.77-3.056-6.826-6.826-6.826c-0.058,0-0.113,0.007-0.171,0.009c0.109-0.483,0.171-0.984,0.171-1.5
		c0-3.77-3.056-6.826-6.826-6.826H36l0,0.023c3.553,0.239,6.363,3.189,6.363,6.802c0,0.516-0.062,1.017-0.171,1.5
		c0.057-0.001,0.113-0.009,0.171-0.009c3.77,0,6.826,3.056,6.826,6.826c0,1.294-0.367,2.499-0.992,3.53
		c3.458,0.334,6.161,3.247,6.161,6.792c0,3.476-2.6,6.338-5.96,6.765c0.503,0.951,0.79,2.033,0.79,3.184
		c0,3.77-3.056,6.826-6.826,6.826c-0.058,0-0.113-0.007-0.171-0.009c0.109,0.483,0.171,0.984,0.171,1.5
		c0,3.77-3.056,6.826-6.826,6.826h6.559c3.77,0,6.826-3.056,6.826-6.826c0-0.516-0.062-1.017-0.171-1.5
		c0.057,0.001,0.113,0.009,0.171,0.009c3.77,0,6.826-3.056,6.826-6.826c0-1.151-0.288-2.233-0.79-3.184
		C58.317,38.525,60.917,35.662,60.917,32.187z"/>
	<path class="st1" d="M42.097,57.778h-6.56c-0.276,0-0.5-0.224-0.5-0.5s0.224-0.5,0.5-0.5c3.488,0,6.326-2.838,6.326-6.326
		c0-0.453-0.054-0.921-0.159-1.391c-0.033-0.151,0.005-0.31,0.104-0.429c0.099-0.118,0.255-0.171,0.402-0.181l0.14,0.465
		l0.014-0.003v-0.453c3.487,0,6.325-2.838,6.325-6.325c0-1.037-0.246-2.03-0.732-2.951c-0.076-0.146-0.077-0.318-0.001-0.464
		c0.075-0.146,0.218-0.245,0.381-0.266c3.147-0.399,5.521-3.094,5.521-6.269c0-3.273-2.454-5.979-5.709-6.294
		c-0.172-0.017-0.322-0.12-0.399-0.273s-0.069-0.336,0.02-0.484c0.602-0.99,0.92-2.121,0.92-3.27c0-3.488-2.838-6.326-6.325-6.326
		c-0.165-0.01-0.38-0.059-0.479-0.178c-0.098-0.119-0.214-0.272-0.181-0.422c0.105-0.47,0.159-0.938,0.159-1.391
		c0-3.312-2.59-6.081-5.896-6.303C35.704,7.227,35.5,7.009,35.5,6.746c0-0.276,0.224-0.523,0.5-0.523h6.097
		c4.039,0,7.325,3.286,7.325,7.325c0,0.33-0.024,0.666-0.072,1.004c3.841,0.223,6.897,3.418,6.897,7.313
		c0,1.086-0.245,2.158-0.713,3.139c3.401,0.672,5.883,3.641,5.883,7.183c0,3.448-2.419,6.408-5.729,7.145
		c0.371,0.888,0.559,1.828,0.559,2.805c0,3.896-3.057,7.091-6.897,7.313c0.048,0.338,0.072,0.674,0.072,1.004
		C49.422,54.492,46.136,57.778,42.097,57.778z M39.229,56.778h2.867c3.487,0,6.325-2.838,6.325-6.326
		c0-0.453-0.054-0.921-0.159-1.391c-0.033-0.151,0.005-0.31,0.104-0.429c0.099-0.118,0.279-0.171,0.401-0.181l0.141,0.465
		l0.014-0.003v-0.453c3.487,0,6.325-2.838,6.325-6.325c0-1.039-0.246-2.032-0.732-2.951c-0.076-0.145-0.077-0.318-0.001-0.464
		c0.075-0.146,0.218-0.245,0.381-0.266c3.148-0.399,5.522-3.094,5.522-6.269c0-3.273-2.454-5.979-5.709-6.294
		c-0.172-0.017-0.322-0.12-0.399-0.273s-0.069-0.336,0.02-0.483c0.602-0.991,0.919-2.122,0.919-3.271
		c0-3.488-2.838-6.326-6.325-6.326c-0.158-0.01-0.38-0.059-0.479-0.178c-0.098-0.119-0.214-0.272-0.181-0.422
		c0.105-0.47,0.159-0.938,0.159-1.391c0-3.488-2.838-6.325-6.325-6.325h-2.882c2.187,1.275,3.648,3.646,3.648,6.325
		c0,0.33-0.024,0.666-0.072,1.004c3.841,0.223,6.897,3.418,6.897,7.313c0,1.086-0.245,2.159-0.713,3.139
		c3.4,0.672,5.882,3.641,5.882,7.183c0,3.449-2.42,6.409-5.729,7.145c0.367,0.888,0.56,1.845,0.56,2.805
		c0,3.896-3.057,7.091-6.897,7.313c0.048,0.338,0.072,0.674,0.072,1.004C42.863,53.146,41.401,55.506,39.229,56.778z"/>
	<path class="st15" d="M28.721,13.375c0.092-3.689,3.105-6.653,6.817-6.653H21.904C25.615,6.722,28.628,9.686,28.721,13.375z"/>
	<path class="st15" d="M28.721,50.625c-0.092,3.689-3.105,6.653-6.817,6.653h13.634C31.826,57.278,28.813,54.314,28.721,50.625z"/>
	<path class="st1" d="M28.721,13.875c-0.271,0-0.493-0.216-0.5-0.487c-0.087-3.458-2.861-6.166-6.317-6.166
		c-0.276,0-0.5-0.224-0.5-0.5s0.224-0.5,0.5-0.5h13.634c0.276,0,0.5,0.224,0.5,0.5s-0.224,0.5-0.5,0.5
		c-3.456,0-6.23,2.708-6.316,6.165C29.214,13.659,28.992,13.875,28.721,13.875z M25.624,7.222c1.4,0.82,2.498,2.094,3.097,3.631
		c0.598-1.537,1.695-2.811,3.096-3.631H25.624z"/>
	<path class="st1" d="M35.537,57.778H21.903c-0.276,0-0.5-0.224-0.5-0.5s0.224-0.5,0.5-0.5c3.456,0,6.23-2.708,6.317-6.166
		c0.007-0.271,0.229-0.487,0.5-0.487l0,0c0.271,0,0.493,0.217,0.5,0.487c0.086,3.458,2.86,6.166,6.316,6.166
		c0.276,0,0.5,0.224,0.5,0.5S35.813,57.778,35.537,57.778z M25.623,56.778h6.193c-1.4-0.82-2.498-2.095-3.096-3.632
		C28.122,54.684,27.024,55.958,25.623,56.778z"/>
	<path class="st13" d="M21.904,6.722c-3.77,0-6.826,3.056-6.826,6.826c0,0.516,0.062,1.017,0.171,1.5
		c-0.057-0.001-0.113-0.009-0.171-0.009c-3.77,0-6.826,3.056-6.826,6.826c0,1.294,0.367,2.499,0.992,3.53
		c-3.458,0.334-6.161,3.247-6.161,6.792c0,2.153,0.999,4.069,2.557,5.318c-0.92-1.161-1.474-2.626-1.474-4.223
		c0-3.545,2.703-6.458,6.161-6.792c-0.625-1.031-0.992-2.236-0.992-3.53c0-3.77,3.056-6.826,6.826-6.826
		c0.058,0,0.113,0.007,0.171,0.009c-0.109-0.483-0.171-0.984-0.171-1.5c0-3.77,3.056-6.826,6.826-6.826
		c1.61,0,3.088,0.559,4.254,1.492C25.992,7.736,24.07,6.722,21.904,6.722z"/>
	<path class="st13" d="M16.332,50.048c-0.057,0.001-0.113,0.009-0.171,0.009c-0.36,0-0.71-0.036-1.055-0.09
		c-0.012,0.161-0.028,0.321-0.028,0.486c0,2.152,0.998,4.068,2.554,5.319c-0.918-1.163-1.471-2.628-1.471-4.224
		C16.161,51.032,16.224,50.531,16.332,50.048z"/>
	<path class="st13" d="M15.078,36.875v-1.092c0,0-2.995-0.408-5.432,2.821c0,0-0.483,0.806-0.627,1.192
		c-0.105-0.032-0.213-0.058-0.316-0.095c-0.29,0.756-0.451,1.576-0.451,2.434c0,2.152,0.998,4.068,2.554,5.319
		c-0.918-1.163-1.471-2.628-1.471-4.224c0-1.151,0.288-2.233,0.79-3.184C10.126,40.047,11.573,36.958,15.078,36.875z"/>
	<path class="st13" d="M35.537,6.722c-3.056,0-5.634,2.011-6.503,4.781c0.006,0.011,0.01,0.022,0.015,0.033l-0.015,0.005v0.177
		v6.532h0.769v-3.78c0.092-3.689,3.105-6.653,6.817-6.653c1.618,0,3.102,0.566,4.272,1.506C39.642,7.741,37.711,6.722,35.537,6.722z
		"/>
	<path class="st1" d="M15.078,29.19c-4.039,0-7.325-3.286-7.325-7.326h1c0,3.488,2.838,6.326,6.325,6.326V29.19z"/>
	<path class="st1" d="M15.578,50.452h-1c0-4.039,3.286-7.325,7.325-7.325v1C18.416,44.127,15.578,46.965,15.578,50.452z"/>
	<path class="st1" d="M8.753,42.136h-1c0-4.04,3.286-7.326,7.325-7.326v1C11.591,35.81,8.753,38.647,8.753,42.136z"/>
	<path class="st1" d="M35.537,57.778c-3.116,0-5.754-1.9-6.816-4.632c-1.063,2.731-3.702,4.632-6.817,4.632
		c-4.039,0-7.325-3.286-7.325-7.326c0-0.33,0.024-0.666,0.072-1.004c-3.841-0.222-6.897-3.417-6.897-7.313
		c0-0.977,0.188-1.917,0.559-2.805c-3.31-0.736-5.729-3.696-5.729-7.145c0-3.542,2.481-6.51,5.883-7.183
		c-0.468-0.981-0.713-2.053-0.713-3.139c0-3.896,3.057-7.091,6.897-7.313c-0.048-0.338-0.072-0.674-0.072-1.004
		c0-4.039,3.286-7.325,7.325-7.325c3.115,0,5.754,1.9,6.817,4.631c1.063-2.731,3.7-4.631,6.816-4.631
		c4.04,0,7.326,3.286,7.326,7.325c0,0.33-0.024,0.666-0.072,1.004c3.841,0.223,6.897,3.418,6.897,7.313
		c0,1.086-0.245,2.159-0.713,3.139c3.4,0.672,5.882,3.641,5.882,7.183c0,3.449-2.42,6.409-5.729,7.145
		c0.367,0.888,0.56,1.845,0.56,2.805c0,3.896-3.057,7.091-6.897,7.313c0.048,0.338,0.072,0.674,0.072,1.004
		C42.863,54.492,39.577,57.778,35.537,57.778z M28.721,50.125L28.721,50.125c0.271,0,0.493,0.217,0.5,0.487
		c0.086,3.458,2.86,6.166,6.316,6.166c3.488,0,6.326-2.838,6.326-6.326c0-0.453-0.054-0.921-0.159-1.391
		c-0.033-0.151,0.005-0.31,0.104-0.429c0.099-0.118,0.255-0.171,0.402-0.181l0.14,0.465l0.014-0.003v-0.453
		c3.487,0,6.325-2.838,6.325-6.325c0-1.037-0.246-2.03-0.732-2.951c-0.076-0.146-0.077-0.318-0.001-0.464
		c0.075-0.146,0.218-0.245,0.381-0.266c3.147-0.399,5.521-3.094,5.521-6.269c0-3.273-2.454-5.979-5.709-6.294
		c-0.172-0.017-0.322-0.12-0.399-0.273s-0.069-0.336,0.02-0.484c0.602-0.99,0.92-2.121,0.92-3.27c0-3.488-2.838-6.326-6.325-6.326
		c-0.165-0.01-0.38-0.059-0.479-0.178c-0.098-0.119-0.214-0.272-0.181-0.422c0.105-0.47,0.159-0.938,0.159-1.391
		c0-3.488-2.838-6.325-6.326-6.325c-3.456,0-6.23,2.708-6.316,6.165c-0.007,0.271-0.229,0.488-0.5,0.488s-0.493-0.216-0.5-0.487
		c-0.087-3.458-2.861-6.166-6.317-6.166c-3.487,0-6.325,2.837-6.325,6.325c0,0.453,0.054,0.921,0.159,1.391
		c0.033,0.15-0.004,0.308-0.102,0.427c-0.099,0.119-0.251,0.172-0.399,0.183l-0.145-0.465l-0.014,0.003v0.453
		c-3.487,0-6.325,2.838-6.325,6.326c0,1.148,0.317,2.279,0.919,3.271c0.089,0.147,0.097,0.33,0.02,0.483s-0.228,0.257-0.399,0.273
		c-3.255,0.315-5.709,3.021-5.709,6.294c0,3.175,2.374,5.869,5.522,6.269c0.163,0.021,0.306,0.12,0.381,0.266
		c0.076,0.146,0.075,0.319-0.001,0.464c-0.486,0.919-0.732,1.912-0.732,2.951c0,3.487,2.838,6.325,6.325,6.325
		c0.141,0.009,0.38,0.057,0.479,0.177c0.1,0.119,0.214,0.272,0.181,0.424c-0.105,0.47-0.159,0.938-0.159,1.391
		c0,3.488,2.838,6.326,6.325,6.326c3.456,0,6.23-2.708,6.317-6.166C28.228,50.341,28.449,50.125,28.721,50.125z"/>
	<path class="st1" d="M21.903,20.873c-4.039,0-7.325-3.286-7.325-7.326h1c0,3.488,2.838,6.326,6.325,6.326V20.873z"/>
	<rect x="28.221" y="13.375" class="st1" width="1" height="4.875"/>
	<polygon class="st6" points="27.041,19.682 18.906,33.389 29.212,33.389 23.23,45.925 39.163,29.089 26.671,29.089 34.098,19.682 	
		"/>
	<path class="st1" d="M23.23,46.425c-0.099,0-0.197-0.028-0.283-0.088c-0.203-0.139-0.274-0.405-0.168-0.627l5.64-11.821h-9.513
		c-0.18,0-0.346-0.097-0.435-0.253s-0.087-0.348,0.005-0.502l8.134-13.708c0.09-0.151,0.253-0.245,0.43-0.245h7.058
		c0.191,0,0.366,0.109,0.45,0.282c0.083,0.173,0.061,0.377-0.058,0.528l-6.787,8.597h11.46c0.2,0,0.38,0.119,0.459,0.302
		s0.041,0.396-0.096,0.542L23.594,46.269C23.496,46.371,23.363,46.425,23.23,46.425z M19.784,32.889h9.428
		c0.172,0,0.331,0.088,0.423,0.233c0.092,0.145,0.103,0.327,0.028,0.481l-4.615,9.674l12.954-13.688H26.671
		c-0.191,0-0.366-0.109-0.45-0.282c-0.083-0.173-0.061-0.378,0.058-0.528l6.787-8.597h-5.74L19.784,32.889z"/>
</g>
</svg>
