<?xml version="1.0" encoding="iso-8859-1"?>
<!-- Generator: Adobe Illustrator 22.0.1, SVG Export Plug-In . SVG Version: 6.00 Build 0)  -->
<svg version="1.1" id="Layer_1" xmlns="http://www.w3.org/2000/svg" xmlns:xlink="http://www.w3.org/1999/xlink" x="0px" y="0px"
	 viewBox="0 0 64 64" style="enable-background:new 0 0 64 64;" xml:space="preserve">
<style type="text/css">
	.st0{fill:#F8F3F3;}
	.st1{fill:#63312D;}
	.st2{fill:#E1DDDD;}
	.st3{fill:#84DBFF;}
	.st4{fill:#CAF4FF;}
	.st5{fill:#52BADB;}
	.st6{fill:#F9DD9D;}
	.st7{fill:#FFEECF;}
	.st8{fill:#EFC36A;}
	.st9{fill:#F7A085;}
	.st10{fill:#82D9FF;}
	.st11{fill:#F7DB9B;}
	.st12{fill:#F9A287;}
	.st13{fill:#FFC8BB;}
	.st14{fill:#52B8D9;}
	.st15{fill:#DB785A;}
	.st16{fill:#EDCB85;}
	.st17{fill:#DBAB56;}
	.st18{fill:#D3A553;}
	.st19{fill:#FFFFFF;}
</style>
<g>
	<path class="st14" d="M15.654,50.402c-2.897,0-5.245,2.348-5.245,5.245c0,2.897,2.348,5.245,5.245,5.245H48.83v-10.49H15.654z"/>
	<path class="st1" d="M48.83,61.392H15.654c-3.167,0-5.745-2.577-5.745-5.745c0-3.167,2.577-5.745,5.745-5.745H48.83
		c0.276,0,0.5,0.224,0.5,0.5v10.49C49.33,61.168,49.106,61.392,48.83,61.392z M15.654,50.902c-2.616,0-4.745,2.128-4.745,4.745
		c0,2.617,2.128,4.745,4.745,4.745H48.33v-9.49H15.654z"/>
	<path class="st10" d="M15.743,3.108c-2.946,0-5.334,2.388-5.334,5.334v47.204c0-2.897,2.348-5.245,5.245-5.245H48.83V3.108H15.743z
		"/>
	<path class="st4" d="M12.478,8.377c0-1.767,1.433-3.2,3.2-3.2H48.83V3.108H15.743c-2.946,0-5.334,2.388-5.334,5.334v47.204
		c0-1.697,0.819-3.189,2.068-4.148V8.377z"/>
	<path class="st1" d="M10.41,56.146c-0.276,0-0.5-0.224-0.5-0.5V8.442c0-3.217,2.617-5.834,5.833-5.834H48.83
		c0.276,0,0.5,0.224,0.5,0.5v47.293c0,0.276-0.224,0.5-0.5,0.5H15.654c-2.616,0-4.745,2.128-4.745,4.745
		C10.91,55.923,10.686,56.146,10.41,56.146z M15.743,3.608c-2.665,0-4.833,2.168-4.833,4.834v43.969
		c1.036-1.514,2.776-2.509,4.745-2.509H48.33V3.608H15.743z"/>
	<path class="st0" d="M15.96,52.935c-1.497,0-2.711,1.214-2.711,2.711c0,1.497,1.214,2.711,2.711,2.711h32.87v-5.423H15.96z"/>
	<path class="st1" d="M48.83,58.858H15.96c-1.771,0-3.211-1.44-3.211-3.211s1.44-3.211,3.211-3.211h32.87c0.276,0,0.5,0.224,0.5,0.5
		v5.423C49.33,58.634,49.106,58.858,48.83,58.858z M15.96,53.435c-1.219,0-2.211,0.992-2.211,2.211s0.992,2.211,2.211,2.211h32.37
		v-4.423H15.96z"/>
	<rect x="48.829" y="50.402" class="st14" width="4.762" height="2.534"/>
	<rect x="48.829" y="58.358" class="st14" width="4.762" height="2.534"/>
	<path class="st1" d="M53.591,53.436h-4.762c-0.276,0-0.5-0.224-0.5-0.5v-2.534c0-0.276,0.224-0.5,0.5-0.5h4.762
		c0.276,0,0.5,0.224,0.5,0.5v2.534C54.091,53.212,53.867,53.436,53.591,53.436z M49.329,52.436h3.762v-1.534h-3.762V52.436z"/>
	<polygon class="st11" points="19.995,40.283 18.266,38.554 16.537,36.826 40.441,12.923 43.898,16.38 	"/>
	<path class="st1" d="M19.995,40.783L19.995,40.783c-0.133,0-0.26-0.053-0.354-0.146l-3.458-3.458
		c-0.094-0.094-0.146-0.221-0.146-0.354s0.053-0.26,0.146-0.354l23.903-23.903c0.188-0.188,0.52-0.188,0.707,0l3.457,3.458
		c0.195,0.195,0.195,0.512,0,0.707L20.348,40.637C20.254,40.73,20.127,40.783,19.995,40.783z M17.244,36.826l2.75,2.75L43.19,16.38
		l-2.75-2.75L17.244,36.826z"/>
	<path class="st1" d="M53.591,61.392h-4.762c-0.276,0-0.5-0.224-0.5-0.5v-2.534c0-0.276,0.224-0.5,0.5-0.5h4.762
		c0.276,0,0.5,0.224,0.5,0.5v2.534C54.091,61.168,53.867,61.392,53.591,61.392z M49.329,60.392h3.762v-1.534h-3.762V60.392z"/>
	<rect x="48.829" y="52.935" class="st2" width="4.762" height="5.423"/>
	<path class="st1" d="M53.591,58.858h-4.762c-0.276,0-0.5-0.224-0.5-0.5v-5.422c0-0.276,0.224-0.5,0.5-0.5h4.762
		c0.276,0,0.5,0.224,0.5,0.5v5.422C54.091,58.634,53.867,58.858,53.591,58.858z M49.329,57.858h3.762v-4.422h-3.762V57.858z"/>
	
		<rect x="38.686" y="14.61" transform="matrix(0.7071 -0.7071 0.7071 0.7071 0.4081 32.2937)" class="st1" width="1" height="2.09"/>
	
		<rect x="36.858" y="16.438" transform="matrix(0.7072 -0.707 0.707 0.7072 -1.4221 31.5304)" class="st1" width="1" height="2.089"/>
	
		<rect x="35.031" y="18.265" transform="matrix(0.707 -0.7072 0.7072 0.707 -3.2455 30.7862)" class="st1" width="1" height="2.089"/>
	
		<rect x="33.203" y="20.093" transform="matrix(0.7071 -0.7071 0.7071 0.7071 -5.0751 30.0226)" class="st1" width="1" height="2.089"/>
	
		<rect x="31.375" y="21.921" transform="matrix(0.7071 -0.7071 0.7071 0.7071 -6.9027 29.2655)" class="st1" width="1" height="2.089"/>
	
		<rect x="29.547" y="23.748" transform="matrix(0.7071 -0.7071 0.7071 0.7071 -8.7306 28.5084)" class="st1" width="1" height="2.09"/>
	
		<rect x="27.72" y="25.576" transform="matrix(0.7072 -0.707 0.707 0.7072 -10.5585 27.7448)" class="st1" width="1" height="2.089"/>
	
		<rect x="25.892" y="27.404" transform="matrix(0.7071 -0.7071 0.7071 0.7071 -12.3861 26.9942)" class="st1" width="1" height="2.089"/>
	
		<rect x="24.064" y="29.232" transform="matrix(0.7071 -0.7071 0.7071 0.7071 -14.2138 26.2372)" class="st1" width="1" height="2.089"/>
	
		<rect x="22.237" y="31.059" transform="matrix(0.7071 -0.7071 0.7071 0.7071 -16.0414 25.4802)" class="st1" width="1" height="2.089"/>
	
		<rect x="20.409" y="32.887" transform="matrix(0.707 -0.7072 0.7072 0.707 -17.8706 24.7294)" class="st1" width="1" height="2.089"/>
	
		<rect x="18.581" y="34.715" transform="matrix(0.7071 -0.7071 0.7071 0.7071 -19.6969 23.966)" class="st1" width="1" height="2.09"/>
	<rect x="48.829" y="3.108" class="st14" width="4.762" height="47.293"/>
	<path class="st1" d="M53.591,50.902h-4.762c-0.276,0-0.5-0.224-0.5-0.5V3.108c0-0.276,0.224-0.5,0.5-0.5h4.762
		c0.276,0,0.5,0.224,0.5,0.5v47.293C54.091,50.678,53.867,50.902,53.591,50.902z M49.329,49.902h3.762V3.608h-3.762V49.902z"/>
	<polygon class="st9" points="41.037,34.562 42.955,39.622 37.894,37.705 16.412,16.223 19.555,13.08 	"/>
	<polygon class="st0" points="37.894,37.705 42.955,39.622 41.037,34.562 	"/>
	
		<rect x="17.804" y="13.805" transform="matrix(0.7071 -0.7071 0.7071 0.7071 -5.9388 19.0507)" class="st11" width="4.445" height="5.778"/>
	<path class="st1" d="M42.955,40.122c-0.06,0-0.119-0.011-0.177-0.032l-5.061-1.917c-0.066-0.025-0.127-0.064-0.177-0.114
		L16.059,16.576c-0.195-0.195-0.195-0.512,0-0.707l3.143-3.143c0.188-0.188,0.52-0.188,0.707,0l21.481,21.482
		c0.05,0.05,0.089,0.11,0.114,0.176l1.918,5.061c0.069,0.184,0.024,0.392-0.114,0.531C43.213,40.071,43.085,40.122,42.955,40.122z
		 M38.172,37.275l3.922,1.486l-1.486-3.922L19.556,13.787l-2.436,2.436L38.172,37.275z"/>
	
		<rect x="37.244" y="35.633" transform="matrix(0.7071 -0.7071 0.7071 0.7071 -13.9907 38.4897)" class="st1" width="4.445" height="1"/>
	
		<rect x="19.848" y="18.237" transform="matrix(0.7071 -0.7071 0.7071 0.7071 -6.785 21.0937)" class="st1" width="4.445" height="1"/>
	
		<rect x="30.307" y="15.118" transform="matrix(0.7071 -0.7071 0.7071 0.7071 -10.4042 29.8318)" class="st1" width="1" height="24.713"/>
</g>
</svg>
