<?xml version="1.0" encoding="iso-8859-1"?>
<!-- Generator: Adobe Illustrator 22.0.1, SVG Export Plug-In . SVG Version: 6.00 Build 0)  -->
<svg version="1.1" id="Layer_1" xmlns="http://www.w3.org/2000/svg" xmlns:xlink="http://www.w3.org/1999/xlink" x="0px" y="0px"
	 viewBox="0 0 64 64" style="enable-background:new 0 0 64 64;" xml:space="preserve">
<style type="text/css">
	.st0{fill:#F8F3F3;}
	.st1{fill:#63312D;}
	.st2{fill:#E1DDDD;}
	.st3{fill:#84DBFF;}
	.st4{fill:#CAF4FF;}
	.st5{fill:#52BADB;}
	.st6{fill:#F9DD9D;}
	.st7{fill:#FFEECF;}
	.st8{fill:#EFC36A;}
	.st9{fill:#F7A085;}
	.st10{fill:#82D9FF;}
	.st11{fill:#F7DB9B;}
	.st12{fill:#F9A287;}
	.st13{fill:#FFC8BB;}
	.st14{fill:#52B8D9;}
	.st15{fill:#DB785A;}
	.st16{fill:#EDCB85;}
	.st17{fill:#DBAB56;}
	.st18{fill:#D3A553;}
	.st19{fill:#FFFFFF;}
</style>
<g>
	<rect x="17.51" y="3.108" class="st0" width="39.959" height="57.783"/>
	<rect x="17.51" y="3.108" class="st10" width="39.959" height="5.156"/>
	<polygon class="st4" points="19.51,5.153 57.469,5.153 57.469,3.108 17.51,3.108 17.51,8.264 19.51,8.264 	"/>
	<path class="st1" d="M57.469,61.392H17.51c-0.276,0-0.5-0.224-0.5-0.5V3.108c0-0.276,0.224-0.5,0.5-0.5h39.959
		c0.276,0,0.5,0.224,0.5,0.5v57.783C57.969,61.168,57.746,61.392,57.469,61.392z M18.01,60.392h38.959V3.608H18.01V60.392z"/>
	<rect x="57.469" y="3.108" class="st14" width="3.423" height="57.783"/>
	<path class="st1" d="M60.892,61.392h-3.422c-0.276,0-0.5-0.224-0.5-0.5V3.108c0-0.276,0.224-0.5,0.5-0.5h3.422
		c0.276,0,0.5,0.224,0.5,0.5v57.783C61.392,61.168,61.168,61.392,60.892,61.392z M57.969,60.392h2.422V3.608h-2.422V60.392z"/>
	<rect x="3.108" y="43.201" class="st0" width="32.092" height="17.691"/>
	<rect x="3.108" y="43.201" class="st10" width="32.092" height="3.334"/>
	<polygon class="st4" points="4.931,45.023 35.2,45.023 35.2,43.201 3.108,43.201 3.108,46.535 4.931,46.535 	"/>
	<path class="st1" d="M35.2,61.392H3.108c-0.276,0-0.5-0.224-0.5-0.5v-17.69c0-0.276,0.224-0.5,0.5-0.5H35.2
		c0.276,0,0.5,0.224,0.5,0.5v17.69C35.7,61.168,35.477,61.392,35.2,61.392z M3.608,60.392H34.7v-16.69H3.608V60.392z"/>
	<rect x="35.2" y="43.201" class="st14" width="2.822" height="17.691"/>
	<path class="st1" d="M38.023,61.392H35.2c-0.276,0-0.5-0.224-0.5-0.5v-17.69c0-0.276,0.224-0.5,0.5-0.5h2.823
		c0.276,0,0.5,0.224,0.5,0.5v17.69C38.523,61.168,38.299,61.392,38.023,61.392z M35.7,60.392h1.823v-16.69H35.7V60.392z"/>
	<rect x="41.779" y="43.201" class="st0" width="12.935" height="17.691"/>
	<rect x="41.779" y="43.201" class="st10" width="12.935" height="3.334"/>
	<polygon class="st4" points="43.412,44.868 54.713,44.868 54.713,43.201 41.779,43.201 41.779,46.535 43.412,46.535 	"/>
	<path class="st1" d="M54.713,61.392H41.779c-0.276,0-0.5-0.224-0.5-0.5v-17.69c0-0.276,0.224-0.5,0.5-0.5h12.935
		c0.276,0,0.5,0.224,0.5,0.5v17.69C55.213,61.168,54.99,61.392,54.713,61.392z M42.279,60.392h11.935v-16.69H42.279V60.392z"/>
	<rect x="54.713" y="43.201" class="st2" width="2.756" height="17.691"/>
	<path class="st1" d="M57.469,61.392h-2.756c-0.276,0-0.5-0.224-0.5-0.5v-17.69c0-0.276,0.224-0.5,0.5-0.5h2.756
		c0.276,0,0.5,0.224,0.5,0.5v17.69C57.969,61.168,57.746,61.392,57.469,61.392z M55.213,60.392h1.756v-16.69h-1.756V60.392z"/>
	<polygon class="st9" points="12.309,33.489 10.087,38.423 7.864,33.489 7.864,3.108 12.309,3.108 	"/>
	<polygon class="st0" points="7.864,33.489 10.087,38.423 12.309,33.489 	"/>
	<rect x="7.864" y="3.108" class="st10" width="4.445" height="5.778"/>
	<path class="st1" d="M10.087,38.923c-0.197,0-0.375-0.115-0.456-0.294l-2.223-4.935c-0.029-0.065-0.044-0.135-0.044-0.206V3.108
		c0-0.276,0.224-0.5,0.5-0.5h4.445c0.276,0,0.5,0.224,0.5,0.5v30.38c0,0.071-0.015,0.141-0.044,0.205l-2.222,4.935
		C10.462,38.808,10.284,38.923,10.087,38.923z M8.364,33.381l1.723,3.824l1.722-3.824V3.608H8.364V33.381z"/>
	<rect x="7.864" y="32.988" class="st1" width="4.445" height="1"/>
	<rect x="7.864" y="8.387" class="st1" width="4.445" height="1"/>
	<rect x="9.587" y="8.887" class="st1" width="1" height="24.713"/>
	<circle class="st9" cx="24.833" cy="14.174" r="2.889"/>
	<path class="st1" d="M24.833,17.563c-1.869,0-3.389-1.521-3.389-3.389s1.521-3.389,3.389-3.389s3.389,1.521,3.389,3.389
		S26.701,17.563,24.833,17.563z M24.833,11.785c-1.317,0-2.389,1.072-2.389,2.389s1.072,2.389,2.389,2.389s2.389-1.072,2.389-2.389
		S26.15,11.785,24.833,11.785z"/>
	<rect x="31.6" y="10.785" class="st1" width="21.469" height="1"/>
	<rect x="31.6" y="13.674" class="st1" width="21.469" height="1"/>
	<rect x="31.6" y="16.563" class="st1" width="21.469" height="1"/>
	<circle class="st9" cx="7.864" cy="50.814" r="1.989"/>
	<path class="st1" d="M7.864,53.304c-1.372,0-2.489-1.117-2.489-2.489s1.117-2.489,2.489-2.489c1.373,0,2.489,1.117,2.489,2.489
		S9.237,53.304,7.864,53.304z M7.864,49.325c-0.821,0-1.489,0.668-1.489,1.489s0.668,1.489,1.489,1.489
		c0.821,0,1.489-0.668,1.489-1.489S8.686,49.325,7.864,49.325z"/>
	<circle class="st9" cx="45.431" cy="49.52" r="1.504"/>
	<path class="st1" d="M45.431,51.524c-1.105,0-2.004-0.899-2.004-2.003c0-1.105,0.899-2.004,2.004-2.004
		c1.104,0,2.003,0.899,2.003,2.004C47.435,50.625,46.536,51.524,45.431,51.524z M45.431,48.517c-0.554,0-1.004,0.45-1.004,1.004
		c0,0.553,0.45,1.003,1.004,1.003c0.553,0,1.003-0.45,1.003-1.003C46.435,48.967,45.984,48.517,45.431,48.517z"/>
	<rect x="24.599" y="55.069" class="st11" width="8.067" height="3.6"/>
</g>
</svg>
