<?xml version="1.0" encoding="iso-8859-1"?>
<!-- Generator: Adobe Illustrator 22.0.1, SVG Export Plug-In . SVG Version: 6.00 Build 0)  -->
<svg version="1.1" id="Layer_1" xmlns="http://www.w3.org/2000/svg" xmlns:xlink="http://www.w3.org/1999/xlink" x="0px" y="0px"
	 viewBox="0 0 64 64" style="enable-background:new 0 0 64 64;" xml:space="preserve">
<style type="text/css">
	.st0{fill:#F8F3F3;}
	.st1{fill:#63312D;}
	.st2{fill:#E1DDDD;}
	.st3{fill:#84DBFF;}
	.st4{fill:#CAF4FF;}
	.st5{fill:#52BADB;}
	.st6{fill:#F9DD9D;}
	.st7{fill:#FFEECF;}
	.st8{fill:#EFC36A;}
	.st9{fill:#F7A085;}
	.st10{fill:#82D9FF;}
	.st11{fill:#F7DB9B;}
	.st12{fill:#F9A287;}
	.st13{fill:#FFC8BB;}
	.st14{fill:#52B8D9;}
	.st15{fill:#DB785A;}
	.st16{fill:#EDCB85;}
	.st17{fill:#DBAB56;}
	.st18{fill:#D3A553;}
	.st19{fill:#FFFFFF;}
</style>
<g>
	<path class="st0" d="M55.5,48.002H5.108c-1.105,0-2-0.895-2-2V14.335c0-1.105,0.895-2,2-2H55.5c1.105,0,2,0.895,2,2v31.667
		C57.5,47.106,56.605,48.002,55.5,48.002z"/>
	<path class="st1" d="M55.5,48.502H5.108c-1.378,0-2.5-1.121-2.5-2.5V14.335c0-1.379,1.122-2.5,2.5-2.5H55.5
		c1.378,0,2.5,1.121,2.5,2.5v31.667C58,47.381,56.878,48.502,55.5,48.502z M5.108,12.835c-0.827,0-1.5,0.673-1.5,1.5v31.667
		c0,0.827,0.673,1.5,1.5,1.5H55.5c0.827,0,1.5-0.673,1.5-1.5V14.335c0-0.827-0.673-1.5-1.5-1.5H5.108z"/>
	<path class="st14" d="M58.892,12.335H55.5c1.105,0,2,0.895,2,2v31.667c0,1.105-0.895,2-2,2h3.392c1.105,0,2-0.895,2-2V14.335
		C60.892,13.23,59.996,12.335,58.892,12.335z"/>
	<path class="st1" d="M58.892,48.502H55.5c-0.276,0-0.5-0.224-0.5-0.5s0.224-0.5,0.5-0.5c0.827,0,1.5-0.673,1.5-1.5V14.335
		c0-0.827-0.673-1.5-1.5-1.5c-0.276,0-0.5-0.224-0.5-0.5s0.224-0.5,0.5-0.5h3.392c1.378,0,2.5,1.121,2.5,2.5v31.667
		C61.392,47.381,60.27,48.502,58.892,48.502z M57.499,47.502h1.393c0.827,0,1.5-0.673,1.5-1.5V14.335c0-0.827-0.673-1.5-1.5-1.5
		h-1.393c0.314,0.418,0.501,0.938,0.501,1.5v31.667C58,46.564,57.813,47.084,57.499,47.502z"/>
	<polygon class="st12" points="40.907,42.728 39.164,50.782 41.541,49.666 43.244,51.665 44.987,43.611 	"/>
	<polygon class="st12" points="49.903,42.728 51.643,50.77 49.267,49.657 47.563,51.653 45.822,43.611 	"/>
	<path class="st1" d="M43.244,52.165c-0.145,0-0.284-0.063-0.381-0.176l-1.455-1.708l-2.032,0.953
		c-0.172,0.082-0.375,0.058-0.524-0.061c-0.149-0.119-0.217-0.312-0.177-0.497l1.743-8.054c0.059-0.271,0.327-0.442,0.595-0.383
		l4.081,0.883c0.129,0.027,0.243,0.106,0.314,0.218s0.096,0.247,0.068,0.376l-1.744,8.054c-0.041,0.187-0.183,0.333-0.367,0.38
		C43.325,52.16,43.284,52.165,43.244,52.165z M41.541,49.166c0.143,0,0.283,0.062,0.381,0.176l1.047,1.229l1.424-6.577l-3.103-0.671
		L39.866,49.9l1.462-0.687C41.396,49.182,41.469,49.166,41.541,49.166z"/>
	<path class="st1" d="M47.563,52.153c-0.041,0-0.082-0.005-0.122-0.015c-0.184-0.047-0.326-0.193-0.367-0.38l-1.741-8.042
		c-0.028-0.129-0.003-0.265,0.068-0.376s0.185-0.19,0.314-0.218l4.08-0.883c0.271-0.06,0.536,0.112,0.595,0.383l1.741,8.042
		c0.04,0.186-0.028,0.378-0.177,0.496c-0.149,0.119-0.351,0.142-0.524,0.063l-2.031-0.953l-1.456,1.707
		C47.847,52.091,47.708,52.153,47.563,52.153z M46.417,43.994l1.421,6.566l1.048-1.229c0.146-0.172,0.388-0.223,0.593-0.129
		l1.461,0.686l-1.421-6.565L46.417,43.994z"/>
	<polygon class="st6" points="45.399,32.043 48.323,31.351 49.902,33.909 52.459,35.487 51.767,38.412 52.459,41.337 49.902,42.915 
		48.323,45.472 45.399,44.781 42.474,45.472 40.896,42.915 38.338,41.337 39.03,38.412 38.338,35.487 40.896,33.909 42.474,31.351 	
		"/>
	<path class="st1" d="M48.324,45.973c-0.038,0-0.077-0.004-0.115-0.014l-2.81-0.665l-2.81,0.665
		c-0.213,0.053-0.428-0.041-0.541-0.224l-1.517-2.457l-2.457-1.516c-0.183-0.113-0.273-0.331-0.224-0.541l0.665-2.81l-0.665-2.81
		c-0.049-0.21,0.041-0.428,0.224-0.541l2.457-1.516l1.517-2.457c0.113-0.184,0.327-0.277,0.541-0.224l2.81,0.664l2.81-0.664
		c0.212-0.053,0.427,0.041,0.541,0.224l1.517,2.457l2.457,1.516c0.183,0.113,0.273,0.331,0.224,0.541l-0.665,2.81l0.665,2.81
		c0.049,0.21-0.041,0.428-0.224,0.541l-2.457,1.516l-1.517,2.457C48.657,45.885,48.495,45.973,48.324,45.973z M45.399,44.28
		c0.039,0,0.077,0.005,0.115,0.014l2.574,0.609l1.389-2.251c0.041-0.066,0.097-0.122,0.163-0.163l2.25-1.389l-0.609-2.573
		c-0.018-0.076-0.018-0.154,0-0.23l0.609-2.573l-2.25-1.389c-0.066-0.041-0.122-0.097-0.163-0.163l-1.389-2.251l-2.574,0.608
		c-0.076,0.018-0.154,0.018-0.23,0l-2.574-0.608l-1.389,2.251c-0.041,0.066-0.097,0.122-0.163,0.163l-2.25,1.389l0.609,2.573
		c0.018,0.076,0.018,0.154,0,0.23l-0.609,2.573l2.25,1.389c0.066,0.041,0.122,0.097,0.163,0.163l1.389,2.251l2.574-0.609
		C45.322,44.285,45.36,44.28,45.399,44.28z"/>
	<circle class="st10" cx="45.399" cy="38.412" r="3.883"/>
	<path class="st1" d="M45.399,42.795c-2.417,0-4.383-1.966-4.383-4.383s1.966-4.383,4.383-4.383s4.383,1.966,4.383,4.383
		S47.815,42.795,45.399,42.795z M45.399,35.029c-1.865,0-3.383,1.518-3.383,3.383s1.518,3.383,3.383,3.383s3.383-1.518,3.383-3.383
		S47.264,35.029,45.399,35.029z"/>
	<rect x="10.804" y="19.502" class="st10" width="39" height="3.083"/>
	<path class="st1" d="M49.804,23.085h-39c-0.276,0-0.5-0.224-0.5-0.5v-3.083c0-0.276,0.224-0.5,0.5-0.5h39
		c0.276,0,0.5,0.224,0.5,0.5v3.083C50.304,22.861,50.081,23.085,49.804,23.085z M11.304,22.085h38v-2.083h-38V22.085z"/>
	<rect x="10.804" y="30.852" class="st1" width="23.008" height="1"/>
	<rect x="10.804" y="34.658" class="st1" width="23.008" height="1"/>
	<rect x="10.804" y="27.002" class="st1" width="39" height="1"/>
	<rect x="11" y="41.008" class="st1" width="6.837" height="1"/>
</g>
</svg>
