<?xml version="1.0" encoding="iso-8859-1"?>
<!-- Generator: Adobe Illustrator 22.0.1, SVG Export Plug-In . SVG Version: 6.00 Build 0)  -->
<svg version="1.1" id="Layer_1" xmlns="http://www.w3.org/2000/svg" xmlns:xlink="http://www.w3.org/1999/xlink" x="0px" y="0px"
	 viewBox="0 0 64 64" style="enable-background:new 0 0 64 64;" xml:space="preserve">
<style type="text/css">
	.st0{fill:#F8F3F3;}
	.st1{fill:#63312D;}
	.st2{fill:#E1DDDD;}
	.st3{fill:#84DBFF;}
	.st4{fill:#CAF4FF;}
	.st5{fill:#52BADB;}
	.st6{fill:#F9DD9D;}
	.st7{fill:#FFEECF;}
	.st8{fill:#EFC36A;}
	.st9{fill:#F7A085;}
	.st10{fill:#82D9FF;}
	.st11{fill:#F7DB9B;}
	.st12{fill:#F9A287;}
	.st13{fill:#FFC8BB;}
	.st14{fill:#52B8D9;}
	.st15{fill:#DB785A;}
	.st16{fill:#EDCB85;}
	.st17{fill:#DBAB56;}
	.st18{fill:#D3A553;}
	.st19{fill:#FFFFFF;}
</style>
<g>
	<path class="st10" d="M29.191,28.68H16.665c-6.986,0-12.649,5.663-12.649,12.649v19.566h37.825V41.33
		C41.841,34.344,36.178,28.68,29.191,28.68z"/>
	<path class="st4" d="M5.89,41.892c0-6.986,5.663-12.649,12.649-12.649h12.526c0.901,0,1.778,0.098,2.625,0.276
		c-1.4-0.534-2.913-0.839-4.5-0.839H16.665c-6.986,0-12.649,5.663-12.649,12.649v19.566H5.89V41.892z"/>
	<polyline class="st0" points="15.017,28.68 22.65,40.14 30.282,28.68 	"/>
	<path class="st1" d="M22.65,40.64c-0.167,0-0.323-0.083-0.416-0.223l-7.633-11.46l0.832-0.555l7.217,10.835l7.216-10.835
		l0.832,0.555l-7.632,11.46C22.973,40.557,22.817,40.64,22.65,40.64z"/>
	<circle class="st6" cx="22.928" cy="14.503" r="11.394"/>
	<path class="st7" d="M13.284,14.972c0-6.293,5.102-11.394,11.394-11.394c0.701,0,1.383,0.073,2.049,0.194
		c-1.19-0.421-2.465-0.662-3.799-0.662c-6.293,0-11.394,5.102-11.394,11.394c0,5.593,4.032,10.235,9.346,11.201
		C16.457,24.138,13.284,19.931,13.284,14.972z"/>
	<g>
		<path class="st8" d="M22.65,3.122c0.093-0.002,0.184-0.014,0.278-0.014H22.65V3.122z"/>
		<path class="st8" d="M22.65,25.897h0.278c-0.094,0-0.185-0.012-0.278-0.014V25.897z"/>
		<path class="st8" d="M28.736,3.108h-5.808c6.293,0,11.394,5.102,11.394,11.394c0,6.293-5.102,11.394-11.394,11.394h5.808
			c6.293,0,11.394-5.101,11.394-11.394C40.131,8.21,35.029,3.108,28.736,3.108z"/>
	</g>
	<g>
		<path class="st15" d="M22.65,3.122c0.093-0.002,0.184-0.014,0.278-0.014H22.65V3.122z"/>
		<path class="st15" d="M34.319,14.442h5.808C40.095,8.177,35.009,3.108,28.736,3.108h-5.808C29.2,3.108,34.286,8.177,34.319,14.442
			z"/>
	</g>
	<g>
		<path class="st1" d="M22.65,3.623c-0.13,0-0.255-0.051-0.349-0.142c-0.096-0.094-0.151-0.223-0.151-0.358V3.108
			c0-0.276,0.224-0.5,0.5-0.5h0.278c0.276,0,0.5,0.224,0.5,0.5s-0.224,0.5-0.5,0.5l-0.265,0.014
			C22.659,3.623,22.654,3.623,22.65,3.623z"/>
		<path class="st1" d="M40.128,14.942h-5.809c-0.275,0-0.499-0.222-0.5-0.498C33.788,8.469,28.902,3.608,22.928,3.608
			c-0.276,0-0.5-0.224-0.5-0.5s0.224-0.5,0.5-0.5h5.808c6.522,0,11.857,5.307,11.892,11.831c0,0.133-0.052,0.261-0.146,0.355
			S40.261,14.942,40.128,14.942z M34.806,13.942h4.808C39.32,8.199,34.542,3.608,28.736,3.608h-1.044
			C31.718,5.38,34.59,9.323,34.806,13.942z"/>
	</g>
	<g>
		<path class="st1" d="M22.65,3.623c-0.13,0-0.255-0.051-0.349-0.142c-0.096-0.094-0.151-0.223-0.151-0.358V3.108
			c0-0.276,0.224-0.5,0.5-0.5h0.278c0.276,0,0.5,0.224,0.5,0.5s-0.224,0.5-0.5,0.5l-0.265,0.014
			C22.659,3.623,22.654,3.623,22.65,3.623z"/>
		<path class="st1" d="M22.928,26.397H22.65c-0.276,0-0.5-0.224-0.5-0.5v-0.014c0-0.135,0.055-0.264,0.151-0.358
			c0.097-0.095,0.22-0.148,0.362-0.142l0.265,0.014c0.276,0,0.5,0.224,0.5,0.5S23.205,26.397,22.928,26.397z"/>
		<path class="st1" d="M28.736,26.397h-5.808c-0.276,0-0.5-0.224-0.5-0.5s0.224-0.5,0.5-0.5c6.007,0,10.895-4.887,10.895-10.895
			S28.936,3.608,22.928,3.608c-0.276,0-0.5-0.224-0.5-0.5s0.224-0.5,0.5-0.5h5.808c6.559,0,11.895,5.336,11.895,11.895
			S35.295,26.397,28.736,26.397z M27.702,25.397h1.035c6.007,0,10.895-4.887,10.895-10.895S34.744,3.608,28.736,3.608h-1.035
			c4.189,1.842,7.121,6.032,7.121,10.895S31.891,23.555,27.702,25.397z"/>
	</g>
	<path class="st1" d="M41.841,61.396H4.016c-0.276,0-0.5-0.224-0.5-0.5V41.33c0-7.25,5.899-13.149,13.149-13.149h12.526
		c7.25,0,13.149,5.899,13.149,13.149v19.566C42.341,61.172,42.117,61.396,41.841,61.396z M4.516,60.396h36.825V41.33
		c0-6.699-5.45-12.149-12.149-12.149H16.665c-6.699,0-12.149,5.45-12.149,12.149V60.396z"/>
	<rect x="11.034" y="40.108" class="st1" width="1" height="20.788"/>
	<rect x="34.755" y="40.379" class="st1" width="1" height="20.517"/>
	<path class="st14" d="M34.777,28.68h-5.585c6.986,0,12.649,5.663,12.649,12.649v19.566h5.585V41.33
		C47.426,34.344,41.763,28.68,34.777,28.68z"/>
	<path class="st1" d="M47.426,61.396h-5.585c-0.276,0-0.5-0.224-0.5-0.5V41.33c0-6.699-5.45-12.149-12.149-12.149
		c-0.276,0-0.5-0.224-0.5-0.5s0.224-0.5,0.5-0.5h5.585c7.25,0,13.149,5.899,13.149,13.149v19.566
		C47.926,61.172,47.703,61.396,47.426,61.396z M42.341,60.396h4.585V41.33c0-6.699-5.45-12.149-12.149-12.149h-0.555
		c4.762,1.979,8.119,6.68,8.119,12.149V60.396z"/>
	<polygon class="st9" points="29.372,48.388 22.161,51.12 24.893,43.909 55.506,13.296 59.985,17.775 	"/>
	<polygon class="st0" points="24.893,43.909 22.161,51.12 29.372,48.388 	"/>
	
		<rect x="50.717" y="15.28" transform="matrix(0.7071 -0.7071 0.7071 0.7071 3.0167 44.1763)" class="st11" width="8.234" height="6.334"/>
	<path class="st1" d="M22.161,51.62c-0.13,0-0.258-0.051-0.354-0.146c-0.139-0.139-0.184-0.347-0.114-0.531l2.732-7.211
		c0.025-0.066,0.064-0.126,0.114-0.176l30.613-30.613c0.188-0.188,0.52-0.188,0.707,0l4.479,4.479c0.195,0.195,0.195,0.512,0,0.707
		L29.726,48.741c-0.05,0.05-0.11,0.089-0.176,0.114l-7.211,2.732C22.28,51.609,22.22,51.62,22.161,51.62z M25.323,44.187
		l-2.301,6.073l6.073-2.301l30.183-30.183l-3.771-3.772L25.323,44.187z"/>
	
		<rect x="26.633" y="42.981" transform="matrix(0.7071 -0.7071 0.7071 0.7071 -24.6848 32.7021)" class="st1" width="1" height="6.334"/>
	
		<rect x="51.423" y="18.191" transform="matrix(0.7071 -0.7071 0.7071 0.7071 0.1053 42.9705)" class="st1" width="1" height="6.334"/>
	
		<rect x="21.862" y="33.309" transform="matrix(0.7071 -0.7071 0.7071 0.7071 -12.346 37.8129)" class="st1" width="35.218" height="1"/>
	<path class="st12" d="M30.185,5.714l-0.09,0.17c0,0-5.24,8.03-16.72,10.46c-0.53,0.11-1.07,0.21-1.63,0.3
		c-0.06-0.31-0.11-0.62-0.14-0.94c-0.05-0.4-0.07-0.8-0.07-1.2c0-6.29,5.1-11.4,11.39-11.4c0.17,0,0.34,0,0.51,0.01
		C25.995,3.234,28.335,4.184,30.185,5.714z"/>
	<path class="st12" d="M30.174,5.736l-0.082,0.143c0,0-1.398,2.134-4.315,4.534l0.003,0.029c0,0,3.576,3.089,8.518,3.582
		C34.159,10.685,32.582,7.728,30.174,5.736z"/>
	<path class="st13" d="M26.725,3.774c-0.66-0.12-1.35-0.2-2.05-0.2c-6.29,0-11.39,5.1-11.39,11.4c0,0.47,0.03,0.92,0.09,1.37
		c-0.53,0.11-1.07,0.21-1.63,0.3c-0.06-0.31-0.11-0.62-0.14-0.94c-0.05-0.4-0.07-0.8-0.07-1.2c0-6.29,5.1-11.4,11.39-11.4
		c0.17,0,0.34,0,0.51,0.01C24.585,3.174,25.685,3.404,26.725,3.774z"/>
	<path class="st1" d="M22.928,26.397c-6.559,0-11.895-5.336-11.895-11.895S16.37,2.608,22.928,2.608s11.895,5.336,11.895,11.895
		S29.487,26.397,22.928,26.397z M22.928,3.608c-6.007,0-10.895,4.887-10.895,10.895s4.887,10.895,10.895,10.895
		s10.895-4.887,10.895-10.895S28.936,3.608,22.928,3.608z"/>
	<path class="st1" d="M11.741,17.141c-0.236,0-0.445-0.167-0.491-0.407c-0.144-0.755-0.216-1.505-0.216-2.231
		c0-6.559,5.336-11.895,11.895-11.895c2.76,0,5.451,0.968,7.576,2.725c0.188,0.155,0.236,0.422,0.115,0.634l-0.092,0.161
		c-0.254,0.392-6.019,9.032-18.709,11.007C11.792,17.139,11.766,17.141,11.741,17.141z M22.928,3.608
		c-6.007,0-10.895,4.887-10.895,10.895c0,0.51,0.04,1.034,0.118,1.564c10.821-1.865,16.392-8.898,17.367-10.24
		C27.631,4.394,25.308,3.608,22.928,3.608z"/>
	<path class="st1" d="M34.298,14.523c-0.017,0-0.033-0.001-0.049-0.002c-5.041-0.502-8.645-3.57-8.795-3.701
		c-0.097-0.083-0.158-0.201-0.171-0.328c-0.017-0.167,0.048-0.359,0.177-0.466c2.815-2.315,4.201-4.401,4.215-4.422l0.065-0.116
		c0.073-0.128,0.199-0.218,0.345-0.244c0.146-0.024,0.295,0.013,0.409,0.106c2.596,2.147,4.165,5.301,4.305,8.651
		c0.006,0.145-0.051,0.285-0.156,0.385C34.548,14.475,34.425,14.523,34.298,14.523z M26.555,10.413
		c1.03,0.761,3.745,2.538,7.203,3.041c-0.258-2.662-1.501-5.15-3.483-6.967C29.782,7.16,28.565,8.688,26.555,10.413z"/>
</g>
</svg>
