<?xml version="1.0" encoding="iso-8859-1"?>
<!-- Generator: Adobe Illustrator 22.0.1, SVG Export Plug-In . SVG Version: 6.00 Build 0)  -->
<svg version="1.1" id="Layer_1" xmlns="http://www.w3.org/2000/svg" xmlns:xlink="http://www.w3.org/1999/xlink" x="0px" y="0px"
	 viewBox="0 0 64 64" style="enable-background:new 0 0 64 64;" xml:space="preserve">
<style type="text/css">
	.st0{fill:#F8F3F3;}
	.st1{fill:#63312D;}
	.st2{fill:#E1DDDD;}
	.st3{fill:#84DBFF;}
	.st4{fill:#CAF4FF;}
	.st5{fill:#52BADB;}
	.st6{fill:#F9DD9D;}
	.st7{fill:#FFEECF;}
	.st8{fill:#EFC36A;}
	.st9{fill:#F7A085;}
	.st10{fill:#82D9FF;}
	.st11{fill:#F7DB9B;}
	.st12{fill:#F9A287;}
	.st13{fill:#FFC8BB;}
	.st14{fill:#52B8D9;}
	.st15{fill:#DB785A;}
	.st16{fill:#EDCB85;}
	.st17{fill:#DBAB56;}
	.st18{fill:#D3A553;}
	.st19{fill:#FFFFFF;}
</style>
<g>
	<rect x="7.663" y="8.685" class="st0" width="45.892" height="30.052"/>
	<polygon class="st10" points="39.583,23.968 35.374,28.734 26.3,18.456 11.275,35.472 29.425,35.472 41.324,35.472 49.741,35.472 	
		"/>
	<polygon class="st11" points="25.602,58.903 22.162,58.903 26.519,43.32 29.958,43.32 	"/>
	<polygon class="st11" points="36.74,58.903 40.18,58.903 35.824,43.32 32.384,43.32 	"/>
	<polygon class="st16" points="29.531,44.847 29.958,43.32 26.519,43.32 26.092,44.847 	"/>
	<polygon class="st16" points="36.25,44.847 35.824,43.32 32.384,43.32 32.811,44.847 	"/>
	<path class="st1" d="M53.555,39.236H7.663c-0.276,0-0.5-0.224-0.5-0.5V8.685c0-0.276,0.224-0.5,0.5-0.5h45.892
		c0.276,0,0.5,0.224,0.5,0.5v30.052C54.055,39.013,53.831,39.236,53.555,39.236z M8.163,38.236h44.892V9.185H8.163V38.236z"/>
	<rect x="53.554" y="8.685" class="st2" width="3.625" height="30.052"/>
	<path class="st1" d="M57.18,39.236h-3.625c-0.276,0-0.5-0.224-0.5-0.5V8.685c0-0.276,0.224-0.5,0.5-0.5h3.625
		c0.276,0,0.5,0.224,0.5,0.5v30.052C57.68,39.013,57.456,39.236,57.18,39.236z M54.055,38.236h2.625V9.185h-2.625V38.236z"/>
	<rect x="3.819" y="38.737" class="st12" width="53.36" height="4.583"/>
	<polygon class="st13" points="5.569,40.403 57.179,40.403 57.179,38.737 3.819,38.737 3.819,43.32 5.569,43.32 	"/>
	<path class="st1" d="M57.18,43.82H3.819c-0.276,0-0.5-0.224-0.5-0.5v-4.584c0-0.276,0.224-0.5,0.5-0.5h53.36
		c0.276,0,0.5,0.224,0.5,0.5v4.584C57.68,43.597,57.456,43.82,57.18,43.82z M4.319,42.82h52.36v-3.584H4.319V42.82z"/>
	<rect x="57.179" y="38.737" class="st15" width="3.688" height="4.583"/>
	<path class="st1" d="M60.867,43.82H57.18c-0.276,0-0.5-0.224-0.5-0.5v-4.584c0-0.276,0.224-0.5,0.5-0.5h3.688
		c0.276,0,0.5,0.224,0.5,0.5v4.584C61.367,43.597,61.144,43.82,60.867,43.82z M57.68,42.82h2.688v-3.584H57.68V42.82z"/>
	<path class="st1" d="M25.602,59.403h-3.439c-0.156,0-0.304-0.073-0.398-0.198c-0.095-0.124-0.125-0.286-0.083-0.437l4.356-15.583
		c0.061-0.216,0.257-0.365,0.481-0.365h3.439c0.156,0,0.304,0.073,0.398,0.198c0.095,0.124,0.125,0.286,0.083,0.437l-4.356,15.583
		C26.022,59.254,25.826,59.403,25.602,59.403z M22.821,58.403h2.401l4.076-14.583h-2.401L22.821,58.403z"/>
	<polygon class="st8" points="28.028,58.903 25.602,58.903 29.958,43.32 32.384,43.32 	"/>
	<polygon class="st17" points="31.956,44.856 32.384,43.32 29.958,43.32 29.531,44.856 	"/>
	<polygon class="st8" points="40.178,58.903 42.604,58.903 38.247,43.32 35.822,43.32 	"/>
	<polygon class="st17" points="36.25,44.847 35.824,43.32 38.249,43.32 38.676,44.847 	"/>
	<path class="st1" d="M28.027,59.403h-2.426c-0.156,0-0.304-0.073-0.398-0.198c-0.095-0.124-0.125-0.286-0.083-0.437l4.356-15.583
		c0.061-0.216,0.257-0.365,0.481-0.365h2.426c0.156,0,0.304,0.073,0.398,0.198c0.095,0.124,0.125,0.286,0.083,0.437l-4.356,15.583
		C28.448,59.254,28.252,59.403,28.027,59.403z M26.261,58.403h1.388l4.076-14.583h-1.388L26.261,58.403z"/>
	<path class="st1" d="M40.18,59.403H36.74c-0.225,0-0.421-0.149-0.481-0.365l-4.356-15.583c-0.042-0.15-0.012-0.313,0.083-0.437
		c0.095-0.125,0.242-0.198,0.398-0.198h3.439c0.225,0,0.421,0.149,0.481,0.365l4.356,15.583c0.042,0.15,0.012,0.313-0.083,0.437
		C40.483,59.33,40.336,59.403,40.18,59.403z M37.119,58.403h2.401L35.444,43.82h-2.401L37.119,58.403z"/>
	<path class="st1" d="M42.604,59.403h-2.426c-0.225,0-0.421-0.149-0.481-0.365L35.34,43.455c-0.042-0.15-0.012-0.313,0.083-0.437
		c0.095-0.125,0.242-0.198,0.398-0.198h2.426c0.225,0,0.421,0.149,0.481,0.365l4.356,15.583c0.042,0.15,0.012,0.313-0.083,0.437
		C42.907,59.33,42.76,59.403,42.604,59.403z M40.557,58.403h1.388L37.868,43.82H36.48L40.557,58.403z"/>
	<rect x="19.05" y="5.097" class="st12" width="21.18" height="3.588"/>
	<polygon class="st13" points="20.487,6.597 40.23,6.597 40.23,5.097 19.05,5.097 19.05,8.685 20.487,8.685 	"/>
	<path class="st1" d="M40.23,9.185H19.05c-0.276,0-0.5-0.224-0.5-0.5V5.097c0-0.276,0.224-0.5,0.5-0.5H40.23
		c0.276,0,0.5,0.224,0.5,0.5v3.588C40.73,8.961,40.507,9.185,40.23,9.185z M19.55,8.185H39.73V5.597H19.55V8.185z"/>
	<rect x="40.232" y="5.097" class="st15" width="3.588" height="3.588"/>
	<path class="st1" d="M43.82,9.185h-3.588c-0.276,0-0.5-0.224-0.5-0.5V5.097c0-0.276,0.224-0.5,0.5-0.5h3.588
		c0.276,0,0.5,0.224,0.5,0.5v3.588C44.32,8.961,44.097,9.185,43.82,9.185z M40.732,8.185h2.588V5.597h-2.588V8.185z"/>
	<circle class="st11" cx="34.175" cy="17.013" r="2.458"/>
	<circle class="st0" cx="10.84" cy="14.598" r="7.707"/>
	<path class="st1" d="M10.84,22.805c-4.525,0-8.207-3.682-8.207-8.207s3.682-8.207,8.207-8.207s8.207,3.682,8.207,8.207
		S15.365,22.805,10.84,22.805z M10.84,7.391c-3.974,0-7.207,3.233-7.207,7.207s3.233,7.207,7.207,7.207s7.207-3.233,7.207-7.207
		S14.813,7.391,10.84,7.391z"/>
	<circle class="st11" cx="10.84" cy="11.281" r="1.931"/>
	<path class="st1" d="M10.84,13.712c-1.34,0-2.431-1.091-2.431-2.431C8.409,9.94,9.5,8.85,10.84,8.85
		c1.341,0,2.432,1.091,2.432,2.432C13.271,12.621,12.181,13.712,10.84,13.712z M10.84,9.85c-0.789,0-1.431,0.643-1.431,1.432
		s0.642,1.431,1.431,1.431s1.432-0.642,1.432-1.431S11.629,9.85,10.84,9.85z"/>
	<path class="st10" d="M14.349,18.651H7.331v-2.814c0-1.45,1.175-2.625,2.625-2.625h1.767c1.45,0,2.625,1.175,2.625,2.625V18.651z"
		/>
	<path class="st1" d="M14.349,19.151H7.331c-0.276,0-0.5-0.224-0.5-0.5v-2.813c0-1.724,1.402-3.126,3.126-3.126h1.767
		c1.723,0,3.125,1.402,3.125,3.126v2.813C14.849,18.928,14.625,19.151,14.349,19.151z M7.831,18.151h6.018v-2.313
		c0-1.172-0.953-2.126-2.125-2.126H9.957c-1.172,0-2.126,0.954-2.126,2.126V18.151z"/>
	<circle class="st0" cx="53.16" cy="14.598" r="7.707"/>
	<path class="st1" d="M53.16,22.805c-4.525,0-8.207-3.682-8.207-8.207s3.682-8.207,8.207-8.207s8.207,3.682,8.207,8.207
		S57.686,22.805,53.16,22.805z M53.16,7.391c-3.974,0-7.207,3.233-7.207,7.207s3.233,7.207,7.207,7.207s7.207-3.233,7.207-7.207
		S57.134,7.391,53.16,7.391z"/>
	<circle class="st11" cx="53.16" cy="11.281" r="1.931"/>
	<path class="st1" d="M53.16,13.712c-1.341,0-2.432-1.091-2.432-2.431c0-1.341,1.091-2.432,2.432-2.432
		c1.34,0,2.431,1.091,2.431,2.432C55.591,12.621,54.5,13.712,53.16,13.712z M53.16,9.85c-0.789,0-1.432,0.643-1.432,1.432
		s0.643,1.431,1.432,1.431s1.431-0.642,1.431-1.431S53.949,9.85,53.16,9.85z"/>
	<path class="st10" d="M56.669,18.651h-7.018v-2.814c0-1.45,1.175-2.625,2.625-2.625h1.767c1.45,0,2.625,1.175,2.625,2.625V18.651z"
		/>
	<path class="st1" d="M56.669,19.151h-7.018c-0.276,0-0.5-0.224-0.5-0.5v-2.813c0-1.724,1.402-3.126,3.125-3.126h1.767
		c1.724,0,3.126,1.402,3.126,3.126v2.813C57.169,18.928,56.945,19.151,56.669,19.151z M50.151,18.151h6.018v-2.313
		c0-1.172-0.954-2.126-2.126-2.126h-1.767c-1.172,0-2.125,0.954-2.125,2.126V18.151z"/>
</g>
</svg>
