<?xml version="1.0" encoding="iso-8859-1"?>
<!-- Generator: Adobe Illustrator 22.0.1, SVG Export Plug-In . SVG Version: 6.00 Build 0)  -->
<svg version="1.1" id="Layer_1" xmlns="http://www.w3.org/2000/svg" xmlns:xlink="http://www.w3.org/1999/xlink" x="0px" y="0px"
	 viewBox="0 0 64 64" style="enable-background:new 0 0 64 64;" xml:space="preserve">
<style type="text/css">
	.st0{fill:#F8F3F3;}
	.st1{fill:#63312D;}
	.st2{fill:#E1DDDD;}
	.st3{fill:#84DBFF;}
	.st4{fill:#CAF4FF;}
	.st5{fill:#52BADB;}
	.st6{fill:#F9DD9D;}
	.st7{fill:#FFEECF;}
	.st8{fill:#EFC36A;}
	.st9{fill:#F7A085;}
	.st10{fill:#82D9FF;}
	.st11{fill:#F7DB9B;}
	.st12{fill:#F9A287;}
	.st13{fill:#FFC8BB;}
	.st14{fill:#52B8D9;}
	.st15{fill:#DB785A;}
	.st16{fill:#EDCB85;}
	.st17{fill:#DBAB56;}
	.st18{fill:#D3A553;}
	.st19{fill:#FFFFFF;}
</style>
<g>
	<rect x="3.108" y="7.057" class="st0" width="53.142" height="44.057"/>
	<rect x="3.108" y="15.28" class="st2" width="53.142" height="2"/>
	<rect x="3.11" y="7.06" class="st12" width="53.14" height="8.22"/>
	<polygon class="st13" points="56.25,7.06 56.25,9.14 4.96,9.14 4.96,15.28 3.11,15.28 3.11,7.06 	"/>
	<rect x="56.25" y="7.057" class="st15" width="4.642" height="8.223"/>
	<rect x="56.25" y="15.28" class="st2" width="4.642" height="35.833"/>
	<path class="st1" d="M56.25,51.613H3.108c-0.276,0-0.5-0.224-0.5-0.5V7.057c0-0.276,0.224-0.5,0.5-0.5H56.25
		c0.276,0,0.5,0.224,0.5,0.5v44.057C56.75,51.39,56.526,51.613,56.25,51.613z M3.608,50.613H55.75V7.557H3.608V50.613z"/>
	<path class="st1" d="M60.892,51.613H56.25c-0.276,0-0.5-0.224-0.5-0.5V7.057c0-0.276,0.224-0.5,0.5-0.5h4.642
		c0.276,0,0.5,0.224,0.5,0.5v44.057C61.392,51.39,61.168,51.613,60.892,51.613z M56.75,50.613h3.642V7.557H56.75V50.613z"/>
	<rect x="3.108" y="14.78" class="st1" width="57.783" height="1"/>
	<circle class="st6" cx="41.354" cy="11.114" r="1.487"/>
	<path class="st1" d="M41.354,13.101c-1.096,0-1.986-0.892-1.986-1.987s0.891-1.986,1.986-1.986s1.986,0.891,1.986,1.986
		S42.449,13.101,41.354,13.101z M41.354,10.127c-0.544,0-0.986,0.442-0.986,0.986s0.442,0.987,0.986,0.987s0.986-0.443,0.986-0.987
		S41.897,10.127,41.354,10.127z"/>
	<circle class="st0" cx="46.59" cy="11.114" r="1.487"/>
	<path class="st1" d="M46.59,13.101c-1.096,0-1.986-0.892-1.986-1.987s0.891-1.986,1.986-1.986s1.986,0.891,1.986,1.986
		S47.686,13.101,46.59,13.101z M46.59,10.127c-0.544,0-0.986,0.442-0.986,0.986s0.442,0.987,0.986,0.987s0.986-0.443,0.986-0.987
		S47.134,10.127,46.59,10.127z"/>
	<circle class="st6" cx="51.826" cy="11.114" r="1.487"/>
	<path class="st1" d="M51.826,13.101c-1.096,0-1.987-0.892-1.987-1.987s0.892-1.986,1.987-1.986s1.986,0.891,1.986,1.986
		S52.922,13.101,51.826,13.101z M51.826,10.127c-0.544,0-0.987,0.442-0.987,0.986s0.443,0.987,0.987,0.987s0.986-0.443,0.986-0.987
		S52.37,10.127,51.826,10.127z"/>
	<polygon class="st10" points="41.505,34.032 36.021,40.242 24.195,26.85 4.617,49.023 28.268,49.023 43.774,49.023 54.742,49.023 	
		"/>
	<circle class="st11" cx="11.951" cy="24.833" r="4.007"/>
	<rect x="42.84" y="29.085" class="st11" width="10.472" height="27.858"/>
	<path class="st1" d="M53.313,57.443H42.84c-0.276,0-0.5-0.224-0.5-0.5V29.085c0-0.276,0.224-0.5,0.5-0.5h10.473
		c0.276,0,0.5,0.224,0.5,0.5v27.858C53.813,57.22,53.589,57.443,53.313,57.443z M43.34,56.443h9.473V29.585H43.34V56.443z"/>
	<rect x="44.873" y="31.131" class="st12" width="6.406" height="6.406"/>
	<path class="st1" d="M51.279,38.037h-6.406c-0.276,0-0.5-0.224-0.5-0.5v-6.406c0-0.276,0.224-0.5,0.5-0.5h6.406
		c0.276,0,0.5,0.224,0.5,0.5v6.406C51.779,37.813,51.556,38.037,51.279,38.037z M45.373,37.037h5.406v-5.406h-5.406V37.037z"/>
	<rect x="44.873" y="39.724" class="st10" width="6.406" height="6.406"/>
	<path class="st1" d="M51.279,46.631h-6.406c-0.276,0-0.5-0.224-0.5-0.5v-6.406c0-0.276,0.224-0.5,0.5-0.5h6.406
		c0.276,0,0.5,0.224,0.5,0.5v6.406C51.779,46.407,51.556,46.631,51.279,46.631z M45.373,45.631h5.406v-5.406h-5.406V45.631z"/>
	<rect x="44.873" y="48.318" class="st0" width="6.406" height="6.406"/>
	<path class="st1" d="M51.279,55.225h-6.406c-0.276,0-0.5-0.224-0.5-0.5v-6.406c0-0.276,0.224-0.5,0.5-0.5h6.406
		c0.276,0,0.5,0.224,0.5,0.5v6.406C51.779,55.001,51.556,55.225,51.279,55.225z M45.373,54.225h5.406v-5.406h-5.406V54.225z"/>
</g>
</svg>
