<?xml version="1.0" encoding="iso-8859-1"?>
<!-- Generator: Adobe Illustrator 22.0.1, SVG Export Plug-In . SVG Version: 6.00 Build 0)  -->
<svg version="1.1" id="Layer_1" xmlns="http://www.w3.org/2000/svg" xmlns:xlink="http://www.w3.org/1999/xlink" x="0px" y="0px"
	 viewBox="0 0 64 64" style="enable-background:new 0 0 64 64;" xml:space="preserve">
<style type="text/css">
	.st0{fill:#F8F3F3;}
	.st1{fill:#63312D;}
	.st2{fill:#E1DDDD;}
	.st3{fill:#84DBFF;}
	.st4{fill:#CAF4FF;}
	.st5{fill:#52BADB;}
	.st6{fill:#F9DD9D;}
	.st7{fill:#FFEECF;}
	.st8{fill:#EFC36A;}
	.st9{fill:#F7A085;}
	.st10{fill:#82D9FF;}
	.st11{fill:#F7DB9B;}
	.st12{fill:#F9A287;}
	.st13{fill:#FFC8BB;}
	.st14{fill:#52B8D9;}
	.st15{fill:#DB785A;}
	.st16{fill:#EDCB85;}
	.st17{fill:#DBAB56;}
	.st18{fill:#D3A553;}
	.st19{fill:#FFFFFF;}
</style>
<g>
	<circle class="st0" cx="28.36" cy="35.017" r="15.924"/>
	<path class="st2" d="M14.5,35.017c0-8.446,6.581-15.337,14.892-15.872c-0.343-0.022-0.684-0.052-1.032-0.052
		c-8.795,0-15.924,7.129-15.924,15.924c0,8.795,7.129,15.924,15.924,15.924c0.348,0,0.689-0.03,1.032-0.052
		C21.081,50.355,14.5,43.463,14.5,35.017z"/>
	<path class="st12" d="M28.4,9.721v9.33c-4.33,0-8.25,1.73-11.12,4.54l-5.37-5.37l-1.23-1.23c0.37-0.37,0.76-0.72,1.16-1.06
		c0.2-0.19,0.41-0.37,0.63-0.54c0.58-0.48,1.19-0.93,1.82-1.35c0.33-0.23,0.67-0.45,1.01-0.65c1.04-0.64,2.14-1.2,3.28-1.68
		c0.17-0.08,0.34-0.15,0.52-0.21c0.23-0.1,0.46-0.19,0.7-0.27c0.89-0.33,1.8-0.6,2.74-0.82c0.66-0.16,1.34-0.29,2.02-0.4
		C25.81,9.821,27.09,9.721,28.4,9.721z"/>
	<path class="st10" d="M17.28,23.591c-2.9,2.83-4.72,6.76-4.79,11.12H3.16c0.02-1.73,0.21-3.43,0.56-5.06
		c0.18-0.88,0.42-1.75,0.71-2.59c0.1-0.33,0.21-0.65,0.33-0.96c0.11-0.32,0.24-0.64,0.38-0.95c0.13-0.31,0.26-0.61,0.41-0.91
		c0.03-0.09,0.07-0.18,0.12-0.26c0.11-0.23,0.22-0.46,0.35-0.68c0.24-0.49,0.51-0.97,0.8-1.44c0.21-0.34,0.42-0.67,0.65-1
		c0.22-0.34,0.46-0.67,0.7-0.99c0.18-0.24,0.36-0.48,0.55-0.71c0.61-0.76,1.26-1.48,1.96-2.17l1.23,1.23L17.28,23.591z"/>
	<path class="st11" d="M17.02,46.101l-5.36,5.36l-1.24,1.24c-0.37-0.37-0.73-0.76-1.06-1.16c-0.19-0.2-0.37-0.41-0.54-0.63
		c-0.48-0.58-0.93-1.19-1.35-1.82c-0.13-0.18-0.25-0.37-0.36-0.56c-0.13-0.19-0.25-0.38-0.36-0.57c-0.61-1.01-1.15-2.06-1.61-3.16
		c-0.14-0.31-0.27-0.63-0.39-0.96c-0.17-0.44-0.32-0.9-0.46-1.35c-0.13-0.4-0.24-0.8-0.34-1.2c-0.21-0.81-0.38-1.63-0.51-2.47
		c-0.05-0.3-0.09-0.61-0.12-0.92c-0.11-0.96-0.17-1.93-0.17-2.92c0-0.09,0-0.18,0.01-0.27h9.33c0,0.09-0.01,0.18-0.01,0.27
		C12.48,39.311,14.21,43.231,17.02,46.101z"/>
	<path class="st10" d="M28.36,50.941v9.33c-7.04,0-13.4-2.88-17.98-7.53l0.04-0.04l1.24-1.24l5.32-5.32
		C19.87,49.101,23.9,50.941,28.36,50.941z"/>
	<path class="st4" d="M28.36,60.111c0.41,0.04,0.82,0.07,1.23,0.09c-0.39,0.02-0.79,0.03-1.19,0.03h-0.04
		c-7.02-0.01-13.37-2.89-17.94-7.53l1.24-1.24C15.79,56.261,21.7,59.481,28.36,60.111z"/>
	<path class="st13" d="M11.91,18.221l-1.23-1.23c0.37-0.37,0.76-0.72,1.16-1.06c0.2-0.19,0.41-0.37,0.63-0.54
		c0.58-0.48,1.19-0.93,1.82-1.35c0.33-0.23,0.67-0.45,1.01-0.65c1.04-0.64,2.14-1.2,3.28-1.68c0.17-0.08,0.34-0.15,0.52-0.21
		c0.23-0.1,0.46-0.19,0.7-0.27c0.89-0.33,1.8-0.6,2.74-0.82c0.66-0.16,1.34-0.29,2.02-0.4c1.25-0.19,2.53-0.29,3.84-0.29
		c0.4,0,0.8,0.01,1.19,0.03c-0.4,0.02-0.79,0.05-1.19,0.09C21.85,10.441,16.03,13.561,11.91,18.221z"/>
	<path class="st7" d="M11.66,51.461l-1.24,1.24c-0.37-0.37-0.73-0.76-1.06-1.16c-0.19-0.2-0.37-0.41-0.54-0.63
		c-0.48-0.58-0.93-1.19-1.35-1.82c-0.13-0.18-0.25-0.37-0.36-0.56c-0.13-0.19-0.25-0.38-0.36-0.57c-0.61-1.01-1.15-2.06-1.61-3.16
		c-0.14-0.31-0.27-0.63-0.39-0.96c-0.17-0.44-0.32-0.9-0.46-1.35c-0.13-0.4-0.24-0.8-0.34-1.2c-0.21-0.81-0.38-1.63-0.51-2.47
		c-0.05-0.3-0.09-0.61-0.12-0.92c-0.11-0.96-0.17-1.93-0.17-2.92c0-0.09,0-0.18,0.01-0.27h2.38c-0.01,0.09-0.01,0.18-0.01,0.27
		C5.53,41.281,7.84,47.041,11.66,51.461z"/>
	<path class="st4" d="M11.91,18.221c-3.92,4.39-6.31,10.16-6.37,16.49H3.16c0.01-1.74,0.2-3.43,0.56-5.06
		c0.18-0.88,0.42-1.75,0.71-2.59c0.1-0.33,0.21-0.65,0.33-0.96c0.11-0.32,0.24-0.64,0.38-0.95c0.13-0.31,0.26-0.61,0.41-0.91
		c0.03-0.09,0.07-0.18,0.12-0.26c0.11-0.23,0.22-0.46,0.35-0.68c0.24-0.49,0.51-0.97,0.8-1.44c0.21-0.34,0.42-0.67,0.65-1
		c0.22-0.34,0.46-0.67,0.7-0.99c0.18-0.24,0.36-0.48,0.55-0.71c0.61-0.76,1.26-1.48,1.96-2.17L11.91,18.221z"/>
	<path class="st2" d="M35.637,9.764h-7.275c13.948,0,25.254,11.307,25.254,25.254S42.31,60.273,28.363,60.273h7.275
		c13.948,0,25.254-11.307,25.254-25.254S49.585,9.764,35.637,9.764z"/>
	<path class="st1" d="M35.638,60.772h-7.275c-0.276,0-0.5-0.224-0.5-0.5s0.224-0.5,0.5-0.5c13.649,0,24.755-11.104,24.755-24.754
		S42.012,10.265,28.362,10.265c-0.276,0-0.5-0.224-0.5-0.5s0.224-0.5,0.5-0.5h7.275c14.201,0,25.754,11.553,25.754,25.754
		S49.839,60.772,35.638,60.772z M35.479,59.772h0.158c13.649,0,24.754-11.104,24.754-24.754S49.287,10.265,35.638,10.265h-0.158
		C46.23,13.36,54.117,23.285,54.117,35.019S46.23,56.677,35.479,59.772z"/>
	<path class="st1" d="M17.239,24.133c-0.128,0-0.256-0.049-0.354-0.146l-6.6-6.6c-0.095-0.094-0.146-0.222-0.146-0.355
		c0-0.133,0.054-0.261,0.149-0.354c4.851-4.779,11.269-7.412,18.073-7.412c0.276,0,0.5,0.224,0.5,0.5v9.329
		c0,0.276-0.224,0.5-0.5,0.5c-4.045,0-7.871,1.562-10.773,4.396C17.491,24.085,17.365,24.133,17.239,24.133z M11.353,17.039
		l5.896,5.896c2.921-2.69,6.655-4.215,10.614-4.333V10.27C21.676,10.392,15.85,12.781,11.353,17.039z"/>
	<path class="st11" d="M39.486,23.633l6.6-6.6C41.526,12.54,35.27,9.764,28.363,9.764v9.329
		C32.693,19.093,36.615,20.828,39.486,23.633z"/>
	<path class="st1" d="M39.486,24.133c-0.126,0-0.252-0.048-0.35-0.143c-2.902-2.835-6.729-4.396-10.774-4.396
		c-0.276,0-0.5-0.224-0.5-0.5V9.765c0-0.276,0.224-0.5,0.5-0.5c6.805,0,13.224,2.633,18.074,7.412
		c0.096,0.094,0.149,0.222,0.149,0.354c0,0.134-0.052,0.262-0.146,0.355l-6.6,6.6C39.742,24.084,39.614,24.133,39.486,24.133z
		 M28.862,18.602c3.959,0.118,7.694,1.643,10.615,4.333l5.896-5.896c-4.497-4.258-10.323-6.647-16.511-6.77V18.602z"/>
	<path class="st12" d="M44.275,34.756h9.336c-0.071-6.936-2.935-13.2-7.524-17.723l-6.6,6.6
		C42.387,26.467,44.203,30.397,44.275,34.756z"/>
	<path class="st1" d="M53.61,35.256h-9.336c-0.273,0-0.495-0.219-0.5-0.492c-0.066-4.091-1.714-7.916-4.638-10.773
		c-0.096-0.093-0.149-0.221-0.15-0.354s0.052-0.262,0.146-0.356l6.6-6.6c0.195-0.194,0.511-0.194,0.704-0.003
		c4.878,4.808,7.604,11.227,7.674,18.074c0.001,0.133-0.051,0.262-0.145,0.356S53.744,35.256,53.61,35.256z M44.759,34.256h8.342
		c-0.188-6.227-2.664-12.056-7.016-16.515l-5.893,5.893C42.97,26.517,44.576,30.254,44.759,34.256z"/>
	<path class="st1" d="M12.45,35.256H3.115c-0.134,0-0.262-0.054-0.355-0.148s-0.146-0.224-0.145-0.356
		c0.069-6.848,2.795-13.267,7.674-18.074c0.194-0.191,0.51-0.191,0.704,0.003l6.6,6.6c0.095,0.095,0.147,0.223,0.146,0.356
		s-0.055,0.262-0.15,0.354c-2.925,2.857-4.572,6.684-4.639,10.773C12.945,35.037,12.724,35.256,12.45,35.256z M3.625,34.256h8.341
		c0.183-4.001,1.79-7.739,4.567-10.622l-5.893-5.893C6.288,22.2,3.813,28.029,3.625,34.256z"/>
	<path class="st1" d="M10.377,53.241c-0.001,0-0.001,0-0.002,0c-0.133,0-0.261-0.054-0.354-0.149
		c-4.779-4.85-7.412-11.268-7.412-18.073l0.007-0.269c0.003-0.273,0.226-0.494,0.5-0.494h9.335c0.134,0,0.262,0.054,0.355,0.148
		s0.146,0.224,0.145,0.357l-0.013,0.257c0,4.046,1.562,7.872,4.396,10.773c0.191,0.196,0.189,0.51-0.004,0.703l-6.6,6.6
		C10.637,53.188,10.51,53.241,10.377,53.241z M3.609,35.256c0.059,6.285,2.455,12.213,6.773,16.772l5.896-5.896
		c-2.75-2.985-4.281-6.82-4.339-10.877H3.609z"/>
	<path class="st12" d="M28.363,50.944v9.329c7.041,0,13.405-2.884,17.986-7.531l-6.6-6.6C36.857,49.101,32.827,50.944,28.363,50.944
		z"/>
	<path class="st1" d="M28.362,60.772c-0.276,0-0.5-0.224-0.5-0.5v-9.329c0-0.276,0.224-0.5,0.5-0.5
		c4.182,0,8.098-1.651,11.028-4.651c0.093-0.097,0.179-0.133,0.357-0.15c0.133,0,0.26,0.053,0.354,0.146l6.6,6.6
		c0.194,0.194,0.195,0.509,0.003,0.704C41.823,58.045,35.31,60.772,28.362,60.772z M28.862,51.436v8.332
		c6.324-0.124,12.246-2.604,16.777-7.027l-5.893-5.893C36.79,49.699,32.959,51.314,28.862,51.436z"/>
	<path class="st0" d="M53.61,34.756h-9.336c0.001,0.088,0.013,0.174,0.013,0.262c0,4.331-1.734,8.252-4.539,11.123l6.6,6.6
		c4.493-4.559,7.269-10.816,7.269-17.723C53.617,34.93,53.611,34.844,53.61,34.756z"/>
	<path class="st10" d="M53.61,34.756h-9.336c0.001,0.088,0.013,0.174,0.013,0.262c0,4.331-1.734,8.252-4.539,11.123l6.6,6.6
		c4.493-4.559,7.269-10.816,7.269-17.723C53.617,34.93,53.611,34.844,53.61,34.756z"/>
	<path class="st1" d="M46.348,53.241c-0.133,0-0.26-0.053-0.354-0.146l-6.6-6.6c-0.193-0.193-0.195-0.507-0.004-0.703
		c2.836-2.9,4.397-6.727,4.397-10.773l-0.014-0.252c-0.003-0.134,0.049-0.265,0.143-0.36c0.094-0.097,0.223-0.15,0.357-0.15h9.336
		c0.274,0,0.497,0.221,0.5,0.494l0.007,0.269c0,6.806-2.633,13.225-7.413,18.073C46.609,53.188,46.456,53.204,46.348,53.241z
		 M40.446,46.133l5.896,5.896c4.318-4.559,6.716-10.487,6.774-16.772h-8.33C44.729,39.313,43.196,43.148,40.446,46.133z"/>
	<path class="st1" d="M28.362,60.772c-6.947,0-13.461-2.728-18.342-7.681c-0.192-0.195-0.191-0.51,0.003-0.704l6.6-6.6
		c0.094-0.094,0.221-0.146,0.354-0.146c0.121,0.046,0.264,0.054,0.357,0.15c2.931,3,6.847,4.651,11.028,4.651
		c0.276,0,0.5,0.224,0.5,0.5v9.329C28.862,60.549,28.639,60.772,28.362,60.772z M11.085,52.74
		c4.531,4.423,10.453,6.903,16.777,7.027v-8.332c-4.097-0.121-7.928-1.736-10.885-4.588L11.085,52.74z"/>
	<path class="st0" d="M46.119,11.857l-16.44,16.44c-1.262,1.262-1.466,3.164-0.645,4.652l-2.242,2.242l1.768,1.768l2.315-2.315
		c1.435,0.631,3.168,0.367,4.343-0.808l16.44-16.44L46.119,11.857z"/>
	<path class="st1" d="M28.56,37.459c-0.128,0-0.256-0.049-0.354-0.146l-1.769-1.768c-0.094-0.094-0.146-0.221-0.146-0.354
		s0.053-0.26,0.146-0.354l1.988-1.988c-0.731-1.651-0.386-3.62,0.899-4.906l16.44-16.439c0.195-0.195,0.512-0.195,0.707,0
		l5.539,5.539c0.094,0.094,0.146,0.221,0.146,0.354s-0.053,0.26-0.146,0.354l-16.44,16.439c-1.211,1.211-2.974,1.604-4.575,1.04
		l-2.083,2.083C28.815,37.41,28.688,37.459,28.56,37.459z M27.498,35.191l1.062,1.061l1.961-1.961
		c0.146-0.146,0.367-0.187,0.555-0.104c1.3,0.572,2.79,0.297,3.789-0.704l16.087-16.086l-4.832-4.832L30.032,28.65
		c-1.062,1.063-1.292,2.73-0.562,4.058c0.107,0.194,0.073,0.438-0.084,0.595L27.498,35.191z"/>
	
		<rect x="44.082" y="10.94" transform="matrix(0.7071 0.7071 -0.7071 0.7071 23.9803 -31.7635)" class="st10" width="12.5" height="4.25"/>
	<path class="st1" d="M53.249,19.487c-0.133,0-0.26-0.053-0.354-0.146l-8.839-8.839c-0.195-0.195-0.195-0.512,0-0.707l3.005-3.006
		c0.188-0.188,0.52-0.188,0.707,0l8.839,8.839c0.195,0.195,0.195,0.512,0,0.707l-3.005,3.006
		C53.509,19.435,53.382,19.487,53.249,19.487z M45.117,10.148l8.132,8.132l2.298-2.299L47.415,7.85L45.117,10.148z"/>
	<path class="st12" d="M54.663,14.391l-5.539-5.539l3.977-3.977c1.53-1.53,4.009-1.53,5.539,0l0,0c1.53,1.53,1.53,4.009,0,5.539
		L54.663,14.391z"/>
	<path class="st1" d="M54.663,14.891c-0.128,0-0.256-0.049-0.354-0.146l-5.539-5.539c-0.195-0.195-0.195-0.512,0-0.707l3.978-3.978
		c1.723-1.723,4.523-1.723,6.246,0c1.722,1.723,1.722,4.524,0,6.246l-3.978,3.978C54.919,14.842,54.791,14.891,54.663,14.891z
		 M49.831,8.852l4.832,4.832l3.624-3.624c1.332-1.332,1.332-3.499,0-4.832c-1.332-1.332-3.5-1.332-4.832,0L49.831,8.852z"/>
</g>
</svg>
