<?xml version="1.0" encoding="iso-8859-1"?>
<!-- Generator: Adobe Illustrator 22.0.1, SVG Export Plug-In . SVG Version: 6.00 Build 0)  -->
<svg version="1.1" id="Layer_1" xmlns="http://www.w3.org/2000/svg" xmlns:xlink="http://www.w3.org/1999/xlink" x="0px" y="0px"
	 viewBox="0 0 64 64" style="enable-background:new 0 0 64 64;" xml:space="preserve">
<style type="text/css">
	.st0{fill:#F8F3F3;}
	.st1{fill:#63312D;}
	.st2{fill:#E1DDDD;}
	.st3{fill:#84DBFF;}
	.st4{fill:#CAF4FF;}
	.st5{fill:#52BADB;}
	.st6{fill:#F9DD9D;}
	.st7{fill:#FFEECF;}
	.st8{fill:#EFC36A;}
	.st9{fill:#F7A085;}
	.st10{fill:#82D9FF;}
	.st11{fill:#F7DB9B;}
	.st12{fill:#F9A287;}
	.st13{fill:#FFC8BB;}
	.st14{fill:#52B8D9;}
	.st15{fill:#DB785A;}
	.st16{fill:#EDCB85;}
	.st17{fill:#DBAB56;}
	.st18{fill:#D3A553;}
	.st19{fill:#FFFFFF;}
</style>
<g>
	<polygon class="st10" points="51.415,50.167 46.644,60.892 41.872,50.167 41.872,3.108 51.415,3.108 	"/>
	<polygon class="st4" points="43.778,52.167 43.778,5.108 51.415,5.108 51.415,3.108 41.872,3.108 41.872,50.167 46.644,60.892 
		47.152,59.75 	"/>
	<rect x="41.869" y="3.11" class="st12" width="9.55" height="9.45"/>
	<polygon class="st13" points="51.419,3.11 51.419,5.11 43.779,5.11 43.779,12.56 41.869,12.56 41.869,3.11 	"/>
	<polygon class="st0" points="41.872,50.167 46.644,60.892 51.415,50.167 	"/>
	<polygon class="st10" points="45.051,57.313 46.644,60.892 48.236,57.313 	"/>
	<path class="st12" d="M33.801,48.352c-1.113,0-2.157,0.291-3.062,0.799l0-0.001l-1.03-3.284l-4.439,1.395l2.419,8.754l0.001-0.001
		c0.634,2.792,3.129,4.877,6.112,4.877c3.463,0,6.27-2.807,6.27-6.27S37.263,48.352,33.801,48.352z M33.801,58.086
		c-1.913,0-3.464-1.551-3.464-3.464s1.551-3.464,3.464-3.464s3.464,1.551,3.464,3.464S35.714,58.086,33.801,58.086z"/>
	<path class="st12" d="M19.136,45.867l-1.03,3.284l0,0.001c-0.906-0.508-1.95-0.799-3.062-0.799c-3.463,0-6.27,2.807-6.27,6.27
		s2.807,6.27,6.27,6.27c2.984,0,5.479-2.085,6.112-4.877l0.001,0.001l2.419-8.754L19.136,45.867z M15.043,58.086
		c-1.913,0-3.464-1.551-3.464-3.464s1.551-3.464,3.464-3.464s3.464,1.551,3.464,3.464S16.956,58.086,15.043,58.086z"/>
	<polygon class="st14" points="51.415,3.108 51.415,50.167 46.644,60.892 50.455,60.892 55.226,50.167 55.226,3.108 	"/>
	<rect x="51.415" y="3.108" class="st15" width="3.811" height="9.455"/>
	<polygon class="st2" points="51.415,50.167 46.644,60.892 50.455,60.892 55.226,50.167 	"/>
	<path class="st1" d="M33.801,61.392c-3.183,0-5.896-2.166-6.6-5.266l-2.414-8.73c-0.072-0.26,0.075-0.53,0.332-0.61l4.439-1.395
		c0.127-0.039,0.264-0.027,0.381,0.034c0.118,0.062,0.206,0.167,0.246,0.294l0.854,2.723c0.866-0.386,1.809-0.588,2.761-0.588
		c3.733,0,6.77,3.037,6.77,6.77S37.534,61.392,33.801,61.392z M25.879,47.594l2.29,8.289c0.606,2.664,2.919,4.509,5.631,4.509
		c3.181,0,5.77-2.588,5.77-5.77s-2.588-5.77-5.77-5.77c-0.986,0-1.96,0.254-2.818,0.735c-0.132,0.074-0.289,0.083-0.429,0.029
		c-0.14-0.056-0.248-0.171-0.292-0.315l-0.88-2.807L25.879,47.594z"/>
	<path class="st1" d="M46.644,61.392c-0.198,0-0.376-0.116-0.457-0.297L41.415,50.37c-0.028-0.064-0.043-0.133-0.043-0.203V3.108
		c0-0.276,0.224-0.5,0.5-0.5h9.543c0.276,0,0.5,0.224,0.5,0.5v47.058c0,0.07-0.015,0.139-0.043,0.203l-4.771,10.725
		C47.02,61.275,46.841,61.392,46.644,61.392z M42.372,50.06l4.271,9.602l4.271-9.602V3.608h-8.543V50.06z"/>
	<rect x="41.872" y="49.667" class="st1" width="9.543" height="1"/>
	<rect x="41.872" y="12.063" class="st1" width="9.543" height="1"/>
	<rect x="51.415" y="12.063" class="st1" width="3.811" height="1"/>
	<rect x="46.144" y="12.563" class="st1" width="1" height="37.786"/>
	<path class="st1" d="M33.801,58.586c-2.186,0-3.964-1.778-3.964-3.964c0-2.186,1.778-3.964,3.964-3.964
		c2.186,0,3.964,1.778,3.964,3.964C37.765,56.808,35.986,58.586,33.801,58.586z M33.801,51.658c-1.635,0-2.964,1.33-2.964,2.964
		c0,1.634,1.33,2.964,2.964,2.964c1.634,0,2.964-1.33,2.964-2.964C36.765,52.987,35.435,51.658,33.801,51.658z"/>
	<path class="st1" d="M15.043,61.392c-3.733,0-6.77-3.037-6.77-6.77s3.037-6.77,6.77-6.77c0.952,0,1.896,0.202,2.761,0.589
		l0.854-2.724c0.04-0.126,0.128-0.232,0.246-0.293s0.254-0.074,0.381-0.034l4.439,1.395c0.257,0.081,0.404,0.351,0.332,0.61
		l-2.419,8.754C20.939,59.227,18.225,61.392,15.043,61.392z M15.043,48.853c-3.181,0-5.77,2.588-5.77,5.77s2.588,5.77,5.77,5.77
		c2.712,0,5.025-1.845,5.625-4.488l2.297-8.31l-3.502-1.1l-0.88,2.806c-0.045,0.144-0.152,0.26-0.292,0.315
		c-0.141,0.055-0.297,0.045-0.429-0.028C17.003,49.106,16.029,48.853,15.043,48.853z"/>
	<path class="st1" d="M15.043,58.586c-2.186,0-3.964-1.778-3.964-3.964c0-2.186,1.778-3.964,3.964-3.964
		c2.186,0,3.964,1.778,3.964,3.964C19.007,56.808,17.229,58.586,15.043,58.586z M15.043,51.658c-1.635,0-2.964,1.33-2.964,2.964
		c0,1.634,1.33,2.964,2.964,2.964c1.634,0,2.964-1.33,2.964-2.964C18.007,52.987,16.678,51.658,15.043,51.658z"/>
	<path class="st0" d="M22.663,46.975l-2.686-0.844l9.322-35.965l1.835,2.666c0.468,0.681,0.674,1.508,0.58,2.329l-3.344,29.01
		c-2.182-0.319-4.348,0.672-5.533,2.532L22.663,46.975z"/>
	<path class="st1" d="M22.663,47.476c-0.05,0-0.101-0.007-0.15-0.023l-2.687-0.844c-0.254-0.08-0.401-0.345-0.334-0.603
		l9.323-35.965c0.049-0.189,0.204-0.333,0.397-0.367c0.193-0.036,0.388,0.047,0.499,0.209l1.835,2.666
		c0.537,0.781,0.773,1.729,0.664,2.669l-3.345,29.01c-0.015,0.134-0.084,0.257-0.192,0.339c-0.107,0.082-0.244,0.117-0.377,0.098
		c-1.982-0.287-3.961,0.616-5.039,2.306l-0.173,0.272C22.991,47.391,22.83,47.476,22.663,47.476z M20.579,45.797l1.868,0.587
		c1.202-1.845,3.304-2.892,5.481-2.76l3.288-28.519c0.081-0.701-0.095-1.407-0.495-1.988l-1.214-1.764L20.579,45.797z"/>
	<path class="st0" d="M26.182,46.975l2.686-0.844l-9.322-35.965l-1.835,2.666c-0.468,0.681-0.674,1.508-0.58,2.329l3.344,29.01
		c2.182-0.319,4.348,0.672,5.533,2.532L26.182,46.975z"/>
	<path class="st1" d="M26.182,47.476c-0.167,0-0.328-0.084-0.422-0.231l-0.173-0.272c-1.077-1.691-3.053-2.593-5.039-2.306
		c-0.135,0.018-0.27-0.017-0.377-0.098c-0.107-0.083-0.177-0.205-0.192-0.339l-3.344-29.01c-0.109-0.94,0.127-1.889,0.664-2.669
		l1.835-2.667c0.111-0.162,0.302-0.245,0.499-0.209c0.193,0.034,0.348,0.177,0.397,0.367l9.322,35.965
		c0.067,0.258-0.08,0.522-0.334,0.603l-2.686,0.844C26.282,47.468,26.231,47.476,26.182,47.476z M21.283,43.613
		c2.042,0,3.98,1.03,5.114,2.771l1.868-0.587l-8.928-34.444l-1.214,1.764c-0.4,0.581-0.576,1.287-0.495,1.988l3.288,28.519
		C21.038,43.616,21.161,43.613,21.283,43.613z"/>
	<circle class="st11" cx="23.863" cy="40.47" r="1.32"/>
	<path class="st1" d="M23.862,42.291c-1.003,0-1.82-0.816-1.82-1.82c0-1.003,0.816-1.82,1.82-1.82c1.004,0,1.82,0.816,1.82,1.82
		C25.683,41.474,24.866,42.291,23.862,42.291z M23.862,39.65c-0.452,0-0.82,0.368-0.82,0.82s0.368,0.82,0.82,0.82
		s0.82-0.368,0.82-0.82S24.314,39.65,23.862,39.65z"/>
	<path class="st1" d="M50.455,61.392h-3.811c-0.169,0-0.327-0.085-0.419-0.228s-0.106-0.321-0.038-0.476l4.756-10.69L50.915,3.109
		c0-0.133,0.053-0.26,0.146-0.354s0.221-0.146,0.354-0.146h3.811c0.276,0,0.5,0.224,0.5,0.5v47.058c0,0.07-0.015,0.139-0.043,0.203
		l-4.771,10.725C50.831,61.275,50.652,61.392,50.455,61.392z M47.413,60.392h2.717l4.596-10.332V3.608h-2.811l0.027,46.495
		c0,0.07-0.015,0.14-0.043,0.204L47.413,60.392z"/>
	<rect x="51.415" y="49.667" class="st1" width="3.811" height="1"/>
</g>
</svg>
