<?xml version="1.0" encoding="iso-8859-1"?>
<!-- Generator: Adobe Illustrator 22.0.1, SVG Export Plug-In . SVG Version: 6.00 Build 0)  -->
<svg version="1.1" id="Layer_1" xmlns="http://www.w3.org/2000/svg" xmlns:xlink="http://www.w3.org/1999/xlink" x="0px" y="0px"
	 viewBox="0 0 64 64" style="enable-background:new 0 0 64 64;" xml:space="preserve">
<style type="text/css">
	.st0{fill:#F8F3F3;}
	.st1{fill:#63312D;}
	.st2{fill:#E1DDDD;}
	.st3{fill:#84DBFF;}
	.st4{fill:#CAF4FF;}
	.st5{fill:#52BADB;}
	.st6{fill:#F9DD9D;}
	.st7{fill:#FFEECF;}
	.st8{fill:#EFC36A;}
	.st9{fill:#F7A085;}
	.st10{fill:#82D9FF;}
	.st11{fill:#F7DB9B;}
	.st12{fill:#F9A287;}
	.st13{fill:#FFC8BB;}
	.st14{fill:#52B8D9;}
	.st15{fill:#DB785A;}
	.st16{fill:#EDCB85;}
	.st17{fill:#DBAB56;}
	.st18{fill:#D3A553;}
	.st19{fill:#FFFFFF;}
</style>
<g>
	<path class="st6" d="M30.047,3.127c-4.717,0.219-8.582,4.127-8.752,8.846c-0.099,2.741,1.004,5.223,2.822,6.967
		c1.361,1.305,2.157,3.088,2.157,4.973v0.377h8.42v-0.375c0-1.905,0.83-3.687,2.197-5.014c1.72-1.669,2.789-4.003,2.789-6.589
		C39.681,7.089,35.325,2.882,30.047,3.127z"/>
	<path class="st7" d="M28.02,24.29v-0.127c0-1.885-0.797-3.669-2.157-4.974c-1.818-1.744-2.921-4.226-2.822-6.967
		c0.17-4.719,4.035-8.627,8.752-8.846c0.287-0.013,0.571-0.008,0.852,0.005c-0.829-0.2-1.698-0.296-2.597-0.255
		c-4.717,0.219-8.582,4.127-8.752,8.846c-0.099,2.741,1.004,5.223,2.822,6.967c1.361,1.305,2.157,3.088,2.157,4.974v0.377H28.02z"/>
	<path class="st1" d="M34.694,24.79h-8.419c-0.276,0-0.5-0.224-0.5-0.5v-0.377c0-1.71-0.73-3.392-2.004-4.612
		c-1.991-1.91-3.076-4.587-2.976-7.346c0.18-4.999,4.234-9.096,9.229-9.327l0,0c2.666-0.129,5.22,0.824,7.155,2.671
		c1.936,1.848,3.001,4.339,3.001,7.014c0,2.64-1.044,5.107-2.941,6.948c-1.319,1.28-2.045,2.933-2.045,4.655v0.375
		C35.194,24.566,34.971,24.79,34.694,24.79z M26.774,23.79h7.421c0.034-1.949,0.865-3.808,2.348-5.247
		c1.701-1.651,2.638-3.863,2.638-6.23c0-2.399-0.956-4.633-2.692-6.291c-1.735-1.656-4.01-2.5-6.418-2.396l0,0
		c-4.479,0.207-8.114,3.881-8.276,8.364c-0.089,2.474,0.883,4.875,2.669,6.588C25.902,19.958,26.74,21.851,26.774,23.79z"/>
	<path class="st3" d="M25.538,24.29v3.74c0,1.104,0.895,1.999,1.999,1.999h5.895c1.104,0,1.999-0.895,1.999-1.999v-3.74H25.538z"/>
	<path class="st4" d="M26.967,29.488v-3.74h8.465V24.29h-9.894v3.74c0,0.927,0.634,1.699,1.489,1.925
		C26.991,29.805,26.967,29.65,26.967,29.488z"/>
	<path class="st1" d="M33.432,30.529h-5.895c-1.378,0-2.5-1.121-2.5-2.5v-3.739c0-0.276,0.224-0.5,0.5-0.5h9.894
		c0.276,0,0.5,0.224,0.5,0.5v3.739C35.932,29.408,34.811,30.529,33.432,30.529z M26.038,24.791v3.239c0,0.827,0.673,1.5,1.5,1.5
		h5.895c0.827,0,1.5-0.673,1.5-1.5v-3.239H26.038z"/>
	<rect x="28.772" y="30.029" class="st6" width="3.926" height="2.369"/>
	<rect x="28.772" y="30.029" class="st8" width="3.926" height="0.86"/>
	<path class="st1" d="M32.697,32.898h-3.926c-0.276,0-0.5-0.224-0.5-0.5v-2.369c0-0.276,0.224-0.5,0.5-0.5h3.926
		c0.276,0,0.5,0.224,0.5,0.5v2.369C33.197,32.674,32.974,32.898,32.697,32.898z M29.271,31.898h2.926v-1.369h-2.926V31.898z"/>
	<rect x="32.697" y="30.029" class="st8" width="1.963" height="2.369"/>
	<rect x="32.697" y="30.029" class="st18" width="1.963" height="0.86"/>
	<path class="st1" d="M34.66,32.898h-1.963c-0.276,0-0.5-0.224-0.5-0.5v-2.369c0-0.276,0.224-0.5,0.5-0.5h1.963
		c0.276,0,0.5,0.224,0.5,0.5v2.369C35.16,32.674,34.937,32.898,34.66,32.898z M33.197,31.898h0.963v-1.369h-0.963V31.898z"/>
	<path class="st8" d="M33.091,3.127h-2.612l0,0.002c5.08-0.001,9.201,4.104,9.201,9.183c0,2.586-1.07,4.92-2.789,6.589
		c-1.367,1.327-2.197,3.109-2.197,5.014v0.375h3.044v-0.375c0-1.905,0.83-3.687,2.197-5.014c1.72-1.669,2.789-4.003,2.789-6.589
		C42.724,7.089,38.368,2.882,33.091,3.127z"/>
	<path class="st1" d="M37.738,24.79h-3.044c-0.276,0-0.5-0.224-0.5-0.5v-0.375c0-1.994,0.834-3.902,2.349-5.373
		c1.701-1.651,2.638-3.863,2.638-6.23c0-2.322-0.905-4.503-2.549-6.143c-1.643-1.638-3.827-2.54-6.15-2.54
		c-0.107-0.023-0.262-0.052-0.356-0.146c-0.094-0.094-0.146-0.221-0.146-0.354c0-0.276,0.224-0.502,0.5-0.502h2.6
		c2.67-0.126,5.212,0.827,7.144,2.672c1.936,1.848,3.001,4.338,3.001,7.014c0,2.64-1.044,5.107-2.941,6.948
		c-1.318,1.28-2.044,2.933-2.044,4.655v0.375C38.238,24.566,38.015,24.79,37.738,24.79z M35.196,23.79h2.043
		c0.034-1.949,0.865-3.808,2.347-5.247c1.701-1.651,2.638-3.863,2.638-6.23c0-2.399-0.956-4.633-2.692-6.291
		c-1.272-1.214-2.837-1.996-4.529-2.282c0.849,0.448,1.636,1.025,2.334,1.722c1.833,1.829,2.843,4.261,2.843,6.851
		c0,2.64-1.044,5.107-2.941,6.948C35.953,20.509,35.23,22.113,35.196,23.79z"/>
	<path class="st5" d="M35.432,24.29v3.74c0,1.104-0.895,1.999-1.999,1.999h2.893c1.169,0,2.117-0.948,2.117-2.117V24.29H35.432z"/>
	<path class="st1" d="M36.325,30.529h-2.893c-0.276,0-0.5-0.224-0.5-0.5s0.224-0.5,0.5-0.5c0.827,0,1.5-0.673,1.5-1.5v-3.739
		c0-0.276,0.224-0.5,0.5-0.5h3.01c0.276,0,0.5,0.224,0.5,0.5v3.622C38.942,29.355,37.768,30.529,36.325,30.529z M35.431,29.529
		h0.894c0.892,0,1.617-0.726,1.617-1.617v-3.122h-2.01v3.239C35.932,28.592,35.745,29.111,35.431,29.529z"/>
	<path class="st1" d="M32.055,24.217h-1v-4.607c0-0.128,0.049-0.252,0.138-0.345l1.421-1.493l0.725,0.689l-1.284,1.348V24.217z"/>
	<path class="st1" d="M29.914,24.217h-1V19.81l-1.284-1.348l0.725-0.689l1.421,1.493c0.088,0.093,0.138,0.216,0.138,0.345V24.217z"
		/>
	<path class="st3" d="M40.259,60.883H24.2c-1.657,0-3-1.343-3-3V38.79h22.059v19.093C43.259,59.54,41.916,60.883,40.259,60.883z"/>
	<rect x="21.2" y="42.805" class="st0" width="22.059" height="3.334"/>
	<path class="st1" d="M40.259,61.384H24.2c-1.93,0-3.5-1.57-3.5-3.5V38.79c0-0.276,0.224-0.5,0.5-0.5h22.059
		c0.276,0,0.5,0.224,0.5,0.5v19.094C43.759,59.813,42.189,61.384,40.259,61.384z M21.7,39.29v18.594c0,1.379,1.122,2.5,2.5,2.5
		h16.059c1.378,0,2.5-1.121,2.5-2.5V39.29H21.7z"/>
	<path class="st3" d="M45.258,38.79H19.201c-1.118,0-2.024-0.906-2.024-2.024v0c0-1.118,0.906-2.024,2.024-2.024h26.057
		c1.118,0,2.024,0.906,2.024,2.024v0C47.282,37.884,46.376,38.79,45.258,38.79z"/>
	<path class="st1" d="M45.258,39.29H19.201c-1.392,0-2.524-1.133-2.524-2.524s1.132-2.524,2.524-2.524h26.057
		c1.392,0,2.524,1.133,2.524,2.524S46.65,39.29,45.258,39.29z M19.201,35.241c-0.84,0-1.524,0.684-1.524,1.524
		s0.684,1.524,1.524,1.524h26.057c0.84,0,1.524-0.684,1.524-1.524s-0.684-1.524-1.524-1.524H19.201z"/>
	<rect x="21.2" y="42.305" class="st1" width="22.059" height="1"/>
	<rect x="21.2" y="45.639" class="st1" width="22.059" height="1"/>
	<rect x="41.354" y="30.713" class="st1" width="13.75" height="1"/>
	<rect x="56.792" y="30.713" class="st1" width="2.188" height="1"/>
	
		<rect x="41.737" y="24.901" transform="matrix(0.9613 -0.2755 0.2755 0.9613 -5.1412 14.2011)" class="st1" width="12.484" height="1"/>
	
		<rect x="55.375" y="22.484" transform="matrix(0.9605 -0.2782 0.2782 0.9605 -4.166 16.611)" class="st1" width="2.145" height="1"/>
	<rect x="8.896" y="30.713" class="st1" width="13.75" height="1"/>
	<rect x="5.021" y="30.713" class="st1" width="2.188" height="1"/>
	
		<rect x="15.521" y="19.159" transform="matrix(0.2759 -0.9612 0.9612 0.2759 -12.8143 33.7931)" class="st1" width="1" height="12.484"/>
	
		<rect x="7.053" y="21.912" transform="matrix(0.2784 -0.9605 0.9605 0.2784 -16.6258 23.8409)" class="st1" width="1" height="2.145"/>
</g>
</svg>
