<?xml version="1.0" encoding="iso-8859-1"?>
<!-- Generator: Adobe Illustrator 22.0.1, SVG Export Plug-In . SVG Version: 6.00 Build 0)  -->
<svg version="1.1" id="Layer_1" xmlns="http://www.w3.org/2000/svg" xmlns:xlink="http://www.w3.org/1999/xlink" x="0px" y="0px"
	 viewBox="0 0 64 64" style="enable-background:new 0 0 64 64;" xml:space="preserve">
<style type="text/css">
	.st0{fill:#F8F3F3;}
	.st1{fill:#63312D;}
	.st2{fill:#E1DDDD;}
	.st3{fill:#84DBFF;}
	.st4{fill:#CAF4FF;}
	.st5{fill:#52BADB;}
	.st6{fill:#F9DD9D;}
	.st7{fill:#FFEECF;}
	.st8{fill:#EFC36A;}
	.st9{fill:#F7A085;}
	.st10{fill:#82D9FF;}
	.st11{fill:#F7DB9B;}
	.st12{fill:#F9A287;}
	.st13{fill:#FFC8BB;}
	.st14{fill:#52B8D9;}
	.st15{fill:#DB785A;}
	.st16{fill:#EDCB85;}
	.st17{fill:#DBAB56;}
	.st18{fill:#D3A553;}
	.st19{fill:#FFFFFF;}
</style>
<g>
	<path class="st12" d="M53.586,29.831h-7.235c-4.035,0-7.306,3.271-7.306,7.306v11.301h21.847V37.137
		C60.892,33.102,57.621,29.831,53.586,29.831z"/>
	<polyline class="st0" points="45.399,29.831 49.807,36.45 54.216,29.831 	"/>
	<path class="st1" d="M49.807,36.949L49.807,36.949c-0.167,0-0.323-0.084-0.416-0.223l-4.408-6.618l0.832-0.555l3.992,5.993
		l3.993-5.993l0.832,0.555l-4.409,6.618C50.13,36.865,49.975,36.949,49.807,36.949z"/>
	<circle class="st6" cx="49.968" cy="21.642" r="6.581"/>
	<path class="st1" d="M60.892,48.938H39.044c-0.276,0-0.5-0.224-0.5-0.5V37.137c0-4.304,3.502-7.806,7.806-7.806h7.235
		c4.304,0,7.806,3.502,7.806,7.806v11.301C61.392,48.714,61.168,48.938,60.892,48.938z M39.544,47.938h20.847V37.137
		c0-3.753-3.053-6.806-6.806-6.806h-7.235c-3.753,0-6.806,3.053-6.806,6.806V47.938z"/>
	<rect x="42.694" y="36.432" class="st1" width="1" height="12.006"/>
	<rect x="56.587" y="36.588" class="st1" width="1" height="11.85"/>
	<path class="st12" d="M54.16,16.566l-0.052,0.098c0,0-3.026,4.638-9.657,6.041c-0.306,0.064-0.618,0.121-0.941,0.173
		c-0.035-0.179-0.064-0.358-0.081-0.543c-0.029-0.231-0.04-0.462-0.04-0.693c0-3.633,2.946-6.584,6.579-6.584
		c0.098,0,0.196,0,0.295,0.006C51.74,15.134,53.091,15.682,54.16,16.566z"/>
	<path class="st12" d="M54.153,16.579l-0.047,0.082c0,0-0.808,1.233-2.492,2.619l0.002,0.016c0,0,2.066,1.784,4.92,2.069
		C56.455,19.437,55.544,17.729,54.153,16.579z"/>
	<path class="st1" d="M49.968,28.724c-3.905,0-7.082-3.177-7.082-7.082c0-3.904,3.177-7.081,7.082-7.081
		c3.904,0,7.081,3.177,7.081,7.081C57.049,25.547,53.873,28.724,49.968,28.724z M49.968,15.561c-3.354,0-6.082,2.728-6.082,6.081
		s2.728,6.082,6.082,6.082c3.353,0,6.081-2.729,6.081-6.082S53.321,15.561,49.968,15.561z"/>
	<path class="st1" d="M43.506,23.377c-0.236,0-0.445-0.168-0.491-0.406c-0.085-0.45-0.129-0.897-0.129-1.329
		c0-3.904,3.177-7.081,7.082-7.081c1.643,0,3.245,0.576,4.51,1.622c0.188,0.155,0.236,0.423,0.115,0.635L54.54,16.91
		c-0.155,0.239-3.535,5.306-10.957,6.461C43.558,23.375,43.532,23.377,43.506,23.377z M49.968,15.561
		c-3.354,0-6.082,2.728-6.082,6.081c0,0.215,0.013,0.435,0.038,0.657c5.676-1.053,8.757-4.586,9.554-5.623
		C52.456,15.954,51.226,15.561,49.968,15.561z"/>
	<path class="st1" d="M56.535,21.865c-0.017,0-0.033-0.001-0.049-0.003c-2.978-0.296-5.108-2.11-5.197-2.188
		c-0.095-0.081-0.155-0.195-0.17-0.319c-0.02-0.169,0.045-0.354,0.177-0.461c1.598-1.315,2.385-2.496,2.393-2.508
		c0.078-0.119,0.227-0.24,0.367-0.261c0.14-0.021,0.307-0.022,0.417,0.067c1.545,1.279,2.479,3.156,2.563,5.151
		c0.006,0.145-0.051,0.284-0.156,0.384C56.785,21.816,56.662,21.865,56.535,21.865z M52.403,19.264
		c0.655,0.452,1.957,1.223,3.576,1.519c-0.188-1.306-0.8-2.521-1.743-3.454C53.905,17.756,53.301,18.467,52.403,19.264z"/>
	<path class="st12" d="M17.649,29.831h-7.235c-4.035,0-7.306,3.271-7.306,7.306v11.301h21.847V37.137
		C24.955,33.102,21.684,29.831,17.649,29.831z"/>
	<polyline class="st0" points="9.463,29.831 13.871,36.45 18.279,29.831 	"/>
	<path class="st1" d="M13.871,36.949c-0.167,0-0.323-0.084-0.416-0.223l-4.408-6.618l0.832-0.555l3.992,5.993l3.992-5.993
		l0.832,0.555l-4.408,6.618C14.194,36.865,14.039,36.949,13.871,36.949z"/>
	<circle class="st6" cx="14.032" cy="21.642" r="6.581"/>
	<path class="st1" d="M24.956,48.938H3.108c-0.276,0-0.5-0.224-0.5-0.5V37.137c0-4.304,3.502-7.806,7.806-7.806h7.235
		c4.304,0,7.806,3.502,7.806,7.806v11.301C25.456,48.714,25.232,48.938,24.956,48.938z M3.608,47.938h20.847V37.137
		c0-3.753-3.053-6.806-6.806-6.806h-7.235c-3.753,0-6.806,3.053-6.806,6.806V47.938z"/>
	<rect x="6.951" y="36.432" class="st1" width="1" height="12.006"/>
	<rect x="20.943" y="36.588" class="st1" width="1" height="11.85"/>
	<path class="st12" d="M18.224,16.566l-0.052,0.098c0,0-3.026,4.638-9.657,6.041c-0.306,0.064-0.618,0.121-0.941,0.173
		c-0.035-0.179-0.064-0.358-0.081-0.543c-0.029-0.231-0.04-0.462-0.04-0.693c0-3.633,2.946-6.584,6.579-6.584
		c0.098,0,0.196,0,0.295,0.006C15.803,15.134,17.155,15.682,18.224,16.566z"/>
	<path class="st12" d="M18.217,16.579l-0.047,0.082c0,0-0.808,1.233-2.492,2.619l0.002,0.016c0,0,2.066,1.784,4.92,2.069
		C20.519,19.437,19.608,17.729,18.217,16.579z"/>
	<path class="st1" d="M14.032,28.724c-3.904,0-7.081-3.177-7.081-7.082c0-3.904,3.177-7.081,7.081-7.081
		c3.905,0,7.082,3.177,7.082,7.081C21.113,25.547,17.937,28.724,14.032,28.724z M14.032,15.561c-3.353,0-6.081,2.728-6.081,6.081
		s2.728,6.082,6.081,6.082c3.354,0,6.082-2.729,6.082-6.082S17.385,15.561,14.032,15.561z"/>
	<path class="st1" d="M7.57,23.377c-0.236,0-0.445-0.168-0.491-0.406c-0.085-0.448-0.128-0.896-0.128-1.329
		c0-3.904,3.177-7.081,7.081-7.081c1.644,0,3.245,0.576,4.51,1.622c0.188,0.155,0.236,0.424,0.115,0.635l-0.053,0.093
		c-0.155,0.239-3.535,5.306-10.957,6.461C7.621,23.375,7.595,23.377,7.57,23.377z M14.032,15.561c-3.353,0-6.081,2.728-6.081,6.081
		c0,0.215,0.013,0.435,0.038,0.657c5.676-1.053,8.757-4.586,9.553-5.623C16.52,15.954,15.29,15.561,14.032,15.561z"/>
	<path class="st1" d="M20.599,21.865c-0.017,0-0.033-0.001-0.049-0.003c-2.978-0.296-5.108-2.11-5.197-2.188
		c-0.099-0.085-0.16-0.204-0.171-0.334c-0.015-0.164,0.051-0.342,0.179-0.446c1.607-1.323,2.384-2.496,2.392-2.508
		c0.078-0.118,0.227-0.24,0.367-0.261c0.14-0.021,0.308-0.022,0.417,0.068c1.545,1.278,2.479,3.155,2.563,5.15
		c0.006,0.145-0.051,0.284-0.156,0.384C20.849,21.816,20.726,21.865,20.599,21.865z M16.467,19.264
		c0.655,0.452,1.957,1.223,3.576,1.519c-0.188-1.306-0.801-2.521-1.743-3.454C17.97,17.756,17.365,18.467,16.467,19.264z"/>
	<path class="st10" d="M34.263,29.836h-8.167c-4.555,0-8.247,3.692-8.247,8.247v12.756H42.51V38.083
		C42.51,33.528,38.817,29.836,34.263,29.836z"/>
	<path class="st4" d="M19.509,38.708c0-4.555,3.692-8.247,8.247-8.247h8.167c0.715,0,1.404,0.1,2.065,0.271
		c-1.12-0.569-2.383-0.896-3.725-0.896h-8.167c-4.555,0-8.247,3.692-8.247,8.247v12.756h1.66V38.708z"/>
	<polyline class="st0" points="25.022,29.836 29.998,37.307 34.974,29.836 	"/>
	<path class="st1" d="M29.998,37.807L29.998,37.807c-0.167,0-0.323-0.084-0.416-0.223l-4.976-7.471l0.832-0.555l4.56,6.846
		l4.561-6.846l0.832,0.555l-4.977,7.471C30.321,37.723,30.165,37.807,29.998,37.807z"/>
	<circle class="st6" cx="30.179" cy="20.593" r="7.429"/>
	<path class="st7" d="M23.891,20.898c0-4.103,3.326-7.429,7.429-7.429c0.457,0,0.902,0.047,1.336,0.126
		c-0.776-0.275-1.607-0.432-2.477-0.432c-4.103,0-7.429,3.326-7.429,7.429c0,3.646,2.629,6.673,6.093,7.302
		C25.96,26.874,23.891,24.131,23.891,20.898z"/>
	<g>
		<path class="st8" d="M29.998,13.173c0.061-0.002,0.12-0.009,0.182-0.009h-0.182V13.173z"/>
		<path class="st8" d="M29.998,28.021h0.182c-0.061,0-0.121-0.008-0.182-0.009V28.021z"/>
		<path class="st8" d="M33.966,13.164h-3.787c4.103,0,7.429,3.326,7.429,7.429c0,4.103-3.326,7.429-7.429,7.429h3.787
			c4.103,0,7.429-3.326,7.429-7.429C41.395,16.49,38.069,13.164,33.966,13.164z"/>
	</g>
	<g>
		<path class="st15" d="M29.998,13.173c0.061-0.002,0.12-0.009,0.182-0.009h-0.182V13.173z"/>
		<path class="st15" d="M37.606,20.553h3.787c-0.022-4.084-3.337-7.389-7.427-7.389h-3.787
			C34.269,13.164,37.584,16.469,37.606,20.553z"/>
	</g>
	<g>
		<path class="st1" d="M29.998,13.673c-0.131,0-0.257-0.052-0.351-0.144c-0.096-0.094-0.149-0.223-0.149-0.356v-0.009
			c0-0.276,0.224-0.5,0.5-0.5h0.182c0.276,0,0.5,0.224,0.5,0.5s-0.224,0.5-0.5,0.5l-0.174,0.009
			C30.003,13.673,30,13.673,29.998,13.673z M29.99,12.673l0.008,0.5L29.99,12.673z"/>
		<path class="st1" d="M41.393,21.053h-3.787c-0.275,0-0.499-0.223-0.5-0.497c-0.02-3.8-3.127-6.892-6.927-6.892
			c-0.276,0-0.5-0.224-0.5-0.5s0.224-0.5,0.5-0.5h3.787c4.348,0,7.903,3.538,7.926,7.886c0,0.134-0.052,0.261-0.146,0.355
			S41.526,21.053,41.393,21.053z M38.088,20.053h2.784c-0.275-3.547-3.243-6.358-6.846-6.389
			C36.307,14.938,37.902,17.308,38.088,20.053z"/>
	</g>
	<g>
		<path class="st1" d="M29.998,13.673c-0.131,0-0.257-0.052-0.351-0.144c-0.096-0.094-0.149-0.223-0.149-0.356v-0.009
			c0-0.276,0.224-0.5,0.5-0.5h0.182c0.276,0,0.5,0.224,0.5,0.5s-0.224,0.5-0.5,0.5l-0.174,0.009
			C30.003,13.673,30,13.673,29.998,13.673z M29.99,12.673l0.008,0.5L29.99,12.673z"/>
		<path class="st1" d="M30.179,28.521h-0.182c-0.276,0-0.5-0.224-0.5-0.5v-0.01c0-0.136,0.055-0.265,0.152-0.359
			c0.097-0.094,0.228-0.144,0.364-0.141c0.028,0.001,0.056,0.004,0.084,0.01h0.081c0.276,0,0.5,0.224,0.5,0.5
			S30.456,28.521,30.179,28.521z"/>
		<path class="st1" d="M33.966,28.521h-3.787c-0.276,0-0.5-0.224-0.5-0.5s0.224-0.5,0.5-0.5c3.82,0,6.929-3.108,6.929-6.929
			S34,13.664,30.179,13.664c-0.276,0-0.5-0.224-0.5-0.5s0.224-0.5,0.5-0.5h3.787c4.372,0,7.929,3.557,7.929,7.929
			S38.338,28.521,33.966,28.521z M34.032,13.664c2.43,1.356,4.076,3.954,4.076,6.929s-1.646,5.572-4.076,6.929
			c3.791-0.035,6.863-3.13,6.863-6.929S37.822,13.699,34.032,13.664z"/>
	</g>
	<path class="st1" d="M42.51,51.339H17.849c-0.276,0-0.5-0.224-0.5-0.5V38.083c0-4.823,3.924-8.747,8.747-8.747h8.167
		c4.823,0,8.747,3.924,8.747,8.747v12.756C43.01,51.115,42.786,51.339,42.51,51.339z M18.349,50.339H42.01V38.083
		c0-4.271-3.475-7.747-7.747-7.747h-8.167c-4.271,0-7.747,3.476-7.747,7.747V50.339z"/>
	<rect x="22.25" y="37.286" class="st1" width="1" height="13.553"/>
	<rect x="37.716" y="37.463" class="st1" width="1" height="13.376"/>
	<path class="st14" d="M37.904,29.836h-3.641c4.555,0,8.247,3.692,8.247,8.247v12.756h3.641V38.083
		C46.151,33.528,42.459,29.836,37.904,29.836z"/>
	<path class="st1" d="M46.151,51.339H42.51c-0.276,0-0.5-0.224-0.5-0.5V38.083c0-4.271-3.475-7.747-7.747-7.747
		c-0.276,0-0.5-0.224-0.5-0.5s0.224-0.5,0.5-0.5h3.642c4.823,0,8.747,3.924,8.747,8.747v12.756
		C46.651,51.115,46.427,51.339,46.151,51.339z M43.01,50.339h2.641V38.083c0-4.124-3.238-7.506-7.306-7.734
		c2.772,1.469,4.665,4.385,4.665,7.734V50.339z"/>
	<path class="st12" d="M34.911,14.863l-0.059,0.111c0,0-3.416,5.235-10.901,6.819c-0.346,0.072-0.698,0.137-1.063,0.196
		c-0.039-0.202-0.072-0.404-0.091-0.613c-0.033-0.261-0.046-0.522-0.046-0.782c0-4.101,3.325-7.432,7.426-7.432
		c0.111,0,0.222,0,0.333,0.007C32.179,13.246,33.705,13.865,34.911,14.863z"/>
	<path class="st12" d="M34.904,14.877L34.85,14.97c0,0-0.912,1.392-2.813,2.956l0.002,0.019c0,0,2.332,2.014,5.553,2.335
		C37.501,18.103,36.473,16.176,34.904,14.877z"/>
	<path class="st13" d="M32.655,13.598c-0.43-0.078-0.88-0.13-1.337-0.13c-4.101,0-7.426,3.325-7.426,7.432
		c0,0.306,0.02,0.6,0.059,0.893c-0.346,0.072-0.698,0.137-1.063,0.196c-0.039-0.202-0.072-0.404-0.091-0.613
		c-0.033-0.261-0.046-0.522-0.046-0.782c0-4.101,3.325-7.432,7.426-7.432c0.111,0,0.222,0,0.333,0.007
		C31.26,13.207,31.977,13.357,32.655,13.598z"/>
	<path class="st1" d="M30.179,28.521c-4.372,0-7.929-3.557-7.929-7.929s3.557-7.929,7.929-7.929s7.929,3.557,7.929,7.929
		S34.551,28.521,30.179,28.521z M30.179,13.664c-3.82,0-6.929,3.108-6.929,6.929s3.108,6.929,6.929,6.929s6.929-3.108,6.929-6.929
		S34,13.664,30.179,13.664z"/>
	<path class="st1" d="M22.885,22.486c-0.236,0-0.445-0.168-0.491-0.406c-0.096-0.503-0.144-1.004-0.144-1.487
		c0-4.372,3.557-7.929,7.929-7.929c1.84,0,3.634,0.645,5.05,1.815c0.188,0.155,0.236,0.422,0.116,0.633l-0.06,0.105
		c-0.173,0.268-3.973,5.963-12.323,7.263C22.937,22.484,22.911,22.486,22.885,22.486z M30.179,13.664
		c-3.82,0-6.929,3.108-6.929,6.929c0,0.267,0.017,0.54,0.051,0.816c6.552-1.192,10.086-5.327,10.931-6.437
		C33.058,14.126,31.635,13.664,30.179,13.664z"/>
	<path class="st1" d="M37.592,20.78c-0.017,0-0.033-0.001-0.05-0.003c-3.34-0.333-5.73-2.367-5.83-2.454
		c-0.097-0.083-0.158-0.201-0.171-0.328c-0.017-0.166,0.049-0.35,0.178-0.455c1.812-1.491,2.705-2.831,2.713-2.844l0.036-0.066
		c0.073-0.128,0.199-0.218,0.345-0.245c0.149-0.023,0.296,0.013,0.409,0.107c1.73,1.432,2.776,3.534,2.869,5.768
		c0.006,0.145-0.051,0.285-0.156,0.384C37.842,20.731,37.719,20.78,37.592,20.78z M32.824,17.913
		c0.731,0.514,2.28,1.454,4.217,1.788c-0.202-1.545-0.925-2.984-2.049-4.075C34.625,16.107,33.911,16.958,32.824,17.913z"/>
</g>
</svg>
