<?xml version="1.0" encoding="iso-8859-1"?>
<!-- Generator: Adobe Illustrator 22.0.1, SVG Export Plug-In . SVG Version: 6.00 Build 0)  -->
<svg version="1.1" id="Layer_1" xmlns="http://www.w3.org/2000/svg" xmlns:xlink="http://www.w3.org/1999/xlink" x="0px" y="0px"
	 viewBox="0 0 64 64" style="enable-background:new 0 0 64 64;" xml:space="preserve">
<style type="text/css">
	.st0{fill:#F8F3F3;}
	.st1{fill:#63312D;}
	.st2{fill:#E1DDDD;}
	.st3{fill:#84DBFF;}
	.st4{fill:#CAF4FF;}
	.st5{fill:#52BADB;}
	.st6{fill:#F9DD9D;}
	.st7{fill:#FFEECF;}
	.st8{fill:#EFC36A;}
	.st9{fill:#F7A085;}
	.st10{fill:#82D9FF;}
	.st11{fill:#F7DB9B;}
	.st12{fill:#F9A287;}
	.st13{fill:#FFC8BB;}
	.st14{fill:#52B8D9;}
	.st15{fill:#DB785A;}
	.st16{fill:#EDCB85;}
	.st17{fill:#DBAB56;}
	.st18{fill:#D3A553;}
	.st19{fill:#FFFFFF;}
</style>
<g>
	<path class="st3" d="M52.843,40.401c-0.99,0-1.918,0.33-2.661,0.887V33.1h-8.189c0.557-0.743,0.887-1.671,0.887-2.661
		c0-2.475-2.001-4.476-4.466-4.476c-2.465,0-4.466,2.001-4.466,4.476c0,0.99,0.33,1.918,0.887,2.661h-8.189v8.189
		c0.743-0.557,1.671-0.887,2.661-0.887c2.475,0,4.476,2.001,4.476,4.466c0,2.465-2.001,4.466-4.476,4.466
		c-0.99,0-1.918-0.33-2.661-0.887v8.189h23.535v-8.189c0.743,0.557,1.671,0.887,2.661,0.887c2.475,0,4.476-2.001,4.476-4.466
		C57.319,42.402,55.318,40.401,52.843,40.401z"/>
	<path class="st1" d="M50.182,57.135H26.646c-0.276,0-0.5-0.224-0.5-0.5v-8.188c0-0.189,0.107-0.362,0.276-0.447
		c0.169-0.084,0.373-0.064,0.523,0.047c0.678,0.508,1.516,0.787,2.361,0.787c2.192,0,3.976-1.779,3.976-3.966
		s-1.783-3.966-3.976-3.966c-0.846,0-1.684,0.279-2.361,0.787c-0.15,0.112-0.354,0.132-0.523,0.047s-0.276-0.258-0.276-0.447V33.1
		c0-0.276,0.224-0.5,0.5-0.5h7.302c-0.326-0.67-0.5-1.413-0.5-2.161c0-2.743,2.228-4.976,4.966-4.976s4.966,2.232,4.966,4.976
		c0,0.748-0.174,1.49-0.499,2.161h7.301c0.276,0,0.5,0.224,0.5,0.5V40.4c0.671-0.325,1.413-0.499,2.161-0.499
		c2.743,0,4.976,2.228,4.976,4.966s-2.232,4.966-4.976,4.966c-0.748,0-1.49-0.174-2.161-0.499v7.301
		C50.682,56.911,50.458,57.135,50.182,57.135z M27.146,56.135h22.535v-7.688c0-0.189,0.107-0.362,0.276-0.447
		c0.169-0.084,0.372-0.064,0.523,0.047c0.677,0.508,1.516,0.787,2.361,0.787c2.192,0,3.976-1.779,3.976-3.966
		s-1.783-3.966-3.976-3.966c-0.846,0-1.685,0.279-2.361,0.787c-0.151,0.112-0.354,0.132-0.523,0.047s-0.276-0.258-0.276-0.447V33.6
		h-7.688c-0.189,0-0.362-0.107-0.447-0.276s-0.066-0.372,0.047-0.523c0.508-0.677,0.787-1.516,0.787-2.361
		c0-2.192-1.779-3.976-3.966-3.976s-3.966,1.783-3.966,3.976c0,0.847,0.279,1.685,0.787,2.36c0.114,0.152,0.133,0.354,0.048,0.524
		c-0.085,0.169-0.258,0.276-0.447,0.276h-7.689v6.802c0.671-0.326,1.414-0.5,2.161-0.5c2.743,0,4.976,2.228,4.976,4.966
		s-2.232,4.966-4.976,4.966c-0.747,0-1.49-0.174-2.161-0.5V56.135z"/>
	<path class="st9" d="M29.301,40.399c-0.99,0-1.918,0.33-2.66,0.887v-8.186h-8.186c0.557-0.742,0.887-1.67,0.887-2.66
		c0-2.474-2-4.475-4.464-4.475s-4.464,2-4.464,4.475c0,0.99,0.33,1.918,0.887,2.66H3.113v8.186c0.742-0.557,1.67-0.887,2.66-0.887
		c2.475,0,4.475,2,4.475,4.464c0,2.464-2,4.464-4.475,4.464c-0.99,0-1.918-0.33-2.66-0.887v8.186h23.528v-8.186
		c0.742,0.557,1.67,0.887,2.66,0.887c2.474,0,4.475-2,4.475-4.464C33.776,42.399,31.775,40.399,29.301,40.399z"/>
	<path class="st13" d="M4.607,49.967c0.743,0.557,1.671,0.887,2.661,0.887c2.475,0,4.476-2.001,4.476-4.466
		c0-1.606-0.857-3.004-2.134-3.791c0.397,0.667,0.64,1.437,0.64,2.269c0,2.465-2.001,4.466-4.476,4.466
		c-0.99,0-1.918-0.33-2.661-0.887v8.189h1.494V49.967z"/>
	<path class="st13" d="M4.616,34.62h8.186c-0.557-0.742-0.887-1.67-0.887-2.66c0-2.474,2-4.475,4.464-4.475
		c0.856,0,1.648,0.253,2.328,0.672c-0.779-1.309-2.192-2.193-3.822-2.193c-2.464,0-4.464,2-4.464,4.475
		c0,0.99,0.33,1.918,0.887,2.66H3.122v8.186c0.44-0.33,0.949-0.567,1.494-0.717V34.62z"/>
	<path class="st1" d="M26.641,57.127H3.113c-0.276,0-0.5-0.224-0.5-0.5V48.44c0-0.189,0.107-0.362,0.276-0.447
		c0.171-0.084,0.372-0.065,0.524,0.048c0.675,0.507,1.513,0.786,2.359,0.786c2.191,0,3.975-1.778,3.975-3.964
		c0-2.187-1.783-3.965-3.975-3.965c-0.846,0-1.684,0.279-2.36,0.787c-0.151,0.111-0.354,0.131-0.523,0.047
		c-0.169-0.085-0.276-0.258-0.276-0.447V33.1c0-0.276,0.224-0.5,0.5-0.5h7.299c-0.326-0.671-0.5-1.413-0.5-2.16
		c0-2.743,2.228-4.975,4.965-4.975s4.964,2.231,4.964,4.975c0,0.747-0.174,1.49-0.499,2.16h7.299c0.276,0,0.5,0.224,0.5,0.5v7.298
		c0.67-0.325,1.413-0.499,2.16-0.499c2.743,0,4.975,2.228,4.975,4.965s-2.231,4.964-4.975,4.964c-0.748,0-1.49-0.174-2.16-0.499
		v7.299C27.141,56.903,26.917,57.127,26.641,57.127z M3.613,56.127h22.527V48.44c0-0.189,0.107-0.362,0.276-0.447
		c0.171-0.084,0.372-0.065,0.524,0.048c0.675,0.507,1.513,0.786,2.359,0.786c2.191,0,3.975-1.778,3.975-3.964
		c0-2.187-1.783-3.965-3.975-3.965c-0.846,0-1.684,0.279-2.36,0.787c-0.15,0.111-0.354,0.131-0.523,0.047
		c-0.169-0.085-0.276-0.258-0.276-0.447V33.6h-7.687c-0.189,0-0.362-0.107-0.447-0.276c-0.085-0.17-0.066-0.372,0.047-0.523
		c0.508-0.677,0.787-1.515,0.787-2.36c0-2.191-1.778-3.975-3.964-3.975c-2.187,0-3.965,1.783-3.965,3.975
		c0,0.845,0.279,1.683,0.787,2.36c0.113,0.151,0.132,0.354,0.047,0.523S11.488,33.6,11.299,33.6H3.613v6.798
		c0.67-0.325,1.413-0.499,2.16-0.499c2.743,0,4.975,2.228,4.975,4.965s-2.231,4.964-4.975,4.964c-0.748,0-1.49-0.174-2.16-0.499
		V56.127z"/>
	<g>
		<path class="st5" d="M42.88,30.439c0,0.99-0.33,1.918-0.887,2.661h3.568c0.557-0.743,0.887-1.671,0.887-2.661
			c0-2.475-2.001-4.476-4.466-4.476h-3.568C40.879,25.963,42.88,27.964,42.88,30.439z"/>
		<path class="st5" d="M56.411,40.401H53.75V33.1h-3.568v8.189c0.743-0.557,1.671-0.887,2.661-0.887
			c2.475,0,4.476,2.001,4.476,4.466c0,2.465-2.001,4.466-4.476,4.466c-0.99,0-1.918-0.33-2.661-0.887v8.189h3.568v-7.302h2.661
			c2.475,0,4.476-2.001,4.476-4.466C60.887,42.402,58.886,40.401,56.411,40.401z"/>
		<path class="st5" d="M38.414,25.963h-0.368l0.013,0.036C38.179,25.989,38.293,25.963,38.414,25.963z"/>
	</g>
	<g>
		<path class="st1" d="M45.562,33.6h-3.568c-0.189,0-0.362-0.107-0.447-0.276s-0.066-0.372,0.047-0.523
			c0.508-0.677,0.787-1.516,0.787-2.361c0-2.192-1.779-3.976-3.966-3.976c-0.276,0-0.5-0.224-0.5-0.5s0.224-0.5,0.5-0.5h3.568
			c2.738,0,4.966,2.232,4.966,4.976c0,1.062-0.351,2.112-0.986,2.961C45.867,33.525,45.719,33.6,45.562,33.6z M42.881,32.6h2.421
			c0.418-0.638,0.646-1.396,0.646-2.161c0-2.192-1.779-3.976-3.966-3.976h-0.586c1.204,0.909,1.983,2.353,1.983,3.976
			C43.38,31.187,43.206,31.929,42.881,32.6z"/>
		<path class="st1" d="M53.75,57.135h-3.568c-0.276,0-0.5-0.224-0.5-0.5v-8.188c0-0.189,0.107-0.362,0.276-0.447
			c0.169-0.084,0.372-0.064,0.523,0.047c0.677,0.508,1.516,0.787,2.361,0.787c2.192,0,3.976-1.779,3.976-3.966
			s-1.783-3.966-3.976-3.966c-0.846,0-1.685,0.279-2.361,0.787c-0.151,0.112-0.354,0.132-0.523,0.047s-0.276-0.258-0.276-0.447V33.1
			c0-0.276,0.224-0.5,0.5-0.5h3.568c0.276,0,0.5,0.224,0.5,0.5v6.802h2.161c2.743,0,4.976,2.228,4.976,4.966
			s-2.232,4.966-4.976,4.966H54.25v6.802C54.25,56.911,54.026,57.135,53.75,57.135z M50.682,56.135h2.568v-6.318
			c-0.872,0.069-1.774-0.098-2.568-0.482V56.135z M55.834,48.833h0.577c2.192,0,3.976-1.779,3.976-3.966s-1.783-3.966-3.976-3.966
			h-0.577c1.205,0.907,1.984,2.348,1.984,3.966S57.039,47.926,55.834,48.833z M50.682,33.6V40.4
			c0.794-0.385,1.696-0.551,2.568-0.482V33.6H50.682z"/>
		<path class="st1" d="M38.06,26.498c-0.209,0-0.398-0.131-0.471-0.33c-0.055-0.153-0.038-0.342,0.055-0.475
			c0.094-0.134,0.24-0.23,0.403-0.23h0.367c0.276,0,0.5,0.224,0.5,0.5s-0.224,0.5-0.5,0.5c-0.05,0-0.098,0.008-0.146,0.015
			c-0.058,0.008-0.114,0.015-0.172,0.02C38.084,26.498,38.071,26.498,38.06,26.498z"/>
	</g>
	<circle class="st19" cx="17.091" cy="21.342" r="13.976"/>
	<path class="st1" d="M17.091,35.818c-7.982,0-14.477-6.494-14.477-14.477S9.108,6.865,17.091,6.865s14.477,6.494,14.477,14.477
		S25.073,35.818,17.091,35.818z M17.091,7.865c-7.431,0-13.477,6.046-13.477,13.477S9.66,34.818,17.091,34.818
		s13.477-6.046,13.477-13.477S24.521,7.865,17.091,7.865z"/>
	<path class="st6" d="M16.792,12.795c-3.221,0.149-5.86,2.818-5.977,6.04c-0.068,1.872,0.686,3.566,1.927,4.757
		c0.929,0.891,1.473,2.109,1.473,3.396v0.257h5.75v-0.256c0-1.301,0.567-2.518,1.5-3.424c1.174-1.14,1.905-2.733,1.905-4.499
		C23.37,15.501,20.396,12.628,16.792,12.795z"/>
	<path class="st1" d="M19.966,27.746h-5.75c-0.276,0-0.5-0.224-0.5-0.5v-0.257c0-1.125-0.48-2.231-1.319-3.036
		c-1.392-1.334-2.15-3.205-2.081-5.135c0.126-3.496,2.961-6.361,6.453-6.522l0,0c1.873-0.104,3.65,0.576,5.003,1.867
		c1.354,1.292,2.099,3.034,2.099,4.904c0,1.846-0.73,3.571-2.056,4.858c-0.87,0.844-1.349,1.932-1.349,3.064v0.256
		C20.466,27.522,20.242,27.746,19.966,27.746z M14.71,26.746h4.762c0.063-1.316,0.643-2.564,1.646-3.538
		c1.13-1.097,1.752-2.567,1.752-4.141c0-1.595-0.636-3.079-1.789-4.181c-1.152-1.101-2.667-1.661-4.266-1.593
		c-2.977,0.139-5.393,2.581-5.5,5.56c-0.06,1.646,0.587,3.241,1.773,4.378C14.063,24.167,14.646,25.436,14.71,26.746z"/>
	<path class="st3" d="M18.469,31.166h-2.756c-1.105,0-2-0.895-2-2v-1.919h6.756v1.919C20.469,30.27,19.574,31.166,18.469,31.166z"/>
	<path class="st1" d="M18.469,31.666h-2.756c-1.379,0-2.5-1.121-2.5-2.5v-1.919c0-0.276,0.224-0.5,0.5-0.5h6.756
		c0.276,0,0.5,0.224,0.5,0.5v1.919C20.969,30.545,19.848,31.666,18.469,31.666z M14.213,27.747v1.419c0,0.827,0.673,1.5,1.5,1.5
		h2.756c0.827,0,1.5-0.673,1.5-1.5v-1.419H14.213z"/>
	<rect x="15.622" y="31.166" class="st6" width="2.928" height="1.934"/>
	<path class="st1" d="M18.55,33.6h-2.928c-0.276,0-0.5-0.224-0.5-0.5v-1.934c0-0.276,0.224-0.5,0.5-0.5h2.928
		c0.276,0,0.5,0.224,0.5,0.5V33.1C19.05,33.376,18.826,33.6,18.55,33.6z M16.122,32.6h1.928v-0.934h-1.928V32.6z"/>
	<path class="st1" d="M18.532,27.246h-1v-4.05c0-0.128,0.05-0.252,0.138-0.345l1.249-1.313l0.725,0.689l-1.111,1.168V27.246z"/>
	<path class="st1" d="M16.649,27.246h-1v-3.85l-1.111-1.168l0.725-0.689l1.249,1.313c0.088,0.093,0.138,0.217,0.138,0.345V27.246z"
		/>
	<rect x="16.591" y="9.031" class="st1" width="1" height="2"/>
	<polygon class="st1" points="23.03,13.551 22.321,12.846 23.729,11.427 24.438,12.132 	"/>
	<rect x="24.976" y="18.061" transform="matrix(1 -0.0078 0.0078 1 -0.1442 0.2035)" class="st1" width="1.999" height="1"/>
	<rect x="10.302" y="11.489" transform="matrix(0.7095 -0.7047 0.7047 0.7095 -5.6628 11.2394)" class="st1" width="1" height="2"/>
	<rect x="7.707" y="17.561" transform="matrix(0.0073 -1 1 0.0073 -10.4141 26.6313)" class="st1" width="1" height="1.999"/>
</g>
</svg>
