<?xml version="1.0" encoding="iso-8859-1"?>
<!-- Generator: Adobe Illustrator 22.0.1, SVG Export Plug-In . SVG Version: 6.00 Build 0)  -->
<svg version="1.1" id="Layer_1" xmlns="http://www.w3.org/2000/svg" xmlns:xlink="http://www.w3.org/1999/xlink" x="0px" y="0px"
	 viewBox="0 0 64 64" style="enable-background:new 0 0 64 64;" xml:space="preserve">
<style type="text/css">
	.st0{fill:#F8F3F3;}
	.st1{fill:#63312D;}
	.st2{fill:#E1DDDD;}
	.st3{fill:#84DBFF;}
	.st4{fill:#CAF4FF;}
	.st5{fill:#52BADB;}
	.st6{fill:#F9DD9D;}
	.st7{fill:#FFEECF;}
	.st8{fill:#EFC36A;}
	.st9{fill:#F7A085;}
	.st10{fill:#82D9FF;}
	.st11{fill:#F7DB9B;}
	.st12{fill:#F9A287;}
	.st13{fill:#FFC8BB;}
	.st14{fill:#52B8D9;}
	.st15{fill:#DB785A;}
	.st16{fill:#EDCB85;}
	.st17{fill:#DBAB56;}
	.st18{fill:#D3A553;}
	.st19{fill:#FFFFFF;}
</style>
<g>
	<rect x="3.233" y="32.065" class="st10" width="51.808" height="28.006"/>
	<polygon class="st4" points="5.166,33.823 55.042,33.823 55.042,32.065 3.233,32.065 3.233,60.071 5.166,60.071 	"/>
	<path class="st6" d="M28.714,37.588c-3.222,0.149-5.862,2.819-5.978,6.042c-0.068,1.872,0.686,3.568,1.928,4.759
		c0.929,0.891,1.474,2.11,1.474,3.397v0.257h5.751v-0.256c0-1.301,0.567-2.519,1.5-3.425c1.175-1.14,1.905-2.734,1.905-4.501
		C35.294,40.294,32.319,37.421,28.714,37.588z"/>
	<path class="st1" d="M31.888,52.543h-5.751c-0.276,0-0.5-0.224-0.5-0.5v-0.257c0-1.125-0.481-2.232-1.32-3.037
		c-1.392-1.335-2.151-3.208-2.081-5.138c0.126-3.496,2.961-6.361,6.455-6.523l0,0c1.869-0.087,3.65,0.577,5.004,1.869
		s2.099,3.034,2.099,4.905c0,1.846-0.73,3.572-2.057,4.859c-0.87,0.844-1.349,1.933-1.349,3.066v0.256
		C32.388,52.32,32.165,52.543,31.888,52.543z M26.631,51.543h4.763c0.064-1.316,0.643-2.565,1.646-3.54
		c1.131-1.097,1.753-2.568,1.753-4.142c0-1.595-0.636-3.081-1.79-4.182c-1.154-1.102-2.673-1.669-4.268-1.593l0,0
		c-2.978,0.138-5.395,2.581-5.502,5.561c-0.059,1.645,0.587,3.242,1.774,4.38C25.983,48.962,26.566,50.232,26.631,51.543z"/>
	<path class="st0" d="M30.392,55.964h-2.758c-1.105,0-2-0.895-2-2v-1.92h6.758v1.92C32.392,55.069,31.496,55.964,30.392,55.964z"/>
	<path class="st1" d="M30.392,56.464h-2.758c-1.378,0-2.5-1.122-2.5-2.5v-1.92c0-0.276,0.224-0.5,0.5-0.5h6.758
		c0.276,0,0.5,0.224,0.5,0.5v1.92C32.892,55.342,31.77,56.464,30.392,56.464z M26.133,52.544v1.42c0,0.827,0.673,1.5,1.5,1.5h2.758
		c0.827,0,1.5-0.673,1.5-1.5v-1.42H26.133z"/>
	<rect x="27.548" y="55.964" class="st6" width="2.928" height="1.934"/>
	<path class="st1" d="M30.477,58.398h-2.928c-0.276,0-0.5-0.224-0.5-0.5v-1.934c0-0.276,0.224-0.5,0.5-0.5h2.928
		c0.276,0,0.5,0.224,0.5,0.5v1.934C30.977,58.174,30.753,58.398,30.477,58.398z M28.048,57.398h1.928v-0.934h-1.928V57.398z"/>
	<path class="st1" d="M30.454,52.043h-1v-4.052c0-0.128,0.049-0.252,0.138-0.345l1.25-1.313l0.725,0.689l-1.112,1.168V52.043z"/>
	<path class="st1" d="M28.571,52.043h-1v-3.852l-1.112-1.168l0.725-0.689l1.25,1.313c0.088,0.093,0.138,0.216,0.138,0.345V52.043z"
		/>
	<path class="st1" d="M55.042,60.571H3.233c-0.276,0-0.5-0.224-0.5-0.5V32.064c0-0.276,0.224-0.5,0.5-0.5h51.808
		c0.276,0,0.5,0.224,0.5,0.5v28.006C55.542,60.347,55.318,60.571,55.042,60.571z M3.733,59.571h50.808V32.564H3.733V59.571z"/>
	<rect x="55.042" y="32.065" class="st14" width="5.725" height="28.006"/>
	<path class="st1" d="M60.767,60.571h-5.725c-0.276,0-0.5-0.224-0.5-0.5V32.064c0-0.276,0.224-0.5,0.5-0.5h5.725
		c0.276,0,0.5,0.224,0.5,0.5v28.006C61.267,60.347,61.043,60.571,60.767,60.571z M55.542,59.571h4.725V32.564h-4.725V59.571z"/>
	<polygon class="st6" points="16.667,32.065 9.125,32.065 10.125,19.929 15.667,19.929 	"/>
	<polygon class="st6" points="29.013,32.065 21.471,32.065 22.471,15.929 28.013,15.929 	"/>
	<polygon class="st6" points="41.358,32.065 33.817,32.065 34.817,12.929 40.358,12.929 	"/>
	<polygon class="st6" points="53.704,32.065 46.163,32.065 47.163,9.929 52.704,9.929 	"/>
	<path class="st1" d="M16.667,32.564H9.125c-0.14,0-0.273-0.059-0.368-0.161c-0.095-0.103-0.142-0.241-0.131-0.38l1-12.135
		c0.021-0.259,0.238-0.459,0.499-0.459h5.542c0.26,0,0.477,0.2,0.499,0.459l1,12.135c0.011,0.139-0.036,0.277-0.131,0.38
		C16.939,32.506,16.806,32.564,16.667,32.564z M9.668,31.564h6.456l-0.917-11.135h-4.621L9.668,31.564z"/>
	<path class="st1" d="M29.013,32.564h-7.542c-0.138,0-0.27-0.057-0.364-0.158c-0.095-0.101-0.144-0.235-0.135-0.373l1-16.135
		c0.016-0.264,0.235-0.469,0.499-0.469h5.542c0.264,0,0.483,0.206,0.499,0.469l1,16.135c0.009,0.138-0.04,0.272-0.135,0.373
		C29.283,32.507,29.151,32.564,29.013,32.564z M22.002,31.564h6.479l-0.938-15.135h-4.602L22.002,31.564z"/>
	<path class="st1" d="M41.358,32.564h-7.542c-0.137,0-0.268-0.056-0.363-0.156c-0.094-0.1-0.144-0.233-0.137-0.37l1-19.135
		c0.014-0.266,0.233-0.474,0.5-0.474h5.542c0.266,0,0.485,0.208,0.5,0.474l1,19.135c0.007,0.137-0.042,0.271-0.137,0.37
		C41.626,32.508,41.496,32.564,41.358,32.564z M34.344,31.564h6.488l-0.948-18.135h-4.592L34.344,31.564z"/>
	<path class="st1" d="M53.704,32.564h-7.542c-0.137,0-0.267-0.056-0.361-0.154c-0.094-0.099-0.145-0.232-0.138-0.368l1-22.135
		c0.012-0.267,0.232-0.478,0.5-0.478h5.542c0.268,0,0.487,0.21,0.5,0.478l1,22.135c0.006,0.136-0.044,0.269-0.138,0.368
		C53.971,32.509,53.841,32.564,53.704,32.564z M46.686,31.564h6.496l-0.955-21.135h-4.585L46.686,31.564z"/>
	<rect x="9.125" y="16.929" class="st10" width="7.542" height="3"/>
	<rect x="21.471" y="12.929" class="st10" width="7.542" height="3"/>
	<rect x="33.817" y="9.929" class="st10" width="7.542" height="3"/>
	<rect x="46.163" y="6.929" class="st10" width="7.542" height="3"/>
	<path class="st1" d="M16.667,20.429H9.125c-0.276,0-0.5-0.224-0.5-0.5v-3c0-0.276,0.224-0.5,0.5-0.5h7.542
		c0.276,0,0.5,0.224,0.5,0.5v3C17.167,20.206,16.943,20.429,16.667,20.429z M9.625,19.429h6.542v-2H9.625V19.429z"/>
	<path class="st1" d="M29.013,16.429h-7.542c-0.276,0-0.5-0.224-0.5-0.5v-3c0-0.276,0.224-0.5,0.5-0.5h7.542
		c0.276,0,0.5,0.224,0.5,0.5v3C29.513,16.206,29.289,16.429,29.013,16.429z M21.971,15.429h6.542v-2h-6.542V15.429z"/>
	<path class="st1" d="M41.358,13.429h-7.542c-0.276,0-0.5-0.224-0.5-0.5v-3c0-0.276,0.224-0.5,0.5-0.5h7.542
		c0.276,0,0.5,0.224,0.5,0.5v3C41.858,13.206,41.635,13.429,41.358,13.429z M34.317,12.429h6.542v-2h-6.542V12.429z"/>
	<path class="st1" d="M53.704,10.429h-7.542c-0.276,0-0.5-0.224-0.5-0.5v-3c0-0.276,0.224-0.5,0.5-0.5h7.542
		c0.276,0,0.5,0.224,0.5,0.5v3C54.204,10.206,53.98,10.429,53.704,10.429z M46.663,9.429h6.542v-2h-6.542V9.429z"/>
	<path class="st10" d="M19.689,6.952c0-1.669-1.353-3.022-3.023-3.022c-1.669,0-3.023,1.353-3.023,3.022
		c0,0.39,0.08,0.761,0.215,1.103c-0.847,0.357-1.442,1.196-1.442,2.173c0,0.444,0.13,0.855,0.344,1.209
		c-0.875,0.044-1.573,0.762-1.573,1.648c0,0.915,0.742,1.656,1.656,1.656S14.5,14,14.5,13.085c0-0.189-0.038-0.368-0.097-0.537
		c0.122,0.019,0.244,0.037,0.371,0.037c1.302,0,2.357-1.055,2.357-2.357c0-0.102-0.017-0.199-0.03-0.298
		C18.563,9.718,19.689,8.472,19.689,6.952z"/>
	<path class="st1" d="M12.844,15.242c-1.189,0-2.156-0.967-2.156-2.156c0-0.906,0.563-1.686,1.366-2.001
		c-0.09-0.278-0.137-0.567-0.137-0.856c0-0.996,0.513-1.903,1.337-2.42c-0.073-0.283-0.11-0.57-0.11-0.856
		c0-1.942,1.58-3.522,3.522-3.522s3.522,1.58,3.522,3.522c0,1.573-1.072,2.951-2.559,3.375c-0.05,1.455-1.192,2.637-2.63,2.75
		c0,0.003,0,0.005,0,0.008C15,14.274,14.033,15.242,12.844,15.242z M16.667,4.429c-1.391,0-2.522,1.131-2.522,2.522
		c0,0.307,0.061,0.617,0.18,0.92c0.099,0.252-0.021,0.538-0.271,0.644c-0.69,0.292-1.137,0.964-1.137,1.712
		c0,0.332,0.092,0.652,0.272,0.952c0.091,0.15,0.096,0.337,0.013,0.493s-0.241,0.255-0.416,0.265
		c-0.616,0.031-1.098,0.536-1.098,1.148c0,0.638,0.519,1.156,1.156,1.156S14,13.723,14,13.085c0-0.116-0.023-0.238-0.07-0.375
		c-0.057-0.166-0.022-0.349,0.09-0.483c0.113-0.134,0.292-0.199,0.46-0.173c0.097,0.015,0.193,0.032,0.293,0.032
		c1.024,0,1.858-0.833,1.858-1.858c0-0.056-0.009-0.11-0.017-0.164c-0.038-0.272,0.142-0.589,0.415-0.628
		c1.231-0.179,2.159-1.247,2.159-2.484C19.189,5.561,18.058,4.429,16.667,4.429z"/>
	<rect x="28.513" y="33.823" class="st1" width="1" height="2"/>
	<rect x="31.488" y="34.934" transform="matrix(0.3808 -0.9247 0.9247 0.3808 -12.648 51.9813)" class="st1" width="2" height="1"/>
	<rect x="34.303" y="36.781" transform="matrix(0.7042 -0.71 0.71 0.7042 -16.0269 36.0952)" class="st1" width="2" height="1"/>
	<rect x="36.203" y="39.561" transform="matrix(0.9218 -0.3877 0.3877 0.9218 -12.621 17.5549)" class="st1" width="2" height="1"/>
	<rect x="36.9" y="42.855" transform="matrix(1 -0.0068 0.0068 1 -0.2955 0.2601)" class="st1" width="2" height="1"/>
	
		<rect x="25.037" y="34.434" transform="matrix(0.9246 -0.3809 0.3809 0.9246 -11.5715 12.3977)" class="st1" width="1" height="2"/>
	<rect x="22.222" y="36.281" transform="matrix(0.7097 -0.7045 0.7045 0.7097 -19.669 26.8323)" class="st1" width="1" height="2"/>
	
		<rect x="20.322" y="39.061" transform="matrix(0.3877 -0.9218 0.9218 0.3877 -24.1781 43.7248)" class="st1" width="1" height="2"/>
	<rect x="19.625" y="42.355" transform="matrix(0.0073 -1 1 0.0073 -23.3757 63.1624)" class="st1" width="1" height="2"/>
</g>
</svg>
