<?xml version="1.0" encoding="iso-8859-1"?>
<!-- Generator: Adobe Illustrator 22.0.1, SVG Export Plug-In . SVG Version: 6.00 Build 0)  -->
<svg version="1.1" id="Layer_1" xmlns="http://www.w3.org/2000/svg" xmlns:xlink="http://www.w3.org/1999/xlink" x="0px" y="0px"
	 viewBox="0 0 64 64" style="enable-background:new 0 0 64 64;" xml:space="preserve">
<style type="text/css">
	.st0{fill:#F8F3F3;}
	.st1{fill:#63312D;}
	.st2{fill:#E1DDDD;}
	.st3{fill:#84DBFF;}
	.st4{fill:#CAF4FF;}
	.st5{fill:#52BADB;}
	.st6{fill:#F9DD9D;}
	.st7{fill:#FFEECF;}
	.st8{fill:#EFC36A;}
	.st9{fill:#F7A085;}
	.st10{fill:#82D9FF;}
	.st11{fill:#F7DB9B;}
	.st12{fill:#F9A287;}
	.st13{fill:#FFC8BB;}
	.st14{fill:#52B8D9;}
	.st15{fill:#DB785A;}
	.st16{fill:#EDCB85;}
	.st17{fill:#DBAB56;}
	.st18{fill:#D3A553;}
	.st19{fill:#FFFFFF;}
</style>
<g>
	<circle class="st0" cx="32" cy="31.791" r="25.722"/>
	<path class="st1" d="M32.021,52.81H32c-0.681,0-1.366-0.033-2.037-0.098l0.097-0.996c0.639,0.063,1.291,0.094,1.94,0.094
		L32.021,52.81z M34.081,52.708l-0.098-0.996c0.651-0.063,1.305-0.161,1.941-0.287l0.195,0.98
		C35.451,52.538,34.766,52.64,34.081,52.708z M27.924,52.415c-0.67-0.131-1.344-0.298-2.001-0.496l0.288-0.957
		c0.626,0.188,1.268,0.348,1.906,0.473L27.924,52.415z M38.119,51.903l-0.289-0.957c0.616-0.187,1.237-0.409,1.848-0.662
		l0.383,0.924C39.42,51.474,38.768,51.707,38.119,51.903z M23.981,51.226c-0.63-0.26-1.257-0.556-1.864-0.879l0.471-0.883
		c0.578,0.309,1.175,0.59,1.775,0.838L23.981,51.226z M41.923,50.324l-0.473-0.881c0.572-0.308,1.139-0.648,1.683-1.013l0.557,0.83
		C43.118,49.644,42.524,50.002,41.923,50.324z M20.347,49.286c-0.571-0.381-1.128-0.793-1.657-1.227l0.634-0.773
		c0.503,0.412,1.034,0.806,1.578,1.168L20.347,49.286z M45.343,48.03l-0.635-0.771c0.503-0.415,0.993-0.859,1.454-1.32l0.707,0.707
		C46.385,47.13,45.872,47.596,45.343,48.03z M17.161,46.678c-0.483-0.482-0.95-0.995-1.387-1.524l0.771-0.637
		c0.417,0.505,0.861,0.993,1.322,1.452L17.161,46.678z M48.255,45.117l-0.773-0.635c0.414-0.504,0.808-1.034,1.171-1.576l0.83,0.557
		C49.103,44.031,48.688,44.588,48.255,45.117z M14.542,43.499c-0.383-0.57-0.741-1.165-1.064-1.767l0.881-0.473
		c0.308,0.572,0.648,1.138,1.014,1.681L14.542,43.499z M50.545,41.694l-0.883-0.471c0.31-0.58,0.592-1.178,0.84-1.775l0.924,0.383
		C51.166,40.459,50.869,41.085,50.545,41.694z M12.591,39.872c-0.263-0.631-0.498-1.284-0.698-1.94l0.957-0.291
		c0.191,0.625,0.414,1.246,0.665,1.847L12.591,39.872z M52.121,37.889L51.164,37.6c0.189-0.627,0.349-1.268,0.475-1.904l0.98,0.193
		C52.487,36.558,52.32,37.23,52.121,37.889z M11.389,35.933c-0.134-0.669-0.236-1.354-0.305-2.037l0.995-0.1
		c0.065,0.65,0.163,1.304,0.29,1.941L11.389,35.933z M52.92,33.848l-0.996-0.096c0.063-0.651,0.095-1.312,0.095-1.961l1-0.088v0.088
		C53.019,32.473,52.985,33.165,52.92,33.848z M10.981,31.834v-0.043c0-0.673,0.032-1.351,0.095-2.014l0.995,0.094
		c-0.06,0.633-0.09,1.278-0.09,1.92L10.981,31.834z M51.916,29.745c-0.066-0.652-0.165-1.306-0.294-1.941l0.98-0.197
		c0.135,0.667,0.238,1.353,0.308,2.037L51.916,29.745z M12.354,27.929l-0.981-0.191c0.131-0.671,0.297-1.345,0.495-2.001
		l0.958,0.287C12.637,26.649,12.478,27.29,12.354,27.929z M51.137,25.9c-0.188-0.618-0.414-1.239-0.668-1.845l0.922-0.387
		c0.268,0.636,0.504,1.288,0.703,1.938L51.137,25.9z M13.482,24.174l-0.925-0.381c0.26-0.633,0.556-1.261,0.878-1.866l0.883,0.471
		C14.011,22.974,13.73,23.571,13.482,24.174z M49.621,22.284c-0.308-0.57-0.649-1.135-1.017-1.678l0.828-0.561
		c0.386,0.57,0.745,1.164,1.069,1.764L49.621,22.284z M15.325,20.711l-0.832-0.555c0.377-0.566,0.789-1.124,1.225-1.658l0.774,0.633
		C16.077,19.639,15.685,20.171,15.325,20.711z M47.428,19.033c-0.417-0.504-0.863-0.991-1.325-1.449l0.705-0.711
		c0.484,0.481,0.952,0.993,1.39,1.521L47.428,19.033z M17.807,17.673l-0.709-0.705c0.479-0.482,0.992-0.949,1.522-1.389l0.638,0.771
		C18.752,16.769,18.264,17.214,17.807,17.673z M44.643,16.27c-0.502-0.41-1.034-0.802-1.58-1.166l0.553-0.832
		c0.574,0.381,1.132,0.793,1.66,1.223L44.643,16.27z M20.832,15.175l-0.559-0.83c0.569-0.383,1.163-0.742,1.765-1.066l0.475,0.881
		C21.94,14.468,21.375,14.81,20.832,15.175z M41.376,14.099c-0.583-0.309-1.181-0.589-1.777-0.834l0.379-0.926
		c0.627,0.258,1.255,0.553,1.867,0.877L41.376,14.099z M24.284,13.313l-0.386-0.922c0.633-0.266,1.285-0.501,1.939-0.701
		l0.292,0.957C25.508,12.837,24.887,13.062,24.284,13.313z M37.748,12.609c-0.628-0.188-1.27-0.346-1.907-0.469l0.191-0.982
		c0.669,0.131,1.343,0.296,2.001,0.492L37.748,12.609z M28.033,12.166l-0.196-0.98c0.675-0.136,1.36-0.238,2.039-0.306l0.1,0.994
		C29.33,11.939,28.676,12.037,28.033,12.166z M33.898,11.862c-0.629-0.06-1.268-0.09-1.898-0.09l-0.066-1H32
		c0.662,0,1.332,0.031,1.992,0.094L33.898,11.862z"/>
	<path class="st1" d="M32,58.013c-14.458,0-26.222-11.763-26.222-26.222S17.542,5.569,32,5.569
		c14.459,0,26.222,11.763,26.222,26.222S46.459,58.013,32,58.013z M32,6.569c-13.907,0-25.222,11.314-25.222,25.222
		S18.093,57.013,32,57.013s25.222-11.314,25.222-25.222S45.907,6.569,32,6.569z"/>
	<polygon class="st9" points="54.878,48.732 60.892,60.682 48.271,55.34 3.108,10.178 9.716,3.57 	"/>
	<polygon class="st0" points="60.89,60.681 56.42,58.791 48.27,55.341 54.88,48.731 58.69,56.311 	"/>
	<polygon class="st9" points="60.89,60.681 56.42,58.791 58.69,56.311 	"/>
	<polygon class="st11" points="10.639,60.76 7.005,57.126 3.371,53.492 53.623,3.24 60.892,10.508 	"/>
	<path class="st1" d="M10.639,61.261L10.639,61.261c-0.133,0-0.26-0.053-0.354-0.146l-7.268-7.269
		c-0.094-0.094-0.146-0.221-0.146-0.354s0.053-0.26,0.146-0.354L53.27,2.886c0.188-0.188,0.52-0.188,0.707,0l7.269,7.269
		c0.195,0.195,0.195,0.512,0,0.707L10.993,61.114C10.899,61.208,10.772,61.261,10.639,61.261z M4.078,53.492l6.561,6.562
		l49.545-49.546l-6.562-6.562L4.078,53.492z"/>
	<rect x="50.486" y="6.786" transform="matrix(0.707 -0.7072 0.7072 0.707 8.5865 38.69)" class="st1" width="1" height="4.392"/>
	
		<rect x="46.644" y="10.629" transform="matrix(0.7071 -0.7071 0.7071 0.7071 4.7392 37.0919)" class="st1" width="1" height="4.392"/>
	
		<rect x="42.801" y="14.472" transform="matrix(0.7071 -0.7071 0.7071 0.7071 0.8965 35.5002)" class="st1" width="1" height="4.392"/>
	
		<rect x="38.958" y="18.314" transform="matrix(0.7071 -0.7071 0.7071 0.7071 -2.9456 33.9082)" class="st1" width="1" height="4.392"/>
	
		<rect x="35.116" y="22.157" transform="matrix(0.7071 -0.7071 0.7071 0.7071 -6.7881 32.3172)" class="st1" width="1" height="4.392"/>
	
		<rect x="31.273" y="25.999" transform="matrix(0.7071 -0.7071 0.7071 0.7071 -10.6309 30.7254)" class="st1" width="1" height="4.392"/>
	
		<rect x="27.431" y="29.841" transform="matrix(0.7071 -0.7071 0.7071 0.7071 -14.4728 29.1338)" class="st1" width="1" height="4.392"/>
	
		<rect x="23.588" y="33.684" transform="matrix(0.7071 -0.7071 0.7071 0.7071 -18.3156 27.542)" class="st1" width="1" height="4.392"/>
	
		<rect x="19.746" y="37.527" transform="matrix(0.7071 -0.7071 0.7071 0.7071 -22.1582 25.9506)" class="st1" width="1" height="4.392"/>
	
		<rect x="15.904" y="41.369" transform="matrix(0.7072 -0.7071 0.7071 0.7072 -25.9991 24.3556)" class="st1" width="1" height="4.393"/>
	
		<rect x="12.061" y="45.211" transform="matrix(0.7071 -0.7071 0.7071 0.7071 -29.8429 22.7672)" class="st1" width="1" height="4.392"/>
	
		<rect x="8.219" y="49.054" transform="matrix(0.7071 -0.7071 0.7071 0.7071 -33.6856 21.1759)" class="st1" width="1" height="4.392"/>
	
		<rect x="6.035" y="5.095" transform="matrix(0.7071 -0.7071 0.7071 0.7071 -4.7615 10.8423)" class="st11" width="9.345" height="12.148"/>
	<path class="st1" d="M60.892,61.183c-0.065,0-0.132-0.013-0.195-0.04L48.075,55.8c-0.059-0.024-0.112-0.061-0.158-0.106
		L2.755,10.531c-0.195-0.195-0.195-0.512,0-0.707l6.607-6.607c0.195-0.195,0.512-0.195,0.707,0l45.162,45.162
		c0.038,0.038,0.069,0.081,0.093,0.129l6.014,11.95c0.095,0.188,0.062,0.413-0.081,0.566C61.16,61.128,61.027,61.183,60.892,61.183z
		 M48.555,54.917l11.278,4.774l-5.365-10.662L9.716,4.277l-5.9,5.9L48.555,54.917z"/>
	
		<rect x="46.902" y="51.536" transform="matrix(0.7071 -0.7071 0.7071 0.7071 -21.6894 51.7095)" class="st1" width="9.344" height="1"/>
	
		<rect x="10.33" y="14.964" transform="matrix(0.7071 -0.7071 0.7071 0.7071 -6.5406 15.1372)" class="st1" width="9.344" height="1"/>
	
		<rect x="32.871" y="7.855" transform="matrix(0.7071 -0.7071 0.7071 0.7071 -14.1494 33.5064)" class="st1" width="1" height="51.956"/>
	<circle class="st10" cx="30.095" cy="31.791" r="12.833"/>
	<path class="st4" d="M19.166,31.791c0-6.766,5.24-12.296,11.881-12.785c-0.316-0.023-0.631-0.048-0.953-0.048
		c-7.088,0-12.833,5.746-12.833,12.833c0,7.088,5.746,12.833,12.833,12.833c0.322,0,0.637-0.025,0.953-0.048
		C24.406,44.087,19.166,38.557,19.166,31.791z"/>
	<path class="st1" d="M30.095,45.124c-7.352,0-13.333-5.981-13.333-13.333c0-7.353,5.981-13.334,13.333-13.334
		c7.353,0,13.334,5.981,13.334,13.334C43.429,39.143,37.447,45.124,30.095,45.124z M30.095,19.457
		c-6.8,0-12.333,5.533-12.333,12.334s5.533,12.333,12.333,12.333c6.801,0,12.334-5.532,12.334-12.333S36.896,19.457,30.095,19.457z"
		/>
	<circle class="st0" cx="30.095" cy="31.791" r="8.256"/>
	<path class="st1" d="M30.095,40.547c-4.828,0-8.756-3.928-8.756-8.756s3.928-8.757,8.756-8.757s8.757,3.929,8.757,8.757
		S34.923,40.547,30.095,40.547z M30.095,24.034c-4.277,0-7.756,3.479-7.756,7.757c0,4.276,3.479,7.756,7.756,7.756
		c4.277,0,7.757-3.479,7.757-7.756C37.852,27.514,34.372,24.034,30.095,24.034z"/>
	<path class="st1" d="M33.452,32.291h-3.357c-0.276,0-0.5-0.224-0.5-0.5v-5.418h1v4.918h2.857V32.291z"/>
	<path class="st5" d="M33.452,18.957h-3.357c7.088,0,12.833,5.746,12.833,12.833c0,7.088-5.746,12.833-12.833,12.833h3.357
		c7.088,0,12.833-5.746,12.833-12.833C46.285,24.703,40.54,18.957,33.452,18.957z"/>
	<path class="st1" d="M33.452,45.124h-3.357c-0.276,0-0.5-0.224-0.5-0.5s0.224-0.5,0.5-0.5c6.801,0,12.334-5.532,12.334-12.333
		s-5.533-12.334-12.334-12.334c-0.276,0-0.5-0.224-0.5-0.5s0.224-0.5,0.5-0.5h3.357c7.352,0,13.333,5.981,13.333,13.334
		C46.785,39.143,40.804,45.124,33.452,45.124z M35.59,19.643c4.619,2.098,7.839,6.754,7.839,12.148s-3.22,10.05-7.839,12.147
		c5.785-1.015,10.195-6.076,10.195-12.147C45.785,25.719,41.375,20.657,35.59,19.643z"/>
</g>
</svg>
