<?xml version="1.0" encoding="iso-8859-1"?>
<!-- Generator: Adobe Illustrator 22.0.1, SVG Export Plug-In . SVG Version: 6.00 Build 0)  -->
<svg version="1.1" id="Layer_1" xmlns="http://www.w3.org/2000/svg" xmlns:xlink="http://www.w3.org/1999/xlink" x="0px" y="0px"
	 viewBox="0 0 64 64" style="enable-background:new 0 0 64 64;" xml:space="preserve">
<style type="text/css">
	.st0{fill:#F8F3F3;}
	.st1{fill:#63312D;}
	.st2{fill:#E1DDDD;}
	.st3{fill:#84DBFF;}
	.st4{fill:#CAF4FF;}
	.st5{fill:#52BADB;}
	.st6{fill:#F9DD9D;}
	.st7{fill:#FFEECF;}
	.st8{fill:#EFC36A;}
	.st9{fill:#F7A085;}
	.st10{fill:#82D9FF;}
	.st11{fill:#F7DB9B;}
	.st12{fill:#F9A287;}
	.st13{fill:#FFC8BB;}
	.st14{fill:#52B8D9;}
	.st15{fill:#DB785A;}
	.st16{fill:#EDCB85;}
	.st17{fill:#DBAB56;}
	.st18{fill:#D3A553;}
	.st19{fill:#FFFFFF;}
</style>
<g>
	<rect x="18.126" y="16.708" class="st19" width="27.748" height="30.584"/>
	<polygon class="st10" points="39.106,34.982 35.811,38.714 28.705,30.667 16.939,43.991 31.152,43.991 40.47,43.991 47.061,43.991 
			"/>
	<polygon class="st6" points="45.874,59.473 52.453,59.473 52.453,10.129 3.108,10.129 3.108,16.708 45.874,16.708 	"/>
	<g>
		<polygon class="st7" points="4.942,11.921 52.453,11.921 52.453,10.129 3.108,10.129 3.108,16.708 4.942,16.708 		"/>
		<rect x="45.874" y="16.208" class="st7" width="1.833" height="43.265"/>
	</g>
	<path class="st1" d="M52.453,59.974h-6.579c-0.276,0-0.5-0.224-0.5-0.5V17.208H3.108c-0.276,0-0.5-0.224-0.5-0.5v-6.579
		c0-0.276,0.224-0.5,0.5-0.5h49.344c0.276,0,0.5,0.224,0.5,0.5v49.345C52.953,59.75,52.729,59.974,52.453,59.974z M46.374,58.974
		h5.579V10.629H3.608v5.579h42.265c0.276,0,0.5,0.224,0.5,0.5V58.974z"/>
	<rect x="52.453" y="10.129" class="st8" width="2.801" height="49.344"/>
	<rect x="58.055" y="47.292" class="st8" width="2.836" height="6.579"/>
	<path class="st1" d="M55.254,59.974h-2.801c-0.276,0-0.5-0.224-0.5-0.5V10.129c0-0.276,0.224-0.5,0.5-0.5h2.801
		c0.276,0,0.5,0.224,0.5,0.5v49.345C55.754,59.75,55.53,59.974,55.254,59.974z M52.953,58.974h1.801V10.629h-1.801V58.974z"/>
	<path class="st1" d="M60.892,54.371h-2.836c-0.276,0-0.5-0.224-0.5-0.5v-6.579c0-0.276,0.224-0.5,0.5-0.5h2.836
		c0.276,0,0.5,0.224,0.5,0.5v6.579C61.392,54.147,61.168,54.371,60.892,54.371z M58.555,53.371h1.836v-5.579h-1.836V53.371z"/>
	<polygon class="st6" points="15.29,4.527 8.711,4.527 8.711,53.871 58.055,53.871 58.055,47.292 15.29,47.292 	"/>
	<g>
		<rect x="14.792" y="47.292" class="st7" width="43.264" height="1.875"/>
		<polygon class="st7" points="10.648,6.402 15.29,6.402 15.29,4.527 8.711,4.527 8.711,53.871 10.648,53.871 		"/>
	</g>
	<path class="st1" d="M58.055,54.371H8.711c-0.276,0-0.5-0.224-0.5-0.5V4.526c0-0.276,0.224-0.5,0.5-0.5h6.579
		c0.276,0,0.5,0.224,0.5,0.5v42.266h42.265c0.276,0,0.5,0.224,0.5,0.5v6.579C58.555,54.147,58.332,54.371,58.055,54.371z
		 M9.211,53.371h48.344v-5.579H15.29c-0.276,0-0.5-0.224-0.5-0.5V5.026H9.211V53.371z"/>
	<rect x="15.29" y="4.527" class="st8" width="2.836" height="42.765"/>
	<path class="st1" d="M18.126,47.792H15.29c-0.276,0-0.5-0.224-0.5-0.5V4.526c0-0.276,0.224-0.5,0.5-0.5h2.836
		c0.276,0,0.5,0.224,0.5,0.5v42.766C18.626,47.568,18.403,47.792,18.126,47.792z M15.79,46.792h1.836V5.026H15.79V46.792z"/>
	<circle class="st8" cx="35.42" cy="27.167" r="2.67"/>
</g>
</svg>
