<?xml version="1.0" encoding="iso-8859-1"?>
<!-- Generator: Adobe Illustrator 22.0.1, SVG Export Plug-In . SVG Version: 6.00 Build 0)  -->
<svg version="1.1" id="Layer_1" xmlns="http://www.w3.org/2000/svg" xmlns:xlink="http://www.w3.org/1999/xlink" x="0px" y="0px"
	 viewBox="0 0 64 64" style="enable-background:new 0 0 64 64;" xml:space="preserve">
<style type="text/css">
	.st0{fill:#F8F3F3;}
	.st1{fill:#63312D;}
	.st2{fill:#E1DDDD;}
	.st3{fill:#84DBFF;}
	.st4{fill:#CAF4FF;}
	.st5{fill:#52BADB;}
	.st6{fill:#F9DD9D;}
	.st7{fill:#FFEECF;}
	.st8{fill:#EFC36A;}
	.st9{fill:#F7A085;}
	.st10{fill:#82D9FF;}
	.st11{fill:#F7DB9B;}
	.st12{fill:#F9A287;}
	.st13{fill:#FFC8BB;}
	.st14{fill:#52B8D9;}
	.st15{fill:#DB785A;}
	.st16{fill:#EDCB85;}
	.st17{fill:#DBAB56;}
	.st18{fill:#D3A553;}
	.st19{fill:#FFFFFF;}
</style>
<g>
	<path class="st0" d="M49.279,52.917H3.138V11.942c0-1.105,0.895-2,2-2h42.142c1.105,0,2,0.895,2,2V52.917z"/>
	<path class="st12" d="M49.279,20.9v-8.958c0-1.105-0.895-2-2-2H5.138c-1.105,0-2,0.895-2,2V20.9H49.279z"/>
	<path class="st13" d="M4.95,12.817c0-0.552,0.448-1,1-1h43.142c0.061,0,0.118,0.013,0.177,0.018
		c-0.057-1.054-0.921-1.893-1.989-1.893H5.138c-1.105,0-2,0.895-2,2V20.9H4.95V12.817z"/>
	<path class="st1" d="M49.279,53.417H3.138c-0.276,0-0.5-0.224-0.5-0.5V11.942c0-1.378,1.121-2.5,2.5-2.5h42.142
		c1.379,0,2.5,1.122,2.5,2.5v40.975C49.779,53.193,49.556,53.417,49.279,53.417z M3.638,52.417h45.142V11.942
		c0-0.827-0.673-1.5-1.5-1.5H5.138c-0.827,0-1.5,0.673-1.5,1.5V52.417z"/>
	<path class="st15" d="M52.029,9.942h-4.75c1.105,0,2,0.895,2,2v40.975h4.75V11.942C54.029,10.837,53.134,9.942,52.029,9.942z"/>
	<path class="st1" d="M54.029,53.417h-4.75c-0.276,0-0.5-0.224-0.5-0.5V11.942c0-0.827-0.673-1.5-1.5-1.5
		c-0.276,0-0.5-0.224-0.5-0.5s0.224-0.5,0.5-0.5h4.75c1.379,0,2.5,1.122,2.5,2.5v40.975C54.529,53.193,54.306,53.417,54.029,53.417z
		 M49.779,52.417h3.75V11.942c0-0.827-0.673-1.5-1.5-1.5h-2.751c0.314,0.418,0.501,0.938,0.501,1.5V52.417z"/>
	<rect x="3.138" y="20.427" class="st1" width="46.142" height="1"/>
	<rect x="8.542" y="26.442" class="st6" width="35.333" height="21.083"/>
	<polygon class="st7" points="10.479,28.367 43.875,28.367 43.875,26.442 8.542,26.442 8.542,47.525 10.479,47.525 	"/>
	<path class="st1" d="M43.875,48.025H8.542c-0.276,0-0.5-0.224-0.5-0.5V26.442c0-0.276,0.224-0.5,0.5-0.5h35.333
		c0.276,0,0.5,0.224,0.5,0.5v21.083C44.375,47.801,44.151,48.025,43.875,48.025z M9.042,47.025h34.333V26.942H9.042V47.025z"/>
	<rect x="15.196" y="26.442" class="st1" width="1" height="21.083"/>
	<rect x="22.279" y="26.442" class="st1" width="1" height="21.083"/>
	<rect x="29.362" y="26.442" class="st1" width="1" height="21.083"/>
	<rect x="36.446" y="26.442" class="st1" width="1" height="21.083"/>
	<rect x="8.542" y="33.067" class="st1" width="35.333" height="1"/>
	<rect x="8.542" y="39.9" class="st1" width="35.333" height="1"/>
	<circle class="st10" cx="51.154" cy="48.071" r="9.708"/>
	<path class="st1" d="M51.154,58.279c-5.629,0-10.208-4.58-10.208-10.208s4.579-10.208,10.208-10.208s10.208,4.58,10.208,10.208
		S56.783,58.279,51.154,58.279z M51.154,38.862c-5.077,0-9.208,4.131-9.208,9.208s4.131,9.208,9.208,9.208s9.208-4.131,9.208-9.208
		S56.231,38.862,51.154,38.862z"/>
	<circle class="st0" cx="51.154" cy="48.071" r="6.246"/>
	<path class="st1" d="M51.154,54.816c-3.72,0-6.746-3.026-6.746-6.746s3.026-6.746,6.746-6.746s6.746,3.026,6.746,6.746
		S54.874,54.816,51.154,54.816z M51.154,42.325c-3.168,0-5.746,2.578-5.746,5.746s2.578,5.746,5.746,5.746s5.746-2.578,5.746-5.746
		S54.322,42.325,51.154,42.325z"/>
	<path class="st1" d="M53.693,48.571h-2.539c-0.276,0-0.5-0.224-0.5-0.5v-4.098h1v3.598h2.039V48.571z"/>
	<rect x="8.542" y="6.221" class="st6" width="3.654" height="7.75"/>
	<path class="st1" d="M12.196,14.471H8.542c-0.276,0-0.5-0.224-0.5-0.5v-7.75c0-0.276,0.224-0.5,0.5-0.5h3.654
		c0.276,0,0.5,0.224,0.5,0.5v7.75C12.696,14.247,12.473,14.471,12.196,14.471z M9.042,13.471h2.654v-6.75H9.042V13.471z"/>
	<rect x="12.196" y="6.221" class="st8" width="2.292" height="7.75"/>
	<path class="st1" d="M14.487,14.471h-2.291c-0.276,0-0.5-0.224-0.5-0.5v-7.75c0-0.276,0.224-0.5,0.5-0.5h2.291
		c0.276,0,0.5,0.224,0.5,0.5v7.75C14.987,14.247,14.764,14.471,14.487,14.471z M12.696,13.471h1.291v-6.75h-1.291V13.471z"/>
	<rect x="22.779" y="6.221" class="st6" width="3.654" height="7.75"/>
	<path class="st1" d="M26.434,14.471h-3.654c-0.276,0-0.5-0.224-0.5-0.5v-7.75c0-0.276,0.224-0.5,0.5-0.5h3.654
		c0.276,0,0.5,0.224,0.5,0.5v7.75C26.934,14.247,26.71,14.471,26.434,14.471z M23.279,13.471h2.654v-6.75h-2.654V13.471z"/>
	<rect x="26.433" y="6.221" class="st8" width="2.292" height="7.75"/>
	<path class="st1" d="M28.725,14.471h-2.291c-0.276,0-0.5-0.224-0.5-0.5v-7.75c0-0.276,0.224-0.5,0.5-0.5h2.291
		c0.276,0,0.5,0.224,0.5,0.5v7.75C29.225,14.247,29.001,14.471,28.725,14.471z M26.934,13.471h1.291v-6.75h-1.291V13.471z"/>
	<rect x="37.017" y="6.221" class="st6" width="3.654" height="7.75"/>
	<path class="st1" d="M40.671,14.471h-3.654c-0.276,0-0.5-0.224-0.5-0.5v-7.75c0-0.276,0.224-0.5,0.5-0.5h3.654
		c0.276,0,0.5,0.224,0.5,0.5v7.75C41.171,14.247,40.947,14.471,40.671,14.471z M37.517,13.471h2.654v-6.75h-2.654V13.471z"/>
	<rect x="40.671" y="6.221" class="st8" width="2.292" height="7.75"/>
	<path class="st1" d="M42.963,14.471h-2.292c-0.276,0-0.5-0.224-0.5-0.5v-7.75c0-0.276,0.224-0.5,0.5-0.5h2.292
		c0.276,0,0.5,0.224,0.5,0.5v7.75C43.463,14.247,43.239,14.471,42.963,14.471z M41.171,13.471h1.292v-6.75h-1.292V13.471z"/>
</g>
</svg>
