<?xml version="1.0" encoding="iso-8859-1"?>
<!-- Generator: Adobe Illustrator 22.0.1, SVG Export Plug-In . SVG Version: 6.00 Build 0)  -->
<svg version="1.1" id="Layer_1" xmlns="http://www.w3.org/2000/svg" xmlns:xlink="http://www.w3.org/1999/xlink" x="0px" y="0px"
	 viewBox="0 0 64 64" style="enable-background:new 0 0 64 64;" xml:space="preserve">
<style type="text/css">
	.st0{fill:#F8F3F3;}
	.st1{fill:#63312D;}
	.st2{fill:#E1DDDD;}
	.st3{fill:#84DBFF;}
	.st4{fill:#CAF4FF;}
	.st5{fill:#52BADB;}
	.st6{fill:#F9DD9D;}
	.st7{fill:#FFEECF;}
	.st8{fill:#EFC36A;}
	.st9{fill:#F7A085;}
	.st10{fill:#82D9FF;}
	.st11{fill:#F7DB9B;}
	.st12{fill:#F9A287;}
	.st13{fill:#FFC8BB;}
	.st14{fill:#52B8D9;}
	.st15{fill:#DB785A;}
	.st16{fill:#EDCB85;}
	.st17{fill:#DBAB56;}
	.st18{fill:#D3A553;}
	.st19{fill:#FFFFFF;}
</style>
<g>
	<polygon class="st10" points="32.428,50.167 27.657,60.892 22.885,50.167 22.885,3.108 32.428,3.108 	"/>
	<polygon class="st4" points="24.791,52.167 24.791,5.108 32.428,5.108 32.428,3.108 22.885,3.108 22.885,50.167 27.657,60.892 
		28.164,59.75 	"/>
	<rect x="22.882" y="3.11" class="st12" width="9.55" height="9.45"/>
	<polygon class="st13" points="32.432,3.11 32.432,5.11 24.792,5.11 24.792,12.56 22.882,12.56 22.882,3.11 	"/>
	<polygon class="st0" points="22.885,50.167 27.656,60.892 32.428,50.167 	"/>
	<polygon class="st10" points="26.064,57.313 27.656,60.892 29.249,57.313 	"/>
	<polygon class="st14" points="32.428,3.108 32.428,50.167 27.657,60.892 31.468,60.892 36.239,50.167 36.239,3.108 	"/>
	<rect x="32.428" y="3.108" class="st15" width="3.811" height="9.455"/>
	<polygon class="st2" points="32.428,50.167 27.657,60.892 31.468,60.892 36.239,50.167 	"/>
	<path class="st1" d="M27.657,61.392c-0.198,0-0.376-0.116-0.457-0.297L22.428,50.37c-0.028-0.064-0.043-0.133-0.043-0.203V3.108
		c0-0.276,0.224-0.5,0.5-0.5h9.543c0.276,0,0.5,0.224,0.5,0.5v47.058c0,0.07-0.015,0.139-0.043,0.203l-4.771,10.725
		C28.033,61.275,27.854,61.392,27.657,61.392z M23.385,50.06l4.271,9.602l4.271-9.602V3.608h-8.543V50.06z"/>
	<rect x="22.885" y="49.667" class="st1" width="9.543" height="1"/>
	<rect x="22.885" y="12.063" class="st1" width="9.543" height="1"/>
	<rect x="32.428" y="12.063" class="st1" width="3.811" height="1"/>
	<rect x="27.157" y="12.563" class="st1" width="1" height="37.787"/>
	<path class="st1" d="M31.468,61.392h-3.811c-0.169,0-0.327-0.085-0.419-0.228s-0.106-0.321-0.038-0.476l4.756-10.69L31.928,3.109
		c0-0.133,0.053-0.26,0.146-0.354s0.221-0.146,0.354-0.146h3.811c0.276,0,0.5,0.224,0.5,0.5v47.058c0,0.07-0.015,0.139-0.043,0.203
		l-4.771,10.725C31.844,61.275,31.666,61.392,31.468,61.392z M28.426,60.392h2.717l4.596-10.332V3.608h-2.811l0.027,46.495
		c0,0.07-0.015,0.14-0.043,0.204L28.426,60.392z"/>
	<rect x="32.428" y="49.667" class="st1" width="3.811" height="1"/>
	<rect x="3.108" y="3.108" class="st11" width="13.35" height="57.783"/>
	<polygon class="st7" points="4.983,4.858 16.458,4.858 16.458,3.108 3.108,3.108 3.108,60.892 4.983,60.892 	"/>
	<path class="st1" d="M16.458,61.392H3.108c-0.276,0-0.5-0.224-0.5-0.5V3.108c0-0.276,0.224-0.5,0.5-0.5h13.35
		c0.276,0,0.5,0.224,0.5,0.5v57.783C16.958,61.168,16.735,61.392,16.458,61.392z M3.608,60.392h12.35V3.608H3.608V60.392z"/>
	<rect x="16.458" y="3.108" class="st8" width="2.758" height="57.783"/>
	<path class="st1" d="M19.217,61.392h-2.758c-0.276,0-0.5-0.224-0.5-0.5V3.108c0-0.276,0.224-0.5,0.5-0.5h2.758
		c0.276,0,0.5,0.224,0.5,0.5v57.783C19.717,61.168,19.493,61.392,19.217,61.392z M16.958,60.392h1.758V3.608h-1.758V60.392z"/>
	<rect x="3.108" y="6.417" class="st1" width="3.058" height="1"/>
	<rect x="3.108" y="9.063" class="st1" width="4.308" height="1"/>
	<rect x="3.108" y="11.708" class="st1" width="3.058" height="1"/>
	<rect x="3.108" y="14.354" class="st1" width="4.308" height="1"/>
	<rect x="3.108" y="17" class="st1" width="3.058" height="1"/>
	<rect x="3.108" y="19.646" class="st1" width="4.308" height="1"/>
	<rect x="3.108" y="22.292" class="st1" width="3.058" height="1"/>
	<rect x="3.108" y="24.938" class="st1" width="4.308" height="1"/>
	<rect x="3.108" y="27.583" class="st1" width="3.058" height="1"/>
	<rect x="3.108" y="30.229" class="st1" width="4.308" height="1"/>
	<rect x="3.108" y="32.875" class="st1" width="3.058" height="1"/>
	<rect x="3.108" y="35.521" class="st1" width="4.308" height="1"/>
	<rect x="3.108" y="38.167" class="st1" width="3.058" height="1"/>
	<rect x="3.108" y="40.813" class="st1" width="4.308" height="1"/>
	<rect x="3.108" y="43.458" class="st1" width="3.058" height="1"/>
	<rect x="3.108" y="46.104" class="st1" width="4.308" height="1"/>
	<rect x="3.108" y="48.75" class="st1" width="3.058" height="1"/>
	<rect x="3.108" y="51.396" class="st1" width="4.308" height="1"/>
	<rect x="3.108" y="54.042" class="st1" width="3.058" height="1"/>
	<rect x="3.108" y="56.688" class="st1" width="4.308" height="1"/>
	<path class="st12" d="M50.461,60.892L50.461,60.892c-5.761,0-10.431-4.67-10.431-10.431v-9.842c0-5.761,4.67-10.431,10.431-10.431
		h0c5.761,0,10.431,4.67,10.431,10.431v9.842C60.892,56.222,56.222,60.892,50.461,60.892z"/>
	<path class="st13" d="M41.613,50.883v-9.842c0-5.761,4.67-10.431,10.431-10.431c0.641,0,1.266,0.067,1.875,0.177
		c-1.084-0.381-2.244-0.599-3.458-0.599h0c-5.761,0-10.431,4.67-10.431,10.431v9.842c0,5.12,3.691,9.369,8.556,10.254
		C44.527,59.286,41.613,55.43,41.613,50.883z"/>
	<path class="st10" d="M50.461,30.188L50.461,30.188c0.995,0,1.953,0.148,2.864,0.408v-3.033h-5.728v3.033
		C48.508,30.335,49.466,30.188,50.461,30.188z"/>
	<path class="st1" d="M50.461,61.392c-6.027,0-10.931-4.903-10.931-10.931v-9.842c0-6.027,4.904-10.931,10.931-10.931
		s10.931,4.904,10.931,10.931v9.842C61.392,56.488,56.488,61.392,50.461,61.392z M50.461,30.688c-5.476,0-9.931,4.455-9.931,9.931
		v9.842c0,5.476,4.455,9.931,9.931,9.931c5.476,0,9.931-4.455,9.931-9.931v-9.842C60.392,35.143,55.937,30.688,50.461,30.688z"/>
	<rect x="40.03" y="40.813" class="st1" width="20.862" height="1"/>
	<rect x="49.961" y="30.188" class="st1" width="1" height="11.125"/>
	<path class="st1" d="M53.825,30.61h-1v-2.547h-4.728v2.547h-1v-3.047c0-0.276,0.224-0.5,0.5-0.5h5.728c0.276,0,0.5,0.224,0.5,0.5
		V30.61z"/>
	<path class="st1" d="M50.961,27.563h-1V5.716c0-1.714,1.394-3.108,3.107-3.108c1.714,0,3.108,1.394,3.108,3.108v13.926
		c0,1.162,0.945,2.108,2.107,2.108s2.108-0.946,2.108-2.108V3.108h1v16.534c0,1.714-1.394,3.108-3.108,3.108
		c-1.713,0-3.107-1.394-3.107-3.108V5.716c0-1.162-0.946-2.108-2.108-2.108s-2.107,0.946-2.107,2.108V27.563z"/>
</g>
</svg>
