<?xml version="1.0" encoding="iso-8859-1"?>
<!-- Generator: Adobe Illustrator 22.0.1, SVG Export Plug-In . SVG Version: 6.00 Build 0)  -->
<svg version="1.1" id="Layer_1" xmlns="http://www.w3.org/2000/svg" xmlns:xlink="http://www.w3.org/1999/xlink" x="0px" y="0px"
	 viewBox="0 0 64 64" style="enable-background:new 0 0 64 64;" xml:space="preserve">
<style type="text/css">
	.st0{fill:#F8F3F3;}
	.st1{fill:#63312D;}
	.st2{fill:#E1DDDD;}
	.st3{fill:#84DBFF;}
	.st4{fill:#CAF4FF;}
	.st5{fill:#52BADB;}
	.st6{fill:#F9DD9D;}
	.st7{fill:#FFEECF;}
	.st8{fill:#EFC36A;}
	.st9{fill:#F7A085;}
	.st10{fill:#82D9FF;}
	.st11{fill:#F7DB9B;}
	.st12{fill:#F9A287;}
	.st13{fill:#FFC8BB;}
	.st14{fill:#52B8D9;}
	.st15{fill:#DB785A;}
	.st16{fill:#EDCB85;}
	.st17{fill:#DBAB56;}
	.st18{fill:#D3A553;}
	.st19{fill:#FFFFFF;}
</style>
<g>
	<path class="st15" d="M57.315,6.61h-3.88c0.174,0.001,0.347,0.019,0.511,0.048c0.12,0.02,0.24,0.04,0.36,0.08
		c0.11,0.03,0.22,0.07,0.32,0.12c0.76,0.34,1.35,0.98,1.63,1.77c0.1,0.3,0.16,0.64,0.16,0.98v32.829c0,1.66-1.34,3.001-3.001,3.001
		h-3.544v0.003h7.444c1.98,0,3.584-1.605,3.584-3.584V10.194C60.899,8.215,59.295,6.61,57.315,6.61z"/>
	<path class="st1" d="M57.315,45.941h-7.444v-1h7.444c1.7,0,3.084-1.384,3.084-3.084V10.194c0-1.701-1.384-3.084-3.084-3.084h-7.444
		v-1h7.444c2.252,0,4.084,1.833,4.084,4.084v31.662C61.399,44.108,59.567,45.941,57.315,45.941z"/>
	<path class="st12" d="M56.256,8.629c-0.28-0.79-0.87-1.43-1.63-1.77c-0.1-0.05-0.21-0.09-0.32-0.12c-0.12-0.04-0.24-0.06-0.36-0.08
		c-0.17-0.03-0.35-0.05-0.53-0.05H6.103c-1.66,0-3.001,1.34-3.001,3.001v32.829c0,0.1,0.01,0.21,0.02,0.31
		c0.01,0.14,0.03,0.28,0.07,0.42c0.05,0.23,0.14,0.45,0.25,0.65c0.14,0.28,0.33,0.53,0.55,0.74c0.155,0.158,0.329,0.291,0.514,0.41
		c0.032,0.02,0.065,0.035,0.098,0.054c0.176,0.104,0.362,0.187,0.559,0.253c0.003,0.001,0.006,0.003,0.009,0.004
		c0,0,0-0.001,0-0.001c0.294,0.097,0.602,0.161,0.931,0.161h47.313c1.66,0,3.001-1.34,3.001-3.001V9.609
		C56.417,9.269,56.356,8.929,56.256,8.629z"/>
	<path class="st13" d="M56.257,8.629c-0.28-0.07-0.63-0.11-0.93-0.11H6.803c-0.99,0-1.8,0.8-1.8,1.79v34.039
		c0,0.33,0.07,0.64,0.17,0.93c-0.45-0.14-0.86-0.39-1.18-0.72c-0.22-0.22-0.41-0.46-0.55-0.74c-0.11-0.2-0.19-0.42-0.25-0.65
		c-0.04-0.14-0.06-0.28-0.07-0.42c-0.01-0.1-0.02-0.21-0.02-0.31V9.609c0-1.66,1.34-3.001,3.001-3.001h47.313
		c0.18,0,0.36,0.02,0.53,0.05c0.12,0.02,0.24,0.04,0.36,0.08c0.11,0.03,0.22,0.07,0.32,0.12C55.386,7.198,55.976,7.839,56.257,8.629
		z"/>
	<path class="st1" d="M53.418,45.941H6.102c-1.931,0-3.501-1.57-3.501-3.5V9.611c0-1.931,1.57-3.501,3.501-3.501h47.316
		c1.931,0,3.501,1.57,3.501,3.501v32.83C56.919,44.371,55.349,45.941,53.418,45.941z M6.102,7.11c-1.379,0-2.501,1.122-2.501,2.501
		v32.83c0,1.379,1.122,2.5,2.501,2.5h47.316c1.379,0,2.501-1.122,2.501-2.5V9.611c0-1.379-1.122-2.501-2.501-2.501H6.102z"/>
	<rect id="XMLID_38_" x="7.507" y="10.941" class="st0" width="44.805" height="27.709"/>
	<polygon class="st2" points="9.411,12.868 52.312,12.868 52.312,10.941 7.507,10.941 7.507,38.65 9.411,38.65 	"/>
	<path class="st1" d="M52.312,39.15H7.507c-0.276,0-0.5-0.224-0.5-0.5V10.941c0-0.276,0.224-0.5,0.5-0.5h44.805
		c0.276,0,0.5,0.224,0.5,0.5V38.65C52.812,38.926,52.588,39.15,52.312,39.15z M8.007,38.15h43.805V11.441H8.007V38.15z"/>
	<rect id="XMLID_36_" x="25.421" y="45.441" class="st11" width="11.251" height="7.617"/>
	<rect id="XMLID_35_" x="25.421" y="45.441" class="st16" width="11.251" height="1.955"/>
	<rect x="32.535" y="45.444" class="st8" width="4.142" height="7.611"/>
	<rect x="32.535" y="45.444" class="st17" width="4.142" height="1.955"/>
	<path class="st1" d="M36.673,53.558H25.421c-0.276,0-0.5-0.224-0.5-0.5v-7.617c0-0.276,0.224-0.5,0.5-0.5h11.252
		c0.276,0,0.5,0.224,0.5,0.5v7.617C37.173,53.334,36.949,53.558,36.673,53.558z M25.921,52.558h10.252v-6.617H25.921V52.558z"/>
	<rect x="32.038" y="45.441" class="st1" width="1" height="7.617"/>
	<path class="st12" d="M41.422,54.481c-0.17-0.57-0.58-1.02-1.11-1.26c-0.15-0.07-0.32-0.11-0.48-0.13
		c-0.11-0.02-0.21-0.03-0.32-0.03H19.617c-1.11,0-2.001,0.89-2.001,2.001v2.331h23.896v-2.331
		C41.513,54.861,41.482,54.661,41.422,54.481z"/>
	<path class="st13" d="M41.423,54.481H19.957c-0.48,0-0.86,0.38-0.86,0.85v2.061h-1.48v-2.331c0-1.11,0.89-2.001,2.001-2.001h19.895
		c0.11,0,0.21,0.01,0.32,0.03c0.16,0.02,0.33,0.06,0.48,0.13C40.842,53.461,41.252,53.911,41.423,54.481z"/>
	<path class="st1" d="M41.508,57.889H17.612c-0.276,0-0.5-0.224-0.5-0.5v-2.331c0-1.379,1.121-2.501,2.5-2.501h19.896
		c1.379,0,2.5,1.122,2.5,2.501v2.331C42.008,57.666,41.784,57.889,41.508,57.889z M18.112,56.889h22.896v-1.831
		c0-0.828-0.673-1.501-1.5-1.501H19.612c-0.827,0-1.5,0.673-1.5,1.501V56.889z"/>
	<path class="st15" d="M42.483,53.058h-2.975c1.105,0,2.001,0.896,2.001,2.001v2.331h2.975v-2.331
		C44.483,53.953,43.587,53.058,42.483,53.058z"/>
	<path class="st1" d="M44.483,57.889h-2.976c-0.276,0-0.5-0.224-0.5-0.5v-2.331c0-0.827-0.673-1.5-1.5-1.5
		c-0.276,0-0.5-0.224-0.5-0.5s0.224-0.5,0.5-0.5h2.975c1.379,0,2.501,1.122,2.501,2.5v2.331
		C44.983,57.666,44.76,57.889,44.483,57.889z M42.008,56.889h1.976v-1.831c0-0.827-0.673-1.5-1.501-1.5h-0.976
		c0.314,0.418,0.501,0.938,0.501,1.5V56.889z"/>
	<polygon class="st10" points="33.26,28.614 30.742,31.466 25.311,25.316 16.321,35.498 27.181,35.498 34.302,35.498 39.338,35.498 
			"/>
	<path class="st1" d="M13.503,35.998h-3.229c-0.276,0-0.5-0.224-0.5-0.5V14.093c0-0.276,0.224-0.5,0.5-0.5h3.229
		c0.276,0,0.5,0.224,0.5,0.5v21.404C14.003,35.774,13.779,35.998,13.503,35.998z M10.773,34.998h2.229V14.593h-2.229V34.998z"/>
	<rect x="10.523" y="16.191" class="st1" width="2.834" height="1"/>
	<path class="st1" d="M39.398,35.998H16.232c-0.276,0-0.5-0.224-0.5-0.5V14.093c0-0.276,0.224-0.5,0.5-0.5h23.166
		c0.276,0,0.5,0.224,0.5,0.5v21.404C39.898,35.774,39.675,35.998,39.398,35.998z M16.732,34.998h22.166V14.593H16.732V34.998z"/>
	<path class="st1" d="M49.545,21.65h-7.938c-0.276,0-0.5-0.224-0.5-0.5v-7.057c0-0.276,0.224-0.5,0.5-0.5h7.938
		c0.276,0,0.5,0.224,0.5,0.5v7.057C50.045,21.426,49.821,21.65,49.545,21.65z M42.107,20.65h6.938v-6.057h-6.938V20.65z"/>
	<path class="st1" d="M49.545,35.998h-7.938c-0.276,0-0.5-0.224-0.5-0.5V21.15c0-0.276,0.224-0.5,0.5-0.5h7.938
		c0.276,0,0.5,0.224,0.5,0.5v14.348C50.045,35.774,49.821,35.998,49.545,35.998z M42.107,34.998h6.938V21.65h-6.938V34.998z"/>
	<circle class="st11" cx="31.082" cy="22.712" r="1.563"/>
	<rect x="41.607" y="15.858" class="st1" width="7.72" height="1"/>
	<rect x="41.607" y="22.858" class="st1" width="7.72" height="1"/>
</g>
</svg>
