<?xml version="1.0" encoding="iso-8859-1"?>
<!-- Generator: Adobe Illustrator 22.0.1, SVG Export Plug-In . SVG Version: 6.00 Build 0)  -->
<svg version="1.1" id="Layer_1" xmlns="http://www.w3.org/2000/svg" xmlns:xlink="http://www.w3.org/1999/xlink" x="0px" y="0px"
	 viewBox="0 0 64 64" style="enable-background:new 0 0 64 64;" xml:space="preserve">
<style type="text/css">
	.st0{fill:#F8F3F3;}
	.st1{fill:#63312D;}
	.st2{fill:#E1DDDD;}
	.st3{fill:#84DBFF;}
	.st4{fill:#CAF4FF;}
	.st5{fill:#52BADB;}
	.st6{fill:#F9DD9D;}
	.st7{fill:#FFEECF;}
	.st8{fill:#EFC36A;}
	.st9{fill:#F7A085;}
	.st10{fill:#82D9FF;}
	.st11{fill:#F7DB9B;}
	.st12{fill:#F9A287;}
	.st13{fill:#FFC8BB;}
	.st14{fill:#52B8D9;}
	.st15{fill:#DB785A;}
	.st16{fill:#EDCB85;}
	.st17{fill:#DBAB56;}
	.st18{fill:#D3A553;}
	.st19{fill:#FFFFFF;}
</style>
<g>
	<path class="st10" d="M29.204,3.089c-8.986,0.416-16.349,7.862-16.674,16.852c-0.189,5.222,1.913,9.95,5.377,13.272
		c2.592,2.486,4.11,5.883,4.11,9.475v0.718h16.04v-0.714c0-3.629,1.581-7.024,4.185-9.551c3.276-3.18,5.314-7.625,5.314-12.552
		C47.556,10.636,39.258,2.623,29.204,3.089z"/>
	<path class="st4" d="M24.101,43.138V42.42c0-3.591-1.518-6.989-4.11-9.475c-3.464-3.322-5.565-8.05-5.377-13.272
		c0.296-8.191,6.44-15.081,14.326-16.559c-8.864,0.55-16.088,7.926-16.409,16.827c-0.188,5.222,1.913,9.95,5.377,13.272
		c2.592,2.486,4.11,5.883,4.11,9.475v0.718h16.04v-0.267H24.101z"/>
	<path class="st1" d="M38.058,43.905h-16.04c-0.276,0-0.5-0.224-0.5-0.5v-0.718c0-3.381-1.442-6.702-3.956-9.113
		c-3.7-3.55-5.716-8.525-5.531-13.651c0.336-9.29,7.87-16.903,17.15-17.333l0,0c4.999-0.239,9.704,1.532,13.299,4.964
		c3.597,3.435,5.577,8.063,5.577,13.034c0,4.905-1.941,9.49-5.466,12.911c-2.601,2.524-4.033,5.788-4.033,9.192v0.714
		C38.558,43.682,38.334,43.905,38.058,43.905z M22.518,42.905h15.04v-0.214c0-3.677,1.54-7.196,4.336-9.909
		c3.33-3.231,5.163-7.562,5.163-12.194c0-4.695-1.871-9.067-5.269-12.311c-3.395-3.24-7.849-4.903-12.561-4.689l0,0
		c-8.766,0.406-15.88,7.597-16.197,16.371c-0.175,4.841,1.729,9.541,5.223,12.894c2.71,2.599,4.265,6.183,4.265,9.835V42.905z"/>
	<path class="st5" d="M35.002,3.089h-4.975l0,0.005c9.678-0.003,17.529,7.818,17.529,17.495c0,4.927-2.038,9.373-5.314,12.552
		c-2.604,2.527-4.185,5.923-4.185,9.551v0.714h5.798v-0.714c0-3.629,1.581-7.024,4.185-9.551c3.276-3.18,5.314-7.625,5.314-12.552
		C53.354,10.636,45.057,2.623,35.002,3.089z"/>
	<path class="st1" d="M43.855,43.905h-5.798c-0.276,0-0.5-0.224-0.5-0.5v-0.714c0-3.677,1.54-7.196,4.336-9.909
		c3.33-3.231,5.163-7.562,5.163-12.194c0-4.545-1.771-8.814-4.989-12.022c-3.214-3.206-7.488-4.972-12.035-4.972
		c-0.172,0.004-0.297-0.066-0.393-0.183c-0.095-0.116-0.133-0.269-0.104-0.415c0.047-0.234,0.253-0.407,0.491-0.407h4.964
		c4.974-0.22,9.693,1.535,13.285,4.965c3.598,3.435,5.578,8.063,5.578,13.034c0,4.905-1.94,9.49-5.465,12.911
		c-2.602,2.523-4.034,5.788-4.034,9.192v0.714C44.355,43.682,44.132,43.905,43.855,43.905z M38.558,42.905h4.798v-0.214
		c0-3.677,1.54-7.196,4.338-9.91c3.328-3.23,5.161-7.562,5.161-12.193c0-4.695-1.871-9.067-5.269-12.311
		c-3.18-3.036-7.294-4.689-11.668-4.708c2.553,0.877,4.891,2.328,6.855,4.287c3.407,3.398,5.283,7.919,5.283,12.731
		c0,4.905-1.941,9.49-5.466,12.911c-2.601,2.524-4.033,5.788-4.033,9.192V42.905z"/>
	
		<rect x="22.486" y="43.292" transform="matrix(0.9732 -0.2302 0.2302 0.9732 -10.3151 6.5657)" class="st1" width="1" height="8.409"/>
	
		<rect x="32.679" y="46.997" transform="matrix(0.2306 -0.9731 0.9731 0.2306 -17.838 72.4355)" class="st1" width="8.41" height="1"/>
	
		<rect x="38.655" y="46.997" transform="matrix(0.2306 -0.9731 0.9731 0.2306 -13.2394 78.2511)" class="st1" width="8.41" height="1"/>
	<rect x="29.526" y="43.405" class="st1" width="1" height="8.184"/>
	<rect x="22.662" y="51.589" class="st11" width="14.503" height="9.342"/>
	<polygon class="st7" points="24.287,53.276 37.165,53.276 37.165,51.589 22.662,51.589 22.662,60.931 24.287,60.931 	"/>
	<path class="st1" d="M37.165,61.431H22.662c-0.276,0-0.5-0.224-0.5-0.5v-9.342c0-0.276,0.224-0.5,0.5-0.5h14.503
		c0.276,0,0.5,0.224,0.5,0.5v9.342C37.665,61.207,37.441,61.431,37.165,61.431z M23.162,60.431h13.503v-8.342H23.162V60.431z"/>
	<rect x="37.166" y="51.589" class="st8" width="5.694" height="9.342"/>
	<path class="st1" d="M42.859,61.431h-5.694c-0.276,0-0.5-0.224-0.5-0.5v-9.342c0-0.276,0.224-0.5,0.5-0.5h5.694
		c0.276,0,0.5,0.224,0.5,0.5v9.342C43.359,61.207,43.136,61.431,42.859,61.431z M37.665,60.431h4.694v-8.342h-4.694V60.431z"/>
	<path class="st1" d="M27.354,43.437l-0.998-0.063c0.278-4.426-0.475-8.054-2.368-11.417l-0.137-0.243
		c-1.919-3.407-3.731-6.626-4.246-10.639C18.8,14.781,22.585,7.909,29.731,2.69l0.59,0.807c-2.565,1.874-10.849,8.669-9.724,17.451
		c0.49,3.819,2.256,6.955,4.125,10.275l0.137,0.243C26.825,34.957,27.642,38.873,27.354,43.437z"/>
	<path class="st1" d="M32.586,43.437c-0.287-4.563,0.529-8.479,2.495-11.97l0.137-0.243c1.869-3.32,3.635-6.456,4.125-10.275
		c1.125-8.782-7.158-15.577-9.724-17.451l0.59-0.807c7.146,5.219,10.932,12.091,10.126,18.385
		c-0.515,4.013-2.327,7.231-4.246,10.639l-0.137,0.243c-1.894,3.363-2.646,6.991-2.368,11.417L32.586,43.437z"/>
	<path class="st19" d="M29.914,11.314c-13.16,0-19.268,10.919-19.268,10.919s6.108,10.919,19.268,10.919
		s19.268-10.919,19.268-10.919S43.074,11.314,29.914,11.314z"/>
	<path class="st1" d="M29.914,33.652c-13.3,0-19.643-11.063-19.705-11.175c-0.085-0.151-0.085-0.337,0-0.488
		c0.063-0.111,6.405-11.175,19.705-11.175s19.642,11.063,19.704,11.175c0.085,0.151,0.085,0.337,0,0.488
		C49.556,22.589,43.214,33.652,29.914,33.652z M11.229,22.233c1.001,1.594,7.072,10.419,18.685,10.419
		c11.63,0,17.686-8.824,18.684-10.419c-1-1.593-7.071-10.419-18.684-10.419S12.23,20.64,11.229,22.233z"/>
	<circle class="st3" cx="29.914" cy="22.233" r="8.896"/>
	<path class="st1" d="M29.914,31.629c-5.181,0-9.396-4.215-9.396-9.396s4.215-9.396,9.396-9.396s9.396,4.215,9.396,9.396
		S35.095,31.629,29.914,31.629z M29.914,13.838c-4.629,0-8.396,3.767-8.396,8.396s3.767,8.396,8.396,8.396s8.396-3.767,8.396-8.396
		S34.543,13.838,29.914,13.838z"/>
	<circle class="st19" cx="29.914" cy="22.233" r="5.866"/>
	<path class="st1" d="M29.914,28.599c-3.511,0-6.366-2.855-6.366-6.365c0-3.511,2.855-6.366,6.366-6.366
		c3.51,0,6.365,2.855,6.365,6.366C36.279,25.743,33.424,28.599,29.914,28.599z M29.914,16.867c-2.959,0-5.366,2.407-5.366,5.366
		c0,2.958,2.407,5.365,5.366,5.365c2.958,0,5.365-2.407,5.365-5.365C35.279,19.274,32.872,16.867,29.914,16.867z"/>
	<path class="st12" d="M29.914,19.131c-0.259,0-0.506,0.041-0.747,0.101v2.09h-2.203c-0.09,0.29-0.152,0.592-0.152,0.911
		c0,1.713,1.389,3.102,3.102,3.102c1.713,0,3.102-1.389,3.102-3.102S31.627,19.131,29.914,19.131z"/>
	<path class="st1" d="M29.914,25.835c-1.986,0-3.603-1.615-3.603-3.602c0-0.333,0.058-0.68,0.175-1.059
		c0.064-0.21,0.259-0.353,0.478-0.353h1.703v-1.59c0-0.229,0.155-0.429,0.378-0.484c0.312-0.079,0.596-0.117,0.869-0.117
		c1.986,0,3.602,1.616,3.602,3.603S31.9,25.835,29.914,25.835z M27.353,21.822c-0.028,0.144-0.041,0.278-0.041,0.411
		c0,1.435,1.168,2.602,2.603,2.602s2.602-1.167,2.602-2.602s-1.167-2.603-2.602-2.603c-0.079,0-0.161,0.005-0.247,0.015v1.677
		c0,0.276-0.224,0.5-0.5,0.5H27.353z"/>
</g>
</svg>
