<?xml version="1.0" encoding="iso-8859-1"?>
<!-- Generator: Adobe Illustrator 22.0.1, SVG Export Plug-In . SVG Version: 6.00 Build 0)  -->
<svg version="1.1" id="Layer_1" xmlns="http://www.w3.org/2000/svg" xmlns:xlink="http://www.w3.org/1999/xlink" x="0px" y="0px"
	 viewBox="0 0 64 64" style="enable-background:new 0 0 64 64;" xml:space="preserve">
<style type="text/css">
	.st0{fill:#F8F3F3;}
	.st1{fill:#63312D;}
	.st2{fill:#E1DDDD;}
	.st3{fill:#84DBFF;}
	.st4{fill:#CAF4FF;}
	.st5{fill:#52BADB;}
	.st6{fill:#F9DD9D;}
	.st7{fill:#FFEECF;}
	.st8{fill:#EFC36A;}
	.st9{fill:#F7A085;}
	.st10{fill:#82D9FF;}
	.st11{fill:#F7DB9B;}
	.st12{fill:#F9A287;}
	.st13{fill:#FFC8BB;}
	.st14{fill:#52B8D9;}
	.st15{fill:#DB785A;}
	.st16{fill:#EDCB85;}
	.st17{fill:#DBAB56;}
	.st18{fill:#D3A553;}
	.st19{fill:#FFFFFF;}
</style>
<g>
	<path class="st10" d="M54.5,46.484H5.108c-1.105,0-2-0.895-2-2V13.15c0-1.105,0.895-2,2-2H54.5c1.105,0,2,0.895,2,2v31.333
		C56.5,45.588,55.605,46.484,54.5,46.484z"/>
	<path class="st4" d="M4.9,46.275V13.942c0-0.552,0.448-1,1-1h50.392c0.065,0,0.126,0.013,0.189,0.019
		c-0.097-1.014-0.941-1.811-1.981-1.811H5.108c-1.105,0-2,0.895-2,2v31.333c0,1.04,0.796,1.884,1.811,1.981
		C4.913,46.401,4.9,46.34,4.9,46.275z"/>
	<path class="st1" d="M54.5,46.984H5.108c-1.378,0-2.5-1.122-2.5-2.5V13.15c0-1.378,1.122-2.5,2.5-2.5H54.5
		c1.379,0,2.5,1.122,2.5,2.5v31.333C57,45.862,55.879,46.984,54.5,46.984z M5.108,11.65c-0.827,0-1.5,0.673-1.5,1.5v31.333
		c0,0.827,0.673,1.5,1.5,1.5H54.5c0.827,0,1.5-0.673,1.5-1.5V13.15c0-0.827-0.673-1.5-1.5-1.5H5.108z"/>
	<path class="st14" d="M58.892,11.15H54.5c1.105,0,2,0.895,2,2v31.333c0,1.105-0.895,2-2,2h4.392c1.105,0,2-0.895,2-2V13.15
		C60.892,12.046,59.996,11.15,58.892,11.15z"/>
	<path class="st1" d="M58.892,46.984H54.5c-0.276,0-0.5-0.224-0.5-0.5s0.224-0.5,0.5-0.5c0.827,0,1.5-0.673,1.5-1.5V13.15
		c0-0.827-0.673-1.5-1.5-1.5c-0.276,0-0.5-0.224-0.5-0.5s0.224-0.5,0.5-0.5h4.392c1.379,0,2.5,1.122,2.5,2.5v31.333
		C61.392,45.862,60.271,46.984,58.892,46.984z M56.499,45.984h2.393c0.827,0,1.5-0.673,1.5-1.5V13.15c0-0.827-0.673-1.5-1.5-1.5
		h-2.393C56.813,12.068,57,12.588,57,13.15v31.333C57,45.046,56.813,45.566,56.499,45.984z"/>
	<rect x="11.846" y="14.9" class="st0" width="40.821" height="27.833"/>
	<path class="st1" d="M52.667,43.234H11.846c-0.276,0-0.5-0.224-0.5-0.5V14.9c0-0.276,0.224-0.5,0.5-0.5h40.821
		c0.276,0,0.5,0.224,0.5,0.5v27.833C53.167,43.01,52.943,43.234,52.667,43.234z M12.346,42.234h39.821V15.4H12.346V42.234z"/>
	<circle class="st12" cx="7.682" cy="28.817" r="2.031"/>
	<path class="st1" d="M7.682,31.349c-1.396,0-2.531-1.136-2.531-2.531s1.136-2.531,2.531-2.531s2.531,1.136,2.531,2.531
		S9.077,31.349,7.682,31.349z M7.682,27.286c-0.844,0-1.531,0.687-1.531,1.531s0.687,1.531,1.531,1.531s1.531-0.687,1.531-1.531
		S8.526,27.286,7.682,27.286z"/>
	<rect x="5.406" y="33.13" class="st0" width="4.063" height="2.313"/>
	<rect x="5.406" y="37.723" class="st0" width="4.063" height="2.313"/>
	<rect x="5.406" y="17.598" class="st0" width="4.063" height="2.313"/>
	<rect x="5.406" y="22.192" class="st0" width="4.063" height="2.313"/>
	<path class="st1" d="M9.469,35.942H5.406c-0.276,0-0.5-0.224-0.5-0.5V33.13c0-0.276,0.224-0.5,0.5-0.5h4.063
		c0.276,0,0.5,0.224,0.5,0.5v2.313C9.969,35.719,9.745,35.942,9.469,35.942z M5.906,34.942h3.063V33.63H5.906V34.942z"/>
	<path class="st1" d="M9.469,40.536H5.406c-0.276,0-0.5-0.224-0.5-0.5v-2.313c0-0.276,0.224-0.5,0.5-0.5h4.063
		c0.276,0,0.5,0.224,0.5,0.5v2.313C9.969,40.313,9.745,40.536,9.469,40.536z M5.906,39.536h3.063v-1.313H5.906V39.536z"/>
	<path class="st1" d="M9.469,20.411H5.406c-0.276,0-0.5-0.224-0.5-0.5v-2.313c0-0.276,0.224-0.5,0.5-0.5h4.063
		c0.276,0,0.5,0.224,0.5,0.5v2.313C9.969,20.188,9.745,20.411,9.469,20.411z M5.906,19.411h3.063v-1.313H5.906V19.411z"/>
	<path class="st1" d="M9.469,25.005H5.406c-0.276,0-0.5-0.224-0.5-0.5v-2.313c0-0.276,0.224-0.5,0.5-0.5h4.063
		c0.276,0,0.5,0.224,0.5,0.5v2.313C9.969,24.781,9.745,25.005,9.469,25.005z M5.906,24.005h3.063v-1.313H5.906V24.005z"/>
	<path class="st1" d="M11.846,43.234H3.108c-0.276,0-0.5-0.224-0.5-0.5V14.9c0-0.276,0.224-0.5,0.5-0.5h8.738
		c0.276,0,0.5,0.224,0.5,0.5v27.833C12.346,43.01,12.123,43.234,11.846,43.234z M3.608,42.234h7.738V15.4H3.608V42.234z"/>
	<path class="st11" d="M52.432,52.171L52.432,52.171c-0.905,0.905-2.372,0.905-3.277,0L31.9,34.916l-2.096-5.373l5.373,2.096
		l17.255,17.255C53.336,49.799,53.336,51.266,52.432,52.171z"/>
	<path class="st1" d="M50.793,53.35c-0.752,0-1.46-0.293-1.991-0.825L31.547,35.27c-0.049-0.049-0.087-0.107-0.112-0.172
		l-2.096-5.373c-0.072-0.185-0.028-0.395,0.112-0.535c0.141-0.14,0.351-0.184,0.535-0.112l5.373,2.096
		c0.064,0.025,0.123,0.063,0.172,0.112l17.255,17.254c1.098,1.099,1.098,2.886,0,3.984l0,0C52.253,53.057,51.545,53.35,50.793,53.35
		z M32.328,34.637l17.181,17.181c0.686,0.687,1.882,0.687,2.569,0c0.708-0.708,0.708-1.861,0-2.57l-17.181-17.18l-4.213-1.644
		L32.328,34.637z"/>
	
		<rect x="33.144" y="34.7" transform="matrix(0.7071 -0.7071 0.7071 0.7071 -14.5042 35.3846)" class="st1" width="4.635" height="1"/>
	
		<rect x="37.292" y="36.528" transform="matrix(0.707 -0.7072 0.7072 0.707 -15.5106 37.7409)" class="st1" width="1" height="2.122"/>
	<path class="st1" d="M29.804,30.043h-9.753c-1.51,0-2.738-1.229-2.738-2.738s1.229-2.738,2.738-2.738h21.965
		c0.956,0,1.734-0.778,1.734-1.734s-0.778-1.734-1.734-1.734H30.313v-1h11.703c1.508,0,2.734,1.227,2.734,2.734
		c0,1.508-1.227,2.735-2.734,2.735H20.051c-0.958,0-1.738,0.78-1.738,1.738c0,0.958,0.78,1.738,1.738,1.738h9.753V30.043z"/>
</g>
</svg>
