<?xml version="1.0" encoding="iso-8859-1"?>
<!-- Generator: Adobe Illustrator 22.0.1, SVG Export Plug-In . SVG Version: 6.00 Build 0)  -->
<svg version="1.1" id="Layer_1" xmlns="http://www.w3.org/2000/svg" xmlns:xlink="http://www.w3.org/1999/xlink" x="0px" y="0px"
	 viewBox="0 0 64 64" style="enable-background:new 0 0 64 64;" xml:space="preserve">
<style type="text/css">
	.st0{fill:#F8F3F3;}
	.st1{fill:#63312D;}
	.st2{fill:#E1DDDD;}
	.st3{fill:#84DBFF;}
	.st4{fill:#CAF4FF;}
	.st5{fill:#52BADB;}
	.st6{fill:#F9DD9D;}
	.st7{fill:#FFEECF;}
	.st8{fill:#EFC36A;}
	.st9{fill:#F7A085;}
	.st10{fill:#82D9FF;}
	.st11{fill:#F7DB9B;}
	.st12{fill:#F9A287;}
	.st13{fill:#FFC8BB;}
	.st14{fill:#52B8D9;}
	.st15{fill:#DB785A;}
	.st16{fill:#EDCB85;}
	.st17{fill:#DBAB56;}
	.st18{fill:#D3A553;}
	.st19{fill:#FFFFFF;}
</style>
<g>
	<rect x="7.116" y="9.485" class="st0" width="45.892" height="30.052"/>
	<polygon class="st10" points="39.036,24.768 34.828,29.534 25.753,19.256 10.729,36.272 28.878,36.272 40.777,36.272 
		49.194,36.272 	"/>
	<polygon class="st11" points="25.055,59.703 21.616,59.703 25.972,44.12 29.411,44.12 	"/>
	<polygon class="st11" points="36.193,59.703 39.633,59.703 35.277,44.12 31.837,44.12 	"/>
	<polygon class="st16" points="28.985,45.647 29.411,44.12 25.972,44.12 25.545,45.647 	"/>
	<polygon class="st16" points="35.703,45.647 35.277,44.12 31.837,44.12 32.264,45.647 	"/>
	<path class="st1" d="M53.008,40.037H7.116c-0.276,0-0.5-0.224-0.5-0.5V9.485c0-0.276,0.224-0.5,0.5-0.5h45.892
		c0.276,0,0.5,0.224,0.5,0.5v30.052C53.508,39.813,53.284,40.037,53.008,40.037z M7.616,39.037h44.892V9.985H7.616V39.037z"/>
	<rect x="53.008" y="9.485" class="st2" width="3.625" height="30.052"/>
	<path class="st1" d="M56.633,40.037h-3.625c-0.276,0-0.5-0.224-0.5-0.5V9.485c0-0.276,0.224-0.5,0.5-0.5h3.625
		c0.276,0,0.5,0.224,0.5,0.5v30.052C57.133,39.813,56.909,40.037,56.633,40.037z M53.508,39.037h2.625V9.985h-2.625V39.037z"/>
	<rect x="3.272" y="39.537" class="st12" width="53.36" height="4.583"/>
	<polygon class="st13" points="5.022,41.203 56.633,41.203 56.633,39.537 3.272,39.537 3.272,44.12 5.022,44.12 	"/>
	<path class="st1" d="M56.633,44.62H3.272c-0.276,0-0.5-0.224-0.5-0.5v-4.583c0-0.276,0.224-0.5,0.5-0.5h53.361
		c0.276,0,0.5,0.224,0.5,0.5v4.583C57.133,44.396,56.909,44.62,56.633,44.62z M3.772,43.62h52.361v-3.583H3.772V43.62z"/>
	<rect x="56.633" y="39.537" class="st15" width="3.688" height="4.583"/>
	<path class="st1" d="M60.32,44.62h-3.688c-0.276,0-0.5-0.224-0.5-0.5v-4.583c0-0.276,0.224-0.5,0.5-0.5h3.688
		c0.276,0,0.5,0.224,0.5,0.5v4.583C60.82,44.396,60.597,44.62,60.32,44.62z M57.133,43.62h2.688v-3.583h-2.688V43.62z"/>
	<path class="st1" d="M25.055,60.203h-3.439c-0.156,0-0.304-0.073-0.398-0.198c-0.094-0.125-0.125-0.286-0.083-0.437l4.356-15.583
		c0.06-0.216,0.257-0.365,0.481-0.365h3.439c0.156,0,0.304,0.073,0.398,0.198c0.094,0.125,0.125,0.286,0.083,0.437l-4.356,15.583
		C25.477,60.054,25.279,60.203,25.055,60.203z M22.274,59.203h2.401l4.077-14.583h-2.401L22.274,59.203z"/>
	<polygon class="st8" points="27.481,59.703 25.055,59.703 29.411,44.12 31.837,44.12 	"/>
	<polygon class="st17" points="31.41,45.656 31.837,44.12 29.411,44.12 28.984,45.656 	"/>
	<polygon class="st8" points="39.631,59.703 42.057,59.703 37.701,44.12 35.275,44.12 	"/>
	<polygon class="st17" points="35.704,45.647 35.277,44.12 37.703,44.12 38.129,45.647 	"/>
	<path class="st1" d="M27.481,60.203h-2.426c-0.156,0-0.304-0.073-0.398-0.198c-0.094-0.125-0.125-0.286-0.083-0.437l4.356-15.583
		c0.06-0.216,0.257-0.365,0.481-0.365h2.426c0.156,0,0.304,0.073,0.398,0.198c0.094,0.125,0.125,0.286,0.083,0.437l-4.356,15.583
		C27.902,60.054,27.705,60.203,27.481,60.203z M25.714,59.203h1.387l4.076-14.583h-1.387L25.714,59.203z"/>
	<path class="st1" d="M39.633,60.203h-3.439c-0.225,0-0.421-0.149-0.481-0.365l-4.356-15.583c-0.042-0.151-0.011-0.313,0.083-0.437
		c0.095-0.125,0.242-0.198,0.398-0.198h3.439c0.225,0,0.421,0.149,0.481,0.365l4.356,15.583c0.042,0.151,0.012,0.313-0.083,0.437
		S39.789,60.203,39.633,60.203z M36.572,59.203h2.401L34.897,44.62h-2.401L36.572,59.203z"/>
	<path class="st1" d="M42.057,60.203h-2.426c-0.225,0-0.421-0.149-0.481-0.365l-4.356-15.583c-0.042-0.151-0.012-0.313,0.083-0.437
		s0.242-0.198,0.398-0.198H37.7c0.225,0,0.421,0.149,0.481,0.365l4.356,15.583c0.042,0.151,0.012,0.313-0.083,0.437
		S42.213,60.203,42.057,60.203z M40.01,59.203h1.388L37.321,44.62h-1.388L40.01,59.203z"/>
	<path class="st10" d="M40.64,26.689c2.601-1.687,6.285-4.779,10.099-8.594c6.483-6.483,10.886-12.591,9.834-13.643
		c-1.052-1.052-7.16,3.351-13.643,9.834c-3.814,3.814-6.907,7.498-8.594,10.099L40.64,26.689z"/>
	<path class="st1" d="M40.64,27.188c-0.129,0-0.257-0.05-0.354-0.146l-2.304-2.304c-0.167-0.167-0.194-0.428-0.066-0.625
		c1.782-2.748,4.938-6.459,8.66-10.181c3.153-3.154,6.321-5.922,8.919-7.794c3.89-2.804,4.964-2.507,5.431-2.039
		c2.232,2.232-9.339,13.856-9.833,14.35c-3.722,3.721-7.433,6.877-10.181,8.659C40.828,27.162,40.733,27.188,40.64,27.188z
		 M38.978,24.319l1.728,1.727c2.655-1.78,6.157-4.782,9.681-8.305c7.272-7.273,10.22-12.219,9.826-12.944
		c-0.718-0.385-5.658,2.57-12.929,9.842C43.76,18.163,40.758,21.664,38.978,24.319z"/>
	<path class="st11" d="M31.575,28.645c-0.135,0.686-0.251,1.377-0.517,2.038c-0.524,1.3-1.34,2.493-2.502,3.302
		c-0.064,0.045-0.129,0.088-0.195,0.13c0,0,6.896,2.835,11.149-2.031c1.799-1.799,1.799-4.715,0-6.513
		c-1.799-1.799-4.715-1.799-6.513,0c-0.44,0.44-0.787,0.969-1.014,1.548C31.789,27.614,31.677,28.128,31.575,28.645z"/>
	<path class="st1" d="M32.88,35.424c-2.597,0-4.67-0.83-4.709-0.846c-0.173-0.071-0.292-0.232-0.308-0.418
		c-0.017-0.186,0.072-0.366,0.229-0.466l0.176-0.118c0.987-0.687,1.79-1.751,2.325-3.08c0.219-0.542,0.329-1.113,0.446-1.717
		l0.045-0.231c0.102-0.516,0.218-1.065,0.433-1.612c0.25-0.638,0.64-1.232,1.126-1.718c1.99-1.99,5.23-1.99,7.221,0
		c1.99,1.991,1.99,5.23,0,7.22C37.808,34.792,35.145,35.424,32.88,35.424z M29.424,33.938c1.927,0.54,6.612,1.364,9.71-2.182
		c1.624-1.625,1.624-4.229,0.023-5.831c-1.602-1.601-4.205-1.601-5.807,0c-0.389,0.39-0.702,0.866-0.902,1.377
		c-0.184,0.469-0.29,0.968-0.382,1.439l-0.044,0.228c-0.121,0.624-0.245,1.269-0.5,1.901C31.02,32.115,30.302,33.162,29.424,33.938z
		"/>
	
		<rect x="43.613" y="18.224" transform="matrix(0.7071 -0.7071 0.7071 0.7071 -1.8835 37.3248)" class="st1" width="1" height="5.425"/>
	<rect x="18.503" y="5.897" class="st12" width="21.18" height="3.588"/>
	<polygon class="st13" points="19.94,7.397 39.683,7.397 39.683,5.897 18.503,5.897 18.503,9.485 19.94,9.485 	"/>
	<path class="st1" d="M39.684,9.985H18.503c-0.276,0-0.5-0.224-0.5-0.5V5.896c0-0.276,0.224-0.5,0.5-0.5h21.181
		c0.276,0,0.5,0.224,0.5,0.5v3.588C40.184,9.761,39.96,9.985,39.684,9.985z M19.003,8.985h20.181V6.396H19.003V8.985z"/>
	<rect x="39.685" y="5.897" class="st15" width="3.588" height="3.588"/>
	<path class="st1" d="M43.273,9.985h-3.588c-0.276,0-0.5-0.224-0.5-0.5V5.896c0-0.276,0.224-0.5,0.5-0.5h3.588
		c0.276,0,0.5,0.224,0.5,0.5v3.588C43.773,9.761,43.55,9.985,43.273,9.985z M40.186,8.985h2.588V6.396h-2.588V8.985z"/>
	<circle class="st11" cx="33.628" cy="17.813" r="2.458"/>
</g>
</svg>
