<?xml version="1.0" encoding="iso-8859-1"?>
<!-- Generator: Adobe Illustrator 22.0.1, SVG Export Plug-In . SVG Version: 6.00 Build 0)  -->
<svg version="1.1" id="Layer_1" xmlns="http://www.w3.org/2000/svg" xmlns:xlink="http://www.w3.org/1999/xlink" x="0px" y="0px"
	 viewBox="0 0 64 64" style="enable-background:new 0 0 64 64;" xml:space="preserve">
<style type="text/css">
	.st0{fill:#F8F3F3;}
	.st1{fill:#63312D;}
	.st2{fill:#E1DDDD;}
	.st3{fill:#84DBFF;}
	.st4{fill:#CAF4FF;}
	.st5{fill:#52BADB;}
	.st6{fill:#F9DD9D;}
	.st7{fill:#FFEECF;}
	.st8{fill:#EFC36A;}
	.st9{fill:#F7A085;}
	.st10{fill:#82D9FF;}
	.st11{fill:#F7DB9B;}
	.st12{fill:#F9A287;}
	.st13{fill:#FFC8BB;}
	.st14{fill:#52B8D9;}
	.st15{fill:#DB785A;}
	.st16{fill:#EDCB85;}
	.st17{fill:#DBAB56;}
	.st18{fill:#D3A553;}
	.st19{fill:#FFFFFF;}
</style>
<g>
	<path class="st10" d="M40.419,24.145H19.873c-0.914,0-1.655,0.741-1.655,1.655v13.756c0,0.914,0.741,1.655,1.655,1.655h20.546
		c0.914,0,1.655-0.741,1.655-1.655V25.799C42.074,24.885,41.333,24.145,40.419,24.145z"/>
	<path class="st4" d="M19.676,41.097v-14.41c0-0.552,0.448-1,1-1h21.201c0.064,0,0.125,0.012,0.187,0.019
		c-0.05-0.869-0.764-1.561-1.645-1.561H19.873c-0.914,0-1.655,0.741-1.655,1.655v13.756c0,0.85,0.643,1.542,1.468,1.636
		C19.684,41.159,19.676,41.129,19.676,41.097z"/>
	<rect x="18.218" y="30.5" class="st14" width="23.856" height="1.417"/>
	<path class="st1" d="M40.419,41.71H19.873c-1.188,0-2.155-0.967-2.155-2.155V25.8c0-1.188,0.967-2.155,2.155-2.155h20.546
		c1.188,0,2.154,0.967,2.154,2.155v13.755C42.573,40.743,41.606,41.71,40.419,41.71z M19.873,24.645
		c-0.637,0-1.155,0.519-1.155,1.155v13.755c0,0.637,0.518,1.155,1.155,1.155h20.546c0.637,0,1.154-0.519,1.154-1.155V25.8
		c0-0.637-0.518-1.155-1.154-1.155H19.873z"/>
	<rect x="18.287" y="30.057" class="st1" width="23.718" height="1"/>
	<rect x="28.221" y="29.313" class="st19" width="3.85" height="2.489"/>
	<path class="st1" d="M32.071,32.302h-3.85c-0.276,0-0.5-0.224-0.5-0.5v-2.489c0-0.276,0.224-0.5,0.5-0.5h3.85
		c0.276,0,0.5,0.224,0.5,0.5v2.489C32.571,32.078,32.347,32.302,32.071,32.302z M28.721,31.302h2.85v-1.489h-2.85V31.302z"/>
	<path class="st14" d="M44.315,24.145h-3.896c0.914,0,1.655,0.741,1.655,1.655v13.756c0,0.914-0.741,1.655-1.655,1.655h3.896
		c0.914,0,1.655-0.741,1.655-1.655V25.799C45.97,24.885,45.229,24.145,44.315,24.145z"/>
	<path class="st1" d="M44.315,41.71h-3.896c-0.276,0-0.5-0.224-0.5-0.5s0.224-0.5,0.5-0.5c0.637,0,1.154-0.519,1.154-1.155V25.8
		c0-0.637-0.518-1.155-1.154-1.155c-0.276,0-0.5-0.224-0.5-0.5s0.224-0.5,0.5-0.5h3.896c1.188,0,2.154,0.967,2.154,2.155v13.755
		C46.47,40.743,45.503,41.71,44.315,41.71z M42.237,40.71h2.078c0.637,0,1.154-0.519,1.154-1.155V25.8
		c0-0.637-0.518-1.155-1.154-1.155h-2.078c0.213,0.334,0.336,0.73,0.336,1.155v13.755C42.573,39.979,42.45,40.376,42.237,40.71z"/>
	<path class="st8" d="M35.634,19.563h-1.945c0.967,0,1.751,0.784,1.751,1.751v2.831h1.945v-2.831
		C37.386,20.347,36.602,19.563,35.634,19.563z"/>
	<path class="st1" d="M37.386,24.645H35.44c-0.276,0-0.5-0.224-0.5-0.5v-2.831c0-0.689-0.562-1.251-1.251-1.251
		c-0.276,0-0.5-0.224-0.5-0.5s0.224-0.5,0.5-0.5h1.945c1.241,0,2.251,1.01,2.251,2.251v2.831
		C37.886,24.421,37.662,24.645,37.386,24.645z M35.94,23.645h0.945v-2.331c0-0.689-0.562-1.251-1.251-1.251H35.56
		c0.24,0.358,0.381,0.788,0.381,1.251V23.645z"/>
	<path class="st6" d="M33.689,19.563H28.07c-0.967,0-1.751,0.784-1.751,1.751v2.831h1.945v-2.628h5.232v2.628h1.945v-2.831
		C35.441,20.347,34.657,19.563,33.689,19.563z"/>
	<path class="st1" d="M35.44,24.645h-1.944c-0.276,0-0.5-0.224-0.5-0.5v-2.128h-4.232v2.128c0,0.276-0.224,0.5-0.5,0.5h-1.945
		c-0.276,0-0.5-0.224-0.5-0.5v-2.831c0-1.241,1.01-2.251,2.251-2.251h5.619c1.241,0,2.251,1.01,2.251,2.251v2.831
		C35.94,24.421,35.717,24.645,35.44,24.645z M33.996,23.645h0.944v-2.331c0-0.689-0.562-1.251-1.251-1.251H28.07
		c-0.69,0-1.251,0.562-1.251,1.251v2.331h0.945v-2.128c0-0.276,0.224-0.5,0.5-0.5h5.232c0.276,0,0.5,0.224,0.5,0.5V23.645z"/>
	<polygon class="st6" points="35.982,9.108 32,3.108 28.018,9.108 30.125,9.108 30.125,13.297 33.875,13.297 33.875,9.108 	"/>
	<polygon class="st6" points="35.982,54.892 32,60.892 28.018,54.892 30.125,54.892 30.125,50.703 33.875,50.703 33.875,54.892 	"/>
	<polygon class="st6" points="9.108,28.018 3.108,32 9.108,35.982 9.108,33.875 13.297,33.875 13.297,30.125 9.108,30.125 	"/>
	<polygon class="st6" points="54.892,28.018 60.892,32 54.892,35.982 54.892,33.875 50.703,33.875 50.703,30.125 54.892,30.125 	"/>
	<polygon class="st6" points="18.629,12.997 11.571,11.571 12.997,18.629 14.487,17.139 17.449,20.101 20.101,17.449 17.139,14.487 
			"/>
	<polygon class="st6" points="51.003,45.371 52.429,52.429 45.371,51.003 46.861,49.513 43.899,46.551 46.551,43.899 49.513,46.861 
			"/>
	<polygon class="st6" points="12.997,45.371 11.571,52.429 18.629,51.003 17.139,49.513 20.101,46.551 17.449,43.899 14.487,46.861 
			"/>
	<polygon class="st6" points="45.371,12.997 52.429,11.571 51.003,18.629 49.513,17.139 46.551,20.101 43.899,17.449 46.861,14.487 
			"/>
	<path class="st1" d="M33.875,13.797h-3.75c-0.276,0-0.5-0.224-0.5-0.5V9.608h-1.607c-0.184,0-0.354-0.102-0.44-0.264
		C27.49,9.183,27.5,8.985,27.602,8.832l3.982-6c0.186-0.279,0.647-0.279,0.833,0l3.983,6c0.102,0.153,0.11,0.351,0.023,0.513
		s-0.256,0.264-0.44,0.264h-1.607v3.688C34.375,13.573,34.151,13.797,33.875,13.797z M30.625,12.797h2.75V9.108
		c0-0.276,0.224-0.5,0.5-0.5h1.176L32,4.013l-3.05,4.596h1.175c0.276,0,0.5,0.224,0.5,0.5V12.797z"/>
	<path class="st1" d="M32,61.392c-0.167,0-0.324-0.084-0.417-0.224l-3.982-6c-0.102-0.153-0.111-0.351-0.024-0.513
		c0.087-0.162,0.256-0.264,0.44-0.264h1.607v-3.688c0-0.276,0.224-0.5,0.5-0.5h3.75c0.276,0,0.5,0.224,0.5,0.5v3.688h1.607
		c0.185,0,0.354,0.102,0.44,0.264s0.078,0.359-0.023,0.513l-3.983,6C32.324,61.308,32.167,61.392,32,61.392z M28.95,55.392
		L32,59.987l3.051-4.596h-1.176c-0.276,0-0.5-0.224-0.5-0.5v-3.688h-2.75v3.688c0,0.276-0.224,0.5-0.5,0.5H28.95z"/>
	<path class="st1" d="M9.108,36.482c-0.097,0-0.193-0.028-0.276-0.083l-6-3.982C2.692,32.324,2.608,32.168,2.608,32
		s0.084-0.324,0.224-0.417l6-3.982c0.154-0.101,0.35-0.111,0.513-0.023c0.163,0.087,0.264,0.256,0.264,0.44v1.607h3.688
		c0.276,0,0.5,0.224,0.5,0.5v3.75c0,0.276-0.224,0.5-0.5,0.5H9.608v1.607c0,0.185-0.101,0.354-0.264,0.44
		C9.271,36.463,9.189,36.482,9.108,36.482z M4.013,32l4.596,3.051v-1.176c0-0.276,0.224-0.5,0.5-0.5h3.688v-2.75H9.108
		c-0.276,0-0.5-0.224-0.5-0.5v-1.176L4.013,32z"/>
	<path class="st1" d="M54.892,36.482c-0.081,0-0.162-0.02-0.236-0.06c-0.162-0.087-0.264-0.256-0.264-0.44v-1.607h-3.688
		c-0.276,0-0.5-0.224-0.5-0.5v-3.75c0-0.276,0.224-0.5,0.5-0.5h3.688v-1.607c0-0.185,0.102-0.354,0.264-0.44
		c0.163-0.088,0.36-0.077,0.513,0.023l6,3.982c0.14,0.093,0.224,0.249,0.224,0.417s-0.084,0.324-0.224,0.417l-6,3.982
		C55.085,36.454,54.988,36.482,54.892,36.482z M51.203,33.375h3.688c0.276,0,0.5,0.224,0.5,0.5v1.176L59.987,32l-4.596-3.051v1.176
		c0,0.276-0.224,0.5-0.5,0.5h-3.688V33.375z"/>
	<path class="st1" d="M17.449,20.601c-0.128,0-0.256-0.049-0.354-0.146l-2.608-2.608l-1.136,1.137
		c-0.13,0.13-0.32,0.179-0.498,0.125c-0.176-0.053-0.309-0.199-0.346-0.38l-1.427-7.059c-0.033-0.164,0.018-0.334,0.137-0.452
		s0.286-0.172,0.453-0.137l7.059,1.427c0.181,0.037,0.326,0.17,0.379,0.346c0.053,0.177,0.005,0.368-0.125,0.498l-1.136,1.137
		l2.608,2.608c0.195,0.195,0.195,0.512,0,0.707l-2.651,2.651C17.705,20.552,17.577,20.601,17.449,20.601z M14.487,16.639
		c0.133,0,0.26,0.053,0.354,0.146l2.608,2.608l1.944-1.944l-2.608-2.608c-0.195-0.195-0.195-0.512,0-0.707l0.831-0.831l-5.407-1.093
		l1.093,5.406l0.831-0.831C14.228,16.691,14.354,16.639,14.487,16.639z"/>
	<path class="st1" d="M52.43,52.93c-0.033,0-0.066-0.003-0.099-0.01l-7.059-1.427c-0.181-0.037-0.327-0.17-0.38-0.346
		c-0.054-0.177-0.005-0.368,0.125-0.498l1.137-1.137l-2.608-2.608c-0.195-0.195-0.195-0.512,0-0.707l2.651-2.651
		c0.195-0.195,0.512-0.195,0.707,0l2.608,2.608l1.137-1.137c0.13-0.129,0.321-0.179,0.498-0.125c0.176,0.053,0.309,0.199,0.346,0.38
		l1.427,7.059c0.033,0.164-0.019,0.334-0.137,0.452C52.688,52.878,52.561,52.93,52.43,52.93z M46.384,50.697l5.406,1.093
		l-1.093-5.406l-0.831,0.831c-0.195,0.195-0.512,0.195-0.707,0l-2.608-2.608l-1.944,1.944l2.608,2.608
		c0.195,0.195,0.195,0.512,0,0.707L46.384,50.697z"/>
	<path class="st1" d="M11.57,52.93c-0.131,0-0.259-0.052-0.354-0.146c-0.119-0.118-0.17-0.288-0.137-0.452l1.427-7.059
		c0.037-0.181,0.169-0.327,0.346-0.38c0.178-0.054,0.368-0.004,0.498,0.125l1.136,1.137l2.608-2.608
		c0.195-0.195,0.512-0.195,0.707,0l2.651,2.651c0.195,0.195,0.195,0.512,0,0.707l-2.608,2.608l1.136,1.137
		c0.13,0.13,0.178,0.321,0.125,0.498c-0.053,0.176-0.199,0.309-0.379,0.346l-7.059,1.427C11.636,52.927,11.603,52.93,11.57,52.93z
		 M13.303,46.384l-1.093,5.406l5.407-1.093l-0.831-0.831c-0.195-0.195-0.195-0.512,0-0.707l2.608-2.608l-1.944-1.944l-2.608,2.608
		c-0.094,0.094-0.221,0.146-0.354,0.146l0,0c-0.133,0-0.26-0.053-0.354-0.146L13.303,46.384z"/>
	<path class="st1" d="M46.551,20.601c-0.128,0-0.256-0.049-0.354-0.146l-2.651-2.651c-0.195-0.195-0.195-0.512,0-0.707l2.608-2.608
		l-1.137-1.137c-0.13-0.13-0.179-0.321-0.125-0.498c0.053-0.176,0.199-0.309,0.38-0.346l7.059-1.427
		c0.158-0.033,0.333,0.019,0.452,0.137c0.118,0.118,0.17,0.288,0.137,0.452l-1.427,7.059c-0.037,0.181-0.17,0.327-0.346,0.38
		c-0.178,0.054-0.368,0.004-0.498-0.125l-1.137-1.137l-2.608,2.608C46.807,20.552,46.679,20.601,46.551,20.601z M44.606,17.449
		l1.944,1.944l2.608-2.608c0.195-0.195,0.512-0.195,0.707,0l0.831,0.831l1.093-5.406l-5.406,1.093l0.831,0.831
		c0.195,0.195,0.195,0.512,0,0.707L44.606,17.449z"/>
</g>
</svg>
