<?xml version="1.0" encoding="iso-8859-1"?>
<!-- Generator: Adobe Illustrator 22.0.1, SVG Export Plug-In . SVG Version: 6.00 Build 0)  -->
<svg version="1.1" id="Layer_1" xmlns="http://www.w3.org/2000/svg" xmlns:xlink="http://www.w3.org/1999/xlink" x="0px" y="0px"
	 viewBox="0 0 64 64" style="enable-background:new 0 0 64 64;" xml:space="preserve">
<style type="text/css">
	.st0{fill:#F8F3F3;}
	.st1{fill:#63312D;}
	.st2{fill:#E1DDDD;}
	.st3{fill:#84DBFF;}
	.st4{fill:#CAF4FF;}
	.st5{fill:#52BADB;}
	.st6{fill:#F9DD9D;}
	.st7{fill:#FFEECF;}
	.st8{fill:#EFC36A;}
	.st9{fill:#F7A085;}
	.st10{fill:#82D9FF;}
	.st11{fill:#F7DB9B;}
	.st12{fill:#F9A287;}
	.st13{fill:#FFC8BB;}
	.st14{fill:#52B8D9;}
	.st15{fill:#DB785A;}
	.st16{fill:#EDCB85;}
	.st17{fill:#DBAB56;}
	.st18{fill:#D3A553;}
	.st19{fill:#FFFFFF;}
</style>
<g>
	<path class="st14" d="M15.654,50.402c-2.897,0-5.245,2.348-5.245,5.245c0,2.897,2.348,5.245,5.245,5.245H48.83v-10.49H15.654z"/>
	<path class="st1" d="M48.83,61.392H15.654c-3.168,0-5.745-2.577-5.745-5.745s2.577-5.745,5.745-5.745H48.83
		c0.276,0,0.5,0.224,0.5,0.5v10.49C49.33,61.168,49.106,61.392,48.83,61.392z M15.654,50.901c-2.616,0-4.745,2.129-4.745,4.745
		s2.129,4.745,4.745,4.745H48.33v-9.49H15.654z"/>
	<path class="st10" d="M15.743,3.108c-2.946,0-5.334,2.388-5.334,5.334v47.204c0-2.897,2.348-5.245,5.245-5.245H48.83V3.108H15.743z
		"/>
	<path class="st4" d="M12.478,8.377c0-1.767,1.433-3.2,3.2-3.2H48.83V3.108H15.743c-2.946,0-5.334,2.388-5.334,5.334v47.204
		c0-1.697,0.819-3.189,2.068-4.148V8.377z"/>
	<path class="st1" d="M10.409,56.146c-0.276,0-0.5-0.224-0.5-0.5V8.442c0-3.217,2.617-5.834,5.834-5.834H48.83
		c0.276,0,0.5,0.224,0.5,0.5v47.293c0,0.276-0.224,0.5-0.5,0.5H15.654c-2.616,0-4.745,2.129-4.745,4.745
		C10.909,55.923,10.686,56.146,10.409,56.146z M15.743,3.608c-2.665,0-4.834,2.169-4.834,4.834v43.969
		c1.036-1.515,2.776-2.51,4.745-2.51H48.33V3.608H15.743z"/>
	<path class="st0" d="M15.96,52.935c-1.497,0-2.711,1.214-2.711,2.711c0,1.497,1.214,2.711,2.711,2.711h32.87v-5.423H15.96z"/>
	<path class="st1" d="M48.83,58.858H15.96c-1.771,0-3.211-1.44-3.211-3.212c0-1.771,1.44-3.211,3.211-3.211h32.87
		c0.276,0,0.5,0.224,0.5,0.5v5.423C49.33,58.635,49.106,58.858,48.83,58.858z M15.96,53.436c-1.219,0-2.211,0.992-2.211,2.211
		c0,1.22,0.992,2.212,2.211,2.212h32.37v-4.423H15.96z"/>
	<rect x="48.829" y="50.402" class="st14" width="4.762" height="2.534"/>
	<rect x="48.829" y="58.358" class="st14" width="4.762" height="2.534"/>
	<path class="st1" d="M53.591,53.436h-4.762c-0.276,0-0.5-0.224-0.5-0.5v-2.534c0-0.276,0.224-0.5,0.5-0.5h4.762
		c0.276,0,0.5,0.224,0.5,0.5v2.534C54.091,53.212,53.867,53.436,53.591,53.436z M49.329,52.436h3.762v-1.534h-3.762V52.436z"/>
	<path class="st1" d="M53.591,61.392h-4.762c-0.276,0-0.5-0.224-0.5-0.5v-2.533c0-0.276,0.224-0.5,0.5-0.5h4.762
		c0.276,0,0.5,0.224,0.5,0.5v2.533C54.091,61.168,53.867,61.392,53.591,61.392z M49.329,60.392h3.762v-1.533h-3.762V60.392z"/>
	<rect x="48.829" y="52.935" class="st2" width="4.762" height="5.423"/>
	<path class="st1" d="M53.591,58.858h-4.762c-0.276,0-0.5-0.224-0.5-0.5v-5.423c0-0.276,0.224-0.5,0.5-0.5h4.762
		c0.276,0,0.5,0.224,0.5,0.5v5.423C54.091,58.635,53.867,58.858,53.591,58.858z M49.329,57.858h3.762v-4.423h-3.762V57.858z"/>
	<rect x="48.829" y="3.108" class="st14" width="4.762" height="47.293"/>
	<path class="st1" d="M53.591,50.901h-4.762c-0.276,0-0.5-0.224-0.5-0.5V3.108c0-0.276,0.224-0.5,0.5-0.5h4.762
		c0.276,0,0.5,0.224,0.5,0.5v47.293C54.091,50.678,53.867,50.901,53.591,50.901z M49.329,49.901h3.762V3.608h-3.762V49.901z"/>
	<path class="st6" d="M32.466,32.593h-4.257v-0.516c0-3.082,1.461-6.04,3.91-7.913c1.002-0.766,1.6-1.977,1.6-3.238
		c0-1.663-1.352-3.016-3.015-3.016c-1.663,0-3.016,1.353-3.016,3.016v0.477h-4.257v-0.477c0-4.011,3.263-7.273,7.273-7.273
		c4.01,0,7.272,3.263,7.272,7.273c0,2.578-1.222,5.052-3.271,6.62c-1.402,1.073-2.239,2.766-2.239,4.531V32.593z"/>
	<circle class="st6" cx="30.365" cy="37.7" r="2.157"/>
	<path class="st1" d="M32.466,33.093h-4.258c-0.276,0-0.5-0.224-0.5-0.5v-0.516c0-3.237,1.535-6.343,4.106-8.31
		c0.879-0.672,1.403-1.734,1.403-2.841c0-1.387-1.128-2.516-2.515-2.516c-1.388,0-2.517,1.129-2.517,2.516v0.478
		c0,0.276-0.224,0.5-0.5,0.5H23.43c-0.276,0-0.5-0.224-0.5-0.5v-0.478c0-4.286,3.487-7.773,7.773-7.773s7.772,3.487,7.772,7.773
		c0,2.732-1.296,5.356-3.468,7.018c-1.278,0.979-2.042,2.523-2.042,4.133v0.516C32.966,32.869,32.742,33.093,32.466,33.093z
		 M28.708,32.093l3.258-0.016c0-1.919,0.91-3.761,2.435-4.928c1.926-1.473,3.075-3.799,3.075-6.223c0-3.735-3.038-6.773-6.772-6.773
		c-3.728,0-6.761,3.026-6.773,6.751h3.257c0.012-1.929,1.585-3.493,3.517-3.493c1.938,0,3.515,1.577,3.515,3.516
		c0,1.416-0.671,2.775-1.796,3.636c-2.325,1.778-3.714,4.587-3.714,7.515V32.093z"/>
	<path class="st1" d="M30.365,40.356c-1.465,0-2.657-1.192-2.657-2.657s1.192-2.657,2.657-2.657s2.657,1.192,2.657,2.657
		S31.83,40.356,30.365,40.356z M30.365,36.042c-0.914,0-1.657,0.743-1.657,1.657s0.743,1.657,1.657,1.657s1.657-0.743,1.657-1.657
		S31.279,36.042,30.365,36.042z"/>
</g>
</svg>
