<?xml version="1.0" encoding="iso-8859-1"?>
<!-- Generator: Adobe Illustrator 22.0.1, SVG Export Plug-In . SVG Version: 6.00 Build 0)  -->
<svg version="1.1" id="Layer_1" xmlns="http://www.w3.org/2000/svg" xmlns:xlink="http://www.w3.org/1999/xlink" x="0px" y="0px"
	 viewBox="0 0 64 64" style="enable-background:new 0 0 64 64;" xml:space="preserve">
<style type="text/css">
	.st0{fill:#F8F3F3;}
	.st1{fill:#63312D;}
	.st2{fill:#E1DDDD;}
	.st3{fill:#84DBFF;}
	.st4{fill:#CAF4FF;}
	.st5{fill:#52BADB;}
	.st6{fill:#F9DD9D;}
	.st7{fill:#FFEECF;}
	.st8{fill:#EFC36A;}
	.st9{fill:#F7A085;}
	.st10{fill:#82D9FF;}
	.st11{fill:#F7DB9B;}
	.st12{fill:#F9A287;}
	.st13{fill:#FFC8BB;}
	.st14{fill:#52B8D9;}
	.st15{fill:#DB785A;}
	.st16{fill:#EDCB85;}
	.st17{fill:#DBAB56;}
	.st18{fill:#D3A553;}
	.st19{fill:#FFFFFF;}
</style>
<g>
	<path class="st15" d="M50.033,17.969h-3.28c0.147,0.001,0.294,0.016,0.432,0.041c0.101,0.017,0.203,0.034,0.304,0.068
		c0.093,0.025,0.186,0.059,0.271,0.101c0.643,0.287,1.141,0.829,1.378,1.496c0.085,0.254,0.135,0.541,0.135,0.829v27.748
		c0,1.404-1.133,2.536-2.536,2.536h-2.996v0.002h6.292c1.673,0,3.03-1.356,3.03-3.03V20.998
		C53.063,19.325,51.706,17.969,50.033,17.969z"/>
	<path class="st1" d="M50.033,51.291h-6.292v-1h6.292c1.395,0,2.529-1.135,2.529-2.53V20.999c0-1.395-1.135-2.53-2.529-2.53h-6.292
		v-1h6.292c1.946,0,3.529,1.583,3.529,3.53v26.762C53.563,49.707,51.979,51.291,50.033,51.291z"/>
	<path class="st12" d="M49.139,19.675c-0.237-0.668-0.736-1.209-1.378-1.496c-0.085-0.042-0.178-0.076-0.271-0.101
		c-0.101-0.034-0.203-0.051-0.304-0.068c-0.144-0.025-0.296-0.042-0.448-0.042H6.747c-1.403,0-2.536,1.133-2.536,2.536v27.748
		c0,0.085,0.008,0.178,0.017,0.262c0.008,0.118,0.025,0.237,0.059,0.355c0.042,0.194,0.118,0.38,0.211,0.55
		c0.118,0.237,0.279,0.448,0.465,0.626c0.131,0.133,0.278,0.246,0.435,0.346c0.027,0.017,0.055,0.03,0.083,0.045
		c0.149,0.088,0.306,0.158,0.472,0.213c0.003,0.001,0.005,0.003,0.008,0.004c0,0,0-0.001,0-0.001
		c0.248,0.082,0.509,0.136,0.787,0.136h39.991c1.404,0,2.536-1.133,2.536-2.536V20.504C49.274,20.216,49.223,19.929,49.139,19.675z"
		/>
	<path class="st13" d="M49.139,19.675c-0.237-0.059-0.533-0.093-0.786-0.093H7.339c-0.837,0-1.522,0.676-1.522,1.513v28.771
		c0,0.279,0.059,0.541,0.144,0.786c-0.38-0.118-0.727-0.33-0.998-0.609c-0.186-0.186-0.347-0.389-0.465-0.626
		c-0.093-0.169-0.161-0.355-0.211-0.55c-0.034-0.118-0.051-0.237-0.059-0.355c-0.008-0.085-0.017-0.178-0.017-0.262V20.504
		c0-1.403,1.133-2.536,2.536-2.536h39.991c0.152,0,0.304,0.017,0.448,0.042c0.101,0.017,0.203,0.034,0.304,0.068
		c0.093,0.025,0.186,0.059,0.271,0.101C48.403,18.466,48.902,19.007,49.139,19.675z"/>
	<path class="st1" d="M46.739,51.291H6.745c-1.674,0-3.036-1.362-3.036-3.037V20.505c0-1.674,1.362-3.036,3.036-3.036h39.994
		c1.675,0,3.037,1.362,3.037,3.036v27.749C49.776,49.928,48.414,51.291,46.739,51.291z M6.745,18.469
		c-1.123,0-2.036,0.914-2.036,2.036v27.749c0,1.123,0.913,2.037,2.036,2.037h39.994c1.123,0,2.037-0.914,2.037-2.037V20.505
		c0-1.123-0.914-2.036-2.037-2.036H6.745z"/>
	<rect x="7.929" y="21.63" class="st0" width="37.87" height="23.42"/>
	<polygon class="st2" points="9.543,23.258 45.804,23.258 45.804,21.63 7.933,21.63 7.933,45.05 9.543,45.05 	"/>
	<rect id="XMLID_11_" x="23.075" y="50.79" class="st11" width="9.51" height="6.438"/>
	<rect id="XMLID_10_" x="23.075" y="50.79" class="st16" width="9.51" height="1.653"/>
	<rect x="29.088" y="50.793" class="st8" width="3.501" height="6.433"/>
	<rect x="29.088" y="50.793" class="st17" width="3.501" height="1.653"/>
	<path class="st1" d="M32.585,57.729h-9.51c-0.276,0-0.5-0.224-0.5-0.5v-6.438c0-0.276,0.224-0.5,0.5-0.5h9.51
		c0.276,0,0.5,0.224,0.5,0.5v6.438C33.085,57.505,32.861,57.729,32.585,57.729z M23.575,56.729h8.51v-5.438h-8.51V56.729z"/>
	<rect x="28.591" y="50.791" class="st1" width="1" height="6.438"/>
	<path class="st12" d="M36.6,58.431c-0.144-0.482-0.49-0.862-0.938-1.065c-0.127-0.059-0.271-0.093-0.406-0.11
		c-0.093-0.017-0.178-0.025-0.271-0.025H18.169c-0.938,0-1.691,0.752-1.691,1.691v1.97h20.198v-1.97
		C36.676,58.753,36.651,58.583,36.6,58.431z"/>
	<path class="st13" d="M36.6,58.431H18.456c-0.406,0-0.727,0.321-0.727,0.719v1.742h-1.251v-1.97c0-0.938,0.752-1.691,1.691-1.691
		h16.816c0.093,0,0.178,0.008,0.271,0.025c0.135,0.017,0.279,0.051,0.406,0.11C36.11,57.569,36.456,57.949,36.6,58.431z"/>
	<path class="st1" d="M36.673,61.389H16.475c-0.276,0-0.5-0.224-0.5-0.5v-1.97c0-1.208,0.982-2.191,2.19-2.191h16.816
		c1.208,0,2.191,0.983,2.191,2.191v1.97C37.173,61.166,36.949,61.389,36.673,61.389z M16.975,60.389h19.198v-1.47
		c0-0.657-0.534-1.191-1.191-1.191H18.165c-0.656,0-1.19,0.534-1.19,1.191V60.389z"/>
	<path class="st15" d="M37.496,57.228h-2.515c0.934,0,1.691,0.757,1.691,1.691v1.97h2.515v-1.97
		C39.187,57.985,38.43,57.228,37.496,57.228z"/>
	<path class="st1" d="M39.188,61.389h-2.515c-0.276,0-0.5-0.224-0.5-0.5v-1.97c0-0.657-0.534-1.191-1.191-1.191
		c-0.276,0-0.5-0.224-0.5-0.5s0.224-0.5,0.5-0.5h2.515c1.208,0,2.191,0.983,2.191,2.191v1.97
		C39.688,61.166,39.464,61.389,39.188,61.389z M37.173,60.389h1.515v-1.47c0-0.657-0.534-1.191-1.191-1.191H36.82
		c0.223,0.343,0.353,0.752,0.353,1.191V60.389z"/>
	<path class="st10" d="M40.645,10.254l0.004-2.278l-1.6-0.361c-0.065-0.193-0.139-0.379-0.228-0.56L39.7,5.674l-1.609-1.612
		l-1.384,0.876c-0.18-0.089-0.366-0.164-0.559-0.23L35.79,3.108h-2.277l-0.358,1.601c-0.182,0.062-0.359,0.131-0.53,0.214
		l-1.376-0.885l-1.621,1.6l0.869,1.389c-0.09,0.18-0.167,0.365-0.234,0.557l-1.602,0.349l-0.012,2.278l1.6,0.367
		c0.065,0.193,0.137,0.38,0.225,0.561l-0.883,1.378l1.603,1.618l1.387-0.872c0.18,0.09,0.365,0.166,0.558,0.232l0.352,1.602
		l2.278,0.008l0.364-1.6c0.193-0.065,0.38-0.138,0.56-0.227l1.38,0.881l1.615-1.606l-0.874-1.385c0.09-0.18,0.165-0.366,0.231-0.558
		L40.645,10.254z M34.649,11.431c-1.284,0-2.325-1.041-2.325-2.325s1.041-2.325,2.325-2.325s2.325,1.041,2.325,2.325
		S35.933,11.431,34.649,11.431z"/>
	<path class="st10" d="M21.566,41.529v-3.292l-2.314-0.511c-0.087-0.283-0.196-0.554-0.326-0.815l1.271-1.999l-2.325-2.325
		l-1.999,1.26c-0.261-0.12-0.532-0.228-0.804-0.326l-0.522-2.314h-3.292l-0.511,2.314c-0.272,0.087-0.522,0.185-0.771,0.304
		l-1.988-1.271l-0.054,0.054V45.05h12.05l0.196-0.196l-1.26-1.999c0.13-0.261,0.239-0.532,0.337-0.804L21.566,41.529z
		 M12.895,43.235c-1.847,0-3.358-1.499-3.358-3.358s1.51-3.358,3.358-3.358c1.858,0,3.358,1.499,3.358,3.358
		S14.753,43.235,12.895,43.235z"/>
	<path class="st1" d="M35.769,15.604c-0.001,0-0.001,0-0.002,0l-2.277-0.008c-0.233-0.001-0.437-0.164-0.486-0.393l-0.294-1.336
		c-0.03-0.012-0.062-0.025-0.092-0.038l-1.157,0.727c-0.198,0.124-0.456,0.095-0.621-0.071l-1.604-1.618
		c-0.164-0.167-0.191-0.425-0.065-0.622l0.737-1.15c-0.013-0.03-0.024-0.061-0.036-0.092l-1.333-0.306
		c-0.229-0.052-0.39-0.256-0.389-0.49l0.013-2.278c0.001-0.234,0.165-0.436,0.394-0.486l1.336-0.291
		c0.013-0.031,0.025-0.061,0.038-0.092l-0.725-1.159c-0.124-0.198-0.094-0.457,0.072-0.621l1.62-1.6
		c0.168-0.165,0.425-0.192,0.622-0.064l1.149,0.739c0.02-0.008,0.038-0.016,0.058-0.023L33.024,3
		c0.052-0.229,0.254-0.391,0.488-0.391h2.277c0.234,0,0.437,0.163,0.488,0.391l0.299,1.335c0.03,0.012,0.061,0.024,0.091,0.037
		l1.155-0.731c0.196-0.125,0.456-0.097,0.621,0.069l1.608,1.612c0.166,0.166,0.194,0.424,0.068,0.621l-0.733,1.154
		c0.013,0.03,0.025,0.061,0.037,0.092l1.335,0.301c0.228,0.052,0.39,0.254,0.39,0.489l-0.004,2.277c0,0.234-0.163,0.437-0.392,0.487
		l-1.336,0.296c-0.013,0.03-0.024,0.061-0.037,0.09l0.729,1.158c0.125,0.198,0.096,0.456-0.07,0.621l-1.615,1.606
		c-0.166,0.166-0.425,0.193-0.621,0.067l-1.153-0.735c-0.03,0.012-0.061,0.024-0.092,0.037l-0.303,1.333
		C36.204,15.442,36.002,15.604,35.769,15.604z M33.894,14.598l1.477,0.005l0.274-1.209c0.038-0.17,0.163-0.308,0.328-0.363
		c0.173-0.058,0.339-0.123,0.5-0.202c0.156-0.076,0.342-0.066,0.488,0.028l1.043,0.666l1.047-1.042l-0.66-1.047
		c-0.093-0.147-0.103-0.332-0.025-0.488c0.079-0.162,0.146-0.328,0.206-0.5c0.057-0.165,0.194-0.288,0.364-0.325l1.211-0.268
		l0.002-1.476l-1.21-0.273c-0.17-0.039-0.308-0.162-0.363-0.327c-0.059-0.172-0.123-0.339-0.202-0.5
		c-0.077-0.156-0.067-0.342,0.026-0.489l0.663-1.043L38.02,4.699l-1.045,0.662c-0.147,0.093-0.334,0.103-0.488,0.026
		c-0.162-0.08-0.328-0.146-0.5-0.205c-0.164-0.057-0.288-0.194-0.326-0.364l-0.271-1.21h-1.477l-0.27,1.209
		c-0.038,0.17-0.162,0.309-0.327,0.365c-0.163,0.055-0.32,0.116-0.473,0.19c-0.157,0.077-0.343,0.064-0.489-0.029l-1.039-0.668
		l-1.05,1.037l0.656,1.05c0.093,0.148,0.102,0.334,0.022,0.491c-0.081,0.16-0.149,0.324-0.208,0.495
		c-0.057,0.165-0.195,0.289-0.366,0.326l-1.21,0.263l-0.009,1.477l1.209,0.277c0.17,0.039,0.308,0.164,0.363,0.329
		c0.057,0.172,0.121,0.34,0.199,0.501c0.076,0.157,0.065,0.342-0.028,0.489l-0.667,1.04l1.04,1.048l1.048-0.658
		c0.147-0.093,0.334-0.102,0.489-0.024c0.161,0.081,0.325,0.148,0.496,0.207c0.165,0.057,0.289,0.195,0.326,0.366L33.894,14.598z"/>
	<circle class="st0" cx="34.649" cy="9.106" r="2.325"/>
	<path class="st1" d="M34.649,11.931c-1.558,0-2.824-1.267-2.824-2.824c0-1.558,1.267-2.825,2.824-2.825s2.824,1.267,2.824,2.825
		C37.474,10.664,36.207,11.931,34.649,11.931z M34.649,7.282c-1.006,0-1.824,0.818-1.824,1.825c0,1.006,0.818,1.824,1.824,1.824
		s1.824-0.818,1.824-1.824C36.474,8.1,35.655,7.282,34.649,7.282z"/>
	<path class="st1" d="M45.804,45.55H7.933c-0.276,0-0.5-0.224-0.5-0.5V21.629c0-0.276,0.224-0.5,0.5-0.5h37.871
		c0.276,0,0.5,0.224,0.5,0.5V45.05C46.304,45.327,46.08,45.55,45.804,45.55z M8.433,44.55h36.871V22.129H8.433V44.55z"/>
	<path class="st10" d="M59.784,21.298l0.007-3.633l-2.553-0.576c-0.104-0.308-0.222-0.605-0.364-0.893l1.401-2.204l-2.566-2.571
		l-2.207,1.398c-0.288-0.142-0.585-0.261-0.892-0.366L52.04,9.9h-3.633l-0.571,2.553c-0.29,0.099-0.572,0.208-0.846,0.341
		l-2.195-1.412l-2.585,2.552l1.387,2.216c-0.144,0.287-0.267,0.582-0.373,0.889l-2.555,0.557l-0.02,3.633l2.551,0.585
		c0.103,0.308,0.218,0.607,0.359,0.895l-1.409,2.198l2.557,2.58l2.213-1.39c0.287,0.144,0.583,0.265,0.89,0.371l0.561,2.555
		l3.633,0.013l0.58-2.552c0.308-0.104,0.606-0.22,0.894-0.361l2.201,1.405l2.576-2.562l-1.394-2.21
		c0.143-0.288,0.263-0.584,0.368-0.891L59.784,21.298z M50.22,23.175c-2.048,0-3.708-1.66-3.708-3.708s1.66-3.708,3.708-3.708
		s3.708,1.66,3.708,3.708S52.268,23.175,50.22,23.175z"/>
	<path class="st1" d="M52.005,29.535c-0.001,0-0.001,0-0.002,0l-3.633-0.013c-0.234-0.001-0.437-0.164-0.486-0.393l-0.503-2.286
		c-0.144-0.055-0.286-0.114-0.426-0.178l-1.981,1.245c-0.199,0.125-0.456,0.095-0.621-0.071l-2.557-2.581
		c-0.164-0.167-0.191-0.425-0.065-0.622l1.261-1.968c-0.059-0.136-0.116-0.278-0.171-0.43l-2.282-0.523
		c-0.229-0.052-0.39-0.256-0.389-0.49l0.02-3.633c0.001-0.234,0.165-0.436,0.394-0.486l2.287-0.498
		c0.056-0.144,0.115-0.286,0.179-0.426l-1.241-1.983c-0.124-0.198-0.094-0.457,0.072-0.621l2.585-2.552
		c0.167-0.165,0.425-0.192,0.622-0.064l1.965,1.264c0.124-0.053,0.25-0.104,0.377-0.151l0.511-2.285
		c0.052-0.228,0.254-0.391,0.488-0.391h3.633c0.234,0,0.437,0.163,0.488,0.391l0.51,2.285c0.149,0.056,0.291,0.114,0.429,0.175
		l1.975-1.251c0.196-0.125,0.457-0.098,0.621,0.069l2.566,2.571c0.166,0.166,0.194,0.424,0.068,0.622l-1.254,1.972
		c0.06,0.135,0.117,0.278,0.174,0.429l2.284,0.515c0.228,0.051,0.39,0.254,0.39,0.489l-0.007,3.633c0,0.234-0.163,0.437-0.392,0.487
		l-2.285,0.506c-0.055,0.145-0.113,0.287-0.176,0.427l1.247,1.979c0.125,0.198,0.096,0.456-0.07,0.621l-2.576,2.562
		c-0.166,0.165-0.424,0.193-0.622,0.067l-1.969-1.257c-0.137,0.06-0.279,0.117-0.43,0.172l-0.52,2.283
		C52.44,29.373,52.238,29.535,52.005,29.535z M48.774,28.523l2.832,0.01l0.491-2.162c0.038-0.17,0.163-0.308,0.328-0.363
		c0.288-0.096,0.565-0.205,0.834-0.336c0.156-0.076,0.341-0.066,0.489,0.028l1.862,1.189l2.008-1.997l-1.18-1.871
		c-0.093-0.147-0.103-0.333-0.025-0.489c0.133-0.268,0.245-0.544,0.344-0.831c0.057-0.165,0.194-0.288,0.364-0.326l2.163-0.479
		l0.005-2.832l-2.162-0.487c-0.169-0.038-0.307-0.162-0.363-0.327c-0.097-0.287-0.206-0.563-0.339-0.832
		c-0.077-0.157-0.067-0.342,0.026-0.49l1.187-1.865l-2.001-2.004l-1.867,1.184c-0.147,0.094-0.333,0.104-0.489,0.026
		c-0.269-0.133-0.545-0.244-0.832-0.341c-0.165-0.056-0.289-0.194-0.327-0.365l-0.482-2.163h-2.832l-0.483,2.163
		c-0.038,0.169-0.162,0.308-0.326,0.364c-0.271,0.092-0.535,0.194-0.79,0.318c-0.158,0.076-0.341,0.064-0.488-0.03l-1.857-1.195
		l-2.015,1.989l1.174,1.876c0.093,0.147,0.102,0.333,0.023,0.489c-0.134,0.268-0.249,0.543-0.348,0.829
		c-0.058,0.165-0.196,0.288-0.366,0.325l-2.164,0.471l-0.016,2.832l2.161,0.496c0.171,0.039,0.308,0.164,0.363,0.33
		c0.096,0.287,0.202,0.565,0.333,0.833c0.076,0.157,0.065,0.342-0.028,0.489l-1.192,1.861l1.993,2.011l1.874-1.177
		c0.147-0.093,0.332-0.101,0.488-0.024c0.27,0.134,0.544,0.248,0.83,0.346c0.165,0.057,0.288,0.195,0.325,0.365L48.774,28.523z"/>
	<circle class="st0" cx="50.22" cy="19.467" r="3.708"/>
	<path class="st1" d="M50.221,23.675c-2.321,0-4.209-1.888-4.209-4.208s1.888-4.208,4.209-4.208c2.32,0,4.208,1.888,4.208,4.208
		S52.541,23.675,50.221,23.675z M50.221,16.259c-1.77,0-3.209,1.439-3.209,3.208s1.439,3.208,3.209,3.208
		c1.769,0,3.208-1.439,3.208-3.208S51.989,16.259,50.221,16.259z"/>
</g>
</svg>
