<?xml version="1.0" encoding="iso-8859-1"?>
<!-- Generator: Adobe Illustrator 22.0.1, SVG Export Plug-In . SVG Version: 6.00 Build 0)  -->
<svg version="1.1" id="Layer_1" xmlns="http://www.w3.org/2000/svg" xmlns:xlink="http://www.w3.org/1999/xlink" x="0px" y="0px"
	 viewBox="0 0 64 64" style="enable-background:new 0 0 64 64;" xml:space="preserve">
<style type="text/css">
	.st0{fill:#F8F3F3;}
	.st1{fill:#63312D;}
	.st2{fill:#E1DDDD;}
	.st3{fill:#84DBFF;}
	.st4{fill:#CAF4FF;}
	.st5{fill:#52BADB;}
	.st6{fill:#F9DD9D;}
	.st7{fill:#FFEECF;}
	.st8{fill:#EFC36A;}
	.st9{fill:#F7A085;}
	.st10{fill:#82D9FF;}
	.st11{fill:#F7DB9B;}
	.st12{fill:#F9A287;}
	.st13{fill:#FFC8BB;}
	.st14{fill:#52B8D9;}
	.st15{fill:#DB785A;}
	.st16{fill:#EDCB85;}
	.st17{fill:#DBAB56;}
	.st18{fill:#D3A553;}
	.st19{fill:#FFFFFF;}
</style>
<g>
	<path class="st6" d="M28.545,12.267c-7.836,0.363-14.256,6.856-14.539,14.695c-0.164,4.554,1.668,8.676,4.689,11.573
		c2.26,2.168,3.584,5.13,3.584,8.262v0.626h13.987V46.8c0-3.164,1.378-6.125,3.649-8.329c2.857-2.773,4.634-6.649,4.634-10.945
		C44.548,18.848,37.312,11.861,28.545,12.267z"/>
	<path class="st7" d="M20.64,38.534c-3.02-2.897-4.853-7.019-4.689-11.573c0.28-7.766,6.587-14.202,14.323-14.674
		c-0.569-0.037-1.145-0.048-1.729-0.021c-7.836,0.363-14.256,6.856-14.539,14.695c-0.164,4.554,1.668,8.676,4.689,11.573
		c2.26,2.168,3.584,5.13,3.584,8.262v0.626h1.945v-0.626C24.224,43.665,22.9,40.702,20.64,38.534z"/>
	<path class="st1" d="M36.266,47.922H22.278c-0.276,0-0.5-0.224-0.5-0.5v-0.626c0-2.931-1.25-5.811-3.43-7.9
		c-3.239-3.107-5.004-7.463-4.843-11.952c0.294-8.133,6.89-14.799,15.016-15.176l0,0c4.362-0.204,8.495,1.341,11.644,4.347
		c3.148,3.006,4.883,7.059,4.883,11.412c0,4.294-1.699,8.309-4.785,11.304c-2.255,2.188-3.497,5.019-3.497,7.97v0.622
		C36.766,47.698,36.542,47.922,36.266,47.922z M22.778,46.922h12.987V46.8c0-3.224,1.35-6.309,3.8-8.687
		c2.891-2.806,4.482-6.565,4.482-10.587c0-4.077-1.624-7.873-4.574-10.688c-2.948-2.814-6.825-4.261-10.905-4.071l0,0
		c-7.61,0.353-13.788,6.595-14.063,14.213c-0.151,4.204,1.501,8.284,4.534,11.194c2.376,2.277,3.738,5.42,3.738,8.622V46.922z"/>
	<path class="st3" d="M21.054,47.424v6.212c0,1.834,1.487,3.321,3.321,3.321h9.793c1.834,0,3.321-1.487,3.321-3.321v-6.212H21.054z"
		/>
	<path class="st4" d="M22.833,55.457v-6.212H37.49v-1.821H21.054v6.212c0,1.373,0.833,2.551,2.022,3.057
		C22.922,56.31,22.833,55.894,22.833,55.457z"/>
	<path class="st1" d="M34.168,57.457h-9.793c-2.107,0-3.821-1.714-3.821-3.821v-6.212c0-0.276,0.224-0.5,0.5-0.5h16.436
		c0.276,0,0.5,0.224,0.5,0.5v6.212C37.989,55.743,36.275,57.457,34.168,57.457z M21.554,47.924v5.712
		c0,1.556,1.266,2.821,2.821,2.821h9.793c1.556,0,2.821-1.266,2.821-2.821v-5.712H21.554z"/>
	<rect x="26.426" y="56.957" class="st6" width="6.521" height="3.935"/>
	<rect x="26.426" y="56.957" class="st8" width="6.521" height="1.428"/>
	<path class="st1" d="M32.947,61.392h-6.521c-0.276,0-0.5-0.224-0.5-0.5v-3.935c0-0.276,0.224-0.5,0.5-0.5h6.521
		c0.276,0,0.5,0.224,0.5,0.5v3.935C33.447,61.168,33.224,61.392,32.947,61.392z M26.926,60.392h5.521v-2.935h-5.521V60.392z"/>
	<rect x="32.948" y="56.957" class="st8" width="3.261" height="3.935"/>
	<rect x="32.948" y="56.957" class="st18" width="3.261" height="1.428"/>
	<path class="st1" d="M36.208,61.392h-3.261c-0.276,0-0.5-0.224-0.5-0.5v-3.935c0-0.276,0.224-0.5,0.5-0.5h3.261
		c0.276,0,0.5,0.224,0.5,0.5v3.935C36.708,61.168,36.484,61.392,36.208,61.392z M33.447,60.392h2.261v-2.935h-2.261V60.392z"/>
	<path class="st8" d="M33.601,12.267h-4.339l0,0.004c8.439-0.002,15.285,6.817,15.285,15.255c0,4.296-1.777,8.173-4.634,10.945
		c-2.271,2.204-3.649,5.165-3.649,8.329v0.622h5.056V46.8c0-3.164,1.378-6.125,3.649-8.329c2.857-2.773,4.634-6.649,4.634-10.945
		C49.604,18.848,42.368,11.861,33.601,12.267z"/>
	<path class="st1" d="M41.321,47.922h-5.056c-0.276,0-0.5-0.224-0.5-0.5V46.8c0-3.224,1.35-6.309,3.8-8.687
		c2.891-2.806,4.482-6.565,4.482-10.587c0-3.946-1.538-7.653-4.331-10.438c-2.791-2.784-6.502-4.316-10.449-4.316
		c-0.151,0.012-0.264-0.051-0.358-0.146c-0.094-0.094-0.146-0.221-0.146-0.354c0-0.276,0.224-0.504,0.5-0.504h4.327
		c4.362-0.2,8.485,1.344,11.63,4.347c3.149,3.007,4.884,7.06,4.884,11.412c0,4.295-1.699,8.31-4.784,11.304
		c-2.256,2.188-3.498,5.02-3.498,7.97v0.622C41.821,47.698,41.598,47.922,41.321,47.922z M36.766,46.922h4.056V46.8
		c0-3.224,1.35-6.309,3.801-8.687c2.89-2.805,4.481-6.565,4.481-10.587c0-4.077-1.624-7.873-4.574-10.689
		c-2.666-2.545-6.089-3.971-9.741-4.08c2.092,0.777,4.01,2.001,5.635,3.623c2.982,2.975,4.625,6.933,4.625,11.146
		c0,4.294-1.699,8.309-4.785,11.304c-2.255,2.188-3.497,5.019-3.497,7.97V46.922z"/>
	<path class="st5" d="M37.49,47.424v6.212c0,1.834-1.487,3.321-3.321,3.321h4.805c1.943,0,3.517-1.575,3.517-3.517v-6.016H37.49z"/>
	<path class="st1" d="M38.974,57.457h-4.806c-0.276,0-0.5-0.224-0.5-0.5s0.224-0.5,0.5-0.5c1.556,0,2.821-1.266,2.821-2.821v-6.212
		c0-0.276,0.224-0.5,0.5-0.5h5.001c0.276,0,0.5,0.224,0.5,0.5v6.016C42.99,55.654,41.188,57.457,38.974,57.457z M36.743,56.457h2.23
		c1.663,0,3.017-1.354,3.017-3.018v-5.516h-4.001v5.712C37.989,54.752,37.509,55.758,36.743,56.457z"/>
	<rect x="31.3" y="3.108" class="st1" width="1" height="4.6"/>
	<rect x="22.614" y="4.792" transform="matrix(0.9233 -0.384 0.384 0.9233 -0.9514 9.42)" class="st1" width="1" height="4.6"/>
	
		<rect x="15.933" y="9.395" transform="matrix(0.705 -0.7092 0.7092 0.705 -3.4466 15.1036)" class="st1" width="1" height="4.601"/>
	
		<rect x="11.532" y="16.21" transform="matrix(0.3788 -0.9255 0.9255 0.3788 -9.6566 22.6343)" class="st1" width="1" height="4.6"/>
	
		<rect x="38.586" y="6.592" transform="matrix(0.3836 -0.9235 0.9235 0.3836 18.6506 42.1292)" class="st1" width="4.6" height="1"/>
	
		<rect x="45.267" y="11.195" transform="matrix(0.7091 -0.7052 0.7052 0.7091 5.5924 36.9444)" class="st1" width="4.601" height="1"/>
	<rect x="49.668" y="18.01" transform="matrix(0.9255 -0.3788 0.3788 0.9255 -3.139 21.0641)" class="st1" width="4.6" height="1"/>
	<polygon class="st0" points="38.137,24.593 35.57,22.025 27.232,30.364 22.955,26.087 20.387,28.654 27.234,35.5 	"/>
	<path class="st1" d="M27.233,36c-0.133,0-0.26-0.053-0.354-0.146l-6.846-6.846c-0.094-0.094-0.146-0.221-0.146-0.354
		s0.053-0.26,0.146-0.354l2.567-2.567c0.195-0.195,0.512-0.195,0.707,0l3.923,3.923l7.985-7.985c0.195-0.195,0.512-0.195,0.707,0
		l2.567,2.567c0.195,0.195,0.195,0.512,0,0.707L27.587,35.854C27.493,35.947,27.366,36,27.233,36z M21.095,28.654l6.139,6.139
		l10.197-10.2l-1.86-1.86l-7.985,7.985c-0.094,0.094-0.221,0.146-0.354,0.146l0,0c-0.133,0-0.26-0.053-0.354-0.146l-3.923-3.923
		L21.095,28.654z"/>
</g>
</svg>
