<?xml version="1.0" encoding="iso-8859-1"?>
<!-- Generator: Adobe Illustrator 22.0.1, SVG Export Plug-In . SVG Version: 6.00 Build 0)  -->
<svg version="1.1" id="Layer_1" xmlns="http://www.w3.org/2000/svg" xmlns:xlink="http://www.w3.org/1999/xlink" x="0px" y="0px"
	 viewBox="0 0 64 64" style="enable-background:new 0 0 64 64;" xml:space="preserve">
<style type="text/css">
	.st0{fill:#F8F3F3;}
	.st1{fill:#63312D;}
	.st2{fill:#E1DDDD;}
	.st3{fill:#84DBFF;}
	.st4{fill:#CAF4FF;}
	.st5{fill:#52BADB;}
	.st6{fill:#F9DD9D;}
	.st7{fill:#FFEECF;}
	.st8{fill:#EFC36A;}
	.st9{fill:#F7A085;}
	.st10{fill:#82D9FF;}
	.st11{fill:#F7DB9B;}
	.st12{fill:#F9A287;}
	.st13{fill:#FFC8BB;}
	.st14{fill:#52B8D9;}
	.st15{fill:#DB785A;}
	.st16{fill:#EDCB85;}
	.st17{fill:#DBAB56;}
	.st18{fill:#D3A553;}
	.st19{fill:#FFFFFF;}
</style>
<g>
	<polygon class="st10" points="49.173,56.908 9.139,56.908 9.139,22.891 29.156,12.042 49.173,22.891 	"/>
	<polygon class="st4" points="11.125,21.814 9.139,22.891 9.139,56.908 11.125,56.908 	"/>
	<polygon class="st14" points="29.156,12.042 9.139,22.891 9.139,25.207 29.156,14.359 49.173,25.207 49.173,22.891 	"/>
	<polygon class="st14" points="32.792,12.042 30.974,13.028 49.173,22.891 49.173,56.908 52.809,56.908 52.809,22.891 	"/>
	<path class="st1" d="M52.809,57.408h-3.636c-0.276,0-0.5-0.224-0.5-0.5V23.188l-17.937-9.721c-0.161-0.087-0.262-0.256-0.262-0.439
		s0.101-0.352,0.262-0.439l1.818-0.985c0.148-0.081,0.328-0.081,0.477,0l20.017,10.848c0.161,0.087,0.262,0.256,0.262,0.439v34.017
		C53.309,57.184,53.085,57.408,52.809,57.408z M49.673,56.408h2.636V23.188L32.792,12.611l-0.769,0.417l17.388,9.423
		c0.161,0.087,0.262,0.256,0.262,0.439V56.408z"/>
	<polygon class="st11" points="19.964,50.135 18.309,48.48 16.653,46.824 39.547,23.93 42.858,27.241 	"/>
	<path class="st1" d="M19.964,50.635c-0.133,0-0.26-0.053-0.354-0.146l-3.312-3.312c-0.094-0.094-0.146-0.221-0.146-0.354
		s0.053-0.26,0.146-0.354l22.894-22.894c0.195-0.195,0.512-0.195,0.707,0l3.311,3.311c0.195,0.195,0.195,0.512,0,0.707
		L20.318,50.489C20.224,50.583,20.097,50.635,19.964,50.635z M17.36,46.824l2.604,2.604l22.187-22.187l-2.604-2.604L17.36,46.824z"
		/>
	
		<rect x="37.845" y="25.546" transform="matrix(0.7071 -0.7071 0.7071 0.7071 -7.5401 34.8894)" class="st1" width="1" height="2.001"/>
	
		<rect x="36.095" y="27.296" transform="matrix(0.7071 -0.7071 0.7071 0.7071 -9.2906 34.1643)" class="st1" width="1" height="2.001"/>
	
		<rect x="34.344" y="29.047" transform="matrix(0.7071 -0.7071 0.7071 0.7071 -11.0411 33.4393)" class="st1" width="1" height="2.001"/>
	
		<rect x="32.594" y="30.798" transform="matrix(0.7071 -0.7071 0.7071 0.7071 -12.7918 32.7141)" class="st1" width="1" height="2"/>
	<rect x="30.843" y="32.548" transform="matrix(0.7071 -0.7071 0.7071 0.7071 -14.5423 31.989)" class="st1" width="1" height="2"/>
	
		<rect x="29.093" y="34.299" transform="matrix(0.7071 -0.7071 0.7071 0.7071 -16.2928 31.2639)" class="st1" width="1" height="2"/>
	
		<rect x="27.342" y="36.049" transform="matrix(0.7071 -0.7071 0.7071 0.7071 -18.0435 30.5388)" class="st1" width="1" height="2.001"/>
	
		<rect x="25.591" y="37.8" transform="matrix(0.7071 -0.7071 0.7071 0.7071 -19.794 29.8137)" class="st1" width="1" height="2.001"/>
	
		<rect x="23.841" y="39.55" transform="matrix(0.7071 -0.7071 0.7071 0.7071 -21.5445 29.0886)" class="st1" width="1" height="2.001"/>
	
		<rect x="22.09" y="41.301" transform="matrix(0.7071 -0.7071 0.7071 0.7071 -23.295 28.3635)" class="st1" width="1" height="2.001"/>
	
		<rect x="20.34" y="43.051" transform="matrix(0.7071 -0.7071 0.7071 0.7071 -25.0454 27.6385)" class="st1" width="1" height="2.001"/>
	
		<rect x="18.589" y="44.802" transform="matrix(0.7071 -0.7071 0.7071 0.7071 -26.7962 26.9133)" class="st1" width="1" height="2"/>
	<polygon class="st9" points="40.119,44.655 41.955,49.502 37.108,47.666 16.533,27.091 19.544,24.081 	"/>
	<polygon class="st0" points="37.108,47.666 41.955,49.502 40.119,44.655 	"/>
	
		<rect x="17.866" y="24.775" transform="matrix(0.7071 -0.7071 0.7071 0.7071 -13.6189 22.2056)" class="st11" width="4.257" height="5.534"/>
	<path class="st1" d="M41.955,50.002c-0.06,0-0.12-0.011-0.177-0.032l-4.847-1.837c-0.066-0.025-0.126-0.064-0.176-0.114
		L16.18,27.444c-0.094-0.094-0.146-0.221-0.146-0.354s0.053-0.26,0.146-0.354l3.01-3.01c0.195-0.195,0.512-0.195,0.707,0
		l20.575,20.575c0.05,0.05,0.089,0.11,0.114,0.176l1.836,4.847c0.069,0.184,0.025,0.392-0.114,0.531
		C42.213,49.952,42.085,50.002,41.955,50.002z M37.386,47.236l3.708,1.406l-1.405-3.708L19.543,24.788l-2.303,2.303L37.386,47.236z"
		/>
	
		<rect x="36.485" y="45.66" transform="matrix(0.7071 -0.7071 0.7071 0.7071 -21.3307 40.824)" class="st1" width="4.257" height="1"/>
	
		<rect x="19.823" y="28.999" transform="matrix(0.7071 -0.7071 0.7071 0.7071 -14.4294 24.1624)" class="st1" width="4.257" height="1"/>
	
		<rect x="29.82" y="26.033" transform="matrix(0.7071 -0.7071 0.7071 0.7071 -17.8959 32.5309)" class="st1" width="1" height="23.67"/>
	<path class="st1" d="M49.173,57.408H9.139c-0.276,0-0.5-0.224-0.5-0.5V22.891c0-0.184,0.101-0.352,0.262-0.439l20.017-10.848
		c0.148-0.081,0.328-0.081,0.477,0l20.017,10.848c0.161,0.087,0.262,0.256,0.262,0.439v34.017
		C49.673,57.184,49.449,57.408,49.173,57.408z M9.639,56.408h39.034V23.188L29.156,12.611L9.639,23.188V56.408z"/>
	<path class="st9" d="M51.99,24.418L29.156,12.042L6.321,24.418c-1.45,0.786-3.213-0.264-3.213-1.913v0
		c0-0.798,0.437-1.533,1.139-1.913l24.908-13.5l24.908,13.5c0.702,0.38,1.139,1.115,1.139,1.913v0
		C55.203,24.154,53.44,25.204,51.99,24.418z"/>
	<g>
		<path class="st13" d="M4.588,23.255c0-0.798,0.437-1.533,1.139-1.913l24.86-13.474l-1.432-0.776l-24.908,13.5
			c-0.702,0.38-1.139,1.115-1.139,1.913c0,1.206,0.945,2.083,2.018,2.164C4.802,24.296,4.588,23.815,4.588,23.255z"/>
	</g>
	<path class="st1" d="M53.028,25.184c-0.437,0-0.874-0.108-1.276-0.327l0,0L29.156,12.611L6.56,24.857
		c-0.838,0.454-1.828,0.434-2.644-0.054c-0.818-0.487-1.307-1.347-1.307-2.299c0-0.983,0.537-1.885,1.401-2.353l24.908-13.5
		c0.148-0.081,0.328-0.081,0.477,0l24.909,13.5c0.864,0.468,1.401,1.37,1.401,2.353c0,0.952-0.489,1.812-1.307,2.299
		C53.972,25.057,53.5,25.184,53.028,25.184z M52.229,23.979c0.524,0.283,1.144,0.271,1.656-0.034
		c0.512-0.305,0.818-0.844,0.818-1.44c0-0.616-0.336-1.18-0.877-1.474l-24.67-13.37l-24.67,13.37
		c-0.542,0.293-0.877,0.858-0.877,1.474c0,0.596,0.306,1.135,0.818,1.44c0.514,0.305,1.132,0.317,1.656,0.034l22.834-12.375
		c0.148-0.081,0.328-0.081,0.477,0L52.229,23.979z"/>
	<path class="st15" d="M59.752,20.592l-24.908-13.5h-5.688l24.908,13.5c0.702,0.38,1.139,1.115,1.139,1.913
		c0,1.23-0.98,2.124-2.08,2.174c1.023,0.002,5.311,0.009,5.624,0.004c1.126-0.018,2.144-0.925,2.144-2.179
		C60.892,21.706,60.454,20.972,59.752,20.592z"/>
	<path class="st1" d="M57.921,25.185c-1.379,0-4.024-0.004-4.799-0.006c-0.271,0-0.493-0.218-0.499-0.489
		c-0.006-0.271,0.206-0.498,0.477-0.511c0.788-0.036,1.603-0.673,1.603-1.675c0-0.616-0.336-1.18-0.877-1.474l-24.909-13.5
		c-0.201-0.109-0.303-0.34-0.247-0.563c0.057-0.222,0.256-0.377,0.485-0.377h5.688c0.083,0,0.165,0.021,0.238,0.061l24.908,13.5
		c0.864,0.468,1.401,1.37,1.401,2.353c0,1.454-1.183,2.656-2.637,2.679C58.679,25.185,58.366,25.185,57.921,25.185z M55.114,24.183
		c1.566,0.002,3.424,0.006,3.625,0.001c0.794-0.012,1.652-0.658,1.652-1.679c0-0.616-0.336-1.18-0.877-1.474l0,0L34.717,7.592
		h-3.589l23.175,12.56c0.864,0.468,1.401,1.37,1.401,2.353C55.704,23.139,55.483,23.723,55.114,24.183z"/>
	<path class="st1" d="M53.063,25.179c-0.005,0-0.01,0-0.015,0l-0.149,0c-0.101-0.001-0.2-0.032-0.283-0.09
		c-0.184-0.129-0.273-0.374-0.198-0.585c0.074-0.212,0.251-0.353,0.493-0.342c0.011,0.001,0.099,0.011,0.11,0.012l0.049,0.005
		c0.274,0,0.497,0.22,0.5,0.494s-0.215,0.5-0.489,0.506C53.075,25.179,53.069,25.179,53.063,25.179z"/>
</g>
</svg>
