<?xml version="1.0" encoding="iso-8859-1"?>
<!-- Generator: Adobe Illustrator 22.0.1, SVG Export Plug-In . SVG Version: 6.00 Build 0)  -->
<svg version="1.1" id="Layer_1" xmlns="http://www.w3.org/2000/svg" xmlns:xlink="http://www.w3.org/1999/xlink" x="0px" y="0px"
	 viewBox="0 0 64 64" style="enable-background:new 0 0 64 64;" xml:space="preserve">
<style type="text/css">
	.st0{fill:#F8F3F3;}
	.st1{fill:#63312D;}
	.st2{fill:#E1DDDD;}
	.st3{fill:#84DBFF;}
	.st4{fill:#CAF4FF;}
	.st5{fill:#52BADB;}
	.st6{fill:#F9DD9D;}
	.st7{fill:#FFEECF;}
	.st8{fill:#EFC36A;}
	.st9{fill:#F7A085;}
	.st10{fill:#82D9FF;}
	.st11{fill:#F7DB9B;}
	.st12{fill:#F9A287;}
	.st13{fill:#FFC8BB;}
	.st14{fill:#52B8D9;}
	.st15{fill:#DB785A;}
	.st16{fill:#EDCB85;}
	.st17{fill:#DBAB56;}
	.st18{fill:#D3A553;}
	.st19{fill:#FFFFFF;}
</style>
<g>
	<polygon class="st0" points="59.39,42.292 32,57.45 4.61,42.292 32,27.134 	"/>
	<path class="st1" d="M32,57.95c-0.083,0-0.167-0.021-0.242-0.063L4.367,42.729c-0.159-0.088-0.258-0.256-0.258-0.438
		s0.099-0.35,0.258-0.438l27.391-15.158c0.15-0.084,0.334-0.084,0.484,0l27.391,15.158c0.159,0.088,0.258,0.256,0.258,0.438
		s-0.099,0.35-0.258,0.438L32.242,57.888C32.167,57.93,32.083,57.95,32,57.95z M5.642,42.292L32,56.879l26.358-14.587L32,27.705
		L5.642,42.292z"/>
	<polygon class="st2" points="32,57.45 4.61,42.292 4.61,45.734 32,60.892 59.39,45.734 59.39,42.292 	"/>
	<path class="st1" d="M32,61.392c-0.083,0-0.167-0.021-0.242-0.063L4.367,46.171c-0.159-0.088-0.258-0.256-0.258-0.438v-3.441
		c0-0.177,0.094-0.341,0.246-0.431c0.151-0.09,0.341-0.094,0.496-0.007L32,56.879l27.148-15.024
		c0.155-0.086,0.345-0.082,0.496,0.007c0.152,0.09,0.246,0.254,0.246,0.431v3.441c0,0.182-0.099,0.35-0.258,0.438L32.242,61.329
		C32.167,61.371,32.083,61.392,32,61.392z M5.109,45.438L32,60.32l26.891-14.882v-2.298L32.242,57.888
		c-0.15,0.084-0.334,0.084-0.484,0L5.109,43.141V45.438z"/>
	<polygon class="st3" points="59.39,30.279 32,45.437 4.61,30.279 32,15.121 	"/>
	<polygon class="st4" points="8.385,30.279 33.887,16.166 32,15.121 4.61,30.279 32,45.437 33.887,44.392 	"/>
	<path class="st1" d="M32,45.937c-0.083,0-0.167-0.021-0.242-0.063L4.367,30.717c-0.159-0.088-0.258-0.256-0.258-0.438
		s0.099-0.35,0.258-0.438l27.391-15.158c0.15-0.084,0.334-0.084,0.484,0l27.391,15.158c0.159,0.088,0.258,0.256,0.258,0.438
		s-0.099,0.35-0.258,0.438L32.242,45.874C32.167,45.916,32.083,45.937,32,45.937z M5.642,30.279L32,44.865l26.358-14.586L32,15.692
		L5.642,30.279z"/>
	<polygon class="st5" points="32,45.437 4.61,30.279 4.61,33.721 32,48.879 59.39,33.721 59.39,30.279 	"/>
	<path class="st1" d="M32,49.379c-0.083,0-0.167-0.021-0.242-0.063L4.367,34.158c-0.159-0.088-0.258-0.256-0.258-0.438v-3.441
		c0-0.177,0.094-0.341,0.246-0.431c0.151-0.09,0.341-0.094,0.496-0.007L32,44.865l27.148-15.023
		c0.155-0.086,0.345-0.082,0.496,0.007c0.152,0.09,0.246,0.254,0.246,0.431v3.441c0,0.182-0.099,0.35-0.258,0.438L32.242,49.316
		C32.167,49.358,32.083,49.379,32,49.379z M5.109,33.426L32,48.308l26.891-14.882v-2.299L32.242,45.874
		c-0.15,0.084-0.334,0.084-0.484,0L5.109,31.127V33.426z"/>
	<polygon class="st6" points="59.39,18.266 32,33.424 4.61,18.266 32,3.108 	"/>
	<polygon class="st7" points="8.869,18.266 34.13,4.287 32,3.108 4.61,18.266 32,33.424 34.13,32.246 	"/>
	<path class="st1" d="M32,33.924c-0.083,0-0.167-0.021-0.242-0.063L4.367,18.704c-0.159-0.088-0.258-0.256-0.258-0.438
		s0.099-0.35,0.258-0.438L31.758,2.671c0.15-0.084,0.334-0.084,0.484,0l27.391,15.158c0.159,0.088,0.258,0.256,0.258,0.438
		s-0.099,0.35-0.258,0.438L32.242,33.861C32.167,33.903,32.083,33.924,32,33.924z M5.642,18.267L32,32.853l26.358-14.586L32,3.68
		L5.642,18.267z"/>
	<polygon class="st8" points="32,33.424 4.61,18.266 4.61,21.708 32,36.866 59.39,21.708 59.39,18.266 	"/>
	<path class="st1" d="M32,37.366c-0.083,0-0.167-0.021-0.242-0.063L4.367,22.146c-0.159-0.088-0.258-0.256-0.258-0.438v-3.441
		c0-0.177,0.094-0.341,0.246-0.431c0.151-0.09,0.341-0.095,0.496-0.007L32,32.853l27.148-15.023
		c0.155-0.086,0.345-0.082,0.496,0.007c0.152,0.09,0.246,0.254,0.246,0.431v3.441c0,0.182-0.099,0.35-0.258,0.438L32.242,37.304
		C32.167,37.346,32.083,37.366,32,37.366z M5.109,21.413L32,36.295l26.891-14.882v-2.299L32.242,33.861
		c-0.15,0.084-0.334,0.084-0.484,0L5.109,19.114V21.413z"/>
</g>
</svg>
