<?xml version="1.0" encoding="iso-8859-1"?>
<!-- Generator: Adobe Illustrator 22.0.1, SVG Export Plug-In . SVG Version: 6.00 Build 0)  -->
<svg version="1.1" id="Layer_1" xmlns="http://www.w3.org/2000/svg" xmlns:xlink="http://www.w3.org/1999/xlink" x="0px" y="0px"
	 viewBox="0 0 64 64" style="enable-background:new 0 0 64 64;" xml:space="preserve">
<style type="text/css">
	.st0{fill:#F8F3F3;}
	.st1{fill:#63312D;}
	.st2{fill:#E1DDDD;}
	.st3{fill:#84DBFF;}
	.st4{fill:#CAF4FF;}
	.st5{fill:#52BADB;}
	.st6{fill:#F9DD9D;}
	.st7{fill:#FFEECF;}
	.st8{fill:#EFC36A;}
	.st9{fill:#F7A085;}
	.st10{fill:#82D9FF;}
	.st11{fill:#F7DB9B;}
	.st12{fill:#F9A287;}
	.st13{fill:#FFC8BB;}
	.st14{fill:#52B8D9;}
	.st15{fill:#DB785A;}
	.st16{fill:#EDCB85;}
	.st17{fill:#DBAB56;}
	.st18{fill:#D3A553;}
	.st19{fill:#FFFFFF;}
</style>
<g>
	<path class="st1" d="M54.397,56.889H3.108c-0.276,0-0.5-0.224-0.5-0.5V5.1c0-0.276,0.224-0.5,0.5-0.5h51.289
		c0.276,0,0.5,0.224,0.5,0.5v51.289C54.897,56.665,54.674,56.889,54.397,56.889z M3.608,55.889h50.289V5.6H3.608V55.889z"/>
	<rect x="3.108" y="5.1" class="st10" width="51.289" height="51.289"/>
	<polygon class="st4" points="5.242,7.167 54.397,7.167 54.397,5.1 3.108,5.1 3.108,56.389 5.242,56.389 	"/>
	<path class="st1" d="M54.397,56.889H3.108c-0.276,0-0.5-0.224-0.5-0.5V5.1c0-0.276,0.224-0.5,0.5-0.5h51.289
		c0.276,0,0.5,0.224,0.5,0.5v51.289C54.897,56.665,54.674,56.889,54.397,56.889z M3.608,55.889h50.289V5.6H3.608V55.889z"/>
	<rect x="54.397" y="5.1" class="st14" width="6.494" height="51.289"/>
	<path class="st1" d="M60.892,56.889h-6.494c-0.276,0-0.5-0.224-0.5-0.5V5.1c0-0.276,0.224-0.5,0.5-0.5h6.494
		c0.276,0,0.5,0.224,0.5,0.5v51.289C61.392,56.665,61.168,56.889,60.892,56.889z M54.897,55.889h5.494V5.6h-5.494V55.889z"/>
	<circle class="st0" cx="24.984" cy="26.075" r="10.052"/>
	<path class="st1" d="M24.984,36.627c-5.818,0-10.552-4.734-10.552-10.552s4.734-10.552,10.552-10.552s10.552,4.734,10.552,10.552
		S30.802,36.627,24.984,36.627z M24.984,16.522c-5.267,0-9.552,4.285-9.552,9.552s4.285,9.552,9.552,9.552s9.552-4.285,9.552-9.552
		S30.251,16.522,24.984,16.522z"/>
	<path class="st1" d="M15.432,55.1h-1v-2h1V55.1z M15.432,51.1h-1v-2h1V51.1z M15.432,47.1h-1v-2h1V47.1z M15.432,43.1h-1v-2h1V43.1
		z M15.432,39.1h-1v-2h1V39.1z M15.432,35.1h-1v-2h1V35.1z M15.432,31.1h-1v-2h1V31.1z M15.432,27.1h-1v-2h1V27.1z M15.432,23.1h-1
		v-2h1V23.1z M15.432,19.1h-1v-2h1V19.1z M15.432,15.1h-1v-2h1V15.1z M15.432,11.1h-1v-2h1V11.1z M15.432,7.1h-1v-2h1V7.1z"/>
	<path class="st1" d="M53.108,16.522h-2v-1h2V16.522z M49.108,16.522h-2v-1h2V16.522z M45.108,16.522h-2v-1h2V16.522z
		 M41.108,16.522h-2v-1h2V16.522z M37.108,16.522h-2v-1h2V16.522z M33.108,16.522h-2v-1h2V16.522z M29.108,16.522h-2v-1h2V16.522z
		 M25.108,16.522h-2v-1h2V16.522z M21.108,16.522h-2v-1h2V16.522z M17.108,16.522h-2v-1h2V16.522z M13.108,16.522h-2v-1h2V16.522z
		 M9.108,16.522h-2v-1h2V16.522z M5.108,16.522h-2v-1h2V16.522z"/>
	<path class="st1" d="M53.108,36.627h-2v-1h2V36.627z M49.108,36.627h-2v-1h2V36.627z M45.108,36.627h-2v-1h2V36.627z
		 M41.108,36.627h-2v-1h2V36.627z M37.108,36.627h-2v-1h2V36.627z M33.108,36.627h-2v-1h2V36.627z M29.108,36.627h-2v-1h2V36.627z
		 M25.108,36.627h-2v-1h2V36.627z M21.108,36.627h-2v-1h2V36.627z M17.108,36.627h-2v-1h2V36.627z M13.108,36.627h-2v-1h2V36.627z
		 M9.108,36.627h-2v-1h2V36.627z M5.108,36.627h-2v-1h2V36.627z"/>
	<circle class="st11" cx="37.801" cy="26.075" r="7.201"/>
	<path class="st1" d="M37.801,33.775c-4.246,0-7.701-3.455-7.701-7.701s3.455-7.701,7.701-7.701s7.701,3.455,7.701,7.701
		S42.047,33.775,37.801,33.775z M37.801,19.374c-3.695,0-6.701,3.006-6.701,6.701s3.006,6.701,6.701,6.701s6.701-3.006,6.701-6.701
		S41.496,19.374,37.801,19.374z"/>
	<rect x="29.066" y="53.877" class="st9" width="17.468" height="5.023"/>
	<path class="st1" d="M46.535,59.4H29.066c-0.276,0-0.5-0.224-0.5-0.5v-5.023c0-0.276,0.224-0.5,0.5-0.5h17.468
		c0.276,0,0.5,0.224,0.5,0.5V58.9C47.035,59.177,46.811,59.4,46.535,59.4z M29.566,58.4h16.468v-4.023H29.566V58.4z"/>
	<polygon class="st0" points="37.801,33.276 29.866,47.344 33.6,53.877 37.801,53.877 42.001,53.877 45.735,47.344 	"/>
	<path class="st1" d="M42.001,54.377H33.6c-0.179,0-0.345-0.096-0.434-0.252l-3.733-6.534c-0.087-0.153-0.088-0.34-0.001-0.494
		l7.934-14.068c0.178-0.314,0.693-0.314,0.871,0l7.934,14.068c0.086,0.153,0.086,0.341-0.001,0.494l-3.734,6.534
		C42.346,54.281,42.18,54.377,42.001,54.377z M33.89,53.377h7.821l3.449-6.035l-7.359-13.049l-7.359,13.049L33.89,53.377z"/>
	<rect x="37.301" y="33.275" class="st1" width="1" height="11.035"/>
	<circle class="st9" cx="37.801" cy="46.443" r="1.9"/>
	<path class="st1" d="M37.801,48.844c-1.324,0-2.4-1.077-2.4-2.4c0-1.323,1.077-2.4,2.4-2.4c1.323,0,2.4,1.077,2.4,2.4
		C40.201,47.767,39.124,48.844,37.801,48.844z M37.801,45.043c-0.772,0-1.4,0.628-1.4,1.4s0.628,1.4,1.4,1.4s1.4-0.628,1.4-1.4
		S38.573,45.043,37.801,45.043z"/>
</g>
</svg>
