<?xml version="1.0" encoding="iso-8859-1"?>
<!-- Generator: Adobe Illustrator 22.0.1, SVG Export Plug-In . SVG Version: 6.00 Build 0)  -->
<svg version="1.1" id="Layer_1" xmlns="http://www.w3.org/2000/svg" xmlns:xlink="http://www.w3.org/1999/xlink" x="0px" y="0px"
	 viewBox="0 0 64 64" style="enable-background:new 0 0 64 64;" xml:space="preserve">
<style type="text/css">
	.st0{fill:#F8F3F3;}
	.st1{fill:#63312D;}
	.st2{fill:#E1DDDD;}
	.st3{fill:#84DBFF;}
	.st4{fill:#CAF4FF;}
	.st5{fill:#52BADB;}
	.st6{fill:#F9DD9D;}
	.st7{fill:#FFEECF;}
	.st8{fill:#EFC36A;}
	.st9{fill:#F7A085;}
	.st10{fill:#82D9FF;}
	.st11{fill:#F7DB9B;}
	.st12{fill:#F9A287;}
	.st13{fill:#FFC8BB;}
	.st14{fill:#52B8D9;}
	.st15{fill:#DB785A;}
	.st16{fill:#EDCB85;}
	.st17{fill:#DBAB56;}
	.st18{fill:#D3A553;}
	.st19{fill:#FFFFFF;}
</style>
<g>
	<rect x="16.698" y="7.778" class="st0" width="35.995" height="48.445"/>
	<path class="st1" d="M52.692,56.722H16.697c-0.276,0-0.5-0.224-0.5-0.5V7.778c0-0.276,0.224-0.5,0.5-0.5h35.995
		c0.276,0,0.5,0.224,0.5,0.5v48.444C53.192,56.499,52.969,56.722,52.692,56.722z M17.197,55.722h34.995V8.278H17.197V55.722z"/>
	<rect x="52.693" y="7.778" class="st14" width="3.338" height="48.445"/>
	<path class="st1" d="M56.03,56.722h-3.338c-0.276,0-0.5-0.224-0.5-0.5V7.778c0-0.276,0.224-0.5,0.5-0.5h3.338
		c0.276,0,0.5,0.224,0.5,0.5v48.444C56.53,56.499,56.307,56.722,56.03,56.722z M53.192,55.722h2.338V8.278h-2.338V55.722z"/>
	<path class="st10" d="M16.698,56.222c0-2.41-1.954-4.364-4.364-4.364s-4.364,1.954-4.364,4.364s1.954,4.364,4.364,4.364h31.879
		v-4.364H16.698z"/>
	<path class="st1" d="M44.213,61.086h-31.88c-2.682,0-4.863-2.182-4.863-4.864s2.182-4.864,4.863-4.864
		c2.514,0,4.588,1.916,4.839,4.364h27.041c0.276,0,0.5,0.224,0.5,0.5v4.364C44.713,60.863,44.489,61.086,44.213,61.086z
		 M12.333,52.358c-2.13,0-3.863,1.733-3.863,3.864c0,2.131,1.733,3.864,3.863,3.864h31.38v-3.364H16.697c-0.276,0-0.5-0.224-0.5-0.5
		C16.197,54.092,14.464,52.358,12.333,52.358z"/>
	<rect x="44.213" y="56.222" class="st14" width="2.526" height="4.364"/>
	<path class="st1" d="M46.738,61.086h-2.525c-0.276,0-0.5-0.224-0.5-0.5v-4.364c0-0.276,0.224-0.5,0.5-0.5h2.525
		c0.276,0,0.5,0.224,0.5,0.5v4.364C47.238,60.863,47.015,61.086,46.738,61.086z M44.713,60.086h1.525v-3.364h-1.525V60.086z"/>
	<path class="st10" d="M12.333,51.858c2.41,0,4.364,1.954,4.364,4.364V7.778c0-2.41-1.954-4.364-4.364-4.364
		S7.969,5.367,7.969,7.778v48.445C7.969,53.812,9.923,51.858,12.333,51.858z"/>
	<g>
		<g>
			<g>
				<path class="st4" d="M9.803,8.778c0-2.41,1.954-4.364,4.364-4.364c0.386,0,0.753,0.066,1.109,0.16
					c-0.777-0.714-1.804-1.16-2.943-1.16c-2.41,0-4.364,1.954-4.364,4.364v48.445c0-1.464,0.727-2.752,1.833-3.544V8.778z"/>
			</g>
		</g>
	</g>
	<path class="st1" d="M16.697,56.722c-0.276,0-0.5-0.224-0.5-0.5c0-2.13-1.733-3.864-3.864-3.864c-2.13,0-3.863,1.733-3.863,3.864
		c0,0.276-0.224,0.5-0.5,0.5s-0.5-0.224-0.5-0.5V7.778c0-2.682,2.182-4.864,4.863-4.864c2.683,0,4.864,2.182,4.864,4.864v48.444
		C17.197,56.499,16.974,56.722,16.697,56.722z M12.333,51.358c1.573,0,2.975,0.75,3.864,1.913V7.778
		c0-2.131-1.733-3.864-3.864-3.864c-2.13,0-3.863,1.733-3.863,3.864v45.493C9.359,52.109,10.76,51.358,12.333,51.358z"/>
	<rect x="22.198" y="13.188" class="st12" width="26.75" height="6.25"/>
	<path class="st1" d="M48.948,19.938h-26.75c-0.276,0-0.5-0.224-0.5-0.5v-6.25c0-0.276,0.224-0.5,0.5-0.5h26.75
		c0.276,0,0.5,0.224,0.5,0.5v6.25C49.448,19.714,49.225,19.938,48.948,19.938z M22.698,18.938h25.75v-5.25h-25.75V18.938z"/>
	<rect x="22.198" y="22.979" class="st1" width="26.75" height="1"/>
	<rect x="22.198" y="26.396" class="st1" width="26.75" height="1"/>
	<rect x="22.198" y="29.813" class="st1" width="13.375" height="1"/>
	<rect x="22.198" y="33.229" class="st1" width="13.375" height="1"/>
	<rect x="22.198" y="36.646" class="st1" width="13.375" height="1"/>
	<rect x="22.198" y="40.063" class="st1" width="13.375" height="1"/>
	<rect x="22.198" y="43.479" class="st1" width="26.75" height="1"/>
	<rect x="22.198" y="46.896" class="st1" width="26.75" height="1"/>
	<rect x="22.198" y="50.313" class="st1" width="26.75" height="1"/>
	<rect x="38.115" y="30.313" class="st11" width="10.25" height="10.25"/>
	<path class="st1" d="M48.364,41.063h-10.25c-0.276,0-0.5-0.224-0.5-0.5v-10.25c0-0.276,0.224-0.5,0.5-0.5h10.25
		c0.276,0,0.5,0.224,0.5,0.5v10.25C48.864,40.839,48.641,41.063,48.364,41.063z M38.614,40.063h9.25v-9.25h-9.25V40.063z"/>
</g>
</svg>
