<?xml version="1.0" encoding="iso-8859-1"?>
<!-- Generator: Adobe Illustrator 22.0.1, SVG Export Plug-In . SVG Version: 6.00 Build 0)  -->
<svg version="1.1" id="Layer_1" xmlns="http://www.w3.org/2000/svg" xmlns:xlink="http://www.w3.org/1999/xlink" x="0px" y="0px"
	 viewBox="0 0 64 64" style="enable-background:new 0 0 64 64;" xml:space="preserve">
<style type="text/css">
	.st0{fill:#F8F3F3;}
	.st1{fill:#63312D;}
	.st2{fill:#E1DDDD;}
	.st3{fill:#84DBFF;}
	.st4{fill:#CAF4FF;}
	.st5{fill:#52BADB;}
	.st6{fill:#F9DD9D;}
	.st7{fill:#FFEECF;}
	.st8{fill:#EFC36A;}
	.st9{fill:#F7A085;}
	.st10{fill:#82D9FF;}
	.st11{fill:#F7DB9B;}
	.st12{fill:#F9A287;}
	.st13{fill:#FFC8BB;}
	.st14{fill:#52B8D9;}
	.st15{fill:#DB785A;}
	.st16{fill:#EDCB85;}
	.st17{fill:#DBAB56;}
	.st18{fill:#D3A553;}
	.st19{fill:#FFFFFF;}
</style>
<g>
	<path class="st6" d="M7.892,34.784v22.562c0,1.958,1.587,3.545,3.545,3.545h18.977c1.958,0,3.545-1.587,3.545-3.545V34.784H7.892z"
		/>
	<path class="st7" d="M9.829,57.346V34.784H7.892v22.562c0,1.958,1.587,3.545,3.545,3.545h1.938
		C11.416,60.892,9.829,59.304,9.829,57.346z"/>
	<rect x="7.892" y="34.784" class="st8" width="26.067" height="1.633"/>
	<rect x="7.892" y="39.528" class="st0" width="26.067" height="3.94"/>
	<path class="st1" d="M30.414,61.392H11.437c-2.23,0-4.045-1.814-4.045-4.045V34.784c0-0.276,0.224-0.5,0.5-0.5h26.067
		c0.276,0,0.5,0.224,0.5,0.5v22.563C34.459,59.577,32.644,61.392,30.414,61.392z M8.392,35.284v22.063
		c0,1.679,1.366,3.045,3.045,3.045h18.977c1.679,0,3.045-1.366,3.045-3.045V35.284H8.392z"/>
	<path class="st6" d="M36.321,30H5.53c-1.321,0-2.392,1.071-2.392,2.392c0,1.321,1.071,2.392,2.392,2.392h30.791
		c1.321,0,2.392-1.071,2.392-2.392C38.713,31.071,37.642,30,36.321,30z"/>
	<path class="st7" d="M4.096,34.024c0-1.321,1.071-2.392,2.392-2.392h30.791c0.526,0,1.009,0.175,1.404,0.463
		C38.536,30.916,37.54,30,36.321,30H5.53c-1.321,0-2.392,1.071-2.392,2.392c0,0.795,0.392,1.494,0.988,1.929
		C4.113,34.223,4.096,34.126,4.096,34.024z"/>
	<path class="st1" d="M36.32,35.284H5.53c-1.595,0-2.892-1.298-2.892-2.893S3.935,29.5,5.53,29.5H36.32
		c1.595,0,2.893,1.297,2.893,2.892S37.915,35.284,36.32,35.284z M5.53,30.5c-1.043,0-1.892,0.849-1.892,1.892
		c0,1.044,0.849,1.893,1.892,1.893H36.32c1.044,0,1.893-0.849,1.893-1.893c0-1.043-0.849-1.892-1.893-1.892H5.53z"/>
	<rect x="7.892" y="39.028" class="st1" width="26.067" height="1"/>
	<rect x="7.892" y="42.968" class="st1" width="26.067" height="1"/>
	
		<rect x="42.391" y="5.374" transform="matrix(0.7071 -0.7071 0.7071 0.7071 -3.098 39.2)" class="st10" width="6.758" height="35.931"/>
	<path class="st1" d="M56.084,38.933c-0.128,0-0.256-0.049-0.354-0.146L30.323,13.379c-0.195-0.195-0.195-0.512,0-0.707l4.778-4.778
		c0.195-0.195,0.512-0.195,0.707,0l25.407,25.407c0.195,0.195,0.195,0.512,0,0.707l-4.778,4.778
		C56.34,38.884,56.212,38.933,56.084,38.933z M31.384,13.025l24.7,24.7l4.071-4.071l-24.7-24.7L31.384,13.025z"/>
	
		<rect x="35.765" y="16.575" transform="matrix(0.7071 -0.7071 0.7071 0.7071 -0.5885 32.7296)" class="st1" width="6.897" height="1"/>
	<rect x="28.652" y="5.713" transform="matrix(0.7072 -0.707 0.707 0.7072 3.5775 22.6639)" class="st1" width="1" height="2.599"/>
	
		<rect x="32.188" y="3.445" transform="matrix(0.9552 -0.2961 0.2961 0.9552 0.0611 9.8915)" class="st1" width="1" height="2.599"/>
	
		<rect x="35.575" y="3.886" transform="matrix(0.1837 -0.983 0.983 0.1837 25.7892 39.8266)" class="st1" width="2.599" height="0.999"/>
	
		<rect x="39.446" y="5.519" transform="matrix(0.6204 -0.7843 0.7843 0.6204 10.7455 34.2413)" class="st1" width="2.599" height="1.001"/>
	
		<rect x="42.109" y="8.769" transform="matrix(0.9145 -0.4045 0.4045 0.9145 -0.0395 18.3511)" class="st1" width="2.599" height="0.999"/>
	
		<rect x="26.482" y="9.152" transform="matrix(0.2961 -0.9552 0.9552 0.2961 9.0099 33.1282)" class="st1" width="1" height="2.599"/>
	
		<rect x="25.324" y="14.138" transform="matrix(0.983 -0.1837 0.1837 0.983 -2.2359 5.1397)" class="st1" width="2.599" height="0.999"/>
	
		<rect x="26.957" y="18.008" transform="matrix(0.7848 -0.6198 0.6198 0.7848 -5.3894 21.4974)" class="st1" width="2.599" height="1.001"/>
	
		<rect x="30.207" y="20.672" transform="matrix(0.4045 -0.9145 0.9145 0.4045 -0.6001 41.4211)" class="st1" width="2.598" height="0.999"/>
	<path class="st8" d="M33.959,34.784v22.562c0,1.958-1.587,3.545-3.545,3.545h3.199c1.958,0,3.545-1.587,3.545-3.545V34.784H33.959z
		"/>
	<path class="st8" d="M39.52,30h-3.199c1.321,0,2.392,1.071,2.392,2.392c0,1.321-1.071,2.392-2.392,2.392h3.199
		c1.321,0,2.392-1.071,2.392-2.392C41.912,31.071,40.841,30,39.52,30z"/>
	<path class="st1" d="M33.612,61.392h-3.199c-0.276,0-0.5-0.224-0.5-0.5s0.224-0.5,0.5-0.5c1.679,0,3.045-1.366,3.045-3.045V34.784
		c0-0.276,0.224-0.5,0.5-0.5h3.199c0.276,0,0.5,0.224,0.5,0.5v22.563C37.658,59.577,35.843,61.392,33.612,61.392z M33.074,60.392
		h0.538c1.68,0,3.046-1.366,3.046-3.045V35.284h-2.199v22.063C34.459,58.56,33.922,59.649,33.074,60.392z"/>
	<path class="st1" d="M39.52,35.284H36.32c-0.276,0-0.5-0.224-0.5-0.5s0.224-0.5,0.5-0.5c1.044,0,1.893-0.849,1.893-1.893
		c0-1.043-0.849-1.892-1.893-1.892c-0.276,0-0.5-0.224-0.5-0.5s0.224-0.5,0.5-0.5h3.199c1.595,0,2.893,1.297,2.893,2.892
		S41.114,35.284,39.52,35.284z M38.506,34.284h1.014c1.044,0,1.893-0.849,1.893-1.893c0-1.043-0.849-1.892-1.893-1.892h-1.013
		c0.439,0.508,0.706,1.169,0.706,1.892S38.946,33.776,38.506,34.284z"/>
	<rect x="11.895" y="5.933" class="st1" width="1" height="1.954"/>
	<rect x="11.895" y="9.6" class="st1" width="1" height="1.955"/>
	<rect x="9.583" y="8.243" class="st1" width="1.955" height="1"/>
	<rect x="13.251" y="8.243" class="st1" width="1.955" height="1"/>
	<rect x="19.3" y="19.216" class="st1" width="1" height="1.954"/>
	<rect x="19.3" y="22.883" class="st1" width="1" height="1.955"/>
	<rect x="16.989" y="21.526" class="st1" width="1.954" height="1"/>
	<rect x="20.657" y="21.526" class="st1" width="1.955" height="1"/>
	<rect x="50.991" y="6.458" class="st1" width="1" height="1.955"/>
	<rect x="50.991" y="10.126" class="st1" width="1" height="1.954"/>
	<rect x="48.681" y="8.77" class="st1" width="1.954" height="1"/>
	<rect x="52.348" y="8.77" class="st1" width="1.955" height="1"/>
</g>
</svg>
