<?xml version="1.0" encoding="iso-8859-1"?>
<!-- Generator: Adobe Illustrator 22.0.1, SVG Export Plug-In . SVG Version: 6.00 Build 0)  -->
<svg version="1.1" id="Layer_1" xmlns="http://www.w3.org/2000/svg" xmlns:xlink="http://www.w3.org/1999/xlink" x="0px" y="0px"
	 viewBox="0 0 64 64" style="enable-background:new 0 0 64 64;" xml:space="preserve">
<style type="text/css">
	.st0{fill:#F8F3F3;}
	.st1{fill:#63312D;}
	.st2{fill:#E1DDDD;}
	.st3{fill:#84DBFF;}
	.st4{fill:#CAF4FF;}
	.st5{fill:#52BADB;}
	.st6{fill:#F9DD9D;}
	.st7{fill:#FFEECF;}
	.st8{fill:#EFC36A;}
	.st9{fill:#F7A085;}
	.st10{fill:#82D9FF;}
	.st11{fill:#F7DB9B;}
	.st12{fill:#F9A287;}
	.st13{fill:#FFC8BB;}
	.st14{fill:#52B8D9;}
	.st15{fill:#DB785A;}
	.st16{fill:#EDCB85;}
	.st17{fill:#DBAB56;}
	.st18{fill:#D3A553;}
	.st19{fill:#FFFFFF;}
</style>
<g>
	<circle class="st3" cx="28.805" cy="32.063" r="13.404"/>
	<path class="st4" d="M17.338,32.063c0-7.076,5.487-12.857,12.436-13.355c-0.321-0.023-0.642-0.049-0.969-0.049
		c-7.403,0-13.404,6.001-13.404,13.404c0,7.403,6.001,13.404,13.404,13.404c0.327,0,0.648-0.026,0.969-0.049
		C22.825,44.92,17.338,39.139,17.338,32.063z"/>
	<path class="st6" d="M28.464,21.912c-3.222,0.149-5.862,2.819-5.978,6.042c-0.068,1.872,0.686,3.568,1.928,4.759
		c0.929,0.891,1.474,2.11,1.474,3.397v0.257h5.751v-0.256c0-1.301,0.567-2.519,1.5-3.425c1.175-1.14,1.905-2.734,1.905-4.501
		C35.045,24.618,32.069,21.745,28.464,21.912z"/>
	<path class="st1" d="M31.639,36.867h-5.751c-0.276,0-0.5-0.224-0.5-0.5v-0.258c0-1.125-0.481-2.231-1.32-3.035
		c-1.393-1.336-2.151-3.209-2.082-5.138c0.126-3.497,2.962-6.363,6.455-6.523h0c1.865-0.1,3.65,0.574,5.003,1.867
		c1.354,1.292,2.1,3.034,2.1,4.906c0,1.847-0.73,3.572-2.057,4.858c-0.87,0.845-1.349,1.934-1.349,3.066v0.256
		C32.139,36.644,31.915,36.867,31.639,36.867z M26.382,35.867h4.763c0.064-1.316,0.643-2.565,1.646-3.539
		c1.131-1.098,1.753-2.568,1.753-4.142c0-1.596-0.636-3.081-1.791-4.184c-1.153-1.101-2.667-1.657-4.266-1.592c0,0,0,0,0,0
		c-2.977,0.138-5.394,2.58-5.502,5.562c-0.059,1.645,0.588,3.241,1.775,4.379C25.734,33.286,26.317,34.556,26.382,35.867z"/>
	<path class="st0" d="M30.142,40.288h-2.758c-1.105,0-2-0.895-2-2v-1.92h6.758v1.92C32.142,39.392,31.247,40.288,30.142,40.288z"/>
	<path class="st1" d="M30.142,40.788h-2.758c-1.378,0-2.5-1.121-2.5-2.5v-1.92c0-0.276,0.224-0.5,0.5-0.5h6.758
		c0.276,0,0.5,0.224,0.5,0.5v1.92C32.642,39.667,31.521,40.788,30.142,40.788z M25.884,36.868v1.42c0,0.827,0.673,1.5,1.5,1.5h2.758
		c0.827,0,1.5-0.673,1.5-1.5v-1.42H25.884z"/>
	<rect x="27.299" y="40.288" class="st6" width="2.928" height="1.934"/>
	<path class="st1" d="M30.228,42.722h-2.929c-0.276,0-0.5-0.224-0.5-0.5v-1.934c0-0.276,0.224-0.5,0.5-0.5h2.929
		c0.276,0,0.5,0.224,0.5,0.5v1.934C30.728,42.498,30.504,42.722,30.228,42.722z M27.799,41.722h1.929v-0.934h-1.929V41.722z"/>
	<path class="st1" d="M30.205,36.367h-1v-4.052c0-0.128,0.049-0.252,0.138-0.345l1.25-1.313l0.725,0.689l-1.112,1.168V36.367z"/>
	<path class="st1" d="M28.322,36.367h-1v-3.852l-1.112-1.168l0.725-0.689l1.25,1.313c0.088,0.093,0.138,0.217,0.138,0.345V36.367z"
		/>
	<path class="st1" d="M28.805,45.968c-7.667,0-13.904-6.237-13.904-13.904s6.237-13.904,13.904-13.904s13.905,6.237,13.905,13.904
		S36.472,45.968,28.805,45.968z M28.805,19.159c-7.115,0-12.904,5.789-12.904,12.904s5.789,12.904,12.904,12.904
		c7.116,0,12.905-5.789,12.905-12.904S35.92,19.159,28.805,19.159z"/>
	<path class="st5" d="M33.587,18.659h-4.782c7.403,0,13.404,6.001,13.404,13.404c0,7.403-6.001,13.404-13.404,13.404h4.782
		c7.403,0,13.404-6.001,13.404-13.404C46.991,24.66,40.99,18.659,33.587,18.659z"/>
	<path class="st1" d="M33.587,45.968h-4.782c-0.276,0-0.5-0.224-0.5-0.5s0.224-0.5,0.5-0.5c7.116,0,12.905-5.789,12.905-12.904
		S35.92,19.159,28.805,19.159c-0.276,0-0.5-0.224-0.5-0.5s0.224-0.5,0.5-0.5h4.782c7.667,0,13.904,6.237,13.904,13.904
		S41.254,45.968,33.587,45.968z M34,19.166c5.102,2.062,8.71,7.065,8.71,12.897S39.101,42.899,34,44.961
		c6.925-0.219,12.492-5.92,12.492-12.897S40.925,19.385,34,19.166z"/>
	
		<rect x="17.272" y="15.317" transform="matrix(0.7661 -0.6427 0.6427 0.7661 -8.0599 15.8678)" class="st1" width="1" height="7.382"/>
	<circle class="st12" cx="10.44" cy="10.377" r="7.332"/>
	<circle class="st12" cx="53.56" cy="53.623" r="7.332"/>
	<path class="st1" d="M10.44,18.209c-4.318,0-7.832-3.514-7.832-7.832s3.514-7.832,7.832-7.832s7.832,3.514,7.832,7.832
		S14.759,18.209,10.44,18.209z M10.44,3.545c-3.767,0-6.832,3.064-6.832,6.832s3.065,6.832,6.832,6.832s6.832-3.064,6.832-6.832
		S14.208,3.545,10.44,3.545z"/>
	<path class="st1" d="M53.56,61.455c-4.318,0-7.832-3.514-7.832-7.832s3.514-7.832,7.832-7.832s7.832,3.514,7.832,7.832
		S57.878,61.455,53.56,61.455z M53.56,46.791c-3.767,0-6.832,3.064-6.832,6.832s3.065,6.832,6.832,6.832s6.832-3.064,6.832-6.832
		S57.327,46.791,53.56,46.791z"/>
	
		<rect x="11.221" y="45.806" transform="matrix(0.6639 -0.7478 0.7478 0.6639 -29.0552 27.967)" class="st1" width="10.728" height="1"/>
	<circle class="st6" cx="9.138" cy="54.925" r="6.03"/>
	<circle class="st6" cx="35.873" cy="7.243" r="4.072"/>
	<circle class="st6" cx="55.779" cy="22.664" r="5.112"/>
	<path class="st1" d="M9.138,61.455c-3.601,0-6.53-2.93-6.53-6.53s2.929-6.529,6.53-6.529s6.53,2.929,6.53,6.529
		S12.739,61.455,9.138,61.455z M9.138,49.396c-3.049,0-5.53,2.48-5.53,5.529c0,3.05,2.48,5.53,5.53,5.53s5.53-2.48,5.53-5.53
		C14.668,51.876,12.188,49.396,9.138,49.396z"/>
	
		<rect x="29.539" y="14.598" transform="matrix(0.2909 -0.9567 0.9567 0.2909 9.3975 42.8762)" class="st1" width="8.172" height="1"/>
	<path class="st1" d="M35.873,11.814c-2.521,0-4.571-2.051-4.571-4.571s2.051-4.571,4.571-4.571c2.521,0,4.572,2.051,4.572,4.571
		S38.394,11.814,35.873,11.814z M35.873,3.672c-1.969,0-3.571,1.603-3.571,3.571s1.602,3.571,3.571,3.571
		c1.97,0,3.572-1.603,3.572-3.571S37.842,3.672,35.873,3.672z"/>
	<path class="st1" d="M55.779,28.276c-3.095,0-5.613-2.518-5.613-5.612s2.518-5.613,5.613-5.613s5.612,2.519,5.612,5.613
		S58.874,28.276,55.779,28.276z M55.779,18.051c-2.543,0-4.613,2.069-4.613,4.613c0,2.543,2.069,4.612,4.613,4.612
		s4.612-2.069,4.612-4.612C60.392,20.12,58.323,18.051,55.779,18.051z"/>
	
		<rect x="44.583" y="41.671" transform="matrix(0.7268 -0.6868 0.6868 0.7268 -19.1783 43.4891)" class="st1" width="1" height="8.368"/>
	
		<rect x="46.009" y="25.135" transform="matrix(0.9177 -0.3973 0.3973 0.9177 -6.1796 21.4447)" class="st1" width="5.302" height="1"/>
</g>
</svg>
