<?xml version="1.0" encoding="iso-8859-1"?>
<!-- Generator: Adobe Illustrator 22.0.1, SVG Export Plug-In . SVG Version: 6.00 Build 0)  -->
<svg version="1.1" id="Layer_1" xmlns="http://www.w3.org/2000/svg" xmlns:xlink="http://www.w3.org/1999/xlink" x="0px" y="0px"
	 viewBox="0 0 64 64" style="enable-background:new 0 0 64 64;" xml:space="preserve">
<style type="text/css">
	.st0{fill:#F8F3F3;}
	.st1{fill:#63312D;}
	.st2{fill:#E1DDDD;}
	.st3{fill:#84DBFF;}
	.st4{fill:#CAF4FF;}
	.st5{fill:#52BADB;}
	.st6{fill:#F9DD9D;}
	.st7{fill:#FFEECF;}
	.st8{fill:#EFC36A;}
	.st9{fill:#F7A085;}
	.st10{fill:#82D9FF;}
	.st11{fill:#F7DB9B;}
	.st12{fill:#F9A287;}
	.st13{fill:#FFC8BB;}
	.st14{fill:#52B8D9;}
	.st15{fill:#DB785A;}
	.st16{fill:#EDCB85;}
	.st17{fill:#DBAB56;}
	.st18{fill:#D3A553;}
	.st19{fill:#FFFFFF;}
</style>
<g>
	<rect x="23.102" y="24.793" class="st10" width="26.262" height="36.099"/>
	<polygon class="st4" points="25.035,26.793 49.364,26.793 49.364,24.793 23.102,24.793 23.102,60.892 25.035,60.892 	"/>
	<path class="st1" d="M49.363,61.392H23.102c-0.276,0-0.5-0.224-0.5-0.5V24.793c0-0.276,0.224-0.5,0.5-0.5h26.262
		c0.276,0,0.5,0.224,0.5,0.5v36.099C49.863,61.168,49.64,61.392,49.363,61.392z M23.602,60.392h25.262V25.293H23.602V60.392z"/>
	<polygon class="st14" points="55.128,24.793 49.364,24.793 49.364,60.892 55.128,60.892 60.892,60.892 60.892,24.793 	"/>
	<polygon class="st14" points="49.364,24.793 55.128,11.331 60.892,24.793 	"/>
	<path class="st1" d="M60.892,61.392H49.363c-0.276,0-0.5-0.224-0.5-0.5V24.793c0-0.276,0.224-0.5,0.5-0.5h11.528
		c0.276,0,0.5,0.224,0.5,0.5v36.099C61.392,61.168,61.168,61.392,60.892,61.392z M49.863,60.392h10.528V25.293H49.863V60.392z"/>
	<polygon class="st10" points="49.364,24.793 23.102,24.793 28.866,11.331 55.128,11.331 	"/>
	<polygon class="st4" points="30.11,13.243 54.309,13.243 55.128,11.331 28.866,11.331 23.102,24.793 25.165,24.793 	"/>
	<path class="st1" d="M49.363,25.293H23.102c-0.168,0-0.325-0.084-0.417-0.225c-0.093-0.14-0.108-0.318-0.043-0.472l5.765-13.461
		c0.079-0.184,0.26-0.303,0.46-0.303h26.262c0.168,0,0.325,0.084,0.417,0.225c0.093,0.14,0.108,0.318,0.043,0.472L49.823,24.99
		C49.744,25.174,49.563,25.293,49.363,25.293z M23.859,24.293h25.174l5.337-12.461H29.196L23.859,24.293z"/>
	<path class="st1" d="M60.892,25.293H49.363c-0.168,0-0.325-0.084-0.417-0.225c-0.093-0.14-0.108-0.318-0.043-0.472l5.765-13.461
		c0.158-0.368,0.762-0.368,0.92,0l5.764,13.461c0.065,0.154,0.05,0.332-0.043,0.472C61.217,25.208,61.06,25.293,60.892,25.293z
		 M50.121,24.293h10.013l-5.006-11.691L50.121,24.293z"/>
	<rect x="28.869" y="3.108" class="st10" width="26.259" height="8.223"/>
	<polygon class="st4" points="30.602,4.875 55.128,4.875 55.128,3.108 28.869,3.108 28.869,11.331 30.602,11.331 	"/>
	<path class="st1" d="M55.128,11.832h-26.26c-0.276,0-0.5-0.224-0.5-0.5V3.108c0-0.276,0.224-0.5,0.5-0.5h26.26
		c0.276,0,0.5,0.224,0.5,0.5v8.223C55.628,11.608,55.404,11.832,55.128,11.832z M29.368,10.832h25.26V3.608h-25.26V10.832z"/>
	<rect x="27.698" y="36.308" class="st0" width="17.068" height="13.068"/>
	<path class="st1" d="M44.767,49.876H27.698c-0.276,0-0.5-0.224-0.5-0.5V36.308c0-0.276,0.224-0.5,0.5-0.5h17.068
		c0.276,0,0.5,0.224,0.5,0.5v13.068C45.267,49.652,45.043,49.876,44.767,49.876z M28.198,48.876h16.068V36.808H28.198V48.876z"/>
	<path class="st9" d="M16.15,22.208v-19.1h-6.09v19.1c-4.031,1.288-6.952,5.062-6.952,9.521v29.163h19.993V31.729
		C23.102,27.27,20.181,23.497,16.15,22.208z"/>
	<g>
		<path class="st13" d="M4.886,32.974c0-4.459,2.921-8.232,6.952-9.521v-19.1h4.312V3.108h-6.09v19.1
			c-4.031,1.288-6.952,5.062-6.952,9.521v29.163h1.778V32.974z"/>
	</g>
	<rect x="10.057" y="3.112" class="st10" width="6.091" height="8.214"/>
	<rect x="6.971" y="35.334" class="st0" width="12.268" height="16.335"/>
	<path class="st1" d="M19.239,52.168H6.971c-0.276,0-0.5-0.224-0.5-0.5V35.333c0-0.276,0.224-0.5,0.5-0.5h12.269
		c0.276,0,0.5,0.224,0.5,0.5v16.335C19.739,51.945,19.516,52.168,19.239,52.168z M7.471,51.168h11.269V35.833H7.471V51.168z"/>
	<g>
		<g>
			<polygon class="st4" points="16.148,3.112 16.148,4.349 11.838,4.349 11.838,11.326 10.057,11.326 10.057,3.112 			"/>
		</g>
	</g>
	<path class="st1" d="M23.102,61.392H3.108c-0.276,0-0.5-0.224-0.5-0.5V31.729c0-4.461,2.778-8.386,6.952-9.879V3.108
		c0-0.276,0.224-0.5,0.5-0.5h6.089c0.276,0,0.5,0.224,0.5,0.5V21.85c4.174,1.494,6.952,5.418,6.952,9.879v29.163
		C23.602,61.168,23.378,61.392,23.102,61.392z M3.608,60.392h18.993V31.729c0-4.147-2.654-7.782-6.604-9.045
		c-0.207-0.066-0.348-0.259-0.348-0.476v-18.6h-5.089v18.6c0,0.217-0.141,0.41-0.348,0.476c-3.95,1.263-6.604,4.897-6.604,9.045
		V60.392z"/>
	<rect x="10.061" y="10.832" class="st1" width="6.089" height="1"/>
</g>
</svg>
