<?xml version="1.0" encoding="iso-8859-1"?>
<!-- Generator: Adobe Illustrator 22.0.1, SVG Export Plug-In . SVG Version: 6.00 Build 0)  -->
<svg version="1.1" id="Layer_1" xmlns="http://www.w3.org/2000/svg" xmlns:xlink="http://www.w3.org/1999/xlink" x="0px" y="0px"
	 viewBox="0 0 64 64" style="enable-background:new 0 0 64 64;" xml:space="preserve">
<style type="text/css">
	.st0{fill:#F8F3F3;}
	.st1{fill:#63312D;}
	.st2{fill:#E1DDDD;}
	.st3{fill:#84DBFF;}
	.st4{fill:#CAF4FF;}
	.st5{fill:#52BADB;}
	.st6{fill:#F9DD9D;}
	.st7{fill:#FFEECF;}
	.st8{fill:#EFC36A;}
	.st9{fill:#F7A085;}
	.st10{fill:#82D9FF;}
	.st11{fill:#F7DB9B;}
	.st12{fill:#F9A287;}
	.st13{fill:#FFC8BB;}
	.st14{fill:#52B8D9;}
	.st15{fill:#DB785A;}
	.st16{fill:#EDCB85;}
	.st17{fill:#DBAB56;}
	.st18{fill:#D3A553;}
	.st19{fill:#FFFFFF;}
</style>
<g>
	<path class="st15" d="M55.548,13.663h-6.466v0h2.687c1.657,0,3,1.343,3,3v25.378c0,1.657-1.343,3-3,3h-2.687v0h6.466
		c1.72,0,3.113-1.394,3.113-3.114V16.776C58.661,15.057,57.267,13.663,55.548,13.663z"/>
	<path class="st1" d="M55.548,45.541h-6.466v-1h6.466c1.441,0,2.613-1.172,2.613-2.613V16.776c0-1.441-1.172-2.613-2.613-2.613
		h-6.466v-1h6.466c1.992,0,3.613,1.621,3.613,3.613v25.151C59.161,43.92,57.54,45.541,55.548,45.541z"/>
	<path id="XMLID_66_" class="st12" d="M51.77,45.041H11.457c-1.657,0-3-1.343-3-3V16.663c0-1.657,1.343-3,3-3H51.77
		c1.657,0,3,1.343,3,3v25.378C54.77,43.698,53.427,45.041,51.77,45.041z"/>
	<path class="st13" d="M10.144,43.729V17.334c0-1.095,0.888-1.983,1.983-1.983h41.33c0.389,0,0.757,0.08,1.098,0.214
		c-0.439-1.112-1.518-1.902-2.786-1.902H11.457c-1.657,0-3,1.343-3,3v25.378c0,1.268,0.79,2.347,1.902,2.786
		C10.224,44.486,10.144,44.117,10.144,43.729z"/>
	<path class="st1" d="M51.77,45.541H11.457c-1.93,0-3.5-1.57-3.5-3.5V16.663c0-1.93,1.57-3.5,3.5-3.5H51.77c1.93,0,3.5,1.57,3.5,3.5
		v25.378C55.27,43.971,53.699,45.541,51.77,45.541z M11.457,14.163c-1.379,0-2.5,1.121-2.5,2.5v25.378c0,1.379,1.121,2.5,2.5,2.5
		H51.77c1.379,0,2.5-1.121,2.5-2.5V16.663c0-1.379-1.121-2.5-2.5-2.5H11.457z"/>
	<rect id="XMLID_64_" x="12.284" y="17.425" class="st0" width="38.918" height="24.068"/>
	<polygon class="st2" points="13.938,19.099 51.202,19.099 51.202,17.425 12.284,17.425 12.284,41.493 13.938,41.493 	"/>
	<path class="st1" d="M51.202,41.993H12.284c-0.276,0-0.5-0.224-0.5-0.5V17.425c0-0.276,0.224-0.5,0.5-0.5h38.918
		c0.276,0,0.5,0.224,0.5,0.5v24.068C51.702,41.77,51.479,41.993,51.202,41.993z M12.784,40.993h37.918V17.925H12.784V40.993z"/>
	<path class="st6" d="M49.086,45.044v1.7c0,1.98-1.61,3.59-3.6,3.59H6.676c-0.74,0-1.43-0.22-2-0.61h-0.01
		c-0.95-0.65-1.58-1.74-1.58-2.98v-1.7H49.086z"/>
	<path class="st7" d="M4.506,46.714v1.92c0,0.38,0.06,0.75,0.16,1.09c-0.95-0.65-1.58-1.74-1.58-2.98v-1.7h46v1.67H4.506z"/>
	<path class="st1" d="M45.488,50.837H6.679c-2.257,0-4.094-1.837-4.094-4.094v-1.702c0-0.276,0.224-0.5,0.5-0.5h45.997
		c0.276,0,0.5,0.224,0.5,0.5v1.702C49.582,49,47.745,50.837,45.488,50.837z M3.585,45.541v1.202c0,1.706,1.388,3.094,3.094,3.094
		h38.81c1.706,0,3.094-1.388,3.094-3.094v-1.202H3.585z"/>
	<path class="st8" d="M49.082,45.041v1.702c0,1.985-1.609,3.594-3.594,3.594h11.833c1.985,0,3.594-1.609,3.594-3.594v-1.702H49.082z
		"/>
	<path class="st1" d="M57.321,50.837H45.488c-0.276,0-0.5-0.224-0.5-0.5s0.224-0.5,0.5-0.5c1.706,0,3.094-1.388,3.094-3.094v-1.702
		c0-0.276,0.224-0.5,0.5-0.5h11.833c0.276,0,0.5,0.224,0.5,0.5v1.702C61.415,49,59.578,50.837,57.321,50.837z M48.166,49.837h9.155
		c1.706,0,3.094-1.388,3.094-3.094v-1.202H49.582v1.202C49.582,47.978,49.033,49.086,48.166,49.837z"/>
	<rect x="19.03" y="22.876" class="st10" width="25.426" height="13.167"/>
	<g>
		<path class="st1" d="M25.335,31.867h-4.438v-0.828l4.21-5.828h1.308v5.708h1.199v0.948h-1.199v1.931h-1.08V31.867z M25.383,30.919
			V26.35l-3.226,4.569H25.383z"/>
		<path class="st1" d="M31.731,24.995c2.387,0,3.011,1.895,3.011,4.377c0,2.519-0.624,4.426-3.011,4.426
			c-2.398,0-3.022-1.907-3.022-4.426C28.709,26.89,29.333,24.995,31.731,24.995z M31.731,25.99c-1.715,0-1.942,1.583-1.942,3.382
			c0,1.871,0.228,3.431,1.942,3.431c1.703,0,1.932-1.56,1.932-3.431C33.663,27.573,33.435,25.99,31.731,25.99z"/>
		<path class="st1" d="M40.419,31.867h-4.438v-0.828l4.21-5.828h1.308v5.708h1.199v0.948h-1.199v1.931h-1.08V31.867z M40.467,30.919
			V26.35l-3.226,4.569H40.467z"/>
	</g>
</g>
</svg>
