<?xml version="1.0" encoding="iso-8859-1"?>
<!-- Generator: Adobe Illustrator 22.0.1, SVG Export Plug-In . SVG Version: 6.00 Build 0)  -->
<svg version="1.1" id="Layer_1" xmlns="http://www.w3.org/2000/svg" xmlns:xlink="http://www.w3.org/1999/xlink" x="0px" y="0px"
	 viewBox="0 0 64 64" style="enable-background:new 0 0 64 64;" xml:space="preserve">
<style type="text/css">
	.st0{fill:#F8F3F3;}
	.st1{fill:#63312D;}
	.st2{fill:#E1DDDD;}
	.st3{fill:#84DBFF;}
	.st4{fill:#CAF4FF;}
	.st5{fill:#52BADB;}
	.st6{fill:#F9DD9D;}
	.st7{fill:#FFEECF;}
	.st8{fill:#EFC36A;}
	.st9{fill:#F7A085;}
	.st10{fill:#82D9FF;}
	.st11{fill:#F7DB9B;}
	.st12{fill:#F9A287;}
	.st13{fill:#FFC8BB;}
	.st14{fill:#52B8D9;}
	.st15{fill:#DB785A;}
	.st16{fill:#EDCB85;}
	.st17{fill:#DBAB56;}
	.st18{fill:#D3A553;}
	.st19{fill:#FFFFFF;}
</style>
<g>
	<g id="XMLID_1_">
		<g>
			<rect x="46.659" y="26.697" class="st8" width="4.28" height="5.73"/>
		</g>
	</g>
	<rect x="15.244" y="3.22" class="st19" width="29.229" height="23.478"/>
	<path class="st2" d="M21.818,14.461c0-1.87-1.516-3.386-3.386-3.386h-3.188v1.468h3.188c1.87,0,3.386,1.516,3.386,3.386V14.461z"/>
	<rect x="44.473" y="3.22" class="st2" width="4.135" height="23.478"/>
	<rect x="44.473" y="3.22" class="st15" width="4.135" height="7.542"/>
	<path class="st1" d="M48.609,27.199h-4.136c-0.276,0-0.5-0.224-0.5-0.5V3.22c0-0.276,0.224-0.5,0.5-0.5h4.136
		c0.276,0,0.5,0.224,0.5,0.5v23.479C49.109,26.975,48.885,27.199,48.609,27.199z M44.973,26.199h3.136V3.72h-3.136V26.199z"/>
	<rect x="13.059" y="26.699" class="st6" width="33.599" height="5.733"/>
	<polygon class="st7" points="15.009,28.654 46.658,28.654 46.658,26.699 13.059,26.699 13.059,32.432 15.009,32.432 	"/>
	<path class="st1" d="M46.658,32.932H13.059c-0.276,0-0.5-0.224-0.5-0.5v-5.733c0-0.276,0.224-0.5,0.5-0.5h33.599
		c0.276,0,0.5,0.224,0.5,0.5v5.733C47.158,32.708,46.935,32.932,46.658,32.932z M13.559,31.932h32.599v-4.733H13.559V31.932z"/>
	<path class="st10" d="M14.645,32.432v5.233c0,2.412,1.956,4.368,4.368,4.368h4.248c1.206,0,2.184,0.978,2.184,2.184l0,11.959
		c0,2.305,1.685,4.364,3.98,4.582c2.632,0.251,4.847-1.812,4.847-4.393V44.217c0-1.206,0.978-2.184,2.184-2.184h4.248
		c2.412,0,4.368-1.956,4.368-4.368v-5.233H14.645z"/>
	<path class="st4" d="M16.525,37.664v-5.233h-1.88v5.233c0,2.412,1.956,4.368,4.368,4.368h1.88
		C18.48,42.032,16.525,40.077,16.525,37.664z"/>
	<path class="st4" d="M27.325,56.176V44.217c0-1.206-0.978-2.184-2.184-2.184h-1.88c1.206,0,2.184,0.978,2.184,2.184v11.959
		c0,2.305,1.685,4.364,3.98,4.582c0.475,0.045,0.928-0.008,1.365-0.102C28.766,60.199,27.325,58.302,27.325,56.176z"/>
	<rect x="14.645" y="32.432" class="st14" width="30.428" height="1.955"/>
	<path class="st1" d="M29.866,61.28c-0.162,0-0.324-0.008-0.488-0.023c-2.486-0.237-4.433-2.469-4.433-5.081V44.216
		c0-0.929-0.755-1.684-1.684-1.684h-4.249c-2.684,0-4.868-2.184-4.868-4.868v-5.232c0-0.276,0.224-0.5,0.5-0.5h30.428
		c0.276,0,0.5,0.224,0.5,0.5v5.232c0,2.685-2.184,4.868-4.868,4.868h-4.248c-0.929,0-1.684,0.755-1.684,1.684v12.148
		c0,1.382-0.586,2.707-1.609,3.637C32.247,60.834,31.091,61.28,29.866,61.28z M15.145,32.932v4.732c0,2.133,1.735,3.868,3.868,3.868
		h4.249c1.48,0,2.684,1.204,2.684,2.684v11.959c0,2.103,1.549,3.896,3.527,4.085c1.118,0.106,2.192-0.247,3.018-0.998
		c0.815-0.741,1.282-1.797,1.282-2.897V44.216c0-1.479,1.204-2.684,2.684-2.684h4.248c2.133,0,3.868-1.735,3.868-3.868v-4.732
		H15.145z"/>
	<path class="st9" d="M15.244,3.22v7.854h3.188c1.87,0,3.386,1.516,3.386,3.386v1.969c0,1.219,0.988,2.208,2.208,2.208h0
		c1.219,0,2.208-0.988,2.208-2.208v-3.063c0-1.346,1.091-2.437,2.437-2.437h0c1.346,0,2.437,1.091,2.437,2.437v6.365
		c0,1.398,1.133,2.531,2.531,2.531h0c1.398,0,2.531-1.133,2.531-2.531v-5.583c0-1.87,1.516-3.386,3.386-3.386h4.916V3.22H15.244z"/>
	<polygon class="st13" points="17.036,5.095 44.473,5.095 44.473,3.22 15.244,3.22 15.244,11.075 17.036,11.075 	"/>
	<path class="st2" d="M24.026,18.637c-1.219,0-2.208-0.989-2.208-2.208v1.468c0,1.219,0.988,2.208,2.208,2.208
		s2.208-0.988,2.208-2.208v-1.468C26.234,17.649,25.245,18.637,24.026,18.637z"/>
	<path class="st2" d="M33.64,22.262c-1.398,0-2.531-1.133-2.531-2.531v1.468c0,1.398,1.133,2.531,2.531,2.531
		s2.531-1.133,2.531-2.531v-1.468C36.171,21.129,35.038,22.262,33.64,22.262z"/>
	<path class="st2" d="M36.171,14.148v1.468c0-1.87,1.516-3.386,3.386-3.386h4.916v-1.468h-4.916
		C37.687,10.762,36.171,12.278,36.171,14.148z"/>
	<path class="st2" d="M31.109,13.366c0-1.346-1.091-2.438-2.438-2.438s-2.438,1.091-2.438,2.438v1.468
		c0-1.346,1.091-2.438,2.438-2.438s2.438,1.091,2.438,2.438V13.366z"/>
	<path class="st1" d="M33.64,22.762c-1.671,0-3.031-1.359-3.031-3.031v-6.364c0-1.068-0.869-1.938-1.938-1.938
		s-1.938,0.869-1.938,1.938v3.063c0,1.493-1.215,2.708-2.708,2.708s-2.708-1.215-2.708-2.708V14.46c0-1.591-1.295-2.886-2.886-2.886
		h-3.188c-0.276,0-0.5-0.224-0.5-0.5V3.22c0-0.276,0.224-0.5,0.5-0.5h29.229c0.276,0,0.5,0.224,0.5,0.5v7.542
		c0,0.276-0.224,0.5-0.5,0.5h-4.916c-1.591,0-2.886,1.295-2.886,2.886v5.583C36.671,21.403,35.312,22.762,33.64,22.762z
		 M28.671,10.429c1.62,0,2.938,1.317,2.938,2.938v6.364c0,1.12,0.911,2.031,2.031,2.031s2.031-0.911,2.031-2.031v-5.583
		c0-2.143,1.743-3.886,3.886-3.886h4.416V3.72H15.744v6.854h2.688c2.143,0,3.886,1.743,3.886,3.886v1.969
		c0,0.941,0.766,1.708,1.708,1.708c0.942,0,1.708-0.767,1.708-1.708v-3.063C25.734,11.747,27.052,10.429,28.671,10.429z"/>
	<path class="st14" d="M34.272,44.217v12.149c0,2.436-1.979,4.411-4.414,4.413h0h4.119c2.438,0,4.414-1.976,4.414-4.413V44.217
		c0-1.206,0.978-2.184,2.184-2.184h-4.119C35.25,42.032,34.272,43.01,34.272,44.217z"/>
	<path class="st14" d="M45.073,32.432v5.233c0,2.412-1.956,4.368-4.368,4.368h4.119c2.412,0,4.368-1.956,4.368-4.368v-5.233H45.073z
		"/>
	<path class="st1" d="M33.978,61.279h-4.119c-0.276,0-0.5-0.224-0.5-0.5c0-0.275,0.223-0.5,0.5-0.5
		c2.158-0.003,3.914-1.759,3.914-3.914V44.216c0-1.479,1.204-2.684,2.684-2.684h4.119c0.276,0,0.5,0.224,0.5,0.5s-0.224,0.5-0.5,0.5
		c-0.929,0-1.684,0.755-1.684,1.684v12.148C38.892,59.075,36.688,61.279,33.978,61.279z M32.824,60.279h1.154
		c2.158,0,3.914-1.756,3.914-3.914V44.216c0-0.637,0.223-1.223,0.595-1.684h-2.03c-0.929,0-1.684,0.755-1.684,1.684v12.148
		C34.772,57.959,34.007,59.38,32.824,60.279z"/>
	<path class="st1" d="M44.824,42.533h-4.12c-0.276,0-0.5-0.224-0.5-0.5s0.224-0.5,0.5-0.5c2.133,0,3.868-1.735,3.868-3.868v-5.232
		c0-0.276,0.224-0.5,0.5-0.5h4.119c0.276,0,0.5,0.224,0.5,0.5v5.232C49.692,40.349,47.508,42.533,44.824,42.533z M43.657,41.533
		h1.167c2.133,0,3.868-1.735,3.868-3.868v-4.732h-3.119v4.732C45.573,39.24,44.821,40.642,43.657,41.533z"/>
	<rect x="44.317" y="10.262" class="st1" width="4.292" height="1"/>
	<circle class="st19" cx="29.858" cy="56.309" r="1.734"/>
	<path class="st1" d="M29.858,58.543c-1.232,0-2.234-1.002-2.234-2.234s1.002-2.234,2.234-2.234s2.234,1.002,2.234,2.234
		S31.09,58.543,29.858,58.543z M29.858,55.075c-0.681,0-1.234,0.554-1.234,1.234s0.554,1.234,1.234,1.234s1.234-0.554,1.234-1.234
		S30.539,55.075,29.858,55.075z"/>
	<path class="st1" d="M44.473,27.199H15.244c-0.276,0-0.5-0.224-0.5-0.5V3.22c0-0.276,0.224-0.5,0.5-0.5h29.229
		c0.276,0,0.5,0.224,0.5,0.5v23.479C44.973,26.975,44.75,27.199,44.473,27.199z M15.744,26.199h28.229V3.72H15.744V26.199z"/>
	<path class="st1" d="M50.941,32.932h-4.283c-0.276,0-0.5-0.224-0.5-0.5v-5.733c0-0.276,0.224-0.5,0.5-0.5h4.283
		c0.276,0,0.5,0.224,0.5,0.5v5.733C51.441,32.708,51.217,32.932,50.941,32.932z M47.158,31.932h3.283v-4.733h-3.283V31.932z"/>
</g>
</svg>
