<?xml version="1.0" encoding="iso-8859-1"?>
<!-- Generator: Adobe Illustrator 22.0.1, SVG Export Plug-In . SVG Version: 6.00 Build 0)  -->
<svg version="1.1" id="Layer_1" xmlns="http://www.w3.org/2000/svg" xmlns:xlink="http://www.w3.org/1999/xlink" x="0px" y="0px"
	 viewBox="0 0 64 64" style="enable-background:new 0 0 64 64;" xml:space="preserve">
<style type="text/css">
	.st0{fill:#F8F3F3;}
	.st1{fill:#63312D;}
	.st2{fill:#E1DDDD;}
	.st3{fill:#84DBFF;}
	.st4{fill:#CAF4FF;}
	.st5{fill:#52BADB;}
	.st6{fill:#F9DD9D;}
	.st7{fill:#FFEECF;}
	.st8{fill:#EFC36A;}
	.st9{fill:#F7A085;}
	.st10{fill:#82D9FF;}
	.st11{fill:#F7DB9B;}
	.st12{fill:#F9A287;}
	.st13{fill:#FFC8BB;}
	.st14{fill:#52B8D9;}
	.st15{fill:#DB785A;}
	.st16{fill:#EDCB85;}
	.st17{fill:#DBAB56;}
	.st18{fill:#D3A553;}
	.st19{fill:#FFFFFF;}
</style>
<g>
	<ellipse class="st6" cx="32" cy="55.767" rx="18.542" ry="5.125"/>
	<path class="st1" d="M32,61.392c-9.231,0-19.042-1.972-19.042-5.625S22.769,50.142,32,50.142s19.042,1.972,19.042,5.625
		S41.231,61.392,32,61.392z M32,51.142c-10.632,0-18.042,2.438-18.042,4.625S21.368,60.392,32,60.392s18.042-2.438,18.042-4.625
		S42.632,51.142,32,51.142z"/>
	<path class="st1" d="M55.929,27.815C54.529,15.668,44.242,6.508,32,6.508S9.471,15.668,8.071,27.815L7.078,27.7
		C8.535,15.049,19.25,5.508,32,5.508S55.465,15.049,56.922,27.7L55.929,27.815z"/>
	<rect x="3.108" y="26.531" class="st10" width="6.593" height="6.593"/>
	<polygon class="st4" points="4.817,28.323 9.702,28.323 9.702,26.531 3.108,26.531 3.108,33.124 4.817,33.124 	"/>
	<rect x="27.283" y="3.108" class="st10" width="6.593" height="6.593"/>
	<polygon class="st4" points="28.947,4.772 33.877,4.772 33.877,3.108 27.283,3.108 27.283,9.702 28.947,9.702 	"/>
	<rect x="51.458" y="26.833" class="st10" width="6.593" height="6.593"/>
	<polygon class="st4" points="53.296,28.703 58.052,28.703 58.052,26.833 51.458,26.833 51.458,33.427 53.296,33.427 	"/>
	<path class="st1" d="M9.702,33.624H3.108c-0.276,0-0.5-0.224-0.5-0.5v-6.593c0-0.276,0.224-0.5,0.5-0.5h6.593
		c0.276,0,0.5,0.224,0.5,0.5v6.593C10.202,33.4,9.978,33.624,9.702,33.624z M3.608,32.624h5.593v-5.593H3.608V32.624z"/>
	<rect x="9.702" y="26.531" class="st14" width="2.84" height="6.593"/>
	<rect x="33.877" y="3.108" class="st14" width="2.84" height="6.593"/>
	<rect x="58.052" y="26.833" class="st14" width="2.84" height="6.593"/>
	<path class="st1" d="M12.542,33.624h-2.84c-0.276,0-0.5-0.224-0.5-0.5v-6.593c0-0.276,0.224-0.5,0.5-0.5h2.84
		c0.276,0,0.5,0.224,0.5,0.5v6.593C13.042,33.4,12.818,33.624,12.542,33.624z M10.202,32.624h1.84v-5.593h-1.84V32.624z"/>
	<path class="st1" d="M33.877,10.202h-6.594c-0.276,0-0.5-0.224-0.5-0.5V3.108c0-0.276,0.224-0.5,0.5-0.5h6.594
		c0.276,0,0.5,0.224,0.5,0.5v6.594C34.377,9.979,34.153,10.202,33.877,10.202z M27.783,9.202h5.594V3.608h-5.594V9.202z"/>
	<path class="st1" d="M36.717,10.202h-2.84c-0.276,0-0.5-0.224-0.5-0.5V3.108c0-0.276,0.224-0.5,0.5-0.5h2.84
		c0.276,0,0.5,0.224,0.5,0.5v6.594C37.217,9.979,36.993,10.202,36.717,10.202z M34.377,9.202h1.84V3.608h-1.84V9.202z"/>
	<path class="st1" d="M58.052,33.927h-6.593c-0.276,0-0.5-0.224-0.5-0.5v-6.594c0-0.276,0.224-0.5,0.5-0.5h6.593
		c0.276,0,0.5,0.224,0.5,0.5v6.594C58.552,33.703,58.328,33.927,58.052,33.927z M51.958,32.927h5.593v-5.594h-5.593V32.927z"/>
	<path class="st1" d="M60.892,33.927h-2.84c-0.276,0-0.5-0.224-0.5-0.5v-6.594c0-0.276,0.224-0.5,0.5-0.5h2.84
		c0.276,0,0.5,0.224,0.5,0.5v6.594C61.392,33.703,61.168,33.927,60.892,33.927z M58.552,32.927h1.84v-5.594h-1.84V32.927z"/>
	<rect x="5.833" y="5.905" class="st1" width="21.45" height="1"/>
	<rect x="36.717" y="5.905" class="st1" width="21.45" height="1"/>
	<circle class="st19" cx="32" cy="26.937" r="6.188"/>
	<path class="st1" d="M32,33.624c-3.688,0-6.688-3-6.688-6.688s3-6.688,6.688-6.688s6.688,3,6.688,6.688S35.688,33.624,32,33.624z
		 M32,21.249c-3.136,0-5.688,2.552-5.688,5.688s2.551,5.688,5.688,5.688s5.688-2.552,5.688-5.688S35.136,21.249,32,21.249z"/>
	<circle class="st10" cx="32" cy="26.937" r="3.062"/>
	<path class="st1" d="M32,30.499c-1.964,0-3.562-1.598-3.562-3.563c0-1.964,1.598-3.562,3.562-3.562s3.562,1.598,3.562,3.562
		C35.562,28.901,33.964,30.499,32,30.499z M32,24.375c-1.413,0-2.562,1.149-2.562,2.562c0,1.413,1.149,2.563,2.562,2.563
		s2.562-1.149,2.562-2.563C34.562,25.524,33.413,24.375,32,24.375z"/>
	<path class="st9" d="M32,20.749c0.633,0,1.244,0.096,1.819,0.273v-5.95h-3.639v5.95C30.756,20.845,31.367,20.749,32,20.749z"/>
	<path class="st1" d="M33.819,21.522c-0.049,0-0.099-0.007-0.147-0.022c-1.085-0.332-2.26-0.332-3.345,0
		c-0.151,0.049-0.316,0.02-0.444-0.075c-0.127-0.095-0.203-0.244-0.203-0.402v-5.95c0-0.276,0.224-0.5,0.5-0.5h3.639
		c0.276,0,0.5,0.224,0.5,0.5v5.95c0,0.158-0.075,0.308-0.203,0.402C34.029,21.489,33.925,21.522,33.819,21.522z M32,20.249
		c0.444,0,0.885,0.044,1.319,0.132v-4.809h-2.639v4.809C31.115,20.293,31.556,20.249,32,20.249z"/>
	<path class="st9" d="M44.243,48.649L37.62,29.514c-0.842,1.833-2.55,3.179-4.602,3.52l7.826,22.612
		C43.715,54.651,45.236,51.519,44.243,48.649z"/>
	<path class="st9" d="M26.38,29.514l-6.623,19.135c-0.994,2.87,0.528,6.003,3.399,6.996l7.826-22.612
		C28.93,32.693,27.222,31.346,26.38,29.514z"/>
	<path class="st1" d="M40.844,56.146c-0.075,0-0.15-0.017-0.218-0.05c-0.12-0.059-0.211-0.161-0.254-0.287l-7.826-22.612
		c-0.048-0.139-0.032-0.292,0.043-0.419c0.075-0.126,0.203-0.213,0.348-0.237c1.859-0.308,3.44-1.518,4.229-3.235
		c0.085-0.185,0.267-0.313,0.479-0.29c0.204,0.01,0.381,0.143,0.448,0.336l6.623,19.135c1.082,3.126-0.581,6.55-3.708,7.633
		C40.955,56.137,40.899,56.146,40.844,56.146z M33.676,33.405l7.469,21.581c2.302-1.063,3.472-3.729,2.625-6.175l-6.261-18.091
		C36.6,32.045,35.241,33.002,33.676,33.405z"/>
	<path class="st1" d="M23.156,56.146c-0.055,0-0.11-0.009-0.164-0.027c-3.126-1.083-4.79-4.507-3.708-7.633l6.623-19.135
		c0.067-0.193,0.244-0.326,0.448-0.336c0.212-0.021,0.394,0.105,0.479,0.29c0.789,1.718,2.37,2.928,4.229,3.235
		c0.146,0.024,0.273,0.111,0.348,0.237c0.075,0.127,0.091,0.28,0.043,0.419l-7.826,22.612c-0.043,0.126-0.135,0.229-0.254,0.287
		C23.306,56.129,23.231,56.146,23.156,56.146z M26.491,30.721L20.23,48.812c-0.847,2.446,0.323,5.111,2.625,6.175l7.469-21.581
		C28.759,33.002,27.4,32.045,26.491,30.721z"/>
	<rect x="27.678" y="42.079" class="st1" width="8.645" height="1"/>
	<rect x="40.468" y="54.351" transform="matrix(0.945 -0.327 0.327 0.945 -16.0616 16.477)" class="st1" width="1" height="3.303"/>
	
		<rect x="21.382" y="55.502" transform="matrix(0.3279 -0.9447 0.9447 0.3279 -37.425 59.3979)" class="st1" width="3.303" height="1.001"/>
</g>
</svg>
