<?xml version="1.0" encoding="iso-8859-1"?>
<!-- Generator: Adobe Illustrator 22.0.1, SVG Export Plug-In . SVG Version: 6.00 Build 0)  -->
<svg version="1.1" id="Layer_1" xmlns="http://www.w3.org/2000/svg" xmlns:xlink="http://www.w3.org/1999/xlink" x="0px" y="0px"
	 viewBox="0 0 64 64" style="enable-background:new 0 0 64 64;" xml:space="preserve">
<style type="text/css">
	.st0{fill:#F8F3F3;}
	.st1{fill:#63312D;}
	.st2{fill:#E1DDDD;}
	.st3{fill:#84DBFF;}
	.st4{fill:#CAF4FF;}
	.st5{fill:#52BADB;}
	.st6{fill:#F9DD9D;}
	.st7{fill:#FFEECF;}
	.st8{fill:#EFC36A;}
	.st9{fill:#F7A085;}
	.st10{fill:#82D9FF;}
	.st11{fill:#F7DB9B;}
	.st12{fill:#F9A287;}
	.st13{fill:#FFC8BB;}
	.st14{fill:#52B8D9;}
	.st15{fill:#DB785A;}
	.st16{fill:#EDCB85;}
	.st17{fill:#DBAB56;}
	.st18{fill:#D3A553;}
	.st19{fill:#FFFFFF;}
</style>
<g>
	<rect x="3.43" y="8.453" class="st9" width="44.987" height="36.333"/>
	<polygon class="st13" points="5.18,10.18 48.416,10.18 48.416,8.453 3.43,8.453 3.43,44.786 5.18,44.786 	"/>
	<rect x="7.049" y="11.757" class="st0" width="37.733" height="29.725"/>
	<polygon class="st10" points="34.578,30.51 30.564,35.056 21.909,25.254 7.579,41.482 24.889,41.482 36.238,41.482 44.266,41.482 	
		"/>
	<circle class="st11" cx="13.397" cy="19.395" r="4.007"/>
	<path class="st1" d="M48.416,45.286H3.43c-0.276,0-0.5-0.224-0.5-0.5V8.453c0-0.276,0.224-0.5,0.5-0.5h44.986
		c0.276,0,0.5,0.224,0.5,0.5v36.333C48.916,45.063,48.692,45.286,48.416,45.286z M3.93,44.286h43.986V8.953H3.93V44.286z"/>
	<rect x="48.416" y="8.453" class="st15" width="4.905" height="36.333"/>
	<path class="st1" d="M53.321,45.286h-4.905c-0.276,0-0.5-0.224-0.5-0.5V8.453c0-0.276,0.224-0.5,0.5-0.5h4.905
		c0.276,0,0.5,0.224,0.5,0.5v36.333C53.821,45.063,53.598,45.286,53.321,45.286z M48.916,44.286h3.905V8.953h-3.905V44.286z"/>
	
		<rect x="41.892" y="22.119" transform="matrix(0.7071 -0.7071 0.7071 0.7071 -15.2155 43.8374)" class="st11" width="6.833" height="36.333"/>
	<path class="st1" d="M55.738,56.047c-0.133,0-0.26-0.053-0.354-0.146L29.693,30.209c-0.094-0.094-0.146-0.221-0.146-0.354
		s0.053-0.26,0.146-0.354l4.832-4.832c0.195-0.195,0.512-0.195,0.707,0l25.691,25.691c0.195,0.195,0.195,0.512,0,0.707l-4.832,4.832
		C55.998,55.995,55.871,56.047,55.738,56.047z M30.754,29.855L55.738,54.84l4.125-4.125L34.879,25.731L30.754,29.855z"/>
	
		<rect x="35.471" y="33.451" transform="matrix(0.7071 -0.7071 0.7071 0.7071 -12.6779 37.2947)" class="st1" width="6.417" height="1"/>
	<rect x="38.356" y="10.18" class="st1" width="1" height="1.954"/>
	<rect x="38.356" y="13.847" class="st1" width="1" height="1.955"/>
	<rect x="36.045" y="12.491" class="st1" width="1.955" height="1"/>
	<rect x="39.713" y="12.491" class="st1" width="1.954" height="1"/>
	<rect x="23.53" y="12.991" class="st1" width="1" height="1.954"/>
	<rect x="23.53" y="16.658" class="st1" width="1" height="1.955"/>
	<rect x="21.219" y="15.302" class="st1" width="1.954" height="1"/>
	<rect x="24.886" y="15.302" class="st1" width="1.955" height="1"/>
	<rect x="16.357" y="26.62" class="st1" width="1" height="1.954"/>
	<rect x="16.357" y="30.287" class="st1" width="1" height="1.955"/>
	<rect x="14.046" y="28.931" class="st1" width="1.955" height="1"/>
	<rect x="17.714" y="28.931" class="st1" width="1.955" height="1"/>
	
		<rect x="28.005" y="22.462" transform="matrix(0.707 -0.7072 0.7072 0.707 -8.4629 27.1247)" class="st1" width="1" height="2.628"/>
	
		<rect x="31.581" y="20.168" transform="matrix(0.9552 -0.296 0.296 0.9552 -4.9209 10.4577)" class="st1" width="1" height="2.628"/>
	<rect x="35" y="20.62" transform="matrix(0.1837 -0.983 0.983 0.1837 8.8829 52.936)" class="st1" width="2.627" height="0.999"/>
	
		<rect x="38.914" y="22.271" transform="matrix(0.6198 -0.7848 0.7848 0.6198 -2.5757 40.227)" class="st1" width="2.628" height="1.001"/>
	
		<rect x="41.607" y="25.558" transform="matrix(0.9145 -0.4045 0.4045 0.9145 -6.8722 19.5888)" class="st1" width="2.627" height="0.999"/>
	
		<rect x="25.81" y="25.939" transform="matrix(0.296 -0.9552 0.9552 0.296 -7.5086 44.3179)" class="st1" width="1" height="2.628"/>
	
		<rect x="24.634" y="30.986" transform="matrix(0.983 -0.1835 0.1835 0.983 -5.3376 5.2968)" class="st1" width="2.627" height="1"/>
	
		<rect x="26.286" y="34.9" transform="matrix(0.7844 -0.6203 0.6203 0.7844 -16.0069 24.7525)" class="st1" width="2.628" height="1"/>
	
		<rect x="29.572" y="37.593" transform="matrix(0.4045 -0.9145 0.9145 0.4045 -16.4451 50.9303)" class="st1" width="2.628" height="0.999"/>
</g>
</svg>
