<?xml version="1.0" encoding="iso-8859-1"?>
<!-- Generator: Adobe Illustrator 22.0.1, SVG Export Plug-In . SVG Version: 6.00 Build 0)  -->
<svg version="1.1" id="Layer_1" xmlns="http://www.w3.org/2000/svg" xmlns:xlink="http://www.w3.org/1999/xlink" x="0px" y="0px"
	 viewBox="0 0 64 64" style="enable-background:new 0 0 64 64;" xml:space="preserve">
<style type="text/css">
	.st0{fill:#F8F3F3;}
	.st1{fill:#63312D;}
	.st2{fill:#E1DDDD;}
	.st3{fill:#84DBFF;}
	.st4{fill:#CAF4FF;}
	.st5{fill:#52BADB;}
	.st6{fill:#F9DD9D;}
	.st7{fill:#FFEECF;}
	.st8{fill:#EFC36A;}
	.st9{fill:#F7A085;}
	.st10{fill:#82D9FF;}
	.st11{fill:#F7DB9B;}
	.st12{fill:#F9A287;}
	.st13{fill:#FFC8BB;}
	.st14{fill:#52B8D9;}
	.st15{fill:#DB785A;}
	.st16{fill:#EDCB85;}
	.st17{fill:#DBAB56;}
	.st18{fill:#D3A553;}
	.st19{fill:#FFFFFF;}
</style>
<g>
	<path class="st12" d="M49.471,52.117H7.023c-2.209,0-4-1.791-4-4v-24.61c0-2.209,1.791-4,4-4h42.447c2.209,0,4,1.791,4,4v24.61
		C53.471,50.326,51.68,52.117,49.471,52.117z"/>
	<path class="st13" d="M4.898,49.909v-25.61c0-1.657,1.343-3,3-3h43.447c0.593,0,1.151,0.137,1.657,0.369
		c-0.668-1.278-1.99-2.16-3.532-2.16H7.023c-2.209,0-4,1.791-4,4v24.61c0,1.616,0.963,3,2.343,3.631
		C5.077,51.195,4.898,50.576,4.898,49.909z"/>
	<rect x="3.023" y="26.745" class="st0" width="50.447" height="18.6"/>
	<rect x="3.023" y="26.745" class="st2" width="50.447" height="1.722"/>
	<path class="st1" d="M49.471,52.617H7.023c-2.481,0-4.5-2.019-4.5-4.5V23.508c0-2.481,2.019-4.5,4.5-4.5h42.447
		c2.481,0,4.5,2.019,4.5,4.5v24.609C53.971,50.599,51.952,52.617,49.471,52.617z M7.023,20.008c-1.93,0-3.5,1.57-3.5,3.5v24.609
		c0,1.93,1.57,3.5,3.5,3.5h42.447c1.93,0,3.5-1.57,3.5-3.5V23.508c0-1.93-1.57-3.5-3.5-3.5H7.023z"/>
	<rect x="3.023" y="26.245" class="st1" width="14.74" height="1"/>
	<rect x="34.87" y="26.245" class="st1" width="18.601" height="1"/>
	<rect x="3.023" y="44.845" class="st1" width="15.012" height="1"/>
	<rect x="34.87" y="44.845" class="st1" width="18.601" height="1"/>
	<polygon class="st10" points="35.313,19.508 17.764,19.508 21.247,11.883 31.83,11.883 	"/>
	<polygon class="st4" points="22.322,13.559 32.595,13.559 31.83,11.883 21.247,11.883 17.764,19.508 19.604,19.508 	"/>
	<path class="st1" d="M35.313,20.008H17.764c-0.17,0-0.329-0.086-0.42-0.229c-0.092-0.144-0.105-0.324-0.034-0.479l3.483-7.625
		c0.081-0.178,0.259-0.292,0.455-0.292H31.83c0.196,0,0.374,0.114,0.455,0.292l3.483,7.625c0.071,0.155,0.058,0.335-0.034,0.479
		C35.642,19.921,35.483,20.008,35.313,20.008z M18.542,19.008h15.993l-3.026-6.625h-9.94L18.542,19.008z"/>
	<polygon class="st14" points="37.69,11.883 31.83,11.883 35.313,19.508 41.174,19.508 	"/>
	<path class="st1" d="M41.174,20.008h-5.861c-0.196,0-0.374-0.114-0.455-0.292l-3.483-7.625c-0.071-0.155-0.058-0.335,0.034-0.479
		c0.092-0.143,0.25-0.229,0.42-0.229h5.861c0.196,0,0.374,0.114,0.455,0.292l3.483,7.625c0.071,0.155,0.058,0.335-0.034,0.479
		C41.502,19.921,41.344,20.008,41.174,20.008z M35.634,19.008h4.761l-3.026-6.625h-4.761L35.634,19.008z"/>
	<rect x="44.17" y="15.216" class="st11" width="6.591" height="4.291"/>
	<path class="st1" d="M50.761,20.008H44.17c-0.276,0-0.5-0.224-0.5-0.5v-4.292c0-0.276,0.224-0.5,0.5-0.5h6.591
		c0.276,0,0.5,0.224,0.5,0.5v4.292C51.261,19.784,51.038,20.008,50.761,20.008z M44.67,19.008h5.591v-3.292H44.67V19.008z"/>
	<rect x="50.761" y="15.216" class="st8" width="3.295" height="4.291"/>
	<path class="st1" d="M54.057,20.008h-3.295c-0.276,0-0.5-0.224-0.5-0.5v-4.292c0-0.276,0.224-0.5,0.5-0.5h3.295
		c0.276,0,0.5,0.224,0.5,0.5v4.292C54.557,19.784,54.333,20.008,54.057,20.008z M51.261,19.008h2.295v-3.292h-2.295V19.008z"/>
	<circle class="st11" cx="21.718" cy="36.045" r="11.325"/>
	<path class="st7" d="M12.221,36.518c0-6.254,5.07-11.325,11.324-11.325c0.655,0,1.292,0.068,1.917,0.174
		c-1.174-0.412-2.43-0.647-3.744-0.647c-6.254,0-11.324,5.07-11.324,11.324c0,5.6,4.068,10.238,9.408,11.15
		C15.39,45.648,12.221,41.458,12.221,36.518z"/>
	<path class="st1" d="M21.718,47.869c-6.52,0-11.824-5.304-11.824-11.824S15.198,24.22,21.718,24.22s11.825,5.305,11.825,11.825
		S28.238,47.869,21.718,47.869z M21.718,25.22c-5.968,0-10.824,4.856-10.824,10.825c0,5.968,4.856,10.824,10.824,10.824
		c5.969,0,10.825-4.856,10.825-10.824C32.542,30.076,27.687,25.22,21.718,25.22z"/>
	<circle class="st10" cx="21.718" cy="36.045" r="6.734"/>
	<path class="st14" d="M16.546,36.389c0-3.719,3.015-6.734,6.734-6.734c0.216,0,0.429,0.012,0.64,0.032
		c-0.691-0.24-1.43-0.376-2.203-0.376c-3.719,0-6.734,3.015-6.734,6.734c0,3.503,2.675,6.379,6.094,6.702
		C18.442,41.833,16.546,39.335,16.546,36.389z"/>
	<path class="st1" d="M21.718,43.279c-3.989,0-7.234-3.245-7.234-7.234s3.245-7.234,7.234-7.234s7.235,3.245,7.235,7.234
		S25.707,43.279,21.718,43.279z M21.718,29.811c-3.438,0-6.234,2.797-6.234,6.234s2.797,6.234,6.234,6.234
		c3.438,0,6.235-2.797,6.235-6.234S25.156,29.811,21.718,29.811z"/>
	<path class="st8" d="M28.379,24.72h-6.661c6.254,0,11.325,5.07,11.325,11.325s-5.07,11.325-11.325,11.325h6.661
		c6.254,0,11.325-5.07,11.325-11.325S34.634,24.72,28.379,24.72z"/>
	<path class="st1" d="M28.379,47.869h-6.662c-0.276,0-0.5-0.224-0.5-0.5s0.224-0.5,0.5-0.5c5.969,0,10.825-4.856,10.825-10.824
		c0-5.969-4.856-10.825-10.825-10.825c-0.276,0-0.5-0.224-0.5-0.5s0.224-0.5,0.5-0.5h6.662c6.52,0,11.825,5.305,11.825,11.825
		S34.899,47.869,28.379,47.869z M26.477,46.869h1.903c5.969,0,10.825-4.856,10.825-10.824c0-5.969-4.856-10.825-10.825-10.825
		h-1.903c4.158,1.834,7.066,5.996,7.066,10.825C33.542,40.873,30.634,45.035,26.477,46.869z"/>
	<path class="st15" d="M56.977,19.508h-7.506c2.209,0,4,1.791,4,4v24.61c0,2.209-1.791,4-4,4h7.506c2.209,0,4-1.791,4-4v-24.61
		C60.977,21.299,59.186,19.508,56.977,19.508z"/>
	<path class="st1" d="M56.977,52.617h-7.506c-0.276,0-0.5-0.224-0.5-0.5s0.224-0.5,0.5-0.5c1.93,0,3.5-1.57,3.5-3.5V23.508
		c0-1.93-1.57-3.5-3.5-3.5c-0.276,0-0.5-0.224-0.5-0.5s0.224-0.5,0.5-0.5h7.506c2.481,0,4.5,2.019,4.5,4.5v24.609
		C61.477,50.599,59.458,52.617,56.977,52.617z M52.296,51.617h4.68c1.93,0,3.5-1.57,3.5-3.5V23.508c0-1.93-1.57-3.5-3.5-3.5h-4.68
		c1.021,0.826,1.674,2.088,1.674,3.5v24.609C53.971,49.529,53.317,50.792,52.296,51.617z"/>
</g>
</svg>
