<?xml version="1.0" encoding="iso-8859-1"?>
<!-- Generator: Adobe Illustrator 22.0.1, SVG Export Plug-In . SVG Version: 6.00 Build 0)  -->
<svg version="1.1" id="Layer_1" xmlns="http://www.w3.org/2000/svg" xmlns:xlink="http://www.w3.org/1999/xlink" x="0px" y="0px"
	 viewBox="0 0 64 64" style="enable-background:new 0 0 64 64;" xml:space="preserve">
<style type="text/css">
	.st0{fill:#F8F3F3;}
	.st1{fill:#63312D;}
	.st2{fill:#E1DDDD;}
	.st3{fill:#84DBFF;}
	.st4{fill:#CAF4FF;}
	.st5{fill:#52BADB;}
	.st6{fill:#F9DD9D;}
	.st7{fill:#FFEECF;}
	.st8{fill:#EFC36A;}
	.st9{fill:#F7A085;}
	.st10{fill:#82D9FF;}
	.st11{fill:#F7DB9B;}
	.st12{fill:#F9A287;}
	.st13{fill:#FFC8BB;}
	.st14{fill:#52B8D9;}
	.st15{fill:#DB785A;}
	.st16{fill:#EDCB85;}
	.st17{fill:#DBAB56;}
	.st18{fill:#D3A553;}
	.st19{fill:#FFFFFF;}
</style>
<g>
	<polygon class="st12" points="20.479,34.936 11.966,56.74 19.143,54.682 23.028,61.058 31.541,39.255 	"/>
	<g>
		<polygon class="st13" points="22.359,35.67 20.479,34.936 11.966,56.74 14.405,56.041 		"/>
	</g>
	<path class="st1" d="M23.028,61.559c-0.173,0-0.336-0.09-0.427-0.24l-3.687-6.05l-6.811,1.951
		c-0.182,0.056-0.379-0.004-0.507-0.144c-0.128-0.141-0.165-0.342-0.096-0.519l8.513-21.803c0.101-0.257,0.391-0.384,0.647-0.284
		l11.062,4.318c0.124,0.048,0.223,0.144,0.276,0.265c0.053,0.122,0.056,0.26,0.008,0.383L23.494,61.24
		c-0.069,0.178-0.233,0.3-0.422,0.316C23.057,61.558,23.043,61.559,23.028,61.559z M19.144,54.183c0.171,0,0.334,0.088,0.427,0.24
		l3.359,5.513l7.964-20.396l-10.13-3.955L12.799,55.98l6.207-1.778C19.051,54.188,19.098,54.183,19.144,54.183z"/>
	<polygon class="st15" points="31.541,39.255 23.028,61.058 26.856,61.058 35.369,39.255 	"/>
	<polygon class="st15" points="42.556,54.682 38.671,61.058 42.5,61.058 45.815,55.617 	"/>
	<polygon class="st15" points="45.048,34.936 41.726,36.233 49.733,56.74 53.561,56.74 	"/>
	<path class="st1" d="M26.856,61.559h-3.828c-0.165,0-0.32-0.082-0.413-0.218c-0.093-0.137-0.113-0.311-0.053-0.464l8.513-21.804
		c0.075-0.192,0.26-0.318,0.466-0.318h3.828c0.165,0,0.319,0.082,0.413,0.218c0.093,0.137,0.112,0.311,0.053,0.464L27.322,61.24
		C27.247,61.433,27.063,61.559,26.856,61.559z M23.76,60.559h2.755l8.122-20.804h-2.754L23.76,60.559z"/>
	<polygon class="st12" points="41.22,34.936 49.733,56.74 42.556,54.682 38.671,61.058 30.158,39.255 	"/>
	<g>
		<polygon class="st13" points="32.063,38.511 30.158,39.255 38.671,61.058 40.009,58.862 		"/>
	</g>
	<path class="st1" d="M38.671,61.559c-0.015,0-0.029-0.001-0.044-0.002c-0.189-0.017-0.353-0.139-0.422-0.316l-8.513-21.804
		c-0.048-0.123-0.045-0.261,0.008-0.383c0.053-0.121,0.153-0.217,0.276-0.265l11.062-4.318c0.258-0.102,0.547,0.027,0.647,0.284
		l8.513,21.803c0.069,0.177,0.032,0.378-0.096,0.519c-0.129,0.14-0.323,0.198-0.508,0.144l-6.811-1.951l-3.687,6.05
		C39.007,61.469,38.845,61.559,38.671,61.559z M30.806,39.539l7.964,20.396l3.359-5.513c0.116-0.193,0.349-0.284,0.564-0.221
		l6.206,1.778l-7.964-20.396L30.806,39.539z"/>
	<path class="st1" d="M42.5,61.559h-3.829c-0.181,0-0.348-0.098-0.436-0.255c-0.089-0.158-0.086-0.351,0.009-0.505l3.885-6.376
		c0.116-0.193,0.349-0.284,0.564-0.221l3.259,0.934c0.15,0.043,0.271,0.153,0.328,0.299s0.042,0.309-0.039,0.441l-3.314,5.442
		C42.836,61.468,42.675,61.559,42.5,61.559z M39.562,60.559h2.657l2.827-4.643l-2.262-0.647L39.562,60.559z"/>
	<path class="st1" d="M53.562,57.239h-3.829c-0.206,0-0.391-0.126-0.466-0.318l-8.006-20.506c-0.048-0.123-0.045-0.261,0.008-0.383
		c0.054-0.121,0.152-0.217,0.276-0.265l3.322-1.297c0.258-0.102,0.547,0.027,0.647,0.284l8.513,21.803
		c0.06,0.153,0.04,0.327-0.053,0.464C53.881,57.157,53.727,57.239,53.562,57.239z M50.074,56.239h2.755l-8.064-20.655l-2.391,0.934
		L50.074,56.239z"/>
	<polygon class="st6" points="29.412,4.91 37.731,2.941 42.222,10.216 49.496,14.706 47.528,23.026 49.496,31.345 42.222,35.835 
		37.731,43.11 29.412,41.141 21.093,43.11 16.602,35.835 9.328,31.345 11.296,23.026 9.328,14.706 16.602,10.216 21.093,2.941 	"/>
	<polygon class="st7" points="18.84,36.877 11.566,32.386 13.534,24.067 11.566,15.748 18.84,11.257 23.331,3.983 31.65,5.951 
		38.577,4.312 37.731,2.941 29.412,4.91 21.093,2.941 16.602,10.216 9.328,14.706 11.296,23.025 9.328,31.345 16.602,35.835 
		21.093,43.11 22.484,42.78 	"/>
	<path class="st1" d="M37.731,43.609c-0.038,0-0.077-0.004-0.115-0.014l-8.204-1.94l-8.204,1.94
		c-0.211,0.053-0.428-0.041-0.541-0.224l-4.428-7.174l-7.174-4.428c-0.183-0.113-0.273-0.331-0.224-0.541l1.941-8.204l-1.941-8.204
		c-0.05-0.21,0.041-0.428,0.224-0.541l7.174-4.428l4.428-7.174c0.113-0.183,0.329-0.278,0.541-0.224l8.204,1.941l8.204-1.941
		c0.209-0.054,0.428,0.041,0.541,0.224l4.428,7.174l7.174,4.428c0.184,0.113,0.273,0.331,0.224,0.541l-1.941,8.204l1.941,8.204
		c0.05,0.21-0.04,0.428-0.224,0.541l-7.174,4.428l-4.428,7.174C38.064,43.521,37.902,43.609,37.731,43.609z M29.412,40.642
		c0.039,0,0.077,0.005,0.115,0.014l7.968,1.885l4.301-6.968c0.041-0.066,0.097-0.122,0.163-0.163l6.968-4.301l-1.886-7.968
		c-0.019-0.076-0.019-0.154,0-0.23l1.886-7.968l-6.968-4.301c-0.066-0.041-0.122-0.097-0.163-0.163l-4.301-6.968l-7.968,1.886
		c-0.076,0.018-0.154,0.018-0.23,0l-7.968-1.886l-4.301,6.968c-0.041,0.066-0.097,0.122-0.163,0.163l-6.967,4.301l1.885,7.968
		c0.018,0.076,0.018,0.154,0,0.23l-1.885,7.968l6.967,4.301c0.066,0.041,0.122,0.097,0.163,0.163l4.301,6.968l7.968-1.885
		C29.335,40.646,29.374,40.642,29.412,40.642z"/>
	<circle class="st10" cx="29.412" cy="23.026" r="11.859"/>
	<path class="st14" d="M19.381,23.025c0-6.241,4.824-11.345,10.945-11.813c-0.303-0.023-0.605-0.046-0.914-0.046
		c-6.55,0-11.859,5.309-11.859,11.859c0,6.55,5.309,11.859,11.859,11.859c0.309,0,0.611-0.023,0.914-0.046
		C24.205,34.37,19.381,29.266,19.381,23.025z"/>
	<path class="st1" d="M29.412,35.385c-6.815,0-12.359-5.544-12.359-12.359s5.544-12.359,12.359-12.359
		c6.815,0,12.359,5.544,12.359,12.359S36.228,35.385,29.412,35.385z M29.412,11.666c-6.264,0-11.359,5.096-11.359,11.359
		s5.096,11.359,11.359,11.359s11.359-5.096,11.359-11.359S35.676,11.666,29.412,11.666z"/>
	<g>
		<polygon class="st8" points="54.525,14.706 47.251,10.216 42.76,2.941 37.731,2.941 42.222,10.216 49.496,14.706 47.528,23.025 
			49.496,31.345 42.222,35.835 37.731,43.11 42.76,43.11 47.251,35.835 54.525,31.345 52.557,23.025 		"/>
	</g>
	<g>
		<path class="st1" d="M42.761,43.609h-5.029c-0.182,0-0.349-0.098-0.437-0.257c-0.089-0.158-0.084-0.352,0.011-0.506l4.49-7.274
			c0.041-0.066,0.097-0.122,0.163-0.163l6.968-4.301l-1.886-7.968c-0.019-0.076-0.019-0.154,0-0.23l1.886-7.968l-6.968-4.301
			c-0.066-0.041-0.122-0.097-0.163-0.163l-4.49-7.274c-0.095-0.154-0.1-0.348-0.011-0.506c0.088-0.159,0.255-0.257,0.437-0.257
			h5.029c0.174,0,0.334,0.09,0.426,0.237l4.428,7.174l7.174,4.428c0.184,0.113,0.273,0.331,0.224,0.541l-1.941,8.204l1.941,8.204
			c0.05,0.21-0.04,0.428-0.224,0.541l-7.174,4.428l-4.428,7.174C43.095,43.52,42.935,43.609,42.761,43.609z M38.628,42.609h3.854
			l4.344-7.037c0.041-0.066,0.097-0.122,0.163-0.163l6.968-4.301l-1.886-7.968c-0.019-0.076-0.019-0.154,0-0.23l1.886-7.968
			l-6.968-4.301c-0.066-0.041-0.122-0.097-0.163-0.163l-4.344-7.037h-3.854l3.957,6.411l7.174,4.428
			c0.184,0.113,0.273,0.331,0.224,0.541l-1.941,8.204l1.941,8.204c0.05,0.21-0.04,0.428-0.224,0.541l-7.174,4.428L38.628,42.609z"/>
	</g>
	<rect x="49.356" y="14.255" class="st1" width="5.315" height="1"/>
	<rect x="49.466" y="30.833" class="st1" width="5.134" height="1"/>
</g>
</svg>
