<?xml version="1.0" encoding="iso-8859-1"?>
<!-- Generator: Adobe Illustrator 22.0.1, SVG Export Plug-In . SVG Version: 6.00 Build 0)  -->
<svg version="1.1" id="Layer_1" xmlns="http://www.w3.org/2000/svg" xmlns:xlink="http://www.w3.org/1999/xlink" x="0px" y="0px"
	 viewBox="0 0 64 64" style="enable-background:new 0 0 64 64;" xml:space="preserve">
<style type="text/css">
	.st0{fill:#F8F3F3;}
	.st1{fill:#63312D;}
	.st2{fill:#E1DDDD;}
	.st3{fill:#84DBFF;}
	.st4{fill:#CAF4FF;}
	.st5{fill:#52BADB;}
	.st6{fill:#F9DD9D;}
	.st7{fill:#FFEECF;}
	.st8{fill:#EFC36A;}
	.st9{fill:#F7A085;}
	.st10{fill:#82D9FF;}
	.st11{fill:#F7DB9B;}
	.st12{fill:#F9A287;}
	.st13{fill:#FFC8BB;}
	.st14{fill:#52B8D9;}
	.st15{fill:#DB785A;}
	.st16{fill:#EDCB85;}
	.st17{fill:#DBAB56;}
	.st18{fill:#D3A553;}
	.st19{fill:#FFFFFF;}
</style>
<g>
	<rect x="12.241" y="5.688" class="st10" width="39.517" height="8.938"/>
	<path class="st12" d="M56.875,38.125H7.125c-1.105,0-2-0.895-2-2v-19.5c0-1.105,0.895-2,2-2h49.75c1.105,0,2,0.895,2,2v19.5
		C58.875,37.23,57.98,38.125,56.875,38.125z"/>
	<path class="st13" d="M8.142,16.625h50.733c0-1.105-0.895-2-2-2H7.125c-1.105,0-2,0.895-2,2v19.5c0,1.105,0.895,2,2,2h0.017v-20.5
		C7.142,17.073,7.589,16.625,8.142,16.625z"/>
	<path class="st1" d="M56.875,38.625H7.125c-1.378,0-2.5-1.122-2.5-2.5v-19.5c0-1.378,1.122-2.5,2.5-2.5h49.75
		c1.378,0,2.5,1.122,2.5,2.5v19.5C59.375,37.503,58.253,38.625,56.875,38.625z M7.125,15.125c-0.827,0-1.5,0.673-1.5,1.5v19.5
		c0,0.827,0.673,1.5,1.5,1.5h49.75c0.827,0,1.5-0.673,1.5-1.5v-19.5c0-0.827-0.673-1.5-1.5-1.5H7.125z"/>
	<path class="st15" d="M56.78,38.125H7.22c-1.157,0-2.095-0.895-2.095-2V46.5c0,1.105,0.938,2,2.095,2H56.78
		c1.157,0,2.095-0.895,2.095-2V36.125C58.875,37.23,57.937,38.125,56.78,38.125z"/>
	<path class="st1" d="M56.78,49H7.22c-1.431,0-2.595-1.122-2.595-2.5V36.125c0-0.276,0.224-0.5,0.5-0.5s0.5,0.224,0.5,0.5
		c0,0.827,0.715,1.5,1.595,1.5H56.78c0.879,0,1.595-0.673,1.595-1.5c0-0.276,0.224-0.5,0.5-0.5s0.5,0.224,0.5,0.5V46.5
		C59.375,47.878,58.211,49,56.78,49z M5.625,38.096V46.5c0,0.827,0.715,1.5,1.595,1.5H56.78c0.879,0,1.595-0.673,1.595-1.5v-8.404
		c-0.44,0.332-0.994,0.529-1.595,0.529H7.22C6.619,38.625,6.065,38.427,5.625,38.096z"/>
	<rect x="13.125" y="40.833" class="st0" width="37.75" height="4.917"/>
	<path class="st1" d="M50.875,46.25h-37.75c-0.276,0-0.5-0.224-0.5-0.5v-4.917c0-0.276,0.224-0.5,0.5-0.5h37.75
		c0.276,0,0.5,0.224,0.5,0.5v4.917C51.375,46.026,51.151,46.25,50.875,46.25z M13.625,45.25h36.75v-3.917h-36.75V45.25z"/>
	<rect x="17.125" y="40.833" class="st11" width="29.75" height="20.058"/>
	<path class="st1" d="M46.875,61.392h-29.75c-0.276,0-0.5-0.224-0.5-0.5V40.833c0-0.276,0.224-0.5,0.5-0.5h29.75
		c0.276,0,0.5,0.224,0.5,0.5v20.058C47.375,61.168,47.151,61.392,46.875,61.392z M17.625,60.392h28.75V41.333h-28.75V60.392z"/>
	<rect x="21.031" y="40.833" class="st0" width="21.939" height="16.667"/>
	<rect x="17.125" y="10.156" class="st11" width="29.75" height="4.469"/>
	<path class="st1" d="M46.875,15.125h-29.75c-0.276,0-0.5-0.224-0.5-0.5v-4.469c0-0.276,0.224-0.5,0.5-0.5h29.75
		c0.276,0,0.5,0.224,0.5,0.5v4.469C47.375,14.901,47.151,15.125,46.875,15.125z M17.625,14.125h28.75v-3.469h-28.75V14.125z"/>
	<path class="st1" d="M51.759,15.125H12.241c-0.276,0-0.5-0.224-0.5-0.5V5.688c0-0.276,0.224-0.5,0.5-0.5h39.518
		c0.276,0,0.5,0.224,0.5,0.5v8.938C52.259,14.901,52.035,15.125,51.759,15.125z M12.741,14.125h38.518V6.188H12.741V14.125z"/>
	<rect x="12.241" y="3.108" class="st14" width="39.517" height="2.579"/>
	<path class="st1" d="M51.759,6.188H12.241c-0.276,0-0.5-0.224-0.5-0.5V3.108c0-0.276,0.224-0.5,0.5-0.5h39.518
		c0.276,0,0.5,0.224,0.5,0.5v2.579C52.259,5.964,52.035,6.188,51.759,6.188z M12.741,5.188h38.518V3.608H12.741V5.188z"/>
	<polygon class="st10" points="37.176,50.616 34.776,53.468 29.6,47.318 21.031,57.5 31.382,57.5 38.169,57.5 42.969,57.5 	"/>
	<path class="st1" d="M42.969,58H21.031c-0.276,0-0.5-0.224-0.5-0.5V40.833c0-0.276,0.224-0.5,0.5-0.5h21.938
		c0.276,0,0.5,0.224,0.5,0.5V57.5C43.469,57.776,43.246,58,42.969,58z M21.531,57h20.938V41.333H21.531V57z"/>
	<circle class="st8" cx="34.781" cy="46.219" r="1.656"/>
	<rect x="40.083" y="31.167" class="st0" width="14.813" height="3.438"/>
	<path class="st1" d="M54.896,35.104H40.083c-0.276,0-0.5-0.224-0.5-0.5v-3.438c0-0.276,0.224-0.5,0.5-0.5h14.813
		c0.276,0,0.5,0.224,0.5,0.5v3.438C55.396,34.88,55.172,35.104,54.896,35.104z M40.583,34.104h13.813v-2.438H40.583V34.104z"/>
	<rect x="44.552" y="31.167" class="st1" width="1" height="3.438"/>
	<rect x="49.427" y="31.167" class="st1" width="1" height="3.438"/>
</g>
</svg>
