<?xml version="1.0" encoding="iso-8859-1"?>
<!-- Generator: Adobe Illustrator 22.0.1, SVG Export Plug-In . SVG Version: 6.00 Build 0)  -->
<svg version="1.1" id="Layer_1" xmlns="http://www.w3.org/2000/svg" xmlns:xlink="http://www.w3.org/1999/xlink" x="0px" y="0px"
	 viewBox="0 0 64 64" style="enable-background:new 0 0 64 64;" xml:space="preserve">
<style type="text/css">
	.st0{fill:#F8F3F3;}
	.st1{fill:#63312D;}
	.st2{fill:#E1DDDD;}
	.st3{fill:#84DBFF;}
	.st4{fill:#CAF4FF;}
	.st5{fill:#52BADB;}
	.st6{fill:#F9DD9D;}
	.st7{fill:#FFEECF;}
	.st8{fill:#EFC36A;}
	.st9{fill:#F7A085;}
	.st10{fill:#82D9FF;}
	.st11{fill:#F7DB9B;}
	.st12{fill:#F9A287;}
	.st13{fill:#FFC8BB;}
	.st14{fill:#52B8D9;}
	.st15{fill:#DB785A;}
	.st16{fill:#EDCB85;}
	.st17{fill:#DBAB56;}
	.st18{fill:#D3A553;}
	.st19{fill:#FFFFFF;}
</style>
<g>
	<path class="st10" d="M49.334,19.004H6.554c-1.903,0-3.446,1.543-3.446,3.446v28.641c0,1.903,1.543,3.446,3.446,3.446h42.78
		c1.903,0,3.446-1.543,3.446-3.446V22.45C52.779,20.547,51.237,19.004,49.334,19.004z"/>
	<path class="st4" d="M5.056,22.931c0-1.105,0.895-2,2-2h45.352c-0.558-1.14-1.719-1.927-3.075-1.927H6.554
		c-1.903,0-3.446,1.543-3.446,3.445v28.641c0,1.363,0.798,2.524,1.948,3.079V22.931z"/>
	<rect x="3.108" y="32.356" class="st14" width="49.671" height="1.967"/>
	<path class="st1" d="M49.334,55.036H6.554c-2.176,0-3.945-1.77-3.945-3.945V22.45c0-2.176,1.77-3.946,3.945-3.946h42.78
		c2.176,0,3.945,1.771,3.945,3.946v28.641C53.279,53.267,51.51,55.036,49.334,55.036z M6.554,19.504
		c-1.624,0-2.945,1.321-2.945,2.946v28.641c0,1.624,1.321,2.945,2.945,2.945h42.78c1.624,0,2.945-1.321,2.945-2.945V22.45
		c0-1.625-1.321-2.946-2.945-2.946H6.554z"/>
	<rect x="3.252" y="31.855" class="st1" width="49.384" height="1"/>
	<path class="st14" d="M57.446,19.004h-8.112c1.903,0,3.446,1.543,3.446,3.446v28.641c0,1.903-1.543,3.446-3.446,3.446h8.112
		c1.903,0,3.446-1.543,3.446-3.446V22.45C60.892,20.547,59.349,19.004,57.446,19.004z"/>
	<path class="st1" d="M57.446,55.036h-8.112c-0.276,0-0.5-0.224-0.5-0.5s0.224-0.5,0.5-0.5c1.624,0,2.945-1.321,2.945-2.945V22.45
		c0-1.625-1.321-2.946-2.945-2.946c-0.276,0-0.5-0.224-0.5-0.5s0.224-0.5,0.5-0.5h8.112c2.176,0,3.945,1.771,3.945,3.946v28.641
		C61.392,53.267,59.622,55.036,57.446,55.036z M51.956,54.036h5.49c1.624,0,2.945-1.321,2.945-2.945V22.45
		c0-1.625-1.321-2.946-2.945-2.946h-5.49c0.812,0.724,1.323,1.776,1.323,2.946v28.641C53.279,52.261,52.768,53.313,51.956,54.036z"
		/>
	<path class="st8" d="M39.372,9.464h-4.05c2.014,0,3.647,1.633,3.647,3.647v5.894h4.05V13.11
		C43.018,11.097,41.386,9.464,39.372,9.464z"/>
	<path class="st1" d="M43.019,19.504h-4.05c-0.276,0-0.5-0.224-0.5-0.5V13.11c0-1.735-1.411-3.146-3.146-3.146
		c-0.276,0-0.5-0.224-0.5-0.5s0.224-0.5,0.5-0.5h4.05c2.286,0,4.146,1.86,4.146,4.146v5.894
		C43.519,19.28,43.295,19.504,43.019,19.504z M39.469,18.504h3.05V13.11c0-1.735-1.411-3.146-3.146-3.146H38.02
		c0.887,0.761,1.449,1.89,1.449,3.146V18.504z"/>
	<path class="st6" d="M35.322,9.464h-11.7c-2.014,0-3.647,1.633-3.647,3.647v5.894h4.05v-5.472h10.893v5.472h4.05V13.11
		C38.969,11.097,37.336,9.464,35.322,9.464z"/>
	<g>
		<path class="st7" d="M21.648,13.489c0-1.299,1.053-2.353,2.353-2.353h14.287c0.034,0,0.065,0.008,0.098,0.01
			c-0.649-1.009-1.775-1.682-3.064-1.682h-11.7c-2.014,0-3.647,1.633-3.647,3.647v5.894h1.672V13.489z"/>
	</g>
	<path class="st1" d="M38.969,19.504h-4.05c-0.276,0-0.5-0.224-0.5-0.5v-4.972h-9.894v4.972c0,0.276-0.224,0.5-0.5,0.5h-4.05
		c-0.276,0-0.5-0.224-0.5-0.5V13.11c0-2.286,1.86-4.146,4.146-4.146h11.7c2.286,0,4.146,1.86,4.146,4.146v5.894
		C39.469,19.28,39.245,19.504,38.969,19.504z M35.419,18.504h3.05V13.11c0-1.735-1.411-3.146-3.146-3.146h-11.7
		c-1.735,0-3.146,1.411-3.146,3.146v5.394h3.05v-4.972c0-0.276,0.224-0.5,0.5-0.5h10.894c0.276,0,0.5,0.224,0.5,0.5V18.504z"/>
	<polygon class="st12" points="23.447,37.724 21.704,45.778 24.081,44.662 25.784,46.661 27.527,38.607 	"/>
	<polygon class="st12" points="32.442,37.724 34.183,45.766 31.807,44.653 30.103,46.649 28.362,38.607 	"/>
	<path class="st1" d="M25.784,47.161c-0.145,0-0.284-0.063-0.381-0.176l-1.455-1.708l-2.031,0.953
		c-0.174,0.082-0.376,0.057-0.524-0.061c-0.148-0.119-0.218-0.312-0.177-0.497l1.743-8.055c0.027-0.13,0.106-0.243,0.218-0.314
		s0.248-0.098,0.376-0.068l4.08,0.884c0.271,0.058,0.441,0.324,0.383,0.594l-1.743,8.054c-0.04,0.187-0.182,0.333-0.366,0.38
		C25.865,47.156,25.825,47.161,25.784,47.161z M24.081,44.162c0.143,0,0.283,0.062,0.381,0.176l1.048,1.229l1.423-6.577
		l-3.103-0.672l-1.424,6.578l1.462-0.687C23.937,44.178,24.009,44.162,24.081,44.162z"/>
	<path class="st1" d="M30.104,47.149c-0.041,0-0.081-0.005-0.122-0.015c-0.185-0.047-0.326-0.193-0.366-0.38l-1.741-8.042
		c-0.059-0.27,0.112-0.536,0.383-0.594l4.08-0.884c0.127-0.029,0.266-0.003,0.376,0.068c0.111,0.071,0.19,0.185,0.218,0.314
		l1.741,8.043c0.041,0.186-0.028,0.378-0.177,0.496c-0.147,0.12-0.352,0.142-0.523,0.063l-2.032-0.953l-1.455,1.707
		C30.388,47.087,30.248,47.149,30.104,47.149z M28.957,38.99l1.422,6.566l1.047-1.229c0.147-0.172,0.394-0.222,0.593-0.129
		l1.463,0.686l-1.422-6.566L28.957,38.99z"/>
	<polygon class="st6" points="27.939,27.039 30.863,26.347 32.442,28.905 34.999,30.483 34.307,33.408 34.999,36.332 32.442,37.911 
		30.863,40.468 27.939,39.776 25.014,40.468 23.436,37.911 20.878,36.332 21.57,33.408 20.878,30.483 23.436,28.905 25.014,26.347 	
		"/>
	<path class="st1" d="M30.863,40.969c-0.038,0-0.077-0.004-0.115-0.014l-2.81-0.665l-2.809,0.665
		c-0.209,0.054-0.428-0.041-0.541-0.224l-1.517-2.457l-2.457-1.517c-0.184-0.113-0.273-0.331-0.224-0.541l0.665-2.809l-0.665-2.81
		c-0.05-0.21,0.04-0.428,0.224-0.541l2.457-1.517l1.517-2.456c0.113-0.183,0.332-0.279,0.541-0.224l2.809,0.664l2.81-0.664
		c0.21-0.055,0.428,0.041,0.541,0.224l1.517,2.456l2.456,1.517c0.184,0.113,0.273,0.331,0.224,0.541l-0.664,2.81l0.664,2.809
		c0.05,0.21-0.04,0.428-0.224,0.541l-2.456,1.517l-1.517,2.457C31.196,40.881,31.034,40.969,30.863,40.969z M27.938,39.276
		c0.039,0,0.077,0.005,0.115,0.014l2.573,0.609l1.39-2.251c0.041-0.066,0.097-0.122,0.163-0.163l2.25-1.39l-0.608-2.572
		c-0.019-0.076-0.019-0.154,0-0.23l0.608-2.573l-2.25-1.39c-0.066-0.041-0.122-0.097-0.163-0.163l-1.39-2.25l-2.573,0.608
		c-0.076,0.018-0.154,0.018-0.23,0l-2.572-0.608l-1.39,2.25c-0.041,0.066-0.097,0.122-0.163,0.163l-2.251,1.39l0.609,2.573
		c0.019,0.076,0.019,0.154,0,0.23l-0.609,2.572l2.251,1.39c0.066,0.041,0.122,0.097,0.163,0.163l1.39,2.251l2.572-0.609
		C27.861,39.281,27.899,39.276,27.938,39.276z"/>
	<circle class="st0" cx="27.939" cy="33.408" r="3.883"/>
	<path class="st1" d="M27.938,37.791c-2.417,0-4.383-1.966-4.383-4.383s1.966-4.383,4.383-4.383s4.384,1.966,4.384,4.383
		S30.355,37.791,27.938,37.791z M27.938,30.025c-1.865,0-3.383,1.518-3.383,3.383s1.518,3.383,3.383,3.383
		c1.866,0,3.384-1.518,3.384-3.383S29.805,30.025,27.938,30.025z"/>
</g>
</svg>
