<?xml version="1.0" encoding="iso-8859-1"?>
<!-- Generator: Adobe Illustrator 22.0.1, SVG Export Plug-In . SVG Version: 6.00 Build 0)  -->
<svg version="1.1" id="Layer_1" xmlns="http://www.w3.org/2000/svg" xmlns:xlink="http://www.w3.org/1999/xlink" x="0px" y="0px"
	 viewBox="0 0 64 64" style="enable-background:new 0 0 64 64;" xml:space="preserve">
<style type="text/css">
	.st0{fill:#F8F3F3;}
	.st1{fill:#63312D;}
	.st2{fill:#E1DDDD;}
	.st3{fill:#84DBFF;}
	.st4{fill:#CAF4FF;}
	.st5{fill:#52BADB;}
	.st6{fill:#F9DD9D;}
	.st7{fill:#FFEECF;}
	.st8{fill:#EFC36A;}
	.st9{fill:#F7A085;}
	.st10{fill:#82D9FF;}
	.st11{fill:#F7DB9B;}
	.st12{fill:#F9A287;}
	.st13{fill:#FFC8BB;}
	.st14{fill:#52B8D9;}
	.st15{fill:#DB785A;}
	.st16{fill:#EDCB85;}
	.st17{fill:#DBAB56;}
	.st18{fill:#D3A553;}
	.st19{fill:#FFFFFF;}
</style>
<g>
	<circle class="st0" cx="32" cy="31.791" r="25.722"/>
	<path class="st1" d="M32.021,52.81H32c-0.681,0-1.366-0.033-2.036-0.098l0.096-0.996c0.639,0.063,1.292,0.094,1.94,0.094
		L32.021,52.81z M34.081,52.708l-0.098-0.996c0.651-0.063,1.305-0.161,1.941-0.287l0.195,0.98
		C35.451,52.538,34.766,52.64,34.081,52.708z M27.925,52.415c-0.671-0.131-1.345-0.298-2.002-0.496l0.289-0.957
		c0.625,0.188,1.266,0.347,1.904,0.473L27.925,52.415z M38.119,51.903l-0.289-0.957c0.616-0.187,1.237-0.409,1.848-0.662
		l0.383,0.924C39.42,51.474,38.768,51.707,38.119,51.903z M23.981,51.226c-0.63-0.26-1.258-0.556-1.865-0.879l0.471-0.883
		c0.578,0.309,1.176,0.59,1.775,0.838L23.981,51.226z M41.923,50.324l-0.473-0.881c0.572-0.308,1.139-0.648,1.683-1.013l0.557,0.83
		C43.118,49.644,42.524,50.002,41.923,50.324z M20.348,49.286c-0.572-0.381-1.13-0.794-1.657-1.227l0.633-0.773
		c0.503,0.412,1.034,0.805,1.579,1.168L20.348,49.286z M45.343,48.03l-0.635-0.771c0.503-0.415,0.993-0.859,1.454-1.32l0.707,0.707
		C46.385,47.13,45.872,47.596,45.343,48.03z M17.162,46.678c-0.484-0.482-0.951-0.995-1.388-1.524l0.771-0.637
		c0.416,0.505,0.86,0.993,1.321,1.452L17.162,46.678z M48.255,45.117l-0.773-0.635c0.414-0.504,0.808-1.034,1.171-1.576l0.83,0.557
		C49.103,44.031,48.688,44.588,48.255,45.117z M14.542,43.498c-0.38-0.565-0.738-1.16-1.064-1.765l0.881-0.475
		c0.311,0.577,0.651,1.143,1.014,1.683L14.542,43.498z M50.545,41.694l-0.883-0.471c0.31-0.58,0.592-1.178,0.84-1.775l0.924,0.383
		C51.166,40.459,50.869,41.085,50.545,41.694z M12.59,39.872c-0.264-0.633-0.498-1.285-0.697-1.94l0.957-0.291
		c0.189,0.623,0.413,1.245,0.664,1.847L12.59,39.872z M52.121,37.889L51.164,37.6c0.189-0.627,0.349-1.268,0.475-1.904l0.98,0.193
		C52.487,36.558,52.32,37.23,52.121,37.889z M11.39,35.934c-0.135-0.671-0.237-1.357-0.305-2.039l0.996-0.098
		c0.063,0.648,0.161,1.301,0.289,1.939L11.39,35.934z M52.92,33.848l-0.996-0.096c0.063-0.651,0.095-1.312,0.095-1.961l1-0.088
		v0.088C53.019,32.473,52.985,33.165,52.92,33.848z M10.981,31.834v-0.043c0-0.677,0.032-1.354,0.096-2.015l0.996,0.096
		c-0.061,0.629-0.092,1.274-0.092,1.919L10.981,31.834z M51.916,29.745c-0.066-0.652-0.165-1.306-0.294-1.941l0.98-0.197
		c0.135,0.667,0.238,1.353,0.308,2.037L51.916,29.745z M12.354,27.929l-0.98-0.191c0.132-0.674,0.298-1.348,0.494-2.001l0.957,0.287
		C12.638,26.646,12.479,27.287,12.354,27.929z M51.137,25.9c-0.188-0.618-0.414-1.239-0.668-1.845l0.922-0.387
		c0.268,0.636,0.504,1.288,0.703,1.938L51.137,25.9z M13.48,24.174l-0.924-0.381c0.26-0.631,0.555-1.259,0.877-1.865l0.883,0.469
		C14.01,22.975,13.729,23.572,13.48,24.174z M49.621,22.284c-0.308-0.57-0.649-1.135-1.017-1.678l0.828-0.561
		c0.386,0.57,0.745,1.164,1.069,1.764L49.621,22.284z M15.324,20.711l-0.832-0.555c0.379-0.567,0.791-1.125,1.225-1.658l0.775,0.633
		C16.078,19.638,15.685,20.17,15.324,20.711z M47.428,19.033c-0.417-0.504-0.863-0.991-1.325-1.449l0.705-0.711
		c0.484,0.481,0.952,0.993,1.39,1.521L47.428,19.033z M17.808,17.673l-0.709-0.705c0.483-0.485,0.996-0.952,1.523-1.389l0.637,0.771
		C18.756,16.766,18.268,17.211,17.808,17.673z M44.643,16.27c-0.502-0.41-1.034-0.802-1.58-1.166l0.553-0.832
		c0.574,0.381,1.132,0.793,1.66,1.223L44.643,16.27z M20.832,15.175l-0.559-0.83c0.566-0.381,1.159-0.739,1.764-1.065l0.475,0.879
		C21.937,14.47,21.371,14.812,20.832,15.175z M41.376,14.099c-0.583-0.309-1.181-0.589-1.777-0.834l0.379-0.926
		c0.627,0.258,1.255,0.553,1.867,0.877L41.376,14.099z M24.284,13.313l-0.387-0.922c0.632-0.265,1.284-0.5,1.939-0.701l0.293,0.957
		C25.506,12.838,24.885,13.063,24.284,13.313z M37.748,12.609c-0.628-0.188-1.27-0.346-1.907-0.469l0.191-0.982
		c0.669,0.131,1.343,0.296,2.001,0.492L37.748,12.609z M28.033,12.166l-0.197-0.98c0.674-0.135,1.36-0.238,2.038-0.306l0.1,0.994
		C29.328,11.939,28.675,12.037,28.033,12.166z M33.898,11.862c-0.629-0.06-1.268-0.09-1.898-0.09l-0.065-1H32
		c0.662,0,1.332,0.031,1.992,0.094L33.898,11.862z"/>
	<path class="st1" d="M32,58.013c-14.459,0-26.222-11.763-26.222-26.222S17.541,5.569,32,5.569s26.222,11.763,26.222,26.222
		S46.459,58.013,32,58.013z M32,6.569c-13.907,0-25.222,11.314-25.222,25.222S18.093,57.013,32,57.013s25.222-11.314,25.222-25.222
		S45.907,6.569,32,6.569z"/>
	<polygon class="st12" points="10.639,60.76 7.005,57.126 3.371,53.492 53.623,3.24 60.892,10.508 	"/>
	<path class="st1" d="M10.64,61.261c-0.133,0-0.26-0.053-0.354-0.146l-7.269-7.269c-0.195-0.195-0.195-0.512,0-0.707L53.27,2.886
		c0.188-0.188,0.52-0.188,0.707,0l7.269,7.269c0.195,0.195,0.195,0.512,0,0.707L10.993,61.114
		C10.899,61.208,10.772,61.261,10.64,61.261z M4.078,53.492l6.562,6.562l49.545-49.546l-6.562-6.562L4.078,53.492z"/>
	<rect x="50.486" y="6.786" transform="matrix(0.707 -0.7072 0.7072 0.707 8.5865 38.69)" class="st1" width="1" height="4.392"/>
	
		<rect x="46.644" y="10.629" transform="matrix(0.7071 -0.7071 0.7071 0.7071 4.7392 37.0919)" class="st1" width="1" height="4.392"/>
	
		<rect x="42.801" y="14.472" transform="matrix(0.7071 -0.7071 0.7071 0.7071 0.8965 35.5002)" class="st1" width="1" height="4.392"/>
	
		<rect x="38.958" y="18.314" transform="matrix(0.7071 -0.7071 0.7071 0.7071 -2.9456 33.9082)" class="st1" width="1" height="4.392"/>
	
		<rect x="35.116" y="22.157" transform="matrix(0.7071 -0.7071 0.7071 0.7071 -6.7881 32.3172)" class="st1" width="1" height="4.392"/>
	
		<rect x="31.273" y="25.999" transform="matrix(0.7071 -0.7071 0.7071 0.7071 -10.6309 30.7254)" class="st1" width="1" height="4.392"/>
	
		<rect x="27.431" y="29.841" transform="matrix(0.7071 -0.7071 0.7071 0.7071 -14.473 29.1334)" class="st1" width="1" height="4.392"/>
	
		<rect x="23.589" y="33.684" transform="matrix(0.7071 -0.7071 0.7071 0.7071 -18.3154 27.5424)" class="st1" width="1" height="4.392"/>
	
		<rect x="19.746" y="37.527" transform="matrix(0.7071 -0.7071 0.7071 0.7071 -22.1582 25.9506)" class="st1" width="1" height="4.392"/>
	
		<rect x="15.903" y="41.369" transform="matrix(0.7072 -0.707 0.707 0.7072 -25.9976 24.3521)" class="st1" width="1" height="4.392"/>
	
		<rect x="12.062" y="45.211" transform="matrix(0.7071 -0.7071 0.7071 0.7071 -29.8428 22.7676)" class="st1" width="1" height="4.392"/>
	
		<rect x="8.219" y="49.054" transform="matrix(0.7071 -0.7071 0.7071 0.7071 -33.6856 21.1759)" class="st1" width="1" height="4.392"/>
	<polygon class="st10" points="54.878,48.732 60.892,60.682 48.271,55.34 3.108,10.178 9.716,3.57 	"/>
	<polygon class="st0" points="60.89,60.681 56.42,58.791 48.27,55.341 54.88,48.731 58.69,56.311 	"/>
	<polygon class="st9" points="60.89,60.681 56.42,58.791 58.69,56.311 	"/>
	
		<rect x="6.035" y="5.095" transform="matrix(0.7071 -0.7071 0.7071 0.7071 -4.7615 10.8423)" class="st11" width="9.345" height="12.148"/>
	<path class="st1" d="M60.892,61.183c-0.065,0-0.132-0.013-0.195-0.04L48.075,55.8c-0.059-0.024-0.112-0.061-0.158-0.106
		L2.755,10.531c-0.195-0.195-0.195-0.512,0-0.707l6.607-6.607c0.195-0.195,0.512-0.195,0.707,0l45.162,45.162
		c0.038,0.038,0.069,0.081,0.093,0.129l6.014,11.95c0.095,0.188,0.062,0.413-0.081,0.566C61.16,61.128,61.027,61.183,60.892,61.183z
		 M48.555,54.917l11.278,4.774l-5.365-10.662L9.716,4.277l-5.9,5.9L48.555,54.917z"/>
	
		<rect x="46.902" y="51.536" transform="matrix(0.7071 -0.7071 0.7071 0.7071 -21.6894 51.7095)" class="st1" width="9.344" height="1"/>
	
		<rect x="10.33" y="14.964" transform="matrix(0.7071 -0.7071 0.7071 0.7071 -6.5406 15.1372)" class="st1" width="9.344" height="1"/>
	
		<rect x="32.871" y="7.855" transform="matrix(0.7071 -0.7071 0.7071 0.7071 -14.1494 33.5064)" class="st1" width="1" height="51.956"/>
	<path class="st11" d="M33.259,43.922h-5.935c-4.119,0-7.014-4.056-5.674-7.951l4.657-9.473h7.969l4.657,9.473
		C40.273,39.866,37.379,43.922,33.259,43.922z"/>
	<path class="st7" d="M23.359,35.971l4.657-9.473h-1.708l-4.657,9.473c-1.34,3.895,1.554,7.951,5.674,7.951h1.708
		C24.913,43.922,22.019,39.866,23.359,35.971z"/>
	<polygon class="st8" points="34.912,27.791 34.277,26.498 26.307,26.498 25.672,27.791 	"/>
	<path class="st1" d="M33.26,44.422h-5.936c-2.127,0-4.056-0.993-5.291-2.725s-1.548-3.878-0.855-5.89l4.682-9.53
		c0.084-0.171,0.258-0.279,0.448-0.279h7.969c0.19,0,0.364,0.108,0.448,0.279l4.657,9.473c0.717,2.069,0.404,4.216-0.831,5.947
		S35.387,44.422,33.26,44.422z M26.619,26.998l-4.521,9.193c-0.561,1.644-0.297,3.46,0.748,4.925
		c1.046,1.466,2.678,2.306,4.478,2.306h5.936c1.8,0,3.432-0.84,4.478-2.306c1.045-1.465,1.309-3.281,0.724-4.982l-4.496-9.136
		H26.619z"/>
	<rect x="25.198" y="24.077" class="st0" width="10.188" height="2.421"/>
	<path class="st1" d="M35.386,26.998H25.198c-0.276,0-0.5-0.224-0.5-0.5v-2.421c0-0.276,0.224-0.5,0.5-0.5h10.188
		c0.276,0,0.5,0.224,0.5,0.5v2.421C35.886,26.774,35.662,26.998,35.386,26.998z M25.698,25.998h9.188v-1.421h-9.188V25.998z"/>
	<rect x="35.386" y="24.077" class="st2" width="2.837" height="2.421"/>
	<path class="st1" d="M38.223,26.998h-2.837c-0.276,0-0.5-0.224-0.5-0.5v-2.421c0-0.276,0.224-0.5,0.5-0.5h2.837
		c0.276,0,0.5,0.224,0.5,0.5v2.421C38.723,26.774,38.499,26.998,38.223,26.998z M35.886,25.998h1.837v-1.421h-1.837V25.998z"/>
	<polygon class="st11" points="34.209,24.077 26.375,24.077 25.355,19.181 35.23,19.181 	"/>
	<polygon class="st7" points="27.294,20.66 34.921,20.66 35.23,19.181 25.355,19.181 26.375,24.077 28.006,24.077 	"/>
	<path class="st1" d="M34.209,24.577h-7.834c-0.237,0-0.441-0.166-0.489-0.398l-1.021-4.896c-0.031-0.146,0.007-0.3,0.102-0.417
		s0.237-0.185,0.388-0.185h9.875c0.15,0,0.293,0.067,0.388,0.185s0.133,0.271,0.102,0.417l-1.021,4.896
		C34.65,24.411,34.446,24.577,34.209,24.577z M26.781,23.577h7.021l0.812-3.896H25.97L26.781,23.577z"/>
	<path class="st8" d="M41.896,35.971l-4.657-9.473h-2.963l4.657,9.473c1.34,3.895-1.554,7.952-5.674,7.952h2.963
		C40.342,43.922,43.236,39.866,41.896,35.971z"/>
	<path class="st1" d="M36.223,44.422H33.26c-0.276,0-0.5-0.224-0.5-0.5s0.224-0.5,0.5-0.5c1.8,0,3.432-0.84,4.478-2.306
		c1.045-1.465,1.309-3.281,0.724-4.982l-4.633-9.415c-0.076-0.155-0.067-0.339,0.023-0.485c0.092-0.146,0.252-0.235,0.425-0.235
		h2.963c0.19,0,0.364,0.108,0.448,0.279l4.657,9.473c0.01,0.019,0.018,0.038,0.024,0.058c0.692,2.012,0.38,4.158-0.855,5.89
		S38.35,44.422,36.223,44.422z M35.079,26.998l4.303,8.752c0.717,2.069,0.404,4.216-0.831,5.947c-0.49,0.688-1.09,1.259-1.768,1.697
		c1.575-0.155,2.98-0.967,3.917-2.278c1.039-1.456,1.306-3.261,0.733-4.954l-4.506-9.164H35.079z"/>
	<polygon class="st8" points="35.23,19.181 34.209,24.077 36.874,24.077 37.895,19.181 	"/>
	<path class="st1" d="M36.874,24.577h-2.665c-0.15,0-0.293-0.067-0.388-0.185s-0.133-0.271-0.102-0.417l1.021-4.896
		c0.048-0.232,0.252-0.398,0.489-0.398h2.666c0.15,0,0.293,0.067,0.388,0.185c0.096,0.117,0.133,0.271,0.102,0.418l-1.021,4.896
		C37.315,24.411,37.11,24.577,36.874,24.577z M34.824,23.577h1.644l0.813-3.896h-1.645L34.824,23.577z"/>
	<g>
		<g>
			<path class="st1" d="M30.357,38.585c-1.289,0-2.282-0.705-2.282-1.847h1.132c0.047,0.528,0.418,0.956,1.15,0.956
				c0.742,0,1.16-0.399,1.16-0.947c0-1.559-3.424-0.547-3.424-2.922c0-1.132,0.9-1.837,2.217-1.837c1.234,0,2.106,0.649,2.199,1.753
				h-1.169c-0.037-0.436-0.417-0.834-1.085-0.854c-0.613-0.018-1.086,0.279-1.086,0.9c0,1.457,3.414,0.547,3.414,2.904
				C32.584,37.657,31.795,38.585,30.357,38.585z"/>
		</g>
	</g>
	<rect x="29.804" y="38.124" class="st1" width="1" height="1.673"/>
	<rect x="29.804" y="30.64" class="st1" width="1" height="1.673"/>
</g>
</svg>
