<?xml version="1.0" encoding="iso-8859-1"?>
<!-- Generator: Adobe Illustrator 22.0.1, SVG Export Plug-In . SVG Version: 6.00 Build 0)  -->
<svg version="1.1" id="Layer_1" xmlns="http://www.w3.org/2000/svg" xmlns:xlink="http://www.w3.org/1999/xlink" x="0px" y="0px"
	 viewBox="0 0 64 64" style="enable-background:new 0 0 64 64;" xml:space="preserve">
<style type="text/css">
	.st0{fill:#F8F3F3;}
	.st1{fill:#63312D;}
	.st2{fill:#E1DDDD;}
	.st3{fill:#84DBFF;}
	.st4{fill:#CAF4FF;}
	.st5{fill:#52BADB;}
	.st6{fill:#F9DD9D;}
	.st7{fill:#FFEECF;}
	.st8{fill:#EFC36A;}
	.st9{fill:#F7A085;}
	.st10{fill:#82D9FF;}
	.st11{fill:#F7DB9B;}
	.st12{fill:#F9A287;}
	.st13{fill:#FFC8BB;}
	.st14{fill:#52B8D9;}
	.st15{fill:#DB785A;}
	.st16{fill:#EDCB85;}
	.st17{fill:#DBAB56;}
	.st18{fill:#D3A553;}
	.st19{fill:#FFFFFF;}
</style>
<g>
	<polygon class="st11" points="3.109,24.408 10.5,31.53 14.668,27.104 14.668,11.395 	"/>
	<polygon class="st7" points="5.91,24.186 14.668,14.325 14.668,11.395 3.109,24.408 10.5,31.53 11.942,29.999 	"/>
	<polygon class="st11" points="57.074,24.408 49.684,31.53 45.515,27.104 45.515,11.395 	"/>
	<polygon class="st7" points="47.219,16.062 55.759,25.676 57.074,24.408 45.515,11.395 45.515,27.104 47.219,28.914 	"/>
	<path class="st1" d="M10.5,32.03c-0.129,0-0.254-0.05-0.347-0.14l-7.391-7.122c-0.193-0.186-0.205-0.491-0.027-0.692l11.559-13.013
		c0.139-0.155,0.359-0.209,0.552-0.135c0.194,0.074,0.322,0.26,0.322,0.467v15.709c0,0.127-0.049,0.25-0.136,0.343l-4.168,4.426
		c-0.092,0.097-0.219,0.154-0.353,0.157C10.508,32.03,10.504,32.03,10.5,32.03z M3.802,24.381l6.681,6.438l3.686-3.914V12.711
		L3.802,24.381z"/>
	<polygon class="st8" points="49.332,11.395 45.515,11.395 57.074,24.408 49.683,31.53 53.5,31.53 60.891,24.408 	"/>
	<path class="st1" d="M53.5,32.03h-3.816c-0.204,0-0.388-0.124-0.464-0.313s-0.03-0.406,0.117-0.547l7.045-6.789l-11.24-12.654
		c-0.131-0.147-0.163-0.357-0.082-0.537c0.081-0.179,0.259-0.295,0.456-0.295h3.816c0.143,0,0.279,0.061,0.374,0.168l11.559,13.013
		c0.178,0.201,0.166,0.506-0.027,0.692l-7.391,7.122C53.754,31.98,53.63,32.03,53.5,32.03z M50.923,31.03h2.375l6.9-6.649
		L49.107,11.895h-2.479l10.819,12.181c0.178,0.201,0.166,0.506-0.027,0.692L50.923,31.03z"/>
	<rect x="14.671" y="11.395" class="st9" width="30.847" height="41.21"/>
	<polygon class="st13" points="16.577,13.351 45.518,13.351 45.518,11.395 14.671,11.395 14.671,52.605 16.577,52.605 	"/>
	<path class="st1" d="M45.516,53.105H14.668c-0.276,0-0.5-0.224-0.5-0.5v-41.21c0-0.276,0.224-0.5,0.5-0.5h30.848
		c0.276,0,0.5,0.224,0.5,0.5v41.21C46.016,52.881,45.792,53.105,45.516,53.105z M15.168,52.105h29.848v-40.21H15.168V52.105z"/>
	<path class="st1" d="M49.684,32.03c-0.004,0-0.008,0-0.012,0c-0.134-0.003-0.261-0.06-0.353-0.157l-4.168-4.426
		c-0.087-0.093-0.136-0.215-0.136-0.343V11.395c0-0.208,0.128-0.394,0.322-0.467s0.414-0.02,0.552,0.135l11.559,13.013
		c0.178,0.201,0.166,0.506-0.027,0.692L50.03,31.89C49.938,31.98,49.813,32.03,49.684,32.03z M46.016,26.906l3.686,3.914
		l6.681-6.438l-10.366-11.67V26.906z"/>
	<path class="st1" d="M44.805,46.831h-2v-1h2V46.831z M40.805,46.831h-2v-1h2V46.831z M36.805,46.831h-2v-1h2V46.831z
		 M32.805,46.831h-2v-1h2V46.831z M28.805,46.831h-2v-1h2V46.831z M24.805,46.831h-2v-1h2V46.831z M20.805,46.831h-2v-1h2V46.831z
		 M16.805,46.831h-2v-1h2V46.831z"/>
	<path class="st0" d="M22.832,11.395c0.616,3.462,3.634,6.094,7.273,6.094c3.639,0,6.658-2.631,7.273-6.094H22.832z"/>
	<path class="st1" d="M30.105,17.989c-3.829,0-7.095-2.736-7.766-6.506c-0.026-0.146,0.014-0.295,0.109-0.409
		c0.095-0.113,0.235-0.179,0.383-0.179h14.547c0.147,0,0.288,0.065,0.383,0.179c0.096,0.114,0.136,0.263,0.109,0.409
		C37.2,15.252,33.935,17.989,30.105,17.989z M23.455,11.895c0.802,2.985,3.51,5.094,6.65,5.094s5.849-2.109,6.65-5.094H23.455z"/>
	<rect x="20.322" y="22.577" class="st0" width="20.046" height="15.698"/>
	<path class="st1" d="M40.367,38.775h-2v-1h2V38.775z M36.367,38.775h-2v-1h2V38.775z M32.367,38.775h-2v-1h2V38.775z
		 M28.367,38.775h-2v-1h2V38.775z M24.367,38.775h-2v-1h2V38.775z M20.367,38.775h-0.046c-0.276,0-0.5-0.224-0.5-0.5v-1.954h1v1.954
		h-0.477L20.367,38.775z M40.867,36.787h-1v-2h1V36.787z M20.821,34.321h-1v-2h1V34.321z M40.867,32.787h-1v-2h1V32.787z
		 M20.821,30.321h-1v-2h1V30.321z M40.867,28.787h-1v-2h1V28.787z M20.821,26.321h-1v-2h1V26.321z M40.867,24.787h-1v-2h1V24.787z
		 M38.577,23.077h-2v-1h2V23.077z M34.577,23.077h-2v-1h2V23.077z M30.577,23.077h-2v-1h2V23.077z M26.577,23.077h-2v-1h2V23.077z
		 M22.577,23.077h-2v-1h2V23.077z"/>
	<polygon class="st15" points="45.515,52.605 48.89,52.605 48.923,30.722 45.515,27.104 	"/>
	<path class="st1" d="M48.89,53.105h-3.374c-0.276,0-0.5-0.224-0.5-0.5V27.104c0-0.205,0.125-0.389,0.315-0.465
		c0.189-0.074,0.407-0.028,0.549,0.122l3.407,3.618c0.087,0.093,0.136,0.216,0.136,0.344L49.39,52.606
		C49.39,52.881,49.165,53.105,48.89,53.105z M46.016,52.105h2.375l0.032-21.185l-2.407-2.556V52.105z"/>
	<rect x="57.074" y="23.908" class="st1" width="3.816" height="1"/>
</g>
</svg>
