<?xml version="1.0" encoding="iso-8859-1"?>
<!-- Generator: Adobe Illustrator 22.0.1, SVG Export Plug-In . SVG Version: 6.00 Build 0)  -->
<svg version="1.1" id="Layer_1" xmlns="http://www.w3.org/2000/svg" xmlns:xlink="http://www.w3.org/1999/xlink" x="0px" y="0px"
	 viewBox="0 0 64 64" style="enable-background:new 0 0 64 64;" xml:space="preserve">
<style type="text/css">
	.st0{fill:#F8F3F3;}
	.st1{fill:#63312D;}
	.st2{fill:#E1DDDD;}
	.st3{fill:#84DBFF;}
	.st4{fill:#CAF4FF;}
	.st5{fill:#52BADB;}
	.st6{fill:#F9DD9D;}
	.st7{fill:#FFEECF;}
	.st8{fill:#EFC36A;}
	.st9{fill:#F7A085;}
	.st10{fill:#82D9FF;}
	.st11{fill:#F7DB9B;}
	.st12{fill:#F9A287;}
	.st13{fill:#FFC8BB;}
	.st14{fill:#52B8D9;}
	.st15{fill:#DB785A;}
	.st16{fill:#EDCB85;}
	.st17{fill:#DBAB56;}
	.st18{fill:#D3A553;}
	.st19{fill:#FFFFFF;}
</style>
<g>
	<rect x="7.725" y="3.108" class="st0" width="40.473" height="57.783"/>
	<path class="st1" d="M48.198,61.392H7.726c-0.276,0-0.5-0.224-0.5-0.5V3.108c0-0.276,0.224-0.5,0.5-0.5h40.473
		c0.276,0,0.5,0.224,0.5,0.5v57.783C48.698,61.168,48.475,61.392,48.198,61.392z M8.226,60.392h39.473V3.608H8.226V60.392z"/>
	<rect x="48.198" y="3.108" class="st14" width="3.849" height="57.783"/>
	<path class="st1" d="M52.047,61.392h-3.849c-0.276,0-0.5-0.224-0.5-0.5V3.108c0-0.276,0.224-0.5,0.5-0.5h3.849
		c0.276,0,0.5,0.224,0.5,0.5v57.783C52.547,61.168,52.323,61.392,52.047,61.392z M48.698,60.392h2.849V3.608h-2.849V60.392z"/>
	<rect x="4.413" y="6.833" class="st11" width="6.625" height="2.268"/>
	<rect x="4.413" y="12.842" class="st11" width="6.625" height="2.268"/>
	<rect x="4.413" y="18.85" class="st11" width="6.625" height="2.268"/>
	<rect x="4.413" y="24.858" class="st11" width="6.625" height="2.268"/>
	<rect x="4.413" y="30.866" class="st11" width="6.625" height="2.268"/>
	<rect x="4.413" y="36.874" class="st11" width="6.625" height="2.268"/>
	<rect x="4.413" y="42.882" class="st11" width="6.625" height="2.268"/>
	<rect x="4.413" y="48.891" class="st11" width="6.625" height="2.268"/>
	<rect x="4.413" y="54.899" class="st11" width="6.625" height="2.268"/>
	<path class="st1" d="M11.038,9.601H4.413c-0.276,0-0.5-0.224-0.5-0.5V6.833c0-0.276,0.224-0.5,0.5-0.5h6.625
		c0.276,0,0.5,0.224,0.5,0.5v2.268C11.538,9.377,11.314,9.601,11.038,9.601z M4.913,8.601h5.625V7.333H4.913V8.601z"/>
	<path class="st1" d="M11.038,15.609H4.413c-0.276,0-0.5-0.224-0.5-0.5v-2.268c0-0.276,0.224-0.5,0.5-0.5h6.625
		c0.276,0,0.5,0.224,0.5,0.5v2.268C11.538,15.386,11.314,15.609,11.038,15.609z M4.913,14.609h5.625v-1.268H4.913V14.609z"/>
	<path class="st1" d="M11.038,21.618H4.413c-0.276,0-0.5-0.224-0.5-0.5V18.85c0-0.276,0.224-0.5,0.5-0.5h6.625
		c0.276,0,0.5,0.224,0.5,0.5v2.268C11.538,21.394,11.314,21.618,11.038,21.618z M4.913,20.618h5.625V19.35H4.913V20.618z"/>
	<path class="st1" d="M11.038,27.626H4.413c-0.276,0-0.5-0.224-0.5-0.5v-2.268c0-0.276,0.224-0.5,0.5-0.5h6.625
		c0.276,0,0.5,0.224,0.5,0.5v2.268C11.538,27.402,11.314,27.626,11.038,27.626z M4.913,26.626h5.625v-1.268H4.913V26.626z"/>
	<path class="st1" d="M11.038,33.634H4.413c-0.276,0-0.5-0.224-0.5-0.5v-2.268c0-0.276,0.224-0.5,0.5-0.5h6.625
		c0.276,0,0.5,0.224,0.5,0.5v2.268C11.538,33.41,11.314,33.634,11.038,33.634z M4.913,32.634h5.625v-1.268H4.913V32.634z"/>
	<path class="st1" d="M11.038,39.642H4.413c-0.276,0-0.5-0.224-0.5-0.5v-2.268c0-0.276,0.224-0.5,0.5-0.5h6.625
		c0.276,0,0.5,0.224,0.5,0.5v2.268C11.538,39.418,11.314,39.642,11.038,39.642z M4.913,38.642h5.625v-1.268H4.913V38.642z"/>
	<path class="st1" d="M11.038,45.65H4.413c-0.276,0-0.5-0.224-0.5-0.5v-2.268c0-0.276,0.224-0.5,0.5-0.5h6.625
		c0.276,0,0.5,0.224,0.5,0.5v2.268C11.538,45.427,11.314,45.65,11.038,45.65z M4.913,44.65h5.625v-1.268H4.913V44.65z"/>
	<path class="st1" d="M11.038,51.659H4.413c-0.276,0-0.5-0.224-0.5-0.5v-2.268c0-0.276,0.224-0.5,0.5-0.5h6.625
		c0.276,0,0.5,0.224,0.5,0.5v2.268C11.538,51.435,11.314,51.659,11.038,51.659z M4.913,50.659h5.625v-1.268H4.913V50.659z"/>
	<path class="st1" d="M11.038,57.667H4.413c-0.276,0-0.5-0.224-0.5-0.5v-2.268c0-0.276,0.224-0.5,0.5-0.5h6.625
		c0.276,0,0.5,0.224,0.5,0.5v2.268C11.538,57.443,11.314,57.667,11.038,57.667z M4.913,56.667h5.625v-1.268H4.913V56.667z"/>
	<polygon class="st9" points="28.974,45.363 21.763,48.095 24.495,40.884 55.108,10.271 59.587,14.75 	"/>
	<polygon class="st0" points="24.495,40.884 21.763,48.095 28.974,45.363 	"/>
	
		<rect x="50.319" y="12.255" transform="matrix(0.7071 -0.7071 0.7071 0.7071 5.0393 43.0092)" class="st11" width="8.234" height="6.334"/>
	<path class="st1" d="M21.763,48.595c-0.13,0-0.258-0.051-0.354-0.146c-0.139-0.139-0.184-0.347-0.114-0.531l2.732-7.211
		c0.025-0.066,0.064-0.126,0.114-0.176L54.755,9.917c0.094-0.094,0.221-0.146,0.354-0.146l0,0c0.133,0,0.26,0.053,0.354,0.146
		l4.479,4.479c0.195,0.195,0.195,0.512,0,0.707L29.328,45.716c-0.05,0.05-0.11,0.089-0.177,0.114l-7.212,2.732
		C21.882,48.584,21.822,48.595,21.763,48.595z M24.925,41.162l-2.301,6.072l6.073-2.301L58.88,14.75l-3.771-3.772L24.925,41.162z"/>
	
		<rect x="26.235" y="39.956" transform="matrix(0.707 -0.7072 0.7072 0.707 -22.6634 31.5402)" class="st1" width="1" height="6.334"/>
	
		<rect x="51.025" y="15.166" transform="matrix(0.707 -0.7072 0.7072 0.707 2.1305 41.8086)" class="st1" width="1" height="6.334"/>
	
		<rect x="21.465" y="30.284" transform="matrix(0.7071 -0.7071 0.7071 0.7071 -10.3233 36.6458)" class="st1" width="35.218" height="1"/>
	<path class="st1" d="M20.187,48.807c-1.461,0-2.733-0.545-3.682-1.602c-1.559-1.737-1.965-4.599-1.011-7.121
		c1.64-4.331,5.623-6.959,9.137-9.279c4.254-2.807,8.346-5.939,7.604-10.61c-0.583-3.668-4.141-6.414-7.869-6.145
		c-2.38,0.177-4.426,1.351-5.761,3.308c-1.433,2.101-1.827,4.849-1.055,7.352l-0.955,0.295c-0.862-2.791-0.419-5.86,1.184-8.21
		c1.51-2.213,3.823-3.542,6.513-3.741c4.262-0.308,8.27,2.817,8.932,6.985c0.903,5.698-4.696,9.394-8.042,11.602
		c-3.388,2.236-7.228,4.77-8.752,8.798c-0.826,2.182-0.496,4.633,0.819,6.099c0.735,0.819,2.095,1.67,4.388,1.074l0.252,0.968
		C21.3,48.731,20.73,48.807,20.187,48.807z"/>
</g>
</svg>
