<?xml version="1.0" encoding="iso-8859-1"?>
<!-- Generator: Adobe Illustrator 22.0.1, SVG Export Plug-In . SVG Version: 6.00 Build 0)  -->
<svg version="1.1" id="Layer_1" xmlns="http://www.w3.org/2000/svg" xmlns:xlink="http://www.w3.org/1999/xlink" x="0px" y="0px"
	 viewBox="0 0 64 64" style="enable-background:new 0 0 64 64;" xml:space="preserve">
<style type="text/css">
	.st0{fill:#F8F3F3;}
	.st1{fill:#63312D;}
	.st2{fill:#E1DDDD;}
	.st3{fill:#84DBFF;}
	.st4{fill:#CAF4FF;}
	.st5{fill:#52BADB;}
	.st6{fill:#F9DD9D;}
	.st7{fill:#FFEECF;}
	.st8{fill:#EFC36A;}
	.st9{fill:#F7A085;}
	.st10{fill:#82D9FF;}
	.st11{fill:#F7DB9B;}
	.st12{fill:#F9A287;}
	.st13{fill:#FFC8BB;}
	.st14{fill:#52B8D9;}
	.st15{fill:#DB785A;}
	.st16{fill:#EDCB85;}
	.st17{fill:#DBAB56;}
	.st18{fill:#D3A553;}
	.st19{fill:#FFFFFF;}
</style>
<g>
	<polygon class="st10" points="57.812,48.705 53.96,57.362 50.109,48.705 50.109,10.721 57.812,10.721 	"/>
	<polygon class="st4" points="51.647,50.32 51.647,12.335 57.812,12.335 57.812,10.721 50.109,10.721 50.109,48.705 53.96,57.362 
		54.37,56.441 	"/>
	<rect x="50.106" y="10.722" class="st12" width="7.709" height="7.628"/>
	<polygon class="st13" points="57.815,10.722 57.815,12.337 51.648,12.337 51.648,18.35 50.106,18.35 50.106,10.722 	"/>
	<polygon class="st0" points="50.109,48.705 53.96,57.362 57.812,48.705 	"/>
	<polygon class="st10" points="52.675,54.473 53.96,57.362 55.245,54.473 	"/>
	<polygon class="st14" points="57.812,10.721 57.812,48.705 53.96,57.362 57.036,57.362 60.888,48.705 60.888,10.721 	"/>
	<rect x="57.812" y="10.721" class="st15" width="3.076" height="7.632"/>
	<polygon class="st2" points="57.812,48.705 53.96,57.362 57.036,57.362 60.888,48.705 	"/>
	<path class="st1" d="M53.96,57.862c-0.197,0-0.377-0.116-0.457-0.297l-3.852-8.657c-0.028-0.064-0.043-0.133-0.043-0.203V10.721
		c0-0.276,0.224-0.5,0.5-0.5h7.703c0.276,0,0.5,0.224,0.5,0.5v37.985c0,0.07-0.015,0.139-0.043,0.203l-3.852,8.657
		C54.337,57.746,54.157,57.862,53.96,57.862z M50.608,48.599l3.352,7.533l3.352-7.533V11.221h-6.703V48.599z"/>
	<rect x="50.108" y="48.206" class="st1" width="7.703" height="1"/>
	<rect x="50.108" y="17.853" class="st1" width="7.703" height="1"/>
	<rect x="57.812" y="17.853" class="st1" width="3.076" height="1"/>
	<rect x="53.46" y="18.353" class="st1" width="1" height="30.5"/>
	<path class="st1" d="M57.036,57.862H53.96c-0.169,0-0.327-0.085-0.419-0.228c-0.093-0.142-0.106-0.321-0.038-0.476l3.831-8.61
		l-0.022-37.828c0-0.133,0.053-0.26,0.146-0.354s0.221-0.146,0.354-0.146h3.076c0.276,0,0.5,0.224,0.5,0.5v37.985
		c0,0.07-0.015,0.139-0.043,0.203l-3.852,8.657C57.413,57.746,57.233,57.862,57.036,57.862z M54.729,56.862h1.981l3.677-8.263
		V11.221h-2.076l0.022,37.434c0,0.07-0.015,0.14-0.043,0.204L54.729,56.862z"/>
	<rect x="57.812" y="48.206" class="st1" width="3.076" height="1"/>
	<path class="st10" d="M35.521,57.363H3.112V6.638h32.409c2.209,0,4,1.791,4,4v42.725C39.521,55.572,37.73,57.363,35.521,57.363z"/>
	<path class="st4" d="M5.206,8.637h32.409c0.537,0,1.047,0.109,1.515,0.301c-0.64-1.356-2.009-2.301-3.609-2.301H3.112v50.725h2.094
		V8.637z"/>
	<path class="st1" d="M35.521,57.862H3.112c-0.276,0-0.5-0.224-0.5-0.5V6.638c0-0.276,0.224-0.5,0.5-0.5h32.409
		c2.481,0,4.5,2.019,4.5,4.5v42.725C40.021,55.844,38.003,57.862,35.521,57.862z M3.612,56.862h31.909c1.93,0,3.5-1.57,3.5-3.5
		V10.638c0-1.93-1.57-3.5-3.5-3.5H3.612V56.862z"/>
	<path class="st14" d="M40.504,6.637h-4.983c2.209,0,4,1.791,4,4v42.725c0,2.209-1.791,4-4,4h4.983c2.209,0,4-1.791,4-4V10.637
		C44.504,8.428,42.713,6.637,40.504,6.637z"/>
	<path class="st1" d="M40.504,57.862h-4.982c-0.276,0-0.5-0.224-0.5-0.5s0.224-0.5,0.5-0.5c1.93,0,3.5-1.57,3.5-3.5V10.638
		c0-1.93-1.57-3.5-3.5-3.5c-0.276,0-0.5-0.224-0.5-0.5s0.224-0.5,0.5-0.5h4.982c2.481,0,4.5,2.019,4.5,4.5v42.725
		C45.004,55.844,42.985,57.862,40.504,57.862z M38.347,56.862h2.157c1.93,0,3.5-1.57,3.5-3.5V10.638c0-1.93-1.57-3.5-3.5-3.5h-2.157
		c1.021,0.826,1.675,2.088,1.675,3.5v42.725C40.021,54.774,39.368,56.037,38.347,56.862z"/>
	<rect x="24.379" y="6.637" class="st0" width="6.75" height="50.725"/>
	<path class="st1" d="M31.129,57.862h-6.75c-0.276,0-0.5-0.224-0.5-0.5V6.638c0-0.276,0.224-0.5,0.5-0.5h6.75
		c0.276,0,0.5,0.224,0.5,0.5v50.725C31.629,57.639,31.405,57.862,31.129,57.862z M24.879,56.862h5.75V7.138h-5.75V56.862z"/>
	<polygon class="st12" points="17.337,19.054 12.879,16.116 8.42,19.054 8.42,6.638 17.337,6.638 	"/>
	<rect x="8.424" y="6.641" class="st12" width="8.91" height="2"/>
	<rect x="8.424" y="6.641" class="st13" width="8.91" height="2"/>
	<path class="st1" d="M17.337,19.554c-0.096,0-0.192-0.028-0.275-0.083l-4.183-2.757l-4.184,2.757
		c-0.153,0.101-0.35,0.109-0.513,0.023c-0.162-0.087-0.263-0.256-0.263-0.44V6.638c0-0.276,0.224-0.5,0.5-0.5h8.917
		c0.276,0,0.5,0.224,0.5,0.5v12.417c0,0.184-0.101,0.353-0.263,0.44C17.5,19.534,17.418,19.554,17.337,19.554z M8.92,7.138v10.988
		l3.684-2.428c0.168-0.11,0.383-0.11,0.551,0l3.683,2.428V7.138H8.92z"/>
</g>
</svg>
