<?xml version="1.0" encoding="iso-8859-1"?>
<!-- Generator: Adobe Illustrator 22.0.1, SVG Export Plug-In . SVG Version: 6.00 Build 0)  -->
<svg version="1.1" id="Layer_1" xmlns="http://www.w3.org/2000/svg" xmlns:xlink="http://www.w3.org/1999/xlink" x="0px" y="0px"
	 viewBox="0 0 64 64" style="enable-background:new 0 0 64 64;" xml:space="preserve">
<style type="text/css">
	.st0{fill:#F8F3F3;}
	.st1{fill:#63312D;}
	.st2{fill:#E1DDDD;}
	.st3{fill:#84DBFF;}
	.st4{fill:#CAF4FF;}
	.st5{fill:#52BADB;}
	.st6{fill:#F9DD9D;}
	.st7{fill:#FFEECF;}
	.st8{fill:#EFC36A;}
	.st9{fill:#F7A085;}
	.st10{fill:#82D9FF;}
	.st11{fill:#F7DB9B;}
	.st12{fill:#F9A287;}
	.st13{fill:#FFC8BB;}
	.st14{fill:#52B8D9;}
	.st15{fill:#DB785A;}
	.st16{fill:#EDCB85;}
	.st17{fill:#DBAB56;}
	.st18{fill:#D3A553;}
	.st19{fill:#FFFFFF;}
</style>
<g>
	<rect x="12.829" y="25.765" class="st10" width="21.779" height="34.767"/>
	<polygon class="st4" points="14.948,27.765 34.608,27.765 34.608,25.765 12.829,25.765 12.829,60.532 14.948,60.532 	"/>
	<path class="st1" d="M34.608,61.032H12.829c-0.276,0-0.5-0.224-0.5-0.5V25.766c0-0.276,0.224-0.5,0.5-0.5h21.779
		c0.276,0,0.5,0.224,0.5,0.5v34.767C35.108,60.809,34.885,61.032,34.608,61.032z M13.329,60.032h20.779V26.266H13.329V60.032z"/>
	<rect x="34.608" y="25.765" class="st14" width="4.238" height="34.767"/>
	<path class="st1" d="M38.846,61.032h-4.237c-0.276,0-0.5-0.224-0.5-0.5V25.766c0-0.276,0.224-0.5,0.5-0.5h4.237
		c0.276,0,0.5,0.224,0.5,0.5v34.767C39.346,60.809,39.122,61.032,38.846,61.032z M35.108,60.032h3.237V26.266h-3.237V60.032z"/>
	<path class="st0" d="M32.821,25.765c-0.68-4.504-4.556-7.96-9.25-7.96s-8.569,3.456-9.25,7.96H32.821z"/>
	<path class="st1" d="M32.821,26.266H14.322c-0.146,0-0.284-0.063-0.379-0.174s-0.138-0.257-0.115-0.4
		c0.721-4.781,4.91-8.386,9.743-8.386c4.834,0,9.023,3.604,9.744,8.386c0.022,0.144-0.021,0.29-0.115,0.4
		S32.967,26.266,32.821,26.266z M14.923,25.266h17.298c-0.883-4.007-4.502-6.96-8.649-6.96
		C19.425,18.306,15.806,21.259,14.923,25.266z"/>
	<path class="st2" d="M27.986,17.805h-4.414c4.694,0,8.569,3.456,9.25,7.96h4.414C36.555,21.261,32.679,17.805,27.986,17.805z"/>
	<path class="st1" d="M37.235,26.266h-4.414c-0.247,0-0.457-0.181-0.494-0.425c-0.649-4.296-4.413-7.535-8.756-7.535
		c-0.276,0-0.5-0.224-0.5-0.5s0.224-0.5,0.5-0.5h4.414c4.833,0,9.021,3.604,9.744,8.385c0.022,0.145-0.021,0.291-0.115,0.401
		S37.381,26.266,37.235,26.266z M33.242,25.266h3.393c-0.884-4.007-4.503-6.96-8.649-6.96h-0.121
		C30.578,19.637,32.635,22.184,33.242,25.266z"/>
	<rect x="21.975" y="8.828" class="st10" width="4.407" height="6.875"/>
	<polygon class="st4" points="23.444,10.328 26.383,10.328 26.383,8.828 21.975,8.828 21.975,15.703 23.444,15.703 	"/>
	<path class="st1" d="M26.383,16.203h-4.407c-0.276,0-0.5-0.224-0.5-0.5V8.828c0-0.276,0.224-0.5,0.5-0.5h4.407
		c0.276,0,0.5,0.224,0.5,0.5v6.875C26.883,15.979,26.659,16.203,26.383,16.203z M22.476,15.203h3.407V9.328h-3.407V15.203z"/>
	<rect x="26.383" y="8.828" class="st14" width="2.572" height="6.875"/>
	<path class="st1" d="M28.955,16.203h-2.572c-0.276,0-0.5-0.224-0.5-0.5V8.828c0-0.276,0.224-0.5,0.5-0.5h2.572
		c0.276,0,0.5,0.224,0.5,0.5v6.875C29.455,15.979,29.231,16.203,28.955,16.203z M26.883,15.203h1.572V9.328h-1.572V15.203z"/>
	<rect x="24.108" y="15.203" class="st1" width="1" height="2.603"/>
	<rect x="25.952" y="15.203" class="st1" width="1" height="2.603"/>
	<rect x="32.233" y="11.766" class="st1" width="14.875" height="1"/>
	
		<rect x="32.17" y="8.805" transform="matrix(0.9898 -0.1425 0.1425 0.9898 -0.9335 5.5763)" class="st1" width="12.583" height="1"/>
	
		<rect x="37.961" y="8.911" transform="matrix(0.1418 -0.9899 0.9899 0.1418 17.9589 51.1199)" class="st1" width="1" height="12.583"/>
	<rect x="48.608" y="11.766" class="st1" width="2.563" height="1"/>
	
		<rect x="31.762" y="5.807" transform="matrix(0.9692 -0.2462 0.2462 0.9692 -0.346 9.8456)" class="st1" width="14.875" height="1"/>
	
		<rect x="47.821" y="3.284" transform="matrix(0.9692 -0.2462 0.2462 0.9692 0.5798 12.206)" class="st1" width="2.563" height="1"/>
	
		<rect x="38.7" y="10.723" transform="matrix(0.2468 -0.9691 0.9691 0.2468 11.9244 51.6649)" class="st1" width="1" height="14.875"/>
	
		<rect x="48.602" y="19.402" transform="matrix(0.2466 -0.9691 0.9691 0.2466 16.9505 63.1693)" class="st1" width="1" height="2.563"/>
	<rect x="27.669" y="11.766" class="st1" width="3.127" height="1"/>
	<rect x="24.274" y="35.724" class="st0" width="10.334" height="15.667"/>
	<path class="st1" d="M34.608,51.891H24.274c-0.276,0-0.5-0.224-0.5-0.5V35.724c0-0.276,0.224-0.5,0.5-0.5h10.334
		c0.276,0,0.5,0.224,0.5,0.5v15.667C35.108,51.667,34.885,51.891,34.608,51.891z M24.774,50.891h9.334V36.224h-9.334V50.891z"/>
</g>
</svg>
