<?xml version="1.0" encoding="iso-8859-1"?>
<!-- Generator: Adobe Illustrator 22.0.1, SVG Export Plug-In . SVG Version: 6.00 Build 0)  -->
<svg version="1.1" id="Layer_1" xmlns="http://www.w3.org/2000/svg" xmlns:xlink="http://www.w3.org/1999/xlink" x="0px" y="0px"
	 viewBox="0 0 64 64" style="enable-background:new 0 0 64 64;" xml:space="preserve">
<style type="text/css">
	.st0{fill:#F8F3F3;}
	.st1{fill:#63312D;}
	.st2{fill:#E1DDDD;}
	.st3{fill:#84DBFF;}
	.st4{fill:#CAF4FF;}
	.st5{fill:#52BADB;}
	.st6{fill:#F9DD9D;}
	.st7{fill:#FFEECF;}
	.st8{fill:#EFC36A;}
	.st9{fill:#F7A085;}
	.st10{fill:#82D9FF;}
	.st11{fill:#F7DB9B;}
	.st12{fill:#F9A287;}
	.st13{fill:#FFC8BB;}
	.st14{fill:#52B8D9;}
	.st15{fill:#DB785A;}
	.st16{fill:#EDCB85;}
	.st17{fill:#DBAB56;}
	.st18{fill:#D3A553;}
	.st19{fill:#FFFFFF;}
</style>
<g>
	<path class="st15" d="M57.315,6.61h-3.88c0.174,0.001,0.347,0.019,0.511,0.048c0.12,0.02,0.24,0.04,0.36,0.08
		c0.11,0.03,0.22,0.07,0.32,0.12c0.76,0.34,1.35,0.98,1.63,1.77c0.1,0.3,0.16,0.64,0.16,0.98v32.829c0,1.66-1.34,3.001-3.001,3.001
		h-3.544v0.003h7.444c1.98,0,3.584-1.605,3.584-3.584V10.194C60.899,8.215,59.295,6.61,57.315,6.61z"/>
	<path class="st1" d="M57.315,45.941h-7.443v-1h7.443c1.701,0,3.084-1.384,3.084-3.085V10.194c0-1.7-1.384-3.084-3.084-3.084h-7.443
		v-1h7.443c2.252,0,4.084,1.832,4.084,4.084v31.662C61.399,44.109,59.567,45.941,57.315,45.941z"/>
	<path class="st12" d="M56.256,8.629c-0.28-0.79-0.87-1.43-1.63-1.77c-0.1-0.05-0.21-0.09-0.32-0.12c-0.12-0.04-0.24-0.06-0.36-0.08
		c-0.17-0.03-0.35-0.05-0.53-0.05H6.103c-1.66,0-3.001,1.34-3.001,3.001v32.829c0,0.1,0.01,0.21,0.02,0.31
		c0.01,0.14,0.03,0.28,0.07,0.42c0.05,0.23,0.14,0.45,0.25,0.65c0.14,0.28,0.33,0.53,0.55,0.74c0.155,0.158,0.329,0.291,0.514,0.41
		c0.032,0.02,0.065,0.035,0.098,0.054c0.176,0.104,0.362,0.187,0.559,0.253c0.003,0.001,0.006,0.003,0.009,0.004
		c0,0,0-0.001,0-0.001c0.294,0.097,0.602,0.161,0.931,0.161h47.313c1.66,0,3.001-1.34,3.001-3.001V9.609
		C56.417,9.269,56.356,8.929,56.256,8.629z"/>
	<path class="st13" d="M56.257,8.629c-0.28-0.07-0.63-0.11-0.93-0.11H6.803c-0.99,0-1.8,0.8-1.8,1.79v34.039
		c0,0.33,0.07,0.64,0.17,0.93c-0.45-0.14-0.86-0.39-1.18-0.72c-0.22-0.22-0.41-0.46-0.55-0.74c-0.11-0.2-0.19-0.42-0.25-0.65
		c-0.04-0.14-0.06-0.28-0.07-0.42c-0.01-0.1-0.02-0.21-0.02-0.31V9.609c0-1.66,1.34-3.001,3.001-3.001h47.313
		c0.18,0,0.36,0.02,0.53,0.05c0.12,0.02,0.24,0.04,0.36,0.08c0.11,0.03,0.22,0.07,0.32,0.12C55.386,7.198,55.976,7.839,56.257,8.629
		z"/>
	<path class="st1" d="M53.418,45.941H6.102c-1.931,0-3.501-1.57-3.501-3.501V9.61c0-1.93,1.57-3.5,3.501-3.5h47.317
		c1.93,0,3.5,1.57,3.5,3.5v32.83C56.919,44.371,55.349,45.941,53.418,45.941z M6.102,7.11c-1.379,0-2.501,1.121-2.501,2.5v32.83
		c0,1.379,1.122,2.501,2.501,2.501h47.317c1.379,0,2.5-1.122,2.5-2.501V9.61c0-1.379-1.122-2.5-2.5-2.5H6.102z"/>
	<rect id="XMLID_52_" x="7.507" y="10.941" class="st0" width="44.805" height="27.709"/>
	<polygon class="st2" points="9.411,12.868 52.312,12.868 52.312,10.941 7.507,10.941 7.507,38.65 9.411,38.65 	"/>
	<path class="st1" d="M52.312,39.15H7.506c-0.276,0-0.5-0.224-0.5-0.5V10.941c0-0.276,0.224-0.5,0.5-0.5h44.805
		c0.276,0,0.5,0.224,0.5,0.5V38.65C52.812,38.927,52.588,39.15,52.312,39.15z M8.006,38.15h43.805V11.441H8.006V38.15z"/>
	<rect id="XMLID_50_" x="25.421" y="45.441" class="st11" width="11.251" height="7.617"/>
	<rect id="XMLID_49_" x="25.421" y="45.441" class="st16" width="11.251" height="1.955"/>
	<rect x="32.535" y="45.444" class="st8" width="4.142" height="7.611"/>
	<rect x="32.535" y="45.444" class="st17" width="4.142" height="1.955"/>
	<path class="st1" d="M36.672,53.558H25.421c-0.276,0-0.5-0.224-0.5-0.5v-7.616c0-0.276,0.224-0.5,0.5-0.5h11.251
		c0.276,0,0.5,0.224,0.5,0.5v7.616C37.172,53.334,36.949,53.558,36.672,53.558z M25.921,52.558h10.251v-6.616H25.921V52.558z"/>
	<rect x="32.038" y="45.441" class="st1" width="1" height="7.616"/>
	<path class="st12" d="M41.422,54.481c-0.17-0.57-0.58-1.02-1.11-1.26c-0.15-0.07-0.32-0.11-0.48-0.13
		c-0.11-0.02-0.21-0.03-0.32-0.03H19.617c-1.11,0-2.001,0.89-2.001,2.001v2.331h23.896v-2.331
		C41.513,54.861,41.482,54.661,41.422,54.481z"/>
	<path class="st13" d="M41.423,54.481H19.957c-0.48,0-0.86,0.38-0.86,0.85v2.061h-1.48v-2.331c0-1.11,0.89-2.001,2.001-2.001h19.895
		c0.11,0,0.21,0.01,0.32,0.03c0.16,0.02,0.33,0.06,0.48,0.13C40.842,53.461,41.252,53.911,41.423,54.481z"/>
	<path class="st1" d="M41.508,57.889H17.612c-0.276,0-0.5-0.224-0.5-0.5v-2.33c0-1.379,1.122-2.501,2.5-2.501h19.895
		c1.379,0,2.5,1.122,2.5,2.501v2.33C42.008,57.665,41.784,57.889,41.508,57.889z M18.112,56.889h22.896v-1.83
		c0-0.828-0.673-1.501-1.5-1.501H19.612c-0.827,0-1.5,0.673-1.5,1.501V56.889z"/>
	<path class="st15" d="M42.483,53.058h-2.975c1.105,0,2.001,0.896,2.001,2.001v2.331h2.975v-2.331
		C44.483,53.953,43.587,53.058,42.483,53.058z"/>
	<path class="st1" d="M44.483,57.889h-2.975c-0.276,0-0.5-0.224-0.5-0.5v-2.33c0-0.828-0.673-1.501-1.5-1.501
		c-0.276,0-0.5-0.224-0.5-0.5s0.224-0.5,0.5-0.5h2.975c1.379,0,2.5,1.122,2.5,2.501v2.33C44.983,57.665,44.759,57.889,44.483,57.889
		z M42.008,56.889h1.975v-1.83c0-0.828-0.673-1.501-1.5-1.501h-0.976c0.315,0.418,0.501,0.938,0.501,1.501V56.889z"/>
	<polygon class="st9" points="42.588,33.398 42.588,20.658 40.059,15.044 37.53,20.658 37.53,33.398 	"/>
	<polygon class="st0" points="42.588,20.658 40.059,15.044 37.53,20.658 	"/>
	<path class="st1" d="M42.588,33.898H37.53c-0.276,0-0.5-0.224-0.5-0.5v-12.74c0-0.07,0.015-0.141,0.044-0.205l2.529-5.614
		c0.162-0.359,0.75-0.359,0.912,0l2.529,5.614c0.029,0.064,0.044,0.135,0.044,0.205v12.74
		C43.088,33.675,42.864,33.898,42.588,33.898z M38.03,32.898h4.058V20.766l-2.029-4.504l-2.029,4.504V32.898z"/>
	<rect x="37.53" y="20.158" class="st1" width="5.058" height="1"/>
	<rect x="39.559" y="20.531" class="st1" width="1" height="12.867"/>
	<path class="st10" d="M31.931,33.398c-0.004-3.626-0.286-6.844-0.721-8.885h-2.209c-0.435,2.041-0.717,5.26-0.721,8.885H31.931z"/>
	<path class="st1" d="M31.931,33.898h-3.652c-0.133,0-0.26-0.053-0.354-0.146c-0.094-0.094-0.146-0.222-0.146-0.354
		c0.004-3.551,0.271-6.828,0.732-8.989c0.049-0.23,0.253-0.396,0.489-0.396h2.209c0.236,0,0.44,0.165,0.489,0.396
		c0.461,2.161,0.728,5.438,0.732,8.989c0,0.133-0.052,0.261-0.146,0.354C32.191,33.846,32.064,33.898,31.931,33.898z M28.782,32.898
		h2.647c-0.025-3.079-0.25-5.9-0.628-7.886H29.41C29.032,26.998,28.807,29.819,28.782,32.898z"/>
	<path class="st11" d="M32.409,19.229c-0.264-0.393-0.54-0.781-0.729-1.225c-0.372-0.875-0.553-1.838-0.384-2.783
		c0.009-0.052,0.02-0.104,0.031-0.156c0,0-4.666,1.947-4.372,6.319c0,1.725,1.398,3.123,3.123,3.123s3.123-1.398,3.123-3.123
		c0-0.422-0.087-0.842-0.256-1.228C32.801,19.825,32.608,19.525,32.409,19.229z"/>
	<path class="st1" d="M30.078,25.007c-1.998,0-3.623-1.625-3.623-3.623c-0.313-4.642,4.476-6.695,4.68-6.781
		c0.172-0.069,0.369-0.042,0.512,0.078c0.144,0.119,0.208,0.308,0.169,0.49l-0.027,0.138c-0.138,0.771-0.017,1.634,0.351,2.498
		c0.149,0.351,0.364,0.669,0.592,1.007l0.092,0.137l0,0c0.204,0.303,0.416,0.63,0.58,1.007c0.194,0.445,0.297,0.939,0.297,1.427
		C33.7,23.382,32.075,25.007,30.078,25.007z M30.733,15.935c-1.24,0.735-3.477,2.48-3.279,5.416
		c0.001,1.479,1.178,2.656,2.624,2.656S32.7,22.83,32.7,21.384c0-0.352-0.074-0.707-0.214-1.028c-0.13-0.3-0.315-0.583-0.493-0.849
		l-0.09-0.134c-0.245-0.361-0.498-0.735-0.684-1.175C30.895,17.438,30.731,16.668,30.733,15.935z"/>
	<rect x="17.23" y="15.044" class="st11" width="5.608" height="18.354"/>
	<path class="st1" d="M22.838,33.898H17.23c-0.276,0-0.5-0.224-0.5-0.5V15.044c0-0.276,0.224-0.5,0.5-0.5h5.608
		c0.276,0,0.5,0.224,0.5,0.5v18.354C23.338,33.675,23.115,33.898,22.838,33.898z M17.73,32.898h4.608V15.544H17.73V32.898z"/>
	<rect x="17.23" y="17.352" class="st1" width="2.353" height="1"/>
	<rect x="17.23" y="19.617" class="st1" width="2.353" height="1"/>
	<rect x="17.23" y="21.883" class="st1" width="2.353" height="1"/>
	<rect x="17.23" y="24.148" class="st1" width="2.353" height="1"/>
	<rect x="17.23" y="26.414" class="st1" width="2.353" height="1"/>
	<rect x="17.23" y="28.68" class="st1" width="2.353" height="1"/>
	<rect x="17.23" y="30.945" class="st1" width="2.353" height="1"/>
	<rect x="11.983" y="32.898" class="st1" width="35.851" height="1"/>
</g>
</svg>
