<?xml version="1.0" encoding="iso-8859-1"?>
<!-- Generator: Adobe Illustrator 22.0.1, SVG Export Plug-In . SVG Version: 6.00 Build 0)  -->
<svg version="1.1" id="Layer_1" xmlns="http://www.w3.org/2000/svg" xmlns:xlink="http://www.w3.org/1999/xlink" x="0px" y="0px"
	 viewBox="0 0 64 64" style="enable-background:new 0 0 64 64;" xml:space="preserve">
<style type="text/css">
	.st0{fill:#F8F3F3;}
	.st1{fill:#63312D;}
	.st2{fill:#E1DDDD;}
	.st3{fill:#84DBFF;}
	.st4{fill:#CAF4FF;}
	.st5{fill:#52BADB;}
	.st6{fill:#F9DD9D;}
	.st7{fill:#FFEECF;}
	.st8{fill:#EFC36A;}
	.st9{fill:#F7A085;}
	.st10{fill:#82D9FF;}
	.st11{fill:#F7DB9B;}
	.st12{fill:#F9A287;}
	.st13{fill:#FFC8BB;}
	.st14{fill:#52B8D9;}
	.st15{fill:#DB785A;}
	.st16{fill:#EDCB85;}
	.st17{fill:#DBAB56;}
	.st18{fill:#D3A553;}
	.st19{fill:#FFFFFF;}
</style>
<g>
	<path class="st11" d="M37.392,16.148l0.008-4.156l-2.921-0.658c-0.119-0.352-0.254-0.692-0.416-1.022l1.603-2.521L32.73,4.849
		l-2.525,1.599c-0.329-0.163-0.669-0.299-1.02-0.419l-0.653-2.921h-4.156L23.723,6.03c-0.332,0.113-0.655,0.238-0.967,0.39
		l-2.511-1.616l-2.957,2.92l1.586,2.535c-0.165,0.328-0.305,0.666-0.427,1.017l-2.923,0.637L15.5,16.069l2.919,0.669
		c0.118,0.352,0.25,0.694,0.411,1.024l-1.612,2.514l2.925,2.952l2.532-1.591c0.329,0.164,0.667,0.303,1.018,0.424l0.642,2.923
		L28.492,25l0.664-2.92c0.352-0.119,0.693-0.252,1.023-0.413l2.518,1.607l2.947-2.931l-1.595-2.528
		c0.164-0.329,0.301-0.668,0.422-1.019L37.392,16.148z M26.45,18.296c-2.343,0-4.242-1.899-4.242-4.242s1.899-4.242,4.242-4.242
		s4.242,1.899,4.242,4.242S28.793,18.296,26.45,18.296z"/>
	<path class="st1" d="M28.492,25.5c0,0-0.001,0-0.002,0l-4.156-0.015c-0.234-0.001-0.436-0.164-0.486-0.393l-0.583-2.653
		c-0.192-0.073-0.377-0.149-0.556-0.231l-2.299,1.444c-0.199,0.124-0.457,0.095-0.621-0.071l-2.925-2.952
		c-0.165-0.167-0.192-0.425-0.066-0.622l1.464-2.283c-0.077-0.174-0.151-0.36-0.223-0.559l-2.65-0.608
		c-0.228-0.052-0.39-0.256-0.388-0.49l0.022-4.156c0.001-0.234,0.165-0.436,0.394-0.486l2.654-0.578
		c0.072-0.19,0.149-0.375,0.233-0.555l-1.44-2.302c-0.124-0.198-0.094-0.457,0.073-0.621l2.958-2.92
		c0.166-0.165,0.425-0.192,0.622-0.064l2.28,1.467c0.157-0.069,0.321-0.135,0.5-0.201L23.888,3c0.051-0.229,0.254-0.391,0.488-0.391
		h4.156c0.234,0,0.437,0.163,0.488,0.391l0.593,2.652c0.195,0.072,0.38,0.147,0.557,0.228l2.292-1.452
		c0.199-0.125,0.457-0.097,0.622,0.069l2.936,2.941c0.166,0.166,0.194,0.424,0.068,0.622l-1.456,2.289
		c0.078,0.175,0.153,0.36,0.227,0.559l2.651,0.598c0.228,0.051,0.39,0.254,0.39,0.489l-0.007,4.156c0,0.234-0.163,0.437-0.392,0.487
		l-2.653,0.587c-0.072,0.193-0.148,0.378-0.229,0.557l1.448,2.296c0.125,0.198,0.096,0.456-0.07,0.621l-2.946,2.931
		c-0.167,0.165-0.426,0.192-0.622,0.067l-2.287-1.46c-0.174,0.078-0.36,0.152-0.559,0.225l-0.602,2.65
		C28.928,25.338,28.726,25.5,28.492,25.5z M24.738,24.486l3.355,0.012l0.575-2.529c0.039-0.17,0.163-0.307,0.328-0.363
		c0.368-0.125,0.683-0.251,0.962-0.389c0.157-0.077,0.342-0.067,0.49,0.027l2.181,1.392l2.378-2.366l-1.381-2.189
		c-0.093-0.147-0.103-0.333-0.025-0.489c0.147-0.297,0.277-0.61,0.396-0.958c0.056-0.165,0.194-0.289,0.364-0.327l2.532-0.561
		l0.005-3.355l-2.529-0.57c-0.169-0.038-0.307-0.162-0.363-0.326c-0.125-0.368-0.253-0.683-0.392-0.962
		c-0.077-0.157-0.067-0.342,0.026-0.49l1.389-2.183l-2.37-2.375l-2.187,1.385c-0.148,0.094-0.333,0.104-0.49,0.026
		c-0.292-0.145-0.605-0.273-0.959-0.394c-0.165-0.056-0.289-0.194-0.327-0.364l-0.566-2.53h-3.355l-0.566,2.53
		c-0.038,0.17-0.162,0.308-0.327,0.364c-0.313,0.107-0.616,0.224-0.91,0.367c-0.157,0.076-0.343,0.064-0.489-0.029l-2.174-1.399
		l-2.388,2.357l1.374,2.196c0.093,0.148,0.102,0.333,0.023,0.489c-0.153,0.306-0.285,0.619-0.401,0.957
		c-0.057,0.165-0.196,0.288-0.366,0.325l-2.532,0.551l-0.019,3.355l2.529,0.58c0.169,0.039,0.307,0.163,0.362,0.328
		c0.126,0.376,0.249,0.682,0.386,0.964c0.077,0.157,0.066,0.342-0.028,0.489l-1.396,2.177l2.361,2.383l2.192-1.377
		c0.148-0.093,0.333-0.102,0.489-0.024c0.299,0.149,0.612,0.279,0.958,0.398c0.165,0.057,0.288,0.195,0.325,0.365L24.738,24.486z"/>
	<circle class="st0" cx="26.45" cy="14.054" r="4.242"/>
	<path class="st1" d="M26.45,18.796c-2.615,0-4.742-2.127-4.742-4.742s2.127-4.742,4.742-4.742s4.742,2.127,4.742,4.742
		S29.065,18.796,26.45,18.796z M26.45,10.312c-2.063,0-3.742,1.679-3.742,3.742s1.679,3.742,3.742,3.742s3.742-1.679,3.742-3.742
		S28.514,10.312,26.45,10.312z"/>
	<path class="st9" d="M53.995,11.508L54,8.831l-1.881-0.424c-0.077-0.227-0.163-0.446-0.268-0.658l1.033-1.624L50.992,4.23
		l-1.626,1.03c-0.212-0.105-0.431-0.193-0.657-0.27l-0.421-1.882h-2.677L45.19,4.99c-0.214,0.073-0.422,0.154-0.623,0.251
		l-1.617-1.041l-1.905,1.881l1.022,1.633C41.96,7.926,41.87,8.143,41.791,8.37l-1.883,0.41l-0.015,2.677l1.88,0.431
		c0.076,0.227,0.161,0.447,0.265,0.66L41,14.167l1.884,1.902l1.631-1.025c0.212,0.106,0.429,0.195,0.656,0.273l0.414,1.883
		l2.677,0.01l0.428-1.881c0.227-0.076,0.446-0.162,0.659-0.266l1.622,1.035l1.898-1.888l-1.027-1.629
		c0.105-0.212,0.194-0.43,0.272-0.656L53.995,11.508z M46.947,12.892c-1.509,0-2.733-1.223-2.733-2.733s1.223-2.733,2.733-2.733
		c1.509,0,2.733,1.223,2.733,2.733S48.456,12.892,46.947,12.892z"/>
	<path class="st1" d="M48.263,17.71c-0.001,0-0.001,0-0.002,0l-2.678-0.01c-0.234-0.001-0.437-0.164-0.486-0.393l-0.355-1.616
		c-0.063-0.025-0.127-0.052-0.189-0.079l-1.401,0.88c-0.199,0.124-0.456,0.094-0.621-0.071l-1.885-1.902
		c-0.164-0.167-0.191-0.425-0.065-0.622l0.892-1.391c-0.026-0.063-0.052-0.127-0.076-0.192l-1.612-0.37
		c-0.229-0.052-0.39-0.256-0.389-0.49l0.015-2.677c0.001-0.234,0.165-0.436,0.394-0.486l1.616-0.352
		c0.025-0.064,0.053-0.127,0.08-0.19l-0.877-1.402c-0.124-0.198-0.094-0.457,0.072-0.621l1.904-1.881
		c0.167-0.164,0.425-0.192,0.622-0.064l1.39,0.894c0.051-0.021,0.102-0.042,0.153-0.061L45.122,3
		c0.052-0.229,0.254-0.391,0.488-0.391h2.678c0.234,0,0.437,0.163,0.488,0.391l0.36,1.615c0.063,0.025,0.128,0.051,0.19,0.078
		l1.397-0.884c0.196-0.125,0.455-0.098,0.621,0.069l1.892,1.895c0.166,0.166,0.194,0.424,0.068,0.622l-0.888,1.395
		c0.027,0.063,0.053,0.127,0.078,0.192l1.614,0.364c0.228,0.052,0.39,0.254,0.39,0.489l-0.005,2.677
		c0,0.234-0.163,0.437-0.392,0.487l-1.615,0.358c-0.025,0.064-0.052,0.127-0.079,0.19l0.883,1.399
		c0.125,0.198,0.096,0.456-0.07,0.621l-1.898,1.888c-0.166,0.165-0.423,0.193-0.622,0.067l-1.393-0.89
		c-0.063,0.027-0.128,0.053-0.192,0.077l-0.366,1.614C48.698,17.548,48.496,17.71,48.263,17.71z M45.987,16.702l1.876,0.007
		l0.339-1.49c0.038-0.17,0.162-0.307,0.328-0.363c0.206-0.07,0.405-0.147,0.598-0.242c0.158-0.077,0.343-0.066,0.49,0.027
		l1.284,0.82l1.33-1.323l-0.813-1.29c-0.093-0.147-0.103-0.332-0.025-0.488c0.095-0.193,0.176-0.392,0.247-0.598
		c0.057-0.165,0.194-0.288,0.364-0.325l1.491-0.33l0.003-1.876l-1.491-0.336c-0.17-0.039-0.308-0.163-0.363-0.329
		c-0.069-0.205-0.147-0.404-0.242-0.597c-0.077-0.157-0.067-0.342,0.026-0.489l0.818-1.286l-1.326-1.328l-1.288,0.815
		c-0.147,0.093-0.334,0.103-0.488,0.026c-0.193-0.095-0.392-0.174-0.598-0.245c-0.165-0.056-0.289-0.194-0.327-0.364l-0.332-1.491
		h-1.877l-0.332,1.491c-0.038,0.17-0.162,0.309-0.328,0.365c-0.194,0.066-0.383,0.139-0.565,0.228
		c-0.157,0.077-0.342,0.065-0.489-0.029l-1.28-0.824l-1.334,1.318L42.49,7.45c0.093,0.148,0.102,0.334,0.022,0.49
		c-0.097,0.192-0.178,0.39-0.25,0.595c-0.057,0.164-0.195,0.287-0.365,0.324l-1.491,0.325l-0.011,1.876l1.49,0.342
		c0.171,0.039,0.309,0.164,0.363,0.33c0.068,0.206,0.145,0.406,0.238,0.599c0.076,0.157,0.065,0.342-0.028,0.489L41.637,14.1
		l1.321,1.333l1.292-0.812c0.147-0.093,0.332-0.101,0.488-0.024c0.193,0.096,0.391,0.177,0.597,0.248
		c0.164,0.057,0.287,0.195,0.324,0.365L45.987,16.702z"/>
	<circle class="st0" cx="46.947" cy="10.159" r="2.733"/>
	<path class="st1" d="M46.947,13.392c-1.783,0-3.233-1.45-3.233-3.232c0-1.783,1.45-3.233,3.233-3.233
		c1.782,0,3.232,1.45,3.232,3.233C50.18,11.941,48.729,13.392,46.947,13.392z M46.947,7.926c-1.231,0-2.233,1.001-2.233,2.233
		c0,1.231,1.002,2.232,2.233,2.232s2.232-1.001,2.232-2.232C49.18,8.928,48.179,7.926,46.947,7.926z"/>
	<path class="st3" d="M12.124,20.417c-1.288,3.012-1.991,6.316-2.215,9.609l-5.295,8.198c-0.595,0.922,0.066,2.137,1.164,2.137
		h3.055v9.971c0,2.374,1.925,4.299,4.299,4.299h10.772v6.262h17.224c0,0,0-11.042,0-11.058c0-0.175,2.364-1.534,2.573-1.697
		c7.896-6.198,11.388-18.355,7.437-27.72H12.124z"/>
	<path class="st4" d="M10.26,52.161V39.9H8.833v10.431c0,1.414,0.692,2.658,1.746,3.442C10.377,53.274,10.26,52.732,10.26,52.161z"
		/>
	<path class="st4" d="M6.042,40.054l5.295-8.198c0.224-3.293,0.927-6.597,2.215-9.609h38.252c-0.193-0.62-0.413-1.231-0.666-1.83
		H12.124c-1.288,3.012-1.991,6.316-2.215,9.609l-5.295,8.198c-0.595,0.922,0.066,2.137,1.164,2.137H5.9
		C5.936,40.256,5.978,40.153,6.042,40.054z"/>
	<rect x="23.904" y="54.162" class="st4" width="1.428" height="6.729"/>
	<path class="st1" d="M41.129,61.392H23.904c-0.276,0-0.5-0.224-0.5-0.5V55.13H13.132c-2.646,0-4.799-2.152-4.799-4.799V40.86H5.778
		c-0.701,0-1.32-0.367-1.655-0.983c-0.335-0.616-0.309-1.335,0.072-1.925l5.225-8.089c0.251-3.502,1.006-6.746,2.245-9.643
		c0.079-0.184,0.26-0.303,0.46-0.303h39.014c0.201,0,0.383,0.121,0.461,0.306c3.972,9.415,0.639,21.849-7.59,28.308
		c-0.07,0.055-0.366,0.238-0.741,0.467c-0.446,0.271-1.315,0.801-1.64,1.042v10.853C41.629,61.168,41.405,61.392,41.129,61.392z
		 M24.404,60.392h16.225V49.834c0-0.355,0.118-0.473,2.12-1.691c0.317-0.193,0.573-0.347,0.646-0.401
		c7.8-6.122,11.016-17.842,7.408-26.825H12.457c-1.134,2.753-1.823,5.827-2.049,9.144c-0.006,0.084-0.033,0.166-0.079,0.237
		l-5.294,8.198c-0.179,0.276-0.191,0.614-0.034,0.903c0.158,0.289,0.448,0.462,0.777,0.462h3.054c0.276,0,0.5,0.224,0.5,0.5v9.971
		c0,2.095,1.705,3.799,3.799,3.799h10.772c0.276,0,0.5,0.224,0.5,0.5V60.392z"/>
	<path class="st5" d="M51.138,20.417c3.951,9.365,0.459,21.522-7.437,27.72c-0.209,0.164-2.573,1.523-2.573,1.697
		c0,0.015,0,11.058,0,11.058h6.836c0,0,0-11.043,0-11.058c0-0.175,2.364-1.534,2.573-1.697c7.896-6.198,11.388-18.355,7.437-27.72
		H51.138z"/>
	<path class="st1" d="M47.964,61.392h-6.835c-0.276,0-0.5-0.224-0.5-0.5V49.834c0-0.355,0.118-0.473,2.12-1.691
		c0.317-0.193,0.573-0.347,0.646-0.401c7.888-6.191,11.088-18.11,7.282-27.13c-0.064-0.154-0.049-0.331,0.044-0.471
		s0.249-0.224,0.417-0.224h6.835c0.201,0,0.383,0.121,0.461,0.306c3.972,9.416,0.639,21.85-7.589,28.308
		c-0.071,0.055-0.364,0.236-0.736,0.463c-0.448,0.273-1.32,0.804-1.646,1.046v10.853C48.464,61.168,48.24,61.392,47.964,61.392z
		 M41.629,60.392h5.835V49.834c0-0.356,0.118-0.474,2.126-1.695c0.316-0.191,0.569-0.345,0.643-0.398
		c7.798-6.121,11.015-17.841,7.406-26.824h-5.762c3.528,9.324,0.16,21.313-7.867,27.614c-0.07,0.055-0.366,0.238-0.741,0.467
		c-0.446,0.271-1.315,0.801-1.64,1.042V60.392z"/>
</g>
</svg>
