<?xml version="1.0" encoding="iso-8859-1"?>
<!-- Generator: Adobe Illustrator 22.0.1, SVG Export Plug-In . SVG Version: 6.00 Build 0)  -->
<svg version="1.1" id="Layer_1" xmlns="http://www.w3.org/2000/svg" xmlns:xlink="http://www.w3.org/1999/xlink" x="0px" y="0px"
	 viewBox="0 0 64 64" style="enable-background:new 0 0 64 64;" xml:space="preserve">
<style type="text/css">
	.st0{fill:#F8F3F3;}
	.st1{fill:#63312D;}
	.st2{fill:#E1DDDD;}
	.st3{fill:#84DBFF;}
	.st4{fill:#CAF4FF;}
	.st5{fill:#52BADB;}
	.st6{fill:#F9DD9D;}
	.st7{fill:#FFEECF;}
	.st8{fill:#EFC36A;}
	.st9{fill:#F7A085;}
	.st10{fill:#82D9FF;}
	.st11{fill:#F7DB9B;}
	.st12{fill:#F9A287;}
	.st13{fill:#FFC8BB;}
	.st14{fill:#52B8D9;}
	.st15{fill:#DB785A;}
	.st16{fill:#EDCB85;}
	.st17{fill:#DBAB56;}
	.st18{fill:#D3A553;}
	.st19{fill:#FFFFFF;}
</style>
<g>
	<path class="st6" d="M29.468,3.318C23.373,3.6,18.378,8.651,18.158,14.749c-0.128,3.542,1.298,6.749,3.647,9.003
		c1.758,1.686,2.788,3.991,2.788,6.427v0.487h10.881v-0.484c0-2.461,1.072-4.765,2.839-6.479c2.222-2.157,3.605-5.172,3.605-8.515
		C41.917,8.438,36.288,3.002,29.468,3.318z"/>
	<path class="st7" d="M23.318,23.752c-2.35-2.254-3.775-5.461-3.647-9.003c0.218-6.041,5.124-11.048,11.143-11.415
		c-0.443-0.029-0.891-0.037-1.345-0.016C23.372,3.6,18.378,8.651,18.158,14.749c-0.128,3.542,1.298,6.749,3.647,9.003
		c1.758,1.686,2.788,3.991,2.788,6.427v0.487h1.513v-0.487C26.106,27.743,25.076,25.438,23.318,23.752z"/>
	<path class="st1" d="M35.474,31.166H24.593c-0.276,0-0.5-0.224-0.5-0.5v-0.487c0-2.249-0.96-4.46-2.634-6.066
		c-2.543-2.438-3.928-5.858-3.801-9.381c0.23-6.386,5.407-11.618,11.787-11.913l0,0c3.427-0.17,6.668,1.053,9.139,3.412
		c2.472,2.36,3.833,5.541,3.833,8.958c0,3.371-1.334,6.521-3.756,8.873c-1.733,1.682-2.687,3.855-2.687,6.12v0.484
		C35.974,30.942,35.75,31.166,35.474,31.166z M25.093,30.166h9.881c0.004-2.532,1.066-4.954,2.991-6.821
		c2.227-2.162,3.453-5.059,3.453-8.156c0-3.141-1.251-6.065-3.523-8.234c-2.271-2.169-5.249-3.274-8.402-3.138l0,0
		c-5.863,0.271-10.623,5.082-10.834,10.95c-0.117,3.239,1.157,6.383,3.494,8.625C24.018,25.182,25.089,27.65,25.093,30.166z"/>
	<path class="st3" d="M23.641,30.667V35.5c0,1.427,1.157,2.584,2.584,2.584h7.618c1.427,0,2.584-1.157,2.584-2.584v-4.833H23.641z"
		/>
	<path class="st4" d="M25.024,36.917v-4.833h11.402v-1.417H23.641V35.5c0,1.068,0.648,1.984,1.573,2.378
		C25.094,37.58,25.024,37.257,25.024,36.917z"/>
	<path class="st1" d="M33.842,38.584h-7.618c-1.7,0-3.083-1.384-3.083-3.084v-4.833c0-0.276,0.224-0.5,0.5-0.5h12.786
		c0.276,0,0.5,0.224,0.5,0.5V35.5C36.926,37.2,35.543,38.584,33.842,38.584z M24.141,31.167V35.5c0,1.149,0.935,2.084,2.083,2.084
		h7.618c1.149,0,2.084-0.935,2.084-2.084v-4.333H24.141z"/>
	<path class="st8" d="M33.401,3.318h-3.375l0,0.003c6.565-0.002,11.891,5.303,11.891,11.868c0,3.342-1.382,6.358-3.605,8.515
		c-1.766,1.714-2.839,4.018-2.839,6.479v0.484h3.933v-0.484c0-2.461,1.072-4.765,2.839-6.479c2.222-2.157,3.605-5.172,3.605-8.515
		C45.85,8.438,40.222,3.002,33.401,3.318z"/>
	<path class="st1" d="M39.407,31.166h-3.934c-0.276,0-0.5-0.224-0.5-0.5v-0.484c0-2.538,1.062-4.966,2.991-6.837
		c2.227-2.162,3.453-5.059,3.453-8.156c0-3.04-1.185-5.896-3.337-8.043c-2.15-2.145-5.009-3.325-8.051-3.325
		c-0.001,0-0.002,0-0.003,0c-0.147,0-0.287-0.064-0.381-0.177c-0.095-0.112-0.136-0.261-0.112-0.405
		c0.04-0.241,0.249-0.421,0.494-0.421h3.363c3.418-0.155,6.66,1.057,9.128,3.413c2.472,2.36,3.833,5.542,3.833,8.958
		c0,3.371-1.334,6.522-3.757,8.873c-1.732,1.682-2.687,3.855-2.687,6.12v0.484C39.907,30.942,39.684,31.166,39.407,31.166z
		 M35.974,30.166h2.934c0.004-2.532,1.066-4.954,2.99-6.821c2.227-2.162,3.453-5.059,3.453-8.156c0-3.141-1.251-6.065-3.523-8.234
		c-1.889-1.804-4.272-2.878-6.832-3.104c1.396,0.609,2.681,1.48,3.792,2.589c2.341,2.335,3.63,5.442,3.63,8.75
		c0,3.371-1.334,6.521-3.756,8.873C36.932,25.739,35.978,27.907,35.974,30.166z"/>
	<path class="st5" d="M36.426,30.667V35.5c0,1.427-1.157,2.584-2.584,2.584h3.738c1.511,0,2.736-1.225,2.736-2.736v-4.68H36.426z"/>
	<path class="st1" d="M37.581,38.584h-3.738c-0.276,0-0.5-0.224-0.5-0.5s0.224-0.5,0.5-0.5c1.149,0,2.084-0.935,2.084-2.084v-4.833
		c0-0.276,0.224-0.5,0.5-0.5h3.891c0.276,0,0.5,0.224,0.5,0.5v4.681C40.817,37.132,39.365,38.584,37.581,38.584z M36.114,37.584
		h1.467c1.233,0,2.236-1.003,2.236-2.236v-4.181h-2.891V35.5C36.926,36.303,36.618,37.035,36.114,37.584z"/>
	<rect x="13.285" y="34.25" class="st12" width="37.43" height="26.445"/>
	<rect x="13.285" y="34.25" class="st13" width="1.563" height="26.445"/>
	<rect x="32.008" y="34.25" class="st13" width="1.563" height="26.445"/>
	<path class="st1" d="M50.715,61.195H13.285c-0.276,0-0.5-0.224-0.5-0.5V34.25c0-0.276,0.224-0.5,0.5-0.5h37.431
		c0.276,0,0.5,0.224,0.5,0.5v26.445C51.215,60.972,50.992,61.195,50.715,61.195z M13.785,60.195h36.431V34.75H13.785V60.195z"/>
	<polygon class="st0" points="57.632,40.983 38.916,40.983 32,34.25 50.715,34.25 	"/>
	<rect x="31.5" y="34.25" class="st1" width="1" height="26.445"/>
	<polygon class="st0" points="6.368,40.983 25.084,40.983 32,34.25 13.285,34.25 	"/>
	<path class="st1" d="M57.632,41.483H38.917c-0.13,0-0.255-0.051-0.349-0.142l-6.917-6.733c-0.146-0.142-0.191-0.358-0.115-0.547
		S31.796,33.75,32,33.75h18.715c0.13,0,0.255,0.051,0.349,0.142l6.917,6.733c0.146,0.142,0.191,0.358,0.115,0.547
		S57.835,41.483,57.632,41.483z M39.12,40.483h17.282l-5.889-5.733H33.23L39.12,40.483z"/>
	<path class="st1" d="M25.083,41.483H6.368c-0.204,0-0.387-0.123-0.463-0.312s-0.031-0.405,0.115-0.547l6.917-6.733
		c0.093-0.091,0.218-0.142,0.349-0.142H32c0.204,0,0.387,0.123,0.463,0.312s0.031,0.405-0.115,0.547l-6.917,6.733
		C25.339,41.433,25.214,41.483,25.083,41.483z M7.599,40.483H24.88l5.889-5.733H13.488L7.599,40.483z"/>
	<path class="st1" d="M31.926,30.396h-1V24.4c0-0.128,0.049-0.252,0.138-0.345l1.85-1.941l0.724,0.689l-1.711,1.797V30.396z"/>
	<path class="st1" d="M29.141,30.396h-1v-5.795l-1.711-1.797l0.724-0.689l1.85,1.941c0.089,0.093,0.138,0.217,0.138,0.345V30.396z"
		/>
</g>
</svg>
