<?xml version="1.0" encoding="iso-8859-1"?>
<!-- Generator: Adobe Illustrator 22.0.1, SVG Export Plug-In . SVG Version: 6.00 Build 0)  -->
<svg version="1.1" id="Layer_1" xmlns="http://www.w3.org/2000/svg" xmlns:xlink="http://www.w3.org/1999/xlink" x="0px" y="0px"
	 viewBox="0 0 64 64" style="enable-background:new 0 0 64 64;" xml:space="preserve">
<style type="text/css">
	.st0{fill:#F8F3F3;}
	.st1{fill:#63312D;}
	.st2{fill:#E1DDDD;}
	.st3{fill:#84DBFF;}
	.st4{fill:#CAF4FF;}
	.st5{fill:#52BADB;}
	.st6{fill:#F9DD9D;}
	.st7{fill:#FFEECF;}
	.st8{fill:#EFC36A;}
	.st9{fill:#F7A085;}
	.st10{fill:#82D9FF;}
	.st11{fill:#F7DB9B;}
	.st12{fill:#F9A287;}
	.st13{fill:#FFC8BB;}
	.st14{fill:#52B8D9;}
	.st15{fill:#DB785A;}
	.st16{fill:#EDCB85;}
	.st17{fill:#DBAB56;}
	.st18{fill:#D3A553;}
	.st19{fill:#FFFFFF;}
</style>
<g>
	<path class="st15" d="M57.315,6.61h-3.88c0.174,0.001,0.347,0.019,0.511,0.048c0.12,0.02,0.24,0.04,0.36,0.08
		c0.11,0.03,0.22,0.07,0.32,0.12c0.76,0.34,1.35,0.98,1.63,1.77c0.1,0.3,0.16,0.64,0.16,0.98v32.829c0,1.66-1.34,3.001-3.001,3.001
		h-3.544v0.003h7.444c1.98,0,3.584-1.605,3.584-3.584V10.194C60.899,8.215,59.295,6.61,57.315,6.61z"/>
	<path class="st1" d="M57.315,45.941h-7.444v-1h7.444c1.7,0,3.084-1.384,3.084-3.084V10.194c0-1.701-1.384-3.084-3.084-3.084h-7.444
		v-1h7.444c2.252,0,4.084,1.833,4.084,4.084v31.662C61.399,44.108,59.567,45.941,57.315,45.941z"/>
	<path class="st12" d="M56.256,8.629c-0.28-0.79-0.87-1.43-1.63-1.77c-0.1-0.05-0.21-0.09-0.32-0.12c-0.12-0.04-0.24-0.06-0.36-0.08
		c-0.17-0.03-0.35-0.05-0.53-0.05H6.103c-1.66,0-3.001,1.34-3.001,3.001v32.829c0,0.1,0.01,0.21,0.02,0.31
		c0.01,0.14,0.03,0.28,0.07,0.42c0.05,0.23,0.14,0.45,0.25,0.65c0.14,0.28,0.33,0.53,0.55,0.74c0.155,0.158,0.329,0.291,0.514,0.41
		c0.032,0.02,0.065,0.035,0.098,0.054c0.176,0.104,0.362,0.187,0.559,0.253c0.003,0.001,0.006,0.003,0.009,0.004
		c0,0,0-0.001,0-0.001c0.294,0.097,0.602,0.161,0.931,0.161h47.313c1.66,0,3.001-1.34,3.001-3.001V9.609
		C56.417,9.269,56.356,8.929,56.256,8.629z"/>
	<path class="st13" d="M56.257,8.629c-0.28-0.07-0.63-0.11-0.93-0.11H6.803c-0.99,0-1.8,0.8-1.8,1.79v34.039
		c0,0.33,0.07,0.64,0.17,0.93c-0.45-0.14-0.86-0.39-1.18-0.72c-0.22-0.22-0.41-0.46-0.55-0.74c-0.11-0.2-0.19-0.42-0.25-0.65
		c-0.04-0.14-0.06-0.28-0.07-0.42c-0.01-0.1-0.02-0.21-0.02-0.31V9.609c0-1.66,1.34-3.001,3.001-3.001h47.313
		c0.18,0,0.36,0.02,0.53,0.05c0.12,0.02,0.24,0.04,0.36,0.08c0.11,0.03,0.22,0.07,0.32,0.12C55.386,7.198,55.976,7.839,56.257,8.629
		z"/>
	<path class="st1" d="M53.418,45.941H6.102c-1.931,0-3.501-1.57-3.501-3.5V9.611c0-1.931,1.57-3.501,3.501-3.501h47.316
		c1.931,0,3.501,1.57,3.501,3.501v32.83C56.919,44.371,55.349,45.941,53.418,45.941z M6.102,7.11c-1.379,0-2.501,1.122-2.501,2.501
		v32.83c0,1.379,1.122,2.5,2.501,2.5h47.316c1.379,0,2.501-1.122,2.501-2.5V9.611c0-1.379-1.122-2.501-2.501-2.501H6.102z"/>
	<rect id="XMLID_45_" x="7.507" y="10.941" class="st0" width="44.805" height="27.709"/>
	<polygon class="st2" points="9.411,12.868 52.312,12.868 52.312,10.941 7.507,10.941 7.507,38.65 9.411,38.65 	"/>
	<path class="st1" d="M52.312,39.15H7.507c-0.276,0-0.5-0.224-0.5-0.5V10.941c0-0.276,0.224-0.5,0.5-0.5h44.805
		c0.276,0,0.5,0.224,0.5,0.5V38.65C52.812,38.926,52.588,39.15,52.312,39.15z M8.007,38.15h43.805V11.441H8.007V38.15z"/>
	<rect id="XMLID_43_" x="25.421" y="45.441" class="st11" width="11.251" height="7.617"/>
	<rect id="XMLID_42_" x="25.421" y="45.441" class="st16" width="11.251" height="1.955"/>
	<rect x="32.535" y="45.444" class="st8" width="4.142" height="7.611"/>
	<rect x="32.535" y="45.444" class="st17" width="4.142" height="1.955"/>
	<path class="st1" d="M36.673,53.558H25.421c-0.276,0-0.5-0.224-0.5-0.5v-7.617c0-0.276,0.224-0.5,0.5-0.5h11.252
		c0.276,0,0.5,0.224,0.5,0.5v7.617C37.173,53.334,36.949,53.558,36.673,53.558z M25.921,52.558h10.252v-6.617H25.921V52.558z"/>
	<rect x="32.038" y="45.441" class="st1" width="1" height="7.617"/>
	<path class="st12" d="M41.422,54.481c-0.17-0.57-0.58-1.02-1.11-1.26c-0.15-0.07-0.32-0.11-0.48-0.13
		c-0.11-0.02-0.21-0.03-0.32-0.03H19.617c-1.11,0-2.001,0.89-2.001,2.001v2.331h23.896v-2.331
		C41.513,54.861,41.482,54.661,41.422,54.481z"/>
	<path class="st13" d="M41.423,54.481H19.957c-0.48,0-0.86,0.38-0.86,0.85v2.061h-1.48v-2.331c0-1.11,0.89-2.001,2.001-2.001h19.895
		c0.11,0,0.21,0.01,0.32,0.03c0.16,0.02,0.33,0.06,0.48,0.13C40.842,53.461,41.252,53.911,41.423,54.481z"/>
	<path class="st1" d="M41.508,57.889H17.612c-0.276,0-0.5-0.224-0.5-0.5v-2.331c0-1.379,1.121-2.501,2.5-2.501h19.896
		c1.379,0,2.5,1.122,2.5,2.501v2.331C42.008,57.666,41.784,57.889,41.508,57.889z M18.112,56.889h22.896v-1.831
		c0-0.828-0.673-1.501-1.5-1.501H19.612c-0.827,0-1.5,0.673-1.5,1.501V56.889z"/>
	<path class="st15" d="M42.483,53.058h-2.975c1.105,0,2.001,0.896,2.001,2.001v2.331h2.975v-2.331
		C44.483,53.953,43.587,53.058,42.483,53.058z"/>
	<path class="st1" d="M44.483,57.889h-2.976c-0.276,0-0.5-0.224-0.5-0.5v-2.331c0-0.827-0.673-1.5-1.5-1.5
		c-0.276,0-0.5-0.224-0.5-0.5s0.224-0.5,0.5-0.5h2.975c1.379,0,2.501,1.122,2.501,2.5v2.331
		C44.983,57.666,44.76,57.889,44.483,57.889z M42.008,56.889h1.976v-1.831c0-0.827-0.673-1.5-1.501-1.5h-0.976
		c0.314,0.418,0.501,0.938,0.501,1.5V56.889z"/>
	<path class="st11" d="M37.765,32.877c-0.278,0.278-0.568,0.536-0.866,0.777l2.48,2.48l1.644-1.644l-2.48-2.48
		C38.301,32.309,38.043,32.599,37.765,32.877z"/>
	<circle class="st10" cx="30.011" cy="25.123" r="10.966"/>
	<path class="st1" d="M30.011,36.583c-2.937,0-5.872-1.118-8.107-3.353c-4.471-4.47-4.471-11.745,0-16.215
		c4.471-4.471,11.744-4.471,16.215,0c4.471,4.47,4.471,11.745,0,16.215C35.883,35.466,32.947,36.583,30.011,36.583z M30.011,14.662
		c-2.68,0-5.36,1.021-7.4,3.061c-4.08,4.081-4.08,10.72,0,14.801c4.08,4.08,10.721,4.08,14.801,0c4.08-4.081,4.08-10.72,0-14.801
		C35.371,15.683,32.69,14.662,30.011,14.662z"/>
	<circle class="st0" cx="30.011" cy="25.123" r="7.8"/>
	<path class="st1" d="M30.012,33.419c-2.126,0-4.251-0.809-5.869-2.427c-3.236-3.236-3.236-8.501,0-11.737
		c3.236-3.235,8.501-3.237,11.737,0c3.236,3.236,3.236,8.501,0,11.737C34.262,32.61,32.137,33.419,30.012,33.419z M30.012,17.827
		c-1.87,0-3.739,0.712-5.162,2.135c-2.846,2.846-2.846,7.477,0,10.323c2.844,2.845,7.476,2.846,10.323,0
		c2.846-2.846,2.846-7.477,0-10.323C33.75,18.539,31.881,17.827,30.012,17.827z"/>
	<path class="st1" d="M39.379,36.635c-0.133,0-0.26-0.053-0.354-0.146l-2.536-2.536l0.707-0.707l2.183,2.183l0.937-0.937
		l-2.082-2.082l0.707-0.707l2.436,2.436c0.195,0.195,0.195,0.512,0,0.707l-1.644,1.644C39.639,36.582,39.512,36.635,39.379,36.635z"
		/>
	<path class="st10" d="M49.53,44.642L49.53,44.642c-0.849,0.849-2.227,0.849-3.076,0l-7.791-7.791l3.076-3.076l7.791,7.791
		C50.379,42.415,50.379,43.792,49.53,44.642z"/>
	<path class="st1" d="M47.991,45.777c-0.685,0-1.37-0.261-1.892-0.782l-7.79-7.791c-0.195-0.195-0.195-0.512,0-0.707l3.076-3.076
		c0.188-0.188,0.52-0.188,0.707,0l7.79,7.791c1.043,1.043,1.043,2.74,0,3.783C49.361,45.517,48.676,45.777,47.991,45.777z
		 M39.37,36.851l7.437,7.437c0.652,0.653,1.717,0.653,2.369,0c0.653-0.653,0.653-1.716,0-2.369l-7.437-7.437L39.37,36.851z"/>
	<path class="st1" d="M23.591,29.288l-0.746-0.665l4.032-4.525c0.182-0.205,0.497-0.225,0.703-0.043l2.578,2.264l3.029-3.052
		l0.709,0.704l-3.36,3.386c-0.186,0.188-0.485,0.198-0.685,0.024l-2.559-2.247L23.591,29.288z"/>
	<path class="st1" d="M34.43,25.635h-1v-1.896h-1.875v-1h2.375c0.276,0,0.5,0.224,0.5,0.5V25.635z"/>
</g>
</svg>
