<?xml version="1.0" encoding="iso-8859-1"?>
<!-- Generator: Adobe Illustrator 22.0.1, SVG Export Plug-In . SVG Version: 6.00 Build 0)  -->
<svg version="1.1" id="Layer_1" xmlns="http://www.w3.org/2000/svg" xmlns:xlink="http://www.w3.org/1999/xlink" x="0px" y="0px"
	 viewBox="0 0 64 64" style="enable-background:new 0 0 64 64;" xml:space="preserve">
<style type="text/css">
	.st0{fill:#F8F3F3;}
	.st1{fill:#63312D;}
	.st2{fill:#E1DDDD;}
	.st3{fill:#84DBFF;}
	.st4{fill:#CAF4FF;}
	.st5{fill:#52BADB;}
	.st6{fill:#F9DD9D;}
	.st7{fill:#FFEECF;}
	.st8{fill:#EFC36A;}
	.st9{fill:#F7A085;}
	.st10{fill:#82D9FF;}
	.st11{fill:#F7DB9B;}
	.st12{fill:#F9A287;}
	.st13{fill:#FFC8BB;}
	.st14{fill:#52B8D9;}
	.st15{fill:#DB785A;}
	.st16{fill:#EDCB85;}
	.st17{fill:#DBAB56;}
	.st18{fill:#D3A553;}
	.st19{fill:#FFFFFF;}
</style>
<g>
	<path class="st14" d="M15.654,50.402c-2.897,0-5.245,2.348-5.245,5.245c0,2.897,2.348,5.245,5.245,5.245H48.83v-10.49H15.654z"/>
	<path class="st1" d="M48.83,61.392H15.654c-3.167,0-5.745-2.577-5.745-5.745s2.577-5.745,5.745-5.745H48.83
		c0.276,0,0.5,0.224,0.5,0.5v10.49C49.33,61.168,49.106,61.392,48.83,61.392z M15.654,50.901c-2.616,0-4.745,2.129-4.745,4.745
		s2.128,4.745,4.745,4.745H48.33v-9.49H15.654z"/>
	<path class="st10" d="M15.743,3.108c-2.946,0-5.334,2.388-5.334,5.334v47.204c0-2.897,2.348-5.245,5.245-5.245H48.83V3.108H15.743z
		"/>
	<path class="st4" d="M12.478,8.377c0-1.767,1.433-3.2,3.2-3.2H48.83V3.108H15.743c-2.946,0-5.334,2.388-5.334,5.334v47.204
		c0-1.697,0.819-3.189,2.068-4.148V8.377z"/>
	<path class="st1" d="M10.41,56.146c-0.276,0-0.5-0.224-0.5-0.5V8.442c0-3.217,2.617-5.834,5.833-5.834H48.83
		c0.276,0,0.5,0.224,0.5,0.5v47.293c0,0.276-0.224,0.5-0.5,0.5H15.654c-2.616,0-4.745,2.129-4.745,4.745
		C10.91,55.923,10.686,56.146,10.41,56.146z M15.743,3.608c-2.665,0-4.833,2.169-4.833,4.834v43.969
		c1.036-1.515,2.776-2.51,4.745-2.51H48.33V3.608H15.743z"/>
	<path class="st0" d="M15.96,52.935c-1.497,0-2.711,1.214-2.711,2.711c0,1.497,1.214,2.711,2.711,2.711h32.87v-5.423H15.96z"/>
	<path class="st1" d="M48.83,58.858H15.96c-1.771,0-3.211-1.44-3.211-3.212c0-1.771,1.44-3.211,3.211-3.211h32.87
		c0.276,0,0.5,0.224,0.5,0.5v5.423C49.33,58.635,49.106,58.858,48.83,58.858z M15.96,53.436c-1.219,0-2.211,0.992-2.211,2.211
		c0,1.22,0.992,2.212,2.211,2.212h32.37v-4.423H15.96z"/>
	<rect x="48.829" y="50.402" class="st14" width="4.762" height="2.534"/>
	<rect x="48.829" y="58.358" class="st14" width="4.762" height="2.534"/>
	<path class="st1" d="M53.59,53.436h-4.761c-0.276,0-0.5-0.224-0.5-0.5v-2.534c0-0.276,0.224-0.5,0.5-0.5h4.761
		c0.276,0,0.5,0.224,0.5,0.5v2.534C54.09,53.212,53.867,53.436,53.59,53.436z M49.329,52.436h3.761v-1.534h-3.761V52.436z"/>
	<path class="st1" d="M53.59,61.392h-4.761c-0.276,0-0.5-0.224-0.5-0.5v-2.533c0-0.276,0.224-0.5,0.5-0.5h4.761
		c0.276,0,0.5,0.224,0.5,0.5v2.533C54.09,61.168,53.867,61.392,53.59,61.392z M49.329,60.392h3.761v-1.533h-3.761V60.392z"/>
	<rect x="48.829" y="52.935" class="st2" width="4.762" height="5.423"/>
	<path class="st1" d="M53.59,58.858h-4.761c-0.276,0-0.5-0.224-0.5-0.5v-5.423c0-0.276,0.224-0.5,0.5-0.5h4.761
		c0.276,0,0.5,0.224,0.5,0.5v5.423C54.09,58.635,53.867,58.858,53.59,58.858z M49.329,57.858h3.761v-4.423h-3.761V57.858z"/>
	<rect x="48.829" y="3.108" class="st14" width="4.762" height="47.293"/>
	<path class="st1" d="M53.59,50.901h-4.761c-0.276,0-0.5-0.224-0.5-0.5V3.108c0-0.276,0.224-0.5,0.5-0.5h4.761
		c0.276,0,0.5,0.224,0.5,0.5v47.293C54.09,50.678,53.867,50.901,53.59,50.901z M49.329,49.901h3.761V3.608h-3.761V49.901z"/>
	<circle class="st19" cx="29.62" cy="28.196" r="12.31"/>
	<path class="st1" d="M29.62,41.007c-7.064,0-12.811-5.747-12.811-12.811s5.747-12.811,12.811-12.811
		c7.063,0,12.81,5.747,12.81,12.811S36.683,41.007,29.62,41.007z M29.62,16.386c-6.512,0-11.811,5.298-11.811,11.811
		s5.298,11.811,11.811,11.811s11.81-5.298,11.81-11.811S36.132,16.386,29.62,16.386z"/>
	<path class="st6" d="M29.356,20.669c-2.837,0.131-5.162,2.482-5.264,5.32c-0.06,1.649,0.604,3.141,1.698,4.19
		c0.818,0.785,1.298,1.857,1.298,2.991v0.227h5.064v-0.225c0-1.146,0.499-2.218,1.321-3.015c1.034-1.004,1.678-2.407,1.678-3.963
		C35.151,23.052,32.531,20.522,29.356,20.669z"/>
	<path class="st1" d="M32.152,33.897h-5.064c-0.276,0-0.5-0.224-0.5-0.5v-0.227c0-0.976-0.417-1.934-1.143-2.63
		c-1.239-1.188-1.914-2.854-1.852-4.569c0.112-3.11,2.634-5.659,5.741-5.802c1.66-0.082,3.247,0.513,4.45,1.661
		c1.204,1.149,1.867,2.698,1.867,4.362c0,1.643-0.65,3.177-1.83,4.321c-0.754,0.732-1.169,1.676-1.169,2.657v0.226
		C32.652,33.674,32.428,33.897,32.152,33.897z M27.579,32.897h4.081c0.07-1.153,0.584-2.245,1.464-3.1
		c0.984-0.955,1.526-2.235,1.526-3.604c0-1.388-0.553-2.681-1.558-3.64c-1.003-0.958-2.325-1.432-3.713-1.386c0,0,0,0,0,0
		c-2.591,0.12-4.694,2.245-4.788,4.839c-0.052,1.432,0.511,2.821,1.544,3.812C26.991,30.638,27.508,31.747,27.579,32.897z"/>
	<path class="st3" d="M30.595,36.85h-1.951c-1.105,0-2-0.895-2-2v-1.452h5.951v1.452C32.595,35.954,31.7,36.85,30.595,36.85z"/>
	<path class="st1" d="M30.595,37.35h-1.951c-1.378,0-2.5-1.121-2.5-2.5v-1.452c0-0.276,0.224-0.5,0.5-0.5h5.951
		c0.276,0,0.5,0.224,0.5,0.5v1.452C33.095,36.229,31.973,37.35,30.595,37.35z M27.144,33.897v0.952c0,0.827,0.673,1.5,1.5,1.5h1.951
		c0.827,0,1.5-0.673,1.5-1.5v-0.952H27.144z"/>
	<path class="st1" d="M31.039,33.397h-1V29.83c0-0.128,0.049-0.252,0.138-0.345l1.101-1.156l0.725,0.689l-0.963,1.012V33.397z"/>
	<path class="st1" d="M29.21,33.397h-1V30.03l-0.963-1.012l0.725-0.689l1.101,1.156c0.088,0.093,0.138,0.217,0.138,0.345V33.397z"/>
	<rect x="29.12" y="17.354" class="st1" width="1" height="1.761"/>
	
		<rect x="34.278" y="19.898" transform="matrix(0.7047 -0.7095 0.7095 0.7047 -4.0898 30.9712)" class="st1" width="1.761" height="1.001"/>
	<rect x="36.564" y="25.247" transform="matrix(1 -0.0068 0.0068 1 -0.1751 0.2566)" class="st1" width="1.761" height="1"/>
	
		<rect x="23.58" y="19.518" transform="matrix(0.7097 -0.7045 0.7045 0.7097 -7.3804 22.8848)" class="st1" width="1.001" height="1.761"/>
	<rect x="21.294" y="24.866" transform="matrix(0.0072 -1 1 0.0072 -4.1088 47.3546)" class="st1" width="1" height="1.761"/>
	<rect x="28.56" y="36.85" class="st6" width="2.149" height="1.766"/>
	<path class="st1" d="M30.709,39.115h-2.149c-0.276,0-0.5-0.224-0.5-0.5V36.85c0-0.276,0.224-0.5,0.5-0.5h2.149
		c0.276,0,0.5,0.224,0.5,0.5v1.766C31.209,38.892,30.986,39.115,30.709,39.115z M29.061,38.115h1.149V37.35h-1.149V38.115z"/>
</g>
</svg>
