<?xml version="1.0" encoding="iso-8859-1"?>
<!-- Generator: Adobe Illustrator 22.0.1, SVG Export Plug-In . SVG Version: 6.00 Build 0)  -->
<svg version="1.1" id="Layer_1" xmlns="http://www.w3.org/2000/svg" xmlns:xlink="http://www.w3.org/1999/xlink" x="0px" y="0px"
	 viewBox="0 0 64 64" style="enable-background:new 0 0 64 64;" xml:space="preserve">
<style type="text/css">
	.st0{fill:#F8F3F3;}
	.st1{fill:#63312D;}
	.st2{fill:#E1DDDD;}
	.st3{fill:#84DBFF;}
	.st4{fill:#CAF4FF;}
	.st5{fill:#52BADB;}
	.st6{fill:#F9DD9D;}
	.st7{fill:#FFEECF;}
	.st8{fill:#EFC36A;}
	.st9{fill:#F7A085;}
	.st10{fill:#82D9FF;}
	.st11{fill:#F7DB9B;}
	.st12{fill:#F9A287;}
	.st13{fill:#FFC8BB;}
	.st14{fill:#52B8D9;}
	.st15{fill:#DB785A;}
	.st16{fill:#EDCB85;}
	.st17{fill:#DBAB56;}
	.st18{fill:#D3A553;}
	.st19{fill:#FFFFFF;}
</style>
<g>
	<path class="st6" d="M42.49,13.839h-9.218h-6.094h-9.218h-3.927v6.094v2.882h3.927v-0.77c0-1.166,0.946-2.112,2.112-2.112h7.106
		v24.179c0,1.166-0.946,2.112-2.112,2.112h-1.969v4.114h14.257v-4.114h-1.969c-1.166,0-2.112-0.946-2.112-2.112V19.934h7.106
		c1.166,0,2.112,0.946,2.112,2.112v0.77h3.927v-2.882v-6.094H42.49z"/>
	<polygon class="st7" points="16.156,22.059 16.156,15.964 20.084,15.964 29.302,15.964 35.396,15.964 44.615,15.964 46.417,15.964 
		46.417,13.839 42.49,13.839 33.271,13.839 27.177,13.839 17.959,13.839 14.031,13.839 14.031,19.934 14.031,22.816 16.156,22.816 	
		"/>
	<path class="st7" d="M25.221,48.35h0.081c2.209,0,4-1.791,4-4V19.423h-2.125v24.69c0,1.166-0.946,2.112-2.112,2.112h-1.969v4.114
		h2.125V48.35z"/>
	<path class="st1" d="M37.353,50.839H23.096c-0.276,0-0.5-0.224-0.5-0.5v-4.113c0-0.276,0.224-0.5,0.5-0.5h1.969
		c0.889,0,1.612-0.724,1.612-1.612v-23.68h-6.606c-0.889,0-1.612,0.724-1.612,1.612v0.77c0,0.276-0.224,0.5-0.5,0.5h-3.928
		c-0.276,0-0.5-0.224-0.5-0.5v-8.977c0-0.276,0.224-0.5,0.5-0.5h32.386c0.276,0,0.5,0.224,0.5,0.5v8.977c0,0.276-0.224,0.5-0.5,0.5
		H42.49c-0.276,0-0.5-0.224-0.5-0.5v-0.77c0-0.889-0.723-1.612-1.612-1.612h-6.606v23.68c0,0.889,0.723,1.612,1.612,1.612h1.969
		c0.276,0,0.5,0.224,0.5,0.5v4.113C37.853,50.615,37.629,50.839,37.353,50.839z M23.596,49.839h13.257v-3.113h-1.469
		c-1.44,0-2.612-1.172-2.612-2.612v-24.18c0-0.276,0.224-0.5,0.5-0.5h7.106c1.44,0,2.612,1.172,2.612,2.612v0.27h2.927v-7.977
		H14.531v7.977h2.928v-0.27c0-1.44,1.172-2.612,2.612-2.612h7.106c0.276,0,0.5,0.224,0.5,0.5v24.18c0,1.44-1.172,2.612-2.612,2.612
		h-1.469V49.839z"/>
	<path class="st8" d="M20.071,19.934c-1.166,0-2.112,0.946-2.112,2.112v0.77h3.552v-0.77c0-1.167,0.946-2.112,2.112-2.112H20.071z"
		/>
	<path class="st8" d="M36.823,44.113V19.934h-3.552v24.179c0,1.167,0.946,2.112,2.112,2.112h1.969v4.114h3.552v-4.114h-1.969
		C37.769,46.225,36.823,45.28,36.823,44.113z"/>
	<polygon class="st8" points="46.417,13.839 46.417,19.934 46.417,22.816 49.969,22.816 49.969,19.934 49.969,13.839 	"/>
	<path class="st1" d="M21.51,23.315h-3.551c-0.276,0-0.5-0.224-0.5-0.5v-0.77c0-1.44,1.172-2.612,2.612-2.612h3.552
		c0.276,0,0.5,0.224,0.5,0.5s-0.224,0.5-0.5,0.5c-0.889,0-1.612,0.724-1.612,1.612v0.77C22.01,23.092,21.787,23.315,21.51,23.315z
		 M18.459,22.315h2.551v-0.27c0-0.607,0.209-1.168,0.558-1.612h-1.498c-0.889,0-1.612,0.724-1.612,1.612V22.315z"/>
	<path class="st1" d="M40.904,50.839h-3.552c-0.276,0-0.5-0.224-0.5-0.5v-3.613h-1.469c-1.44,0-2.612-1.172-2.612-2.612v-24.18
		c0-0.276,0.224-0.5,0.5-0.5h3.551c0.276,0,0.5,0.224,0.5,0.5v24.18c0,0.889,0.723,1.612,1.612,1.612h1.969
		c0.276,0,0.5,0.224,0.5,0.5v4.113C41.404,50.615,41.181,50.839,40.904,50.839z M37.853,49.839h2.552v-3.113h-1.469
		c-0.386,0-0.752-0.084-1.083-0.235V49.839z M33.771,20.434v23.68c0,0.889,0.723,1.612,1.612,1.612h1.498
		c-0.349-0.444-0.558-1.005-0.558-1.612v-23.68H33.771z"/>
	<path class="st1" d="M49.969,23.315h-3.552c-0.276,0-0.5-0.224-0.5-0.5v-8.977c0-0.276,0.224-0.5,0.5-0.5h3.552
		c0.276,0,0.5,0.224,0.5,0.5v8.977C50.469,23.092,50.245,23.315,49.969,23.315z M46.917,22.315h2.552v-7.977h-2.552V22.315z"/>
	<rect x="37.353" y="45.726" class="st1" width="3.552" height="1"/>
	<rect x="3.108" y="3.198" class="st10" width="7.642" height="7.642"/>
	<rect x="53.25" y="3.198" class="st10" width="7.642" height="7.642"/>
	<rect x="3.108" y="53.161" class="st10" width="7.642" height="7.642"/>
	<rect x="53.25" y="53.161" class="st10" width="7.642" height="7.642"/>
	<path class="st1" d="M10.75,11.339H3.108c-0.276,0-0.5-0.224-0.5-0.5V3.197c0-0.276,0.224-0.5,0.5-0.5h7.642
		c0.276,0,0.5,0.224,0.5,0.5v7.642C11.25,11.115,11.026,11.339,10.75,11.339z M3.608,10.339h6.642V3.697H3.608V10.339z"/>
	<path class="st1" d="M60.892,11.339H53.25c-0.276,0-0.5-0.224-0.5-0.5V3.197c0-0.276,0.224-0.5,0.5-0.5h7.642
		c0.276,0,0.5,0.224,0.5,0.5v7.642C61.392,11.115,61.168,11.339,60.892,11.339z M53.75,10.339h6.642V3.697H53.75V10.339z"/>
	<path class="st1" d="M10.75,61.303H3.108c-0.276,0-0.5-0.224-0.5-0.5v-7.642c0-0.276,0.224-0.5,0.5-0.5h7.642
		c0.276,0,0.5,0.224,0.5,0.5v7.642C11.25,61.079,11.026,61.303,10.75,61.303z M3.608,60.303h6.642v-6.642H3.608V60.303z"/>
	<path class="st1" d="M60.892,61.303H53.25c-0.276,0-0.5-0.224-0.5-0.5v-7.642c0-0.276,0.224-0.5,0.5-0.5h7.642
		c0.276,0,0.5,0.224,0.5,0.5v7.642C61.392,61.079,61.168,61.303,60.892,61.303z M53.75,60.303h6.642v-6.642H53.75V60.303z"/>
	<g>
		<rect x="10.75" y="56.481" class="st1" width="1" height="1"/>
		<path class="st1" d="M50.322,57.481h-1.929v-1h1.929V57.481z M46.464,57.481h-1.929v-1h1.929V57.481z M42.607,57.481h-1.929v-1
			h1.929V57.481z M38.75,57.481h-1.928v-1h1.928V57.481z M34.893,57.481h-1.929v-1h1.929V57.481z M31.036,57.481h-1.928v-1h1.928
			V57.481z M27.179,57.481H25.25v-1h1.929V57.481z M23.322,57.481h-1.929v-1h1.929V57.481z M19.464,57.481h-1.929v-1h1.929V57.481z
			 M15.607,57.481h-1.929v-1h1.929V57.481z"/>
		<rect x="52.25" y="56.481" class="st1" width="1" height="1"/>
	</g>
	<g>
		<rect x="10.75" y="6.519" class="st1" width="1" height="1"/>
		<path class="st1" d="M50.322,7.519h-1.929v-1h1.929V7.519z M46.464,7.519h-1.929v-1h1.929V7.519z M42.607,7.519h-1.929v-1h1.929
			V7.519z M38.75,7.519h-1.928v-1h1.928V7.519z M34.893,7.519h-1.929v-1h1.929V7.519z M31.036,7.519h-1.928v-1h1.928V7.519z
			 M27.179,7.519H25.25v-1h1.929V7.519z M23.322,7.519h-1.929v-1h1.929V7.519z M19.464,7.519h-1.929v-1h1.929V7.519z M15.607,7.519
			h-1.929v-1h1.929V7.519z"/>
		<rect x="52.25" y="6.519" class="st1" width="1" height="1"/>
	</g>
	<g>
		<rect x="56.481" y="52.25" class="st1" width="1" height="1"/>
		<path class="st1" d="M57.481,50.321h-1v-1.929h1V50.321z M57.481,46.464h-1v-1.929h1V46.464z M57.481,42.607h-1v-1.929h1V42.607z
			 M57.481,38.75h-1v-1.929h1V38.75z M57.481,34.893h-1v-1.929h1V34.893z M57.481,31.035h-1v-1.928h1V31.035z M57.481,27.179h-1
			V25.25h1V27.179z M57.481,23.321h-1v-1.929h1V23.321z M57.481,19.464h-1v-1.929h1V19.464z M57.481,15.607h-1v-1.929h1V15.607z"/>
		<rect x="56.481" y="10.75" class="st1" width="1" height="1"/>
	</g>
	<g>
		<rect x="6.519" y="52.25" class="st1" width="1" height="1"/>
		<path class="st1" d="M7.519,50.321h-1v-1.929h1V50.321z M7.519,46.464h-1v-1.929h1V46.464z M7.519,42.607h-1v-1.929h1V42.607z
			 M7.519,38.75h-1v-1.929h1V38.75z M7.519,34.893h-1v-1.929h1V34.893z M7.519,31.035h-1v-1.928h1V31.035z M7.519,27.179h-1V25.25h1
			V27.179z M7.519,23.321h-1v-1.929h1V23.321z M7.519,19.464h-1v-1.929h1V19.464z M7.519,15.607h-1v-1.929h1V15.607z"/>
		<rect x="6.519" y="10.75" class="st1" width="1" height="1"/>
	</g>
</g>
</svg>
