<?xml version="1.0" encoding="iso-8859-1"?>
<!-- Generator: Adobe Illustrator 22.0.1, SVG Export Plug-In . SVG Version: 6.00 Build 0)  -->
<svg version="1.1" id="Layer_1" xmlns="http://www.w3.org/2000/svg" xmlns:xlink="http://www.w3.org/1999/xlink" x="0px" y="0px"
	 viewBox="0 0 64 64" style="enable-background:new 0 0 64 64;" xml:space="preserve">
<style type="text/css">
	.st0{fill:#F8F3F3;}
	.st1{fill:#63312D;}
	.st2{fill:#E1DDDD;}
	.st3{fill:#84DBFF;}
	.st4{fill:#CAF4FF;}
	.st5{fill:#52BADB;}
	.st6{fill:#F9DD9D;}
	.st7{fill:#FFEECF;}
	.st8{fill:#EFC36A;}
	.st9{fill:#F7A085;}
	.st10{fill:#82D9FF;}
	.st11{fill:#F7DB9B;}
	.st12{fill:#F9A287;}
	.st13{fill:#FFC8BB;}
	.st14{fill:#52B8D9;}
	.st15{fill:#DB785A;}
	.st16{fill:#EDCB85;}
	.st17{fill:#DBAB56;}
	.st18{fill:#D3A553;}
	.st19{fill:#FFFFFF;}
</style>
<g>
	<path class="st15" d="M55.548,13.663h-6.466v0h2.687c1.657,0,3,1.343,3,3v25.378c0,1.657-1.343,3-3,3h-2.687v0h6.466
		c1.72,0,3.113-1.394,3.113-3.114V16.776C58.661,15.057,57.267,13.663,55.548,13.663z"/>
	<path class="st1" d="M55.548,45.541h-6.465v-1h6.465c1.441,0,2.614-1.172,2.614-2.613V16.776c0-1.441-1.172-2.613-2.614-2.613
		h-6.465v-1h6.465c1.993,0,3.614,1.621,3.614,3.613v25.151C59.162,43.92,57.541,45.541,55.548,45.541z"/>
	<path id="XMLID_17_" class="st12" d="M51.77,45.041H11.457c-1.657,0-3-1.343-3-3V16.663c0-1.657,1.343-3,3-3H51.77
		c1.657,0,3,1.343,3,3v25.378C54.77,43.698,53.427,45.041,51.77,45.041z"/>
	<path class="st13" d="M10.144,43.729V17.334c0-1.095,0.888-1.983,1.983-1.983h41.33c0.389,0,0.757,0.08,1.098,0.214
		c-0.439-1.112-1.518-1.902-2.786-1.902H11.457c-1.657,0-3,1.343-3,3v25.378c0,1.268,0.79,2.347,1.902,2.786
		C10.224,44.486,10.144,44.117,10.144,43.729z"/>
	<path class="st1" d="M51.77,45.541H11.457c-1.93,0-3.5-1.57-3.5-3.5V16.663c0-1.93,1.57-3.5,3.5-3.5H51.77c1.93,0,3.5,1.57,3.5,3.5
		v25.378C55.27,43.971,53.699,45.541,51.77,45.541z M11.457,14.163c-1.378,0-2.5,1.122-2.5,2.5v25.378c0,1.378,1.122,2.5,2.5,2.5
		H51.77c1.378,0,2.5-1.122,2.5-2.5V16.663c0-1.378-1.122-2.5-2.5-2.5H11.457z"/>
	<rect id="XMLID_15_" x="12.284" y="17.425" class="st0" width="38.918" height="24.068"/>
	<polygon class="st2" points="13.938,19.099 51.202,19.099 51.202,17.425 12.284,17.425 12.284,41.493 13.938,41.493 	"/>
	<path class="st1" d="M51.202,41.993H12.284c-0.276,0-0.5-0.224-0.5-0.5V17.425c0-0.276,0.224-0.5,0.5-0.5h38.918
		c0.276,0,0.5,0.224,0.5,0.5v24.068C51.702,41.77,51.479,41.993,51.202,41.993z M12.784,40.993h37.918V17.925H12.784V40.993z"/>
	<path class="st6" d="M49.086,45.044v1.7c0,1.98-1.61,3.59-3.6,3.59H6.676c-0.74,0-1.43-0.22-2-0.61h-0.01
		c-0.95-0.65-1.58-1.74-1.58-2.98v-1.7H49.086z"/>
	<path class="st7" d="M4.506,46.714v1.92c0,0.38,0.06,0.75,0.16,1.09c-0.95-0.65-1.58-1.74-1.58-2.98v-1.7h46v1.67H4.506z"/>
	<path class="st1" d="M45.489,50.837H6.678c-2.257,0-4.094-1.836-4.094-4.094v-1.703c0-0.276,0.224-0.5,0.5-0.5h45.998
		c0.276,0,0.5,0.224,0.5,0.5v1.703C49.583,49.001,47.746,50.837,45.489,50.837z M3.584,45.541v1.203
		c0,1.706,1.388,3.094,3.094,3.094h38.811c1.706,0,3.094-1.388,3.094-3.094v-1.203H3.584z"/>
	<path class="st8" d="M49.082,45.041v1.702c0,1.985-1.609,3.594-3.594,3.594h11.833c1.985,0,3.594-1.609,3.594-3.594v-1.702H49.082z
		"/>
	<path class="st1" d="M57.322,50.837H45.489c-0.276,0-0.5-0.224-0.5-0.5s0.224-0.5,0.5-0.5c1.706,0,3.094-1.388,3.094-3.094v-1.703
		c0-0.276,0.224-0.5,0.5-0.5h11.833c0.276,0,0.5,0.224,0.5,0.5v1.703C61.416,49.001,59.579,50.837,57.322,50.837z M48.167,49.837
		h9.155c1.706,0,3.094-1.388,3.094-3.094v-1.203H49.583v1.203C49.583,47.978,49.034,49.086,48.167,49.837z"/>
	<rect x="27.434" y="35.467" class="st9" width="8.358" height="2.403"/>
	<path class="st1" d="M35.792,38.371h-8.357c-0.276,0-0.5-0.224-0.5-0.5v-2.403c0-0.276,0.224-0.5,0.5-0.5h8.357
		c0.276,0,0.5,0.224,0.5,0.5v2.403C36.292,38.147,36.068,38.371,35.792,38.371z M27.935,37.371h7.357v-1.403h-7.357V37.371z"/>
	<polygon class="st0" points="31.613,25.61 27.817,32.341 29.604,35.467 31.613,35.467 33.623,35.467 35.409,32.341 	"/>
	<polygon class="st6" points="31.613,25.61 27.817,32.341 29.604,35.467 31.613,35.467 33.623,35.467 35.409,32.341 	"/>
	<path class="st1" d="M33.623,35.967h-4.02c-0.179,0-0.345-0.096-0.434-0.252l-1.786-3.126c-0.087-0.153-0.088-0.34-0.001-0.494
		l3.796-6.731c0.178-0.314,0.693-0.314,0.871,0l3.796,6.731c0.086,0.153,0.086,0.341-0.001,0.494l-1.786,3.126
		C33.968,35.871,33.802,35.967,33.623,35.967z M29.894,34.967h3.439l1.501-2.627l-3.221-5.711l-3.221,5.711L29.894,34.967z"/>
	<rect x="31.113" y="25.61" class="st1" width="1" height="5.279"/>
	<circle class="st0" cx="31.613" cy="32.045" r="1.044"/>
	<path class="st1" d="M31.613,33.589c-0.852,0-1.544-0.692-1.544-1.544s0.692-1.544,1.544-1.544s1.544,0.692,1.544,1.544
		S32.465,33.589,31.613,33.589z M31.613,31.501c-0.3,0-0.544,0.244-0.544,0.544s0.244,0.544,0.544,0.544s0.544-0.244,0.544-0.544
		S31.913,31.501,31.613,31.501z"/>
	<path class="st1" d="M44.496,35.039h-1c0-6.552-5.331-11.882-11.882-11.882c-6.552,0-11.883,5.331-11.883,11.882h-1
		c0-7.104,5.779-12.882,12.883-12.882S44.496,27.935,44.496,35.039z"/>
	<rect x="17.762" y="35.039" class="st10" width="2.938" height="2.938"/>
	<rect x="42.527" y="35.039" class="st10" width="2.938" height="2.938"/>
	<rect x="30.145" y="21.027" class="st10" width="2.938" height="2.938"/>
	<path class="st1" d="M20.699,38.476h-2.938c-0.276,0-0.5-0.224-0.5-0.5v-2.938c0-0.276,0.224-0.5,0.5-0.5h2.938
		c0.276,0,0.5,0.224,0.5,0.5v2.938C21.199,38.252,20.976,38.476,20.699,38.476z M18.262,37.476h1.938v-1.938h-1.938V37.476z"/>
	<path class="st1" d="M45.464,38.476h-2.938c-0.276,0-0.5-0.224-0.5-0.5v-2.938c0-0.276,0.224-0.5,0.5-0.5h2.938
		c0.276,0,0.5,0.224,0.5,0.5v2.938C45.964,38.252,45.741,38.476,45.464,38.476z M43.027,37.476h1.938v-1.938h-1.938V37.476z"/>
	<path class="st1" d="M33.082,24.464h-2.938c-0.276,0-0.5-0.224-0.5-0.5v-2.938c0-0.276,0.224-0.5,0.5-0.5h2.938
		c0.276,0,0.5,0.224,0.5,0.5v2.938C33.582,24.241,33.358,24.464,33.082,24.464z M30.645,23.464h1.938v-1.938h-1.938V23.464z"/>
	<rect x="33.082" y="21.996" class="st1" width="10.459" height="1"/>
	<rect x="19.685" y="21.996" class="st1" width="10.459" height="1"/>
	<circle class="st6" cx="45.01" cy="22.496" r="1.469"/>
	<circle class="st6" cx="18.216" cy="22.5" r="1.469"/>
	<path class="st1" d="M45.01,24.464c-1.085,0-1.969-0.883-1.969-1.969s0.883-1.969,1.969-1.969s1.969,0.883,1.969,1.969
		S46.096,24.464,45.01,24.464z M45.01,21.527c-0.534,0-0.969,0.435-0.969,0.969s0.435,0.969,0.969,0.969s0.969-0.435,0.969-0.969
		S45.544,21.527,45.01,21.527z"/>
	<path class="st1" d="M18.216,24.469c-1.085,0-1.969-0.883-1.969-1.969s0.883-1.969,1.969-1.969s1.969,0.883,1.969,1.969
		S19.302,24.469,18.216,24.469z M18.216,21.532c-0.534,0-0.969,0.435-0.969,0.969s0.435,0.969,0.969,0.969s0.969-0.435,0.969-0.969
		S18.75,21.532,18.216,21.532z"/>
</g>
</svg>
