<?xml version="1.0" encoding="iso-8859-1"?>
<!-- Generator: Adobe Illustrator 22.0.1, SVG Export Plug-In . SVG Version: 6.00 Build 0)  -->
<svg version="1.1" id="Layer_1" xmlns="http://www.w3.org/2000/svg" xmlns:xlink="http://www.w3.org/1999/xlink" x="0px" y="0px"
	 viewBox="0 0 64 64" style="enable-background:new 0 0 64 64;" xml:space="preserve">
<style type="text/css">
	.st0{fill:#F8F3F3;}
	.st1{fill:#63312D;}
	.st2{fill:#E1DDDD;}
	.st3{fill:#84DBFF;}
	.st4{fill:#CAF4FF;}
	.st5{fill:#52BADB;}
	.st6{fill:#F9DD9D;}
	.st7{fill:#FFEECF;}
	.st8{fill:#EFC36A;}
	.st9{fill:#F7A085;}
	.st10{fill:#82D9FF;}
	.st11{fill:#F7DB9B;}
	.st12{fill:#F9A287;}
	.st13{fill:#FFC8BB;}
	.st14{fill:#52B8D9;}
	.st15{fill:#DB785A;}
	.st16{fill:#EDCB85;}
	.st17{fill:#DBAB56;}
	.st18{fill:#D3A553;}
	.st19{fill:#FFFFFF;}
</style>
<g>
	<rect x="3.108" y="10.37" class="st10" width="48.678" height="39.362"/>
	<polygon class="st4" points="4.903,12.136 51.786,12.136 51.786,10.37 3.108,10.37 3.108,49.732 4.903,49.732 	"/>
	<rect x="3.108" y="19.084" class="st0" width="48.678" height="21.551"/>
	<path class="st1" d="M51.786,50.232H3.108c-0.276,0-0.5-0.224-0.5-0.5V10.37c0-0.276,0.224-0.5,0.5-0.5h48.678
		c0.276,0,0.5,0.224,0.5,0.5v39.362C52.286,50.008,52.063,50.232,51.786,50.232z M3.608,49.232h47.678V10.87H3.608V49.232z"/>
	<rect x="51.786" y="10.37" class="st14" width="4.839" height="39.362"/>
	<rect x="51.786" y="19.084" class="st2" width="4.839" height="21.551"/>
	<path class="st1" d="M56.625,50.232h-4.839c-0.276,0-0.5-0.224-0.5-0.5V10.37c0-0.276,0.224-0.5,0.5-0.5h4.839
		c0.276,0,0.5,0.224,0.5,0.5v39.362C57.125,50.008,56.901,50.232,56.625,50.232z M52.286,49.232h3.839V10.87h-3.839V49.232z"/>
	<rect x="3.109" y="18.584" class="st1" width="53.516" height="1"/>
	<rect x="3.109" y="40.136" class="st1" width="53.516" height="1"/>
	<polygon class="st12" points="31.997,29.86 23.438,24.919 23.438,34.802 	"/>
	<path class="st1" d="M23.438,35.302c-0.086,0-0.173-0.022-0.25-0.067c-0.154-0.089-0.25-0.254-0.25-0.433v-9.883
		c0-0.179,0.096-0.344,0.25-0.433c0.154-0.089,0.346-0.089,0.5,0l8.56,4.942c0.154,0.089,0.25,0.254,0.25,0.433
		s-0.096,0.344-0.25,0.433l-8.56,4.941C23.61,35.279,23.523,35.302,23.438,35.302z M23.938,25.785v8.151l7.06-4.075L23.938,25.785z"
		/>
	<rect x="6.25" y="44.636" class="st1" width="42.989" height="1"/>
	<rect x="8.507" y="43.072" class="st12" width="2.547" height="4.226"/>
	<path class="st1" d="M11.054,47.797H8.507c-0.276,0-0.5-0.224-0.5-0.5v-4.226c0-0.276,0.224-0.5,0.5-0.5h2.547
		c0.276,0,0.5,0.224,0.5,0.5v4.226C11.554,47.574,11.33,47.797,11.054,47.797z M9.007,46.797h1.547v-3.226H9.007V46.797z"/>
	<circle class="st11" cx="39.23" cy="14.527" r="1.491"/>
	<circle class="st11" cx="43.59" cy="14.527" r="1.491"/>
	<circle class="st12" cx="47.951" cy="14.527" r="1.491"/>
	<path class="st1" d="M48.698,37.731H6.25c-0.276,0-0.5-0.224-0.5-0.5V22.489c0-0.276,0.224-0.5,0.5-0.5h42.448
		c0.276,0,0.5,0.224,0.5,0.5v14.742C49.198,37.507,48.975,37.731,48.698,37.731z M6.75,36.731h41.448V22.989H6.75V36.731z"/>
	<path class="st11" d="M60.885,45.893l0.007-3.633l-2.553-0.576c-0.104-0.308-0.222-0.605-0.364-0.893l1.401-2.204l-2.566-2.571
		l-2.207,1.398c-0.288-0.142-0.585-0.261-0.892-0.366l-0.571-2.553h-3.633l-0.571,2.553c-0.29,0.099-0.572,0.208-0.846,0.341
		l-2.195-1.412l-2.585,2.552l1.387,2.216c-0.144,0.287-0.267,0.582-0.373,0.889l-2.555,0.557l-0.02,3.633l2.551,0.585
		c0.103,0.308,0.218,0.607,0.359,0.895l-1.409,2.198l2.557,2.58l2.213-1.39c0.287,0.144,0.583,0.265,0.89,0.371l0.561,2.555
		l3.633,0.013l0.58-2.552c0.308-0.104,0.606-0.22,0.894-0.361l2.201,1.405l2.576-2.562l-1.394-2.21
		c0.143-0.288,0.263-0.584,0.368-0.891L60.885,45.893z M51.321,47.77c-2.048,0-3.708-1.66-3.708-3.708s1.66-3.708,3.708-3.708
		s3.708,1.66,3.708,3.708S53.369,47.77,51.321,47.77z"/>
	<path class="st1" d="M53.105,54.13c-0.001,0-0.001,0-0.002,0l-3.633-0.013c-0.234-0.001-0.437-0.164-0.486-0.393l-0.503-2.286
		c-0.144-0.055-0.286-0.114-0.426-0.177l-1.981,1.244c-0.198,0.125-0.456,0.094-0.621-0.071l-2.557-2.581
		c-0.164-0.167-0.191-0.425-0.065-0.622l1.261-1.967c-0.059-0.136-0.116-0.279-0.171-0.43l-2.282-0.523
		c-0.229-0.052-0.39-0.256-0.389-0.49l0.02-3.633c0.001-0.234,0.165-0.436,0.394-0.486l2.287-0.498
		c0.056-0.146,0.115-0.287,0.179-0.426l-1.241-1.983c-0.124-0.198-0.094-0.457,0.072-0.621l2.585-2.552
		c0.167-0.165,0.426-0.192,0.622-0.064l1.965,1.265c0.124-0.054,0.25-0.104,0.377-0.151l0.511-2.284
		c0.052-0.228,0.254-0.391,0.488-0.391h3.633c0.234,0,0.437,0.163,0.488,0.391l0.51,2.284c0.149,0.056,0.292,0.114,0.429,0.175
		l1.975-1.251c0.195-0.125,0.456-0.098,0.621,0.069l2.566,2.571c0.166,0.166,0.194,0.424,0.068,0.621l-1.254,1.973
		c0.06,0.136,0.117,0.278,0.174,0.429l2.284,0.515c0.228,0.052,0.39,0.254,0.39,0.489l-0.007,3.633c0,0.234-0.163,0.437-0.392,0.487
		l-2.285,0.506c-0.055,0.145-0.113,0.287-0.176,0.427l1.247,1.979c0.125,0.198,0.096,0.456-0.07,0.621l-2.576,2.562
		c-0.166,0.165-0.423,0.193-0.622,0.067l-1.969-1.258c-0.136,0.06-0.279,0.117-0.43,0.172l-0.52,2.283
		C53.541,53.968,53.339,54.13,53.105,54.13z M49.875,53.118l2.832,0.01l0.491-2.162c0.038-0.17,0.163-0.308,0.328-0.363
		c0.287-0.096,0.564-0.204,0.833-0.336c0.158-0.076,0.343-0.066,0.49,0.027l1.862,1.189l2.008-1.997l-1.18-1.871
		c-0.093-0.147-0.103-0.333-0.025-0.489c0.133-0.268,0.245-0.544,0.344-0.831c0.057-0.165,0.194-0.288,0.364-0.326l2.163-0.479
		l0.005-2.832l-2.162-0.487c-0.169-0.039-0.307-0.162-0.363-0.327c-0.097-0.287-0.206-0.563-0.339-0.832
		c-0.077-0.157-0.067-0.342,0.026-0.49l1.187-1.865l-2.001-2.004l-1.867,1.184c-0.147,0.094-0.333,0.104-0.489,0.026
		c-0.269-0.133-0.546-0.243-0.832-0.341c-0.165-0.056-0.289-0.194-0.327-0.364l-0.482-2.162h-2.832l-0.483,2.163
		c-0.038,0.169-0.162,0.308-0.326,0.364c-0.271,0.092-0.534,0.194-0.789,0.318c-0.157,0.078-0.343,0.065-0.489-0.029l-1.857-1.196
		l-2.015,1.989l1.174,1.876c0.093,0.147,0.102,0.333,0.023,0.489c-0.134,0.268-0.249,0.543-0.348,0.829
		c-0.058,0.165-0.196,0.288-0.366,0.325l-2.164,0.471l-0.016,2.832l2.161,0.495c0.171,0.039,0.308,0.164,0.363,0.33
		c0.096,0.287,0.202,0.565,0.333,0.834c0.076,0.157,0.065,0.342-0.028,0.489l-1.192,1.86l1.993,2.011l1.874-1.177
		c0.147-0.092,0.333-0.101,0.488-0.024c0.27,0.134,0.544,0.247,0.83,0.346c0.165,0.057,0.288,0.195,0.325,0.365L49.875,53.118z"/>
	<circle class="st0" cx="51.321" cy="44.062" r="3.708"/>
	<path class="st1" d="M51.321,48.271c-2.321,0-4.209-1.888-4.209-4.208s1.888-4.208,4.209-4.208c2.32,0,4.208,1.888,4.208,4.208
		S53.642,48.271,51.321,48.271z M51.321,40.854c-1.77,0-3.209,1.439-3.209,3.208s1.439,3.208,3.209,3.208
		c1.769,0,3.208-1.439,3.208-3.208S53.09,40.854,51.321,40.854z"/>
</g>
</svg>
