<?xml version="1.0" encoding="iso-8859-1"?>
<!-- Generator: Adobe Illustrator 22.0.1, SVG Export Plug-In . SVG Version: 6.00 Build 0)  -->
<svg version="1.1" id="Layer_1" xmlns="http://www.w3.org/2000/svg" xmlns:xlink="http://www.w3.org/1999/xlink" x="0px" y="0px"
	 viewBox="0 0 64 64" style="enable-background:new 0 0 64 64;" xml:space="preserve">
<style type="text/css">
	.st0{fill:#F8F3F3;}
	.st1{fill:#63312D;}
	.st2{fill:#E1DDDD;}
	.st3{fill:#84DBFF;}
	.st4{fill:#CAF4FF;}
	.st5{fill:#52BADB;}
	.st6{fill:#F9DD9D;}
	.st7{fill:#FFEECF;}
	.st8{fill:#EFC36A;}
	.st9{fill:#F7A085;}
	.st10{fill:#82D9FF;}
	.st11{fill:#F7DB9B;}
	.st12{fill:#F9A287;}
	.st13{fill:#FFC8BB;}
	.st14{fill:#52B8D9;}
	.st15{fill:#DB785A;}
	.st16{fill:#EDCB85;}
	.st17{fill:#DBAB56;}
	.st18{fill:#D3A553;}
	.st19{fill:#FFFFFF;}
</style>
<g>
	<path class="st15" d="M52.486,12.419h-3.534c0.158,0.001,0.316,0.018,0.466,0.044c0.109,0.018,0.219,0.036,0.328,0.073
		c0.1,0.027,0.2,0.064,0.292,0.109c0.692,0.31,1.23,0.893,1.485,1.613c0.091,0.273,0.146,0.583,0.146,0.893v29.9
		c0,1.512-1.221,2.733-2.733,2.733h-3.228v0.002h6.78c1.803,0,3.265-1.462,3.265-3.265V15.684
		C55.751,13.881,54.289,12.419,52.486,12.419z"/>
	<path class="st1" d="M52.486,48.286h-6.779v-1h6.779c1.525,0,2.765-1.24,2.765-2.765V15.684c0-1.524-1.24-2.765-2.765-2.765h-6.779
		v-1h6.779c2.076,0,3.765,1.689,3.765,3.765v28.838C56.251,46.597,54.562,48.286,52.486,48.286z"/>
	<path class="st12" d="M51.522,14.258c-0.255-0.72-0.793-1.303-1.485-1.613c-0.091-0.046-0.191-0.082-0.292-0.109
		c-0.109-0.036-0.219-0.055-0.328-0.073c-0.155-0.027-0.319-0.046-0.483-0.046H5.842c-1.512,0-2.733,1.221-2.733,2.733v29.9
		c0,0.091,0.009,0.191,0.018,0.282c0.009,0.128,0.027,0.255,0.064,0.383c0.046,0.21,0.128,0.41,0.228,0.592
		c0.128,0.255,0.301,0.483,0.501,0.674c0.141,0.143,0.3,0.265,0.468,0.373c0.029,0.018,0.06,0.032,0.089,0.049
		c0.16,0.094,0.33,0.17,0.509,0.23c0.003,0.001,0.006,0.003,0.008,0.004c0,0,0-0.001,0-0.001c0.267,0.088,0.548,0.147,0.848,0.147
		h43.092c1.512,0,2.733-1.221,2.733-2.733v-29.9C51.668,14.841,51.613,14.531,51.522,14.258z"/>
	<path class="st13" d="M51.522,14.258c-0.255-0.064-0.574-0.1-0.847-0.1H6.48c-0.902,0-1.64,0.729-1.64,1.631v31.003
		c0,0.301,0.064,0.583,0.155,0.847c-0.41-0.128-0.783-0.355-1.075-0.656c-0.2-0.2-0.374-0.419-0.501-0.674
		c-0.1-0.182-0.173-0.383-0.228-0.592c-0.036-0.128-0.055-0.255-0.064-0.383c-0.009-0.091-0.018-0.191-0.018-0.282v-29.9
		c0-1.512,1.221-2.733,2.733-2.733h43.092c0.164,0,0.328,0.018,0.483,0.046c0.109,0.018,0.219,0.036,0.328,0.073
		c0.1,0.027,0.2,0.064,0.292,0.109C50.729,12.955,51.267,13.538,51.522,14.258z"/>
	<path class="st1" d="M48.937,48.286H5.841c-1.783,0-3.233-1.45-3.233-3.233V15.152c0-1.783,1.451-3.233,3.233-3.233h43.096
		c1.783,0,3.233,1.45,3.233,3.233v29.901C52.17,46.836,50.72,48.286,48.937,48.286z M5.841,12.919c-1.231,0-2.233,1.001-2.233,2.233
		v29.901c0,1.231,1.002,2.233,2.233,2.233h43.096c1.231,0,2.233-1.001,2.233-2.233V15.152c0-1.231-1.001-2.233-2.233-2.233H5.841z"
		/>
	<rect id="XMLID_302_" x="7.121" y="16.364" class="st0" width="40.808" height="25.237"/>
	<polygon class="st2" points="8.855,18.119 47.929,18.119 47.929,16.364 7.121,16.364 7.121,41.601 8.855,41.601 	"/>
	<path class="st1" d="M47.929,42.101H7.121c-0.276,0-0.5-0.224-0.5-0.5V16.364c0-0.276,0.224-0.5,0.5-0.5h40.809
		c0.276,0,0.5,0.224,0.5,0.5v25.237C48.429,41.877,48.206,42.101,47.929,42.101z M7.621,41.101h39.809V16.864H7.621V41.101z"/>
	<rect id="XMLID_300_" x="23.437" y="47.786" class="st11" width="10.247" height="6.937"/>
	<rect id="XMLID_299_" x="23.437" y="47.786" class="st16" width="10.247" height="1.781"/>
	<rect x="29.916" y="47.789" class="st8" width="3.772" height="6.932"/>
	<rect x="29.916" y="47.789" class="st17" width="3.772" height="1.781"/>
	<path class="st1" d="M33.685,55.224H23.438c-0.276,0-0.5-0.224-0.5-0.5v-6.938c0-0.276,0.224-0.5,0.5-0.5h10.247
		c0.276,0,0.5,0.224,0.5,0.5v6.938C34.185,55,33.961,55.224,33.685,55.224z M23.938,54.224h9.247v-5.938h-9.247V54.224z"/>
	<rect x="29.419" y="47.786" class="st1" width="1" height="6.938"/>
	<path class="st12" d="M38.011,56.02c-0.155-0.519-0.528-0.929-1.011-1.148c-0.137-0.064-0.292-0.1-0.437-0.118
		c-0.1-0.018-0.191-0.027-0.292-0.027H18.15c-1.011,0-1.822,0.811-1.822,1.822v2.123h21.765v-2.123
		C38.093,56.366,38.066,56.184,38.011,56.02z"/>
	<path class="st13" d="M38.011,56.02H18.46c-0.437,0-0.784,0.346-0.784,0.774v1.877h-1.348v-2.123c0-1.011,0.811-1.822,1.822-1.822
		h18.121c0.1,0,0.191,0.009,0.292,0.027c0.146,0.018,0.301,0.055,0.437,0.118C37.483,55.091,37.856,55.501,38.011,56.02z"/>
	<path class="st1" d="M38.089,59.168H16.324c-0.276,0-0.5-0.224-0.5-0.5v-2.123c0-1.28,1.042-2.322,2.322-2.322h18.121
		c1.28,0,2.322,1.042,2.322,2.322v2.123C38.589,58.945,38.365,59.168,38.089,59.168z M16.824,58.168h20.765v-1.623
		c0-0.729-0.593-1.322-1.322-1.322H18.146c-0.729,0-1.322,0.593-1.322,1.322V58.168z"/>
	<path class="st15" d="M38.977,54.724h-2.71c1.006,0,1.822,0.816,1.822,1.822v2.123h2.71v-2.123
		C40.799,55.539,39.983,54.724,38.977,54.724z"/>
	<path class="st1" d="M40.799,59.168h-2.71c-0.276,0-0.5-0.224-0.5-0.5v-2.123c0-0.729-0.593-1.322-1.322-1.322
		c-0.276,0-0.5-0.224-0.5-0.5s0.224-0.5,0.5-0.5h2.709c1.28,0,2.322,1.042,2.322,2.322v2.123
		C41.299,58.945,41.075,59.168,40.799,59.168z M38.589,58.168h1.71v-1.623c0-0.729-0.593-1.322-1.322-1.322h-0.802
		c0.261,0.375,0.414,0.832,0.414,1.322V58.168z"/>
	<path class="st10" d="M40.804,27.721c2.601-1.687,6.285-4.779,10.099-8.594c6.483-6.483,10.886-12.591,9.834-13.643
		c-1.052-1.052-7.16,3.351-13.643,9.834c-3.814,3.814-6.907,7.498-8.594,10.099L40.804,27.721z"/>
	<path class="st1" d="M40.804,28.221c-0.129,0-0.257-0.05-0.354-0.146l-2.304-2.304c-0.167-0.167-0.194-0.428-0.066-0.625
		c1.781-2.748,4.938-6.459,8.66-10.181c3.153-3.154,6.321-5.922,8.919-7.794c3.89-2.805,4.962-2.507,5.431-2.039
		c0.468,0.468,0.765,1.54-2.04,5.431c-1.873,2.598-4.641,5.766-7.794,8.919c-3.721,3.721-7.432,6.877-10.181,8.659
		C40.993,28.194,40.898,28.221,40.804,28.221z M39.143,25.352l1.727,1.727c2.656-1.78,6.158-4.782,9.68-8.305
		C57.823,11.5,60.771,6.555,60.377,5.83c-0.706-0.379-5.655,2.567-12.929,9.842C43.924,19.195,40.922,22.696,39.143,25.352z"/>
	<path class="st11" d="M31.74,29.678c-0.135,0.686-0.251,1.377-0.517,2.038c-0.524,1.3-1.34,2.493-2.502,3.302
		c-0.064,0.045-0.129,0.088-0.195,0.13c0,0,6.896,2.835,11.149-2.031c1.799-1.799,1.799-4.715,0-6.513s-4.715-1.799-6.513,0
		c-0.44,0.44-0.787,0.969-1.014,1.548C31.953,28.647,31.841,29.16,31.74,29.678z"/>
	<path class="st1" d="M33.045,36.456c-2.597,0-4.67-0.83-4.709-0.846c-0.173-0.071-0.292-0.232-0.308-0.418
		c-0.017-0.186,0.072-0.366,0.229-0.466l0.178-0.119c0.984-0.686,1.788-1.75,2.323-3.079c0.219-0.542,0.329-1.112,0.446-1.715
		l0.045-0.232c0.102-0.517,0.218-1.066,0.433-1.612c0.25-0.638,0.64-1.232,1.126-1.719c1.99-1.99,5.229-1.99,7.221,0
		c1.99,1.991,1.99,5.23,0,7.221C37.973,35.825,35.31,36.456,33.045,36.456z M29.589,34.97c1.925,0.54,6.611,1.364,9.71-2.182
		c1.624-1.625,1.624-4.23,0.023-5.831c-1.601-1.601-4.205-1.6-5.807,0c-0.39,0.39-0.702,0.866-0.902,1.377
		c-0.184,0.469-0.29,0.968-0.382,1.439c0,0,0,0,0,0l-0.045,0.229c-0.12,0.623-0.245,1.268-0.5,1.899
		C31.185,33.147,30.467,34.194,29.589,34.97z"/>
	
		<rect x="43.778" y="19.256" transform="matrix(0.7071 -0.7071 0.7071 0.7071 -2.5652 37.7435)" class="st1" width="1" height="5.425"/>
	<rect x="11.584" y="20.732" class="st10" width="8.417" height="16.5"/>
	<rect x="22.667" y="21.174" class="st1" width="13.6" height="1"/>
	<rect x="22.667" y="24.818" class="st1" width="8.167" height="1"/>
	<rect x="22.667" y="28.462" class="st1" width="6.8" height="1"/>
	<rect x="22.667" y="32.106" class="st1" width="5.869" height="1"/>
	<rect x="22.667" y="35.75" class="st1" width="4.083" height="1"/>
</g>
</svg>
