<?xml version="1.0" encoding="iso-8859-1"?>
<!-- Generator: Adobe Illustrator 22.0.1, SVG Export Plug-In . SVG Version: 6.00 Build 0)  -->
<svg version="1.1" id="Layer_1" xmlns="http://www.w3.org/2000/svg" xmlns:xlink="http://www.w3.org/1999/xlink" x="0px" y="0px"
	 viewBox="0 0 64 64" style="enable-background:new 0 0 64 64;" xml:space="preserve">
<style type="text/css">
	.st0{fill:#F8F3F3;}
	.st1{fill:#63312D;}
	.st2{fill:#E1DDDD;}
	.st3{fill:#84DBFF;}
	.st4{fill:#CAF4FF;}
	.st5{fill:#52BADB;}
	.st6{fill:#F9DD9D;}
	.st7{fill:#FFEECF;}
	.st8{fill:#EFC36A;}
	.st9{fill:#F7A085;}
	.st10{fill:#82D9FF;}
	.st11{fill:#F7DB9B;}
	.st12{fill:#F9A287;}
	.st13{fill:#FFC8BB;}
	.st14{fill:#52B8D9;}
	.st15{fill:#DB785A;}
	.st16{fill:#EDCB85;}
	.st17{fill:#DBAB56;}
	.st18{fill:#D3A553;}
	.st19{fill:#FFFFFF;}
</style>
<g>
	<rect x="8.138" y="3.108" class="st0" width="44.302" height="57.783"/>
	<path class="st1" d="M52.439,61.392H8.138c-0.276,0-0.5-0.224-0.5-0.5V3.108c0-0.276,0.224-0.5,0.5-0.5h44.302
		c0.276,0,0.5,0.224,0.5,0.5v57.783C52.939,61.168,52.716,61.392,52.439,61.392z M8.638,60.392h43.302V3.608H8.638V60.392z"/>
	<rect x="52.44" y="3.108" class="st14" width="3.423" height="57.783"/>
	<path class="st1" d="M55.862,61.392h-3.423c-0.276,0-0.5-0.224-0.5-0.5V3.108c0-0.276,0.224-0.5,0.5-0.5h3.423
		c0.276,0,0.5,0.224,0.5,0.5v57.783C56.362,61.168,56.139,61.392,55.862,61.392z M52.939,60.392h2.423V3.608h-2.423V60.392z"/>
	<rect x="14.414" y="8.934" class="st12" width="32.361" height="8.56"/>
	<rect x="14.414" y="20.369" class="st4" width="11.979" height="12.5"/>
	<path class="st1" d="M26.394,33.369H14.415c-0.276,0-0.5-0.224-0.5-0.5v-12.5c0-0.276,0.224-0.5,0.5-0.5h11.979
		c0.276,0,0.5,0.224,0.5,0.5v12.5C26.894,33.146,26.67,33.369,26.394,33.369z M14.915,32.369h10.979v-11.5H14.915V32.369z"/>
	<rect x="28.477" y="20.619" class="st1" width="18.298" height="1"/>
	<rect x="28.477" y="24.244" class="st1" width="18.298" height="1"/>
	<rect x="28.477" y="27.869" class="st1" width="18.298" height="1"/>
	<rect x="28.477" y="31.494" class="st1" width="18.298" height="1"/>
	<rect x="14.154" y="42.661" class="st1" width="18.299" height="1"/>
	<rect x="14.154" y="46.286" class="st1" width="18.299" height="1"/>
	<rect x="14.154" y="49.911" class="st1" width="18.299" height="1"/>
	<rect x="14.154" y="53.536" class="st1" width="18.299" height="1"/>
	
		<rect x="11.747" y="26.119" transform="matrix(0.6923 -0.7216 0.7216 0.6923 -12.9303 22.9141)" class="st1" width="17.313" height="1"/>
	
		<rect x="19.904" y="17.962" transform="matrix(0.7235 -0.6903 0.6903 0.7235 -12.7341 21.4452)" class="st1" width="1" height="17.313"/>
	<rect x="34.796" y="42.624" class="st4" width="11.979" height="12.5"/>
	<path class="st1" d="M46.775,55.624H34.796c-0.276,0-0.5-0.224-0.5-0.5v-12.5c0-0.276,0.224-0.5,0.5-0.5h11.979
		c0.276,0,0.5,0.224,0.5,0.5v12.5C47.275,55.4,47.052,55.624,46.775,55.624z M35.296,54.624h10.979v-11.5H35.296V54.624z"/>
	
		<rect x="32.129" y="48.373" transform="matrix(0.6918 -0.7221 0.7221 0.6918 -22.7208 44.5119)" class="st1" width="17.314" height="1.001"/>
	
		<rect x="40.286" y="40.217" transform="matrix(0.7235 -0.6903 0.6903 0.7235 -22.4614 41.6693)" class="st1" width="0.999" height="17.314"/>
	<rect x="14.154" y="35.213" class="st1" width="32.622" height="1"/>
	<rect x="14.154" y="38.932" class="st1" width="32.622" height="1"/>
</g>
</svg>
